999
dxflib 2.2.0.0
  0
SECTION
  2
HEADER
  9
$ACADVER
  1
AC1015
  9
$HANDSEED
  5
FFFF
  9
$SPLINESEGS
 70
8
  9
$DIMEXE
 40
1.25
  9
$DIMAZIN
 70
8
  9
$DIMZIN
 70
8
  9
$DIMLUNIT
 70
2
  9
$GRIDMODE
 70
1
  9
$INSUNITS
 70
1
  9
$DIMADEC
 70
2
  9
$DIMASZ
 40
2.5
  9
$DIMGAP
 40
0.625
  9
$DIMTXT
 40
2.5
  9
$GRIDUNIT
 10
0.0
 20
0.0
  9
$DIMEXO
 40
0.625
  9
$LUPREC
 70
4
  9
$DIMAUNIT
 70
0
  9
$AUPREC
 70
2
  9
$PLIMMIN
 10
0.0
 20
0.0
  9
$LUNITS
 70
2
  9
$PLIMMAX
 10
8.2677165354330722
 20
11.6929133858267722
  9
$DIMBLK
  1

  9
$AUNITS
 70
0
  9
$CLAYER
  8
0
  0
ENDSEC
  0
SECTION
  2
TABLES
  0
TABLE
  2
VPORT
  5
8
100
AcDbSymbolTable
 70
1
  0
VPORT
  5
30
100
AcDbSymbolTableRecord
100
AcDbViewportTableRecord
  2
*Active
 70
0
 10
0.0
 20
0.0
 11
1.0
 21
1.0
 12
286.3055555555554861
 22
148.5
 13
0.0
 23
0.0
 14
10.0
 24
10.0
 15
10.0
 25
10.0
 16
0.0
 26
0.0
 36
1.0
 17
0.0
 27
0.0
 37
0.0
 40
297.0
 41
1.92798353909465
 42
50.0
 43
0.0
 44
0.0
 50
0.0
 51
0.0
 71
0
 72
100
 73
1
 74
3
 75
1
 76
1
 77
0
 78
0
281
0
 65
1
110
0.0
120
0.0
130
0.0
111
1.0
121
0.0
131
0.0
112
0.0
122
1.0
132
0.0
 79
0
146
0.0
  0
ENDTAB
  0
TABLE
  2
LTYPE
  5
5
100
AcDbSymbolTable
 70
21
  0
LTYPE
  5
14
100
AcDbSymbolTableRecord
100
AcDbLinetypeTableRecord
  2
ByBlock
 70
0
  3

 72
65
 73
0
 40
0.0
  0
LTYPE
  5
15
100
AcDbSymbolTableRecord
100
AcDbLinetypeTableRecord
  2
ByLayer
 70
0
  3

 72
65
 73
0
 40
0.0
  0
LTYPE
  5
16
100
AcDbSymbolTableRecord
100
AcDbLinetypeTableRecord
  2
CONTINUOUS
 70
0
  3
Solid line
 72
65
 73
0
 40
0.0
  0
LTYPE
  5
31
100
AcDbSymbolTableRecord
100
AcDbLinetypeTableRecord
  2
DOT
 70
0
  3
Dot . . . . . . . . . . . . . . . . . . . . . .
 72
65
 73
2
 40
6.3499999999999996
 49
0.0
 74
0
 49
-6.3499999999999996
 74
0
  0
LTYPE
  5
32
100
AcDbSymbolTableRecord
100
AcDbLinetypeTableRecord
  2
DOT2
 70
0
  3
Dot (.5x) .....................................
 72
65
 73
2
 40
3.1749999999999998
 49
0.0
 74
0
 49
-3.1749999999999998
 74
0
  0
LTYPE
  5
33
100
AcDbSymbolTableRecord
100
AcDbLinetypeTableRecord
  2
DOTX2
 70
0
  3
Dot (2x) .  .  .  .  .  .  .  .  .  .  .  .  .
 72
65
 73
2
 40
12.6999999999999993
 49
0.0
 74
0
 49
-12.6999999999999993
 74
0
  0
LTYPE
  5
34
100
AcDbSymbolTableRecord
100
AcDbLinetypeTableRecord
  2
DASHED
 70
0
  3
Dashed __ __ __ __ __ __ __ __ __ __ __ __ __ _
 72
65
 73
2
 40
19.0500000000000007
 49
12.6999999999999993
 74
0
 49
-6.3499999999999996
 74
0
  0
LTYPE
  5
35
100
AcDbSymbolTableRecord
100
AcDbLinetypeTableRecord
  2
DASHED2
 70
0
  3
Dashed (.5x) _ _ _ _ _ _ _ _ _ _ _ _ _ _ _ _ _
 72
65
 73
2
 40
9.5250000000000004
 49
6.3499999999999996
 74
0
 49
-3.1749999999999998
 74
0
  0
LTYPE
  5
36
100
AcDbSymbolTableRecord
100
AcDbLinetypeTableRecord
  2
DASHEDX2
 70
0
  3
Dashed (2x) ____  ____  ____  ____  ____  ___
 72
65
 73
2
 40
38.1000000000000014
 49
25.3999999999999986
 74
0
 49
-12.6999999999999993
 74
0
  0
LTYPE
  5
37
100
AcDbSymbolTableRecord
100
AcDbLinetypeTableRecord
  2
DASHDOT
 70
0
  3
Dash dot __ . __ . __ . __ . __ . __ . __ . __
 72
65
 73
4
 40
25.3999999999999986
 49
12.6999999999999993
 74
0
 49
-6.3499999999999996
 74
0
 49
0.0
 74
0
 49
-6.3499999999999996
 74
0
  0
LTYPE
  5
38
100
AcDbSymbolTableRecord
100
AcDbLinetypeTableRecord
  2
DASHDOT2
 70
0
  3
Dash dot (.5x) _._._._._._._._._._._._._._._.
 72
65
 73
4
 40
12.6999999999999993
 49
6.3499999999999996
 74
0
 49
-3.1749999999999998
 74
0
 49
0.0
 74
0
 49
-3.1749999999999998
 74
0
  0
LTYPE
  5
39
100
AcDbSymbolTableRecord
100
AcDbLinetypeTableRecord
  2
DASHDOTX2
 70
0
  3
Dash dot (2x) ____  .  ____  .  ____  .  ___
 72
65
 73
4
 40
50.7999999999999972
 49
25.3999999999999986
 74
0
 49
-12.6999999999999993
 74
0
 49
0.0
 74
0
 49
-12.6999999999999993
 74
0
  0
LTYPE
  5
3A
100
AcDbSymbolTableRecord
100
AcDbLinetypeTableRecord
  2
DIVIDE
 70
0
  3
Divide ____ . . ____ . . ____ . . ____ . . ____
 72
65
 73
6
 40
31.75
 49
12.6999999999999993
 74
0
 49
-6.3499999999999996
 74
0
 49
0.0
 74
0
 49
-6.3499999999999996
 74
0
 49
0.0
 74
0
 49
-6.3499999999999996
 74
0
  0
LTYPE
  5
3B
100
AcDbSymbolTableRecord
100
AcDbLinetypeTableRecord
  2
DIVIDE2
 70
0
  3
Divide (.5x) __..__..__..__..__..__..__..__.._
 72
65
 73
6
 40
15.875
 49
6.3499999999999996
 74
0
 49
-3.1749999999999998
 74
0
 49
0.0
 74
0
 49
-3.1749999999999998
 74
0
 49
0.0
 74
0
 49
-3.1749999999999998
 74
0
  0
LTYPE
  5
3C
100
AcDbSymbolTableRecord
100
AcDbLinetypeTableRecord
  2
DIVIDEX2
 70
0
  3
Divide (2x) ________  .  .  ________  .  .  _
 72
65
 73
6
 40
63.5
 49
25.3999999999999986
 74
0
 49
-12.6999999999999993
 74
0
 49
0.0
 74
0
 49
-12.6999999999999993
 74
0
 49
0.0
 74
0
 49
-12.6999999999999993
 74
0
  0
LTYPE
  5
3D
100
AcDbSymbolTableRecord
100
AcDbLinetypeTableRecord
  2
CENTER
 70
0
  3
Center ____ _ ____ _ ____ _ ____ _ ____ _ ____
 72
65
 73
4
 40
50.7999999999999972
 49
31.75
 74
0
 49
-6.3499999999999996
 74
0
 49
6.3499999999999996
 74
0
 49
-6.3499999999999996
 74
0
  0
LTYPE
  5
3E
100
AcDbSymbolTableRecord
100
AcDbLinetypeTableRecord
  2
CENTER2
 70
0
  3
Center (.5x) ___ _ ___ _ ___ _ ___ _ ___ _ ___
 72
65
 73
4
 40
28.5749999999999993
 49
19.0500000000000007
 74
0
 49
-3.1749999999999998
 74
0
 49
3.1749999999999998
 74
0
 49
-3.1749999999999998
 74
0
  0
LTYPE
  5
3F
100
AcDbSymbolTableRecord
100
AcDbLinetypeTableRecord
  2
CENTERX2
 70
0
  3
Center (2x) ________  __  ________  __  _____
 72
65
 73
4
 40
101.5999999999999943
 49
63.5
 74
0
 49
-12.6999999999999993
 74
0
 49
12.6999999999999993
 74
0
 49
-12.6999999999999993
 74
0
  0
LTYPE
  5
40
100
AcDbSymbolTableRecord
100
AcDbLinetypeTableRecord
  2
BORDER
 70
0
  3
Border __ __ . __ __ . __ __ . __ __ . __ __ .
 72
65
 73
6
 40
44.4500000000000028
 49
12.6999999999999993
 74
0
 49
-6.3499999999999996
 74
0
 49
12.6999999999999993
 74
0
 49
-6.3499999999999996
 74
0
 49
0.0
 74
0
 49
-6.3499999999999996
 74
0
  0
LTYPE
  5
41
100
AcDbSymbolTableRecord
100
AcDbLinetypeTableRecord
  2
BORDER2
 70
0
  3
Border (.5x) __.__.__.__.__.__.__.__.__.__.__.
 72
65
 73
6
 40
22.2250000000000014
 49
6.3499999999999996
 74
0
 49
-3.1749999999999998
 74
0
 49
6.3499999999999996
 74
0
 49
-3.1749999999999998
 74
0
 49
0.0
 74
0
 49
-3.1749999999999998
 74
0
  0
LTYPE
  5
42
100
AcDbSymbolTableRecord
100
AcDbLinetypeTableRecord
  2
BORDERX2
 70
0
  3
Border (2x) ____  ____  .  ____  ____  .  ___
 72
65
 73
6
 40
88.9000000000000057
 49
25.3999999999999986
 74
0
 49
-12.6999999999999993
 74
0
 49
25.3999999999999986
 74
0
 49
-12.6999999999999993
 74
0
 49
0.0
 74
0
 49
-12.6999999999999993
 74
0
  0
ENDTAB
  0
TABLE
  2
LAYER
  5
2
100
AcDbSymbolTable
 70
2
  0
LAYER
  5
10
100
AcDbSymbolTableRecord
100
AcDbLayerTableRecord
  2
0
 70
0
 62
7
420
0
  6
CONTINUOUS
370
25
390
F
  0
LAYER
  5
43
100
AcDbSymbolTableRecord
100
AcDbLayerTableRecord
  2
CUT_SHEET_3b
 70
0
 62
7
420
0
  6
CONTINUOUS
370
0
390
F
  0
ENDTAB
  0
TABLE
  2
STYLE
  5
3
100
AcDbSymbolTable
 70
1
  0
STYLE
  5
11
100
AcDbSymbolTableRecord
100
AcDbTextStyleTableRecord
  2
Standard
 70
0
 40
0.0
 41
0.75
 50
0.0
 71
0
 42
2.5
  3
txt
  4

  0
ENDTAB
  0
TABLE
  2
VIEW
  5
6
100
AcDbSymbolTable
 70
0
  0
ENDTAB
  0
TABLE
  2
UCS
  5
7
100
AcDbSymbolTable
 70
0
  0
ENDTAB
  0
TABLE
  2
APPID
  5
9
100
AcDbSymbolTable
 70
1
  0
APPID
  5
12
100
AcDbSymbolTableRecord
100
AcDbRegAppTableRecord
  2
ACAD
 70
0
  0
ENDTAB
  0
TABLE
  2
DIMSTYLE
  5
A
100
AcDbSymbolTable
 70
1
100
AcDbDimStyleTable
 71
0
  0
DIMSTYLE
105
27
100
AcDbSymbolTableRecord
100
AcDbDimStyleTableRecord
  2
Standard
 41
2.5
 42
0.625
 43
3.75
 44
1.25
 70
0
 73
0
 74
0
 77
1
 78
8
140
2.5
141
2.5
143
0.03937007874016
147
0.625
171
3
172
1
271
2
272
2
274
3
278
44
283
0
284
8
340
11
  0
ENDTAB
  0
TABLE
  2
BLOCK_RECORD
  5
1
100
AcDbSymbolTable
 70
1
  0
BLOCK_RECORD
  5
1F
100
AcDbSymbolTableRecord
100
AcDbBlockTableRecord
  2
*Model_Space
340
22
  0
BLOCK_RECORD
  5
1B
100
AcDbSymbolTableRecord
100
AcDbBlockTableRecord
  2
*Paper_Space
340
1E
  0
BLOCK_RECORD
  5
23
100
AcDbSymbolTableRecord
100
AcDbBlockTableRecord
  2
*Paper_Space0
340
26
  0
BLOCK_RECORD
  5
44
100
AcDbSymbolTableRecord
100
AcDbBlockTableRecord
  2
BORDER
340
0
  0
BLOCK_RECORD
  5
45
100
AcDbSymbolTableRecord
100
AcDbBlockTableRecord
  2
frag
340
0
  0
ENDTAB
  0
ENDSEC
  0
SECTION
  2
BLOCKS
  0
BLOCK
  5
20
100
AcDbEntity
  8
0
100
AcDbBlockBegin
  2
*Model_Space
 70
0
 10
0.0
 20
0.0
 30
0.0
  3
*Model_Space
  1

  0
ENDBLK
  5
21
100
AcDbEntity
  8
0
100
AcDbBlockEnd
  0
BLOCK
  5
1C
100
AcDbEntity
 67
1
  8
0
100
AcDbBlockBegin
  2
*Paper_Space
 70
0
 10
0.0
 20
0.0
 30
0.0
  3
*Paper_Space
  1

  0
ENDBLK
  5
1D
100
AcDbEntity
 67
1
  8
0
100
AcDbBlockEnd
  0
BLOCK
  5
24
100
AcDbEntity
  8
0
100
AcDbBlockBegin
  2
*Paper_Space0
 70
0
 10
0.0
 20
0.0
 30
0.0
  3
*Paper_Space0
  1

  0
ENDBLK
  5
25
100
AcDbEntity
  8
0
100
AcDbBlockEnd
  0
BLOCK
  5
46
100
AcDbEntity
  8
0
100
AcDbBlockBegin
  2
BORDER
 70
0
 10
0.0
 20
0.0
 30
0.0
  3
BORDER
  1

  0
LINE
  5
47
100
AcDbEntity
100
AcDbLine
  8
0
 62
256
370
-1
  6
ByLayer
 10
0.0
 20
-12.0
 30
0.0
 11
24.0
 21
-12.0
 31
0.0
  0
LINE
  5
48
100
AcDbEntity
100
AcDbLine
  8
0
 62
256
370
-1
  6
ByLayer
 10
24.0
 20
-12.0
 30
0.0
 11
24.0
 21
0.0
 31
0.0
  0
LINE
  5
49
100
AcDbEntity
100
AcDbLine
  8
0
 62
256
370
-1
  6
ByLayer
 10
24.0
 20
0.0
 30
0.0
 11
0.0
 21
0.0
 31
0.0
  0
LINE
  5
4A
100
AcDbEntity
100
AcDbLine
  8
0
 62
256
370
-1
  6
ByLayer
 10
0.0
 20
0.0
 30
0.0
 11
0.0
 21
-12.0
 31
0.0
  0
ENDBLK
  5
4B
100
AcDbEntity
  8
0
100
AcDbBlockEnd
  0
BLOCK
  5
4C
100
AcDbEntity
  8
0
100
AcDbBlockBegin
  2
frag
 70
0
 10
0.0
 20
0.0
 30
0.0
  3
frag
  1

  0
LINE
  5
4D
100
AcDbEntity
100
AcDbLine
  8
CUT_SHEET_3b
 62
3
420
65280
370
15
  6
ByLayer
 10
6.4200753056999993
 20
-5.5335458582999983
 30
0.0
 11
1.9437675577999975
 21
-5.5335458583000019
 31
0.0
  0
LINE
  5
4E
100
AcDbEntity
100
AcDbLine
  8
CUT_SHEET_3b
 62
3
420
65280
370
15
  6
ByLayer
 10
1.9437675577999975
 20
-5.5335458583000019
 30
0.0
 11
1.9437675577999993
 21
-2.2231459973000014
 31
0.0
  0
LINE
  5
4F
100
AcDbEntity
100
AcDbLine
  8
CUT_SHEET_3b
 62
3
420
65280
370
15
  6
ByLayer
 10
1.9437675577999993
 20
-2.2231459973000014
 30
0.0
 11
6.4200753056999984
 21
-2.2231459973000014
 31
0.0
  0
LINE
  5
50
100
AcDbEntity
100
AcDbLine
  8
CUT_SHEET_3b
 62
3
420
65280
370
15
  6
ByLayer
 10
6.4200753056999984
 20
-2.2231459973000014
 30
0.0
 11
6.4200753056999993
 21
-5.5335458582999983
 31
0.0
  0
LINE
  5
51
100
AcDbEntity
100
AcDbLine
  8
CUT_SHEET_3b
 62
3
420
65280
370
15
  6
ByLayer
 10
4.5738013016999943
 20
-11.8059024251000011
 30
0.0
 11
4.5738013017000005
 21
-11.8059159884999989
 31
0.0
  0
LINE
  5
52
100
AcDbEntity
100
AcDbLine
  8
CUT_SHEET_3b
 62
3
420
65280
370
15
  6
ByLayer
 10
4.6486168893000013
 20
-11.7310868375999977
 30
0.0
 11
4.648603325899999
 21
-11.7310868375999977
 31
0.0
  0
LINE
  5
53
100
AcDbEntity
100
AcDbLine
  8
CUT_SHEET_3b
 62
3
420
65280
370
15
  6
ByLayer
 10
3.7153616079999985
 20
-11.7310868375999977
 30
0.0
 11
3.7153480446999945
 21
-11.7310868375999995
 31
0.0
  0
LINE
  5
54
100
AcDbEntity
100
AcDbLine
  8
CUT_SHEET_3b
 62
3
420
65280
370
15
  6
ByLayer
 10
5.2802362293999963
 20
-6.6380659009000009
 30
0.0
 11
5.2802091025999962
 21
-6.6380659009000027
 31
0.0
  0
LINE
  5
55
100
AcDbEntity
100
AcDbLine
  8
CUT_SHEET_3b
 62
3
420
65280
370
15
  6
ByLayer
 10
3.0837151411999999
 20
-6.6380659008999991
 30
0.0
 11
3.083701577799995
 21
-6.6380659009000009
 31
0.0
  0
LINE
  5
56
100
AcDbEntity
100
AcDbLine
  8
CUT_SHEET_3b
 62
3
420
65280
370
15
  6
ByLayer
 10
3.4123828926000002
 20
-7.936460854399999
 30
0.0
 11
3.4123828925999939
 21
-7.9364472910000021
 31
0.0
  0
LINE
  5
57
100
AcDbEntity
100
AcDbLine
  8
CUT_SHEET_3b
 62
3
420
65280
370
15
  6
ByLayer
 10
3.4123828925999993
 20
-9.7504268942999985
 30
0.0
 11
3.4123828926000019
 21
-9.750413330899999
 31
0.0
  0
LINE
  5
58
100
AcDbEntity
100
AcDbLine
  8
CUT_SHEET_3b
 62
3
420
65280
370
15
  6
ByLayer
 10
5.2263353691999974
 20
-7.9364608544000008
 30
0.0
 11
5.2263353692000027
 21
-7.9364472909999995
 31
0.0
  0
LINE
  5
59
100
AcDbEntity
100
AcDbLine
  8
CUT_SHEET_3b
 62
3
420
65280
370
15
  6
ByLayer
 10
5.2263353691999974
 20
-9.7504268943000021
 30
0.0
 11
5.2263353691999965
 21
-9.7504133309000007
 31
0.0
  0
LINE
  5
5A
100
AcDbEntity
100
AcDbLine
  8
CUT_SHEET_3b
 62
3
420
65280
370
15
  6
ByLayer
 10
0.7495664664999993
 20
0.2148710184000002
 30
0.0
 11
1.1700311534999983
 21
0.2148710184000002
 31
0.0
  0
LINE
  5
5B
100
AcDbEntity
100
AcDbLine
  8
CUT_SHEET_3b
 62
3
420
65280
370
15
  6
ByLayer
 10
1.1700311534999983
 20
0.2148710184000002
 30
0.0
 11
1.1700311534999983
 21
0.0
 31
0.0
  0
LINE
  5
5C
100
AcDbEntity
100
AcDbLine
  8
CUT_SHEET_3b
 62
3
420
65280
370
15
  6
ByLayer
 10
1.1700311534999983
 20
0.0
 30
0.0
 11
1.3037931774999976
 21
0.0
 31
0.0
  0
LINE
  5
5D
100
AcDbEntity
100
AcDbLine
  8
CUT_SHEET_3b
 62
3
420
65280
370
15
  6
ByLayer
 10
1.3037931774999976
 20
0.0
 30
0.0
 11
1.3037931774999976
 21
-0.3678930378
 31
0.0
  0
LINE
  5
5E
100
AcDbEntity
100
AcDbLine
  8
CUT_SHEET_3b
 62
3
420
65280
370
15
  6
ByLayer
 10
1.3037931774999976
 20
-0.3678930378
 30
0.0
 11
1.2418356712999987
 21
-0.3678930378000018
 31
0.0
  0
LINE
  5
5F
100
AcDbEntity
100
AcDbLine
  8
CUT_SHEET_3b
 62
3
420
65280
370
15
  6
ByLayer
 10
1.2418356712999987
 20
-0.3678930378000018
 30
0.0
 11
1.2418356712999987
 21
-0.4859351077999996
 31
0.0
  0
LINE
  5
60
100
AcDbEntity
100
AcDbLine
  8
CUT_SHEET_3b
 62
3
420
65280
370
15
  6
ByLayer
 10
1.2418356712999987
 20
-0.4859351077999996
 30
0.0
 11
1.3037931774999976
 21
-0.4859351077999996
 31
0.0
  0
LINE
  5
61
100
AcDbEntity
100
AcDbLine
  8
CUT_SHEET_3b
 62
3
420
65280
370
15
  6
ByLayer
 10
1.3037931774999976
 20
-0.4859351077999996
 30
0.0
 11
1.3037931774999976
 21
-0.5646705112999992
 31
0.0
  0
LINE
  5
62
100
AcDbEntity
100
AcDbLine
  8
CUT_SHEET_3b
 62
3
420
65280
370
15
  6
ByLayer
 10
1.3037931774999976
 20
-0.5646705112999992
 30
0.0
 11
1.4296884427999998
 21
-0.5646705112999992
 31
0.0
  0
LINE
  5
63
100
AcDbEntity
100
AcDbLine
  8
CUT_SHEET_3b
 62
3
420
65280
370
15
  6
ByLayer
 10
1.4296884427999998
 20
-0.5646705112999992
 30
0.0
 11
1.4296884427999998
 21
-0.4859351077999996
 31
0.0
  0
LINE
  5
64
100
AcDbEntity
100
AcDbLine
  8
CUT_SHEET_3b
 62
3
420
65280
370
15
  6
ByLayer
 10
1.4296884427999998
 20
-0.4859351077999996
 30
0.0
 11
1.4917002024000006
 21
-0.4859351077999996
 31
0.0
  0
LINE
  5
65
100
AcDbEntity
100
AcDbLine
  8
CUT_SHEET_3b
 62
3
420
65280
370
15
  6
ByLayer
 10
1.4917002024000006
 20
-0.4859351077999996
 30
0.0
 11
1.4917002024000006
 21
-0.3678930378000018
 31
0.0
  0
LINE
  5
66
100
AcDbEntity
100
AcDbLine
  8
CUT_SHEET_3b
 62
3
420
65280
370
15
  6
ByLayer
 10
1.4917002024000006
 20
-0.3678930378000018
 30
0.0
 11
1.4296884427999998
 21
-0.3678930378
 31
0.0
  0
LINE
  5
67
100
AcDbEntity
100
AcDbLine
  8
CUT_SHEET_3b
 62
3
420
65280
370
15
  6
ByLayer
 10
1.4296884427999998
 20
-0.3678930378
 30
0.0
 11
1.4296884427999998
 21
0.0
 31
0.0
  0
LINE
  5
68
100
AcDbEntity
100
AcDbLine
  8
CUT_SHEET_3b
 62
3
420
65280
370
15
  6
ByLayer
 10
1.4296884427999998
 20
0.0
 30
0.0
 11
1.5634911568999996
 21
0.0
 31
0.0
  0
LINE
  5
69
100
AcDbEntity
100
AcDbLine
  8
CUT_SHEET_3b
 62
3
420
65280
370
15
  6
ByLayer
 10
1.5634911568999996
 20
0.0
 30
0.0
 11
1.5634911568999996
 21
0.2148438915999993
 31
0.0
  0
LINE
  5
6A
100
AcDbEntity
100
AcDbLine
  8
CUT_SHEET_3b
 62
3
420
65280
370
15
  6
ByLayer
 10
1.5634911568999996
 20
0.2148438915999993
 30
0.0
 11
1.9832776750000001
 21
0.2148438915999975
 31
0.0
  0
LINE
  5
6B
100
AcDbEntity
100
AcDbLine
  8
CUT_SHEET_3b
 62
3
420
65280
370
15
  6
ByLayer
 10
1.9832776750000001
 20
0.2148438915999975
 30
0.0
 11
1.9839558438999987
 21
0.0
 31
0.0
  0
LINE
  5
6C
100
AcDbEntity
100
AcDbLine
  8
CUT_SHEET_3b
 62
3
420
65280
370
15
  6
ByLayer
 10
1.9839558438999987
 20
0.0
 30
0.0
 11
6.379968399900001
 21
0.0
 31
0.0
  0
LINE
  5
6D
100
AcDbEntity
100
AcDbLine
  8
CUT_SHEET_3b
 62
3
420
65280
370
15
  6
ByLayer
 10
6.379968399900001
 20
0.0
 30
0.0
 11
6.3806465687999996
 21
0.2148710183999913
 31
0.0
  0
LINE
  5
6E
100
AcDbEntity
100
AcDbLine
  8
CUT_SHEET_3b
 62
3
420
65280
370
15
  6
ByLayer
 10
6.3806465687999996
 20
0.2148710183999913
 30
0.0
 11
6.8004330869
 21
0.2148710184000073
 31
0.0
  0
LINE
  5
6F
100
AcDbEntity
100
AcDbLine
  8
CUT_SHEET_3b
 62
3
420
65280
370
15
  6
ByLayer
 10
6.8004330869
 20
0.2148710184000073
 30
0.0
 11
6.8004330869
 21
0.0
 31
0.0
  0
LINE
  5
70
100
AcDbEntity
100
AcDbLine
  8
CUT_SHEET_3b
 62
3
420
65280
370
15
  6
ByLayer
 10
6.8004330869
 20
0.0
 30
0.0
 11
6.9341951108999993
 21
0.0
 31
0.0
  0
LINE
  5
71
100
AcDbEntity
100
AcDbLine
  8
CUT_SHEET_3b
 62
3
420
65280
370
15
  6
ByLayer
 10
6.9341951108999993
 20
0.0
 30
0.0
 11
6.9341951108999993
 21
-0.3678930378
 31
0.0
  0
LINE
  5
72
100
AcDbEntity
100
AcDbLine
  8
CUT_SHEET_3b
 62
3
420
65280
370
15
  6
ByLayer
 10
6.9341951108999993
 20
-0.3678930378
 30
0.0
 11
6.8722511681
 21
-0.3678930378000107
 31
0.0
  0
LINE
  5
73
100
AcDbEntity
100
AcDbLine
  8
CUT_SHEET_3b
 62
3
420
65280
370
15
  6
ByLayer
 10
6.8722511681
 20
-0.3678930378000107
 30
0.0
 11
6.8722511681
 21
-0.4859351078000014
 31
0.0
  0
LINE
  5
74
100
AcDbEntity
100
AcDbLine
  8
CUT_SHEET_3b
 62
3
420
65280
370
15
  6
ByLayer
 10
6.8722511681
 20
-0.4859351078000014
 30
0.0
 11
6.9341951108999993
 21
-0.4859351078000014
 31
0.0
  0
LINE
  5
75
100
AcDbEntity
100
AcDbLine
  8
CUT_SHEET_3b
 62
3
420
65280
370
15
  6
ByLayer
 10
6.9341951108999993
 20
-0.4859351078000014
 30
0.0
 11
6.9341951108999993
 21
-0.5646705112999992
 31
0.0
  0
LINE
  5
76
100
AcDbEntity
100
AcDbLine
  8
CUT_SHEET_3b
 62
3
420
65280
370
15
  6
ByLayer
 10
6.9341951108999993
 20
-0.5646705112999992
 30
0.0
 11
7.0601039395999976
 21
-0.5646705113000028
 31
0.0
  0
LINE
  5
77
100
AcDbEntity
100
AcDbLine
  8
CUT_SHEET_3b
 62
3
420
65280
370
15
  6
ByLayer
 10
7.0601039395999976
 20
-0.5646705113000028
 30
0.0
 11
7.0601039395999976
 21
-0.4859351078000014
 31
0.0
  0
LINE
  5
78
100
AcDbEntity
100
AcDbLine
  8
CUT_SHEET_3b
 62
3
420
65280
370
15
  6
ByLayer
 10
7.0601039395999976
 20
-0.4859351078000014
 30
0.0
 11
7.1221021357999987
 21
-0.4859351078000049
 31
0.0
  0
LINE
  5
79
100
AcDbEntity
100
AcDbLine
  8
CUT_SHEET_3b
 62
3
420
65280
370
15
  6
ByLayer
 10
7.1221021357999987
 20
-0.4859351078000049
 30
0.0
 11
7.1221021357999987
 21
-0.3678930378000107
 31
0.0
  0
LINE
  5
7A
100
AcDbEntity
100
AcDbLine
  8
CUT_SHEET_3b
 62
3
420
65280
370
15
  6
ByLayer
 10
7.1221021357999987
 20
-0.3678930378000107
 30
0.0
 11
7.0601039395999976
 21
-0.3678930377999965
 31
0.0
  0
LINE
  5
7B
100
AcDbEntity
100
AcDbLine
  8
CUT_SHEET_3b
 62
3
420
65280
370
15
  6
ByLayer
 10
7.0601039395999976
 20
-0.3678930377999965
 30
0.0
 11
7.0601039395999976
 21
0.0
 31
0.0
  0
LINE
  5
7C
100
AcDbEntity
100
AcDbLine
  8
CUT_SHEET_3b
 62
3
420
65280
370
15
  6
ByLayer
 10
7.0601039395999976
 20
0.0
 30
0.0
 11
7.1938930902999978
 21
0.0
 31
0.0
  0
LINE
  5
7D
100
AcDbEntity
100
AcDbLine
  8
CUT_SHEET_3b
 62
3
420
65280
370
15
  6
ByLayer
 10
7.1938930902999978
 20
0.0
 30
0.0
 11
7.1938930902999978
 21
0.2148438915999744
 31
0.0
  0
LINE
  5
7E
100
AcDbEntity
100
AcDbLine
  8
CUT_SHEET_3b
 62
3
420
65280
370
15
  6
ByLayer
 10
7.1938930902999978
 20
0.2148438915999744
 30
0.0
 11
7.6136253548999981
 21
0.2148438915999797
 31
0.0
  0
LINE
  5
7F
100
AcDbEntity
100
AcDbLine
  8
CUT_SHEET_3b
 62
3
420
65280
370
15
  6
ByLayer
 10
7.6136253548999981
 20
0.2148438915999797
 30
0.0
 11
7.6135982282000008
 21
0.0
 31
0.0
  0
LINE
  5
80
100
AcDbEntity
100
AcDbLine
  8
CUT_SHEET_3b
 62
3
420
65280
370
15
  6
ByLayer
 10
7.6135982282000008
 20
0.0
 30
0.0
 11
8.3638699902999996
 21
0.0
 31
0.0
  0
LINE
  5
81
100
AcDbEntity
100
AcDbLine
  8
CUT_SHEET_3b
 62
3
420
65280
370
15
  6
ByLayer
 10
8.3638699902999996
 20
0.0
 30
0.0
 11
8.3638699902999978
 21
-2.727825692100005
 31
0.0
  0
LINE
  5
82
100
AcDbEntity
100
AcDbLine
  8
CUT_SHEET_3b
 62
3
420
65280
370
15
  6
ByLayer
 10
8.3638699902999978
 20
-2.727825692100005
 30
0.0
 11
8.5787138819999988
 21
-2.7285038609999983
 31
0.0
  0
LINE
  5
83
100
AcDbEntity
100
AcDbLine
  8
CUT_SHEET_3b
 62
3
420
65280
370
15
  6
ByLayer
 10
8.5787138819999988
 20
-2.7285038609999983
 30
0.0
 11
8.5787138819999971
 21
-3.1482496890000018
 31
0.0
  0
LINE
  5
84
100
AcDbEntity
100
AcDbLine
  8
CUT_SHEET_3b
 62
3
420
65280
370
15
  6
ByLayer
 10
8.5787138819999971
 20
-3.1482496890000018
 30
0.0
 11
8.3638699902999996
 21
-3.1482496889999982
 31
0.0
  0
LINE
  5
85
100
AcDbEntity
100
AcDbLine
  8
CUT_SHEET_3b
 62
3
420
65280
370
15
  6
ByLayer
 10
8.3638699902999996
 20
-3.1482496889999982
 30
0.0
 11
8.3638699902999978
 21
-3.2820524031000051
 31
0.0
  0
LINE
  5
86
100
AcDbEntity
100
AcDbLine
  8
CUT_SHEET_3b
 62
3
420
65280
370
15
  6
ByLayer
 10
8.3638699902999978
 20
-3.2820524031000051
 30
0.0
 11
7.9959769525999986
 21
-3.2820524031000033
 31
0.0
  0
LINE
  5
87
100
AcDbEntity
100
AcDbLine
  8
CUT_SHEET_3b
 62
3
420
65280
370
15
  6
ByLayer
 10
7.9959769525999986
 20
-3.2820524031000033
 30
0.0
 11
7.9959769525999986
 21
-3.220054206800004
 31
0.0
  0
LINE
  5
88
100
AcDbEntity
100
AcDbLine
  8
CUT_SHEET_3b
 62
3
420
65280
370
15
  6
ByLayer
 10
7.9959769525999986
 20
-3.220054206800004
 30
0.0
 11
7.8779213191999968
 21
-3.220054206800004
 31
0.0
  0
LINE
  5
89
100
AcDbEntity
100
AcDbLine
  8
CUT_SHEET_3b
 62
3
420
65280
370
15
  6
ByLayer
 10
7.8779213191999968
 20
-3.220054206800004
 30
0.0
 11
7.8779213191999977
 21
-3.2820524031000016
 31
0.0
  0
LINE
  5
8A
100
AcDbEntity
100
AcDbLine
  8
CUT_SHEET_3b
 62
3
420
65280
370
15
  6
ByLayer
 10
7.8779213191999977
 20
-3.2820524031000016
 30
0.0
 11
7.7991994790999994
 21
-3.2820524031000069
 31
0.0
  0
LINE
  5
8B
100
AcDbEntity
100
AcDbLine
  8
CUT_SHEET_3b
 62
3
420
65280
370
15
  6
ByLayer
 10
7.7991994790999994
 20
-3.2820524031000069
 30
0.0
 11
7.7991994790999994
 21
-3.4079476684000021
 31
0.0
  0
LINE
  5
8C
100
AcDbEntity
100
AcDbLine
  8
CUT_SHEET_3b
 62
3
420
65280
370
15
  6
ByLayer
 10
7.7991994790999994
 20
-3.4079476684000021
 30
0.0
 11
7.8779213191999986
 21
-3.4079476684000003
 31
0.0
  0
LINE
  5
8D
100
AcDbEntity
100
AcDbLine
  8
CUT_SHEET_3b
 62
3
420
65280
370
15
  6
ByLayer
 10
7.8779213191999986
 20
-3.4079476684000003
 30
0.0
 11
7.8779213191999986
 21
-3.4699051744999991
 31
0.0
  0
LINE
  5
8E
100
AcDbEntity
100
AcDbLine
  8
CUT_SHEET_3b
 62
3
420
65280
370
15
  6
ByLayer
 10
7.8779213191999986
 20
-3.4699051744999991
 30
0.0
 11
7.9959769525999995
 21
-3.4699051745000009
 31
0.0
  0
LINE
  5
8F
100
AcDbEntity
100
AcDbLine
  8
CUT_SHEET_3b
 62
3
420
65280
370
15
  6
ByLayer
 10
7.9959769525999995
 20
-3.4699051745000009
 30
0.0
 11
7.9959769525999986
 21
-3.4079476684000021
 31
0.0
  0
LINE
  5
90
100
AcDbEntity
100
AcDbLine
  8
CUT_SHEET_3b
 62
3
420
65280
370
15
  6
ByLayer
 10
7.9959769525999986
 20
-3.4079476684000021
 30
0.0
 11
8.3638699902999996
 21
-3.4079476684000021
 31
0.0
  0
LINE
  5
91
100
AcDbEntity
100
AcDbLine
  8
CUT_SHEET_3b
 62
3
420
65280
370
15
  6
ByLayer
 10
8.3638699902999996
 20
-3.4079476684000021
 30
0.0
 11
8.3638699902999996
 21
-3.5417232557000027
 31
0.0
  0
LINE
  5
92
100
AcDbEntity
100
AcDbLine
  8
CUT_SHEET_3b
 62
3
420
65280
370
15
  6
ByLayer
 10
8.3638699902999996
 20
-3.5417232557000027
 30
0.0
 11
8.578741008699998
 21
-3.5417232557000045
 31
0.0
  0
LINE
  5
93
100
AcDbEntity
100
AcDbLine
  8
CUT_SHEET_3b
 62
3
420
65280
370
15
  6
ByLayer
 10
8.578741008699998
 20
-3.5417232557000045
 30
0.0
 11
8.578741008699998
 21
-3.961482647100004
 31
0.0
  0
LINE
  5
94
100
AcDbEntity
100
AcDbLine
  8
CUT_SHEET_3b
 62
3
420
65280
370
15
  6
ByLayer
 10
8.578741008699998
 20
-3.961482647100004
 30
0.0
 11
8.3638699902999996
 21
-3.9621743794000022
 31
0.0
  0
LINE
  5
95
100
AcDbEntity
100
AcDbLine
  8
CUT_SHEET_3b
 62
3
420
65280
370
15
  6
ByLayer
 10
8.3638699902999996
 20
-3.9621743794000022
 30
0.0
 11
8.3638699902999978
 21
-7.1206915447000014
 31
0.0
  0
LINE
  5
96
100
AcDbEntity
100
AcDbLine
  8
CUT_SHEET_3b
 62
3
420
65280
370
15
  6
ByLayer
 10
8.3638699902999978
 20
-7.1206915447000014
 30
0.0
 11
8.5787138819999971
 21
-7.1213697135
 31
0.0
  0
LINE
  5
97
100
AcDbEntity
100
AcDbLine
  8
CUT_SHEET_3b
 62
3
420
65280
370
15
  6
ByLayer
 10
8.5787138819999971
 20
-7.1213697135
 30
0.0
 11
8.5787138819999988
 21
-7.5411291048999978
 31
0.0
  0
LINE
  5
98
100
AcDbEntity
100
AcDbLine
  8
CUT_SHEET_3b
 62
3
420
65280
370
15
  6
ByLayer
 10
8.5787138819999988
 20
-7.5411291048999978
 30
0.0
 11
8.363869990299996
 21
-7.541129104900004
 31
0.0
  0
LINE
  5
99
100
AcDbEntity
100
AcDbLine
  8
CUT_SHEET_3b
 62
3
420
65280
370
15
  6
ByLayer
 10
8.363869990299996
 20
-7.541129104900004
 30
0.0
 11
8.3638699902999978
 21
-7.6749318190000029
 31
0.0
  0
LINE
  5
9A
100
AcDbEntity
100
AcDbLine
  8
CUT_SHEET_3b
 62
3
420
65280
370
15
  6
ByLayer
 10
8.3638699902999978
 20
-7.6749318190000029
 30
0.0
 11
7.9959769525999969
 21
-7.6749318190000038
 31
0.0
  0
LINE
  5
9B
100
AcDbEntity
100
AcDbLine
  8
CUT_SHEET_3b
 62
3
420
65280
370
15
  6
ByLayer
 10
7.9959769525999969
 20
-7.6749318190000038
 30
0.0
 11
7.9959769525999951
 21
-7.6129200594000048
 31
0.0
  0
LINE
  5
9C
100
AcDbEntity
100
AcDbLine
  8
CUT_SHEET_3b
 62
3
420
65280
370
15
  6
ByLayer
 10
7.9959769525999951
 20
-7.6129200594000048
 30
0.0
 11
7.8779213191999995
 21
-7.6129200593999986
 31
0.0
  0
LINE
  5
9D
100
AcDbEntity
100
AcDbLine
  8
CUT_SHEET_3b
 62
3
420
65280
370
15
  6
ByLayer
 10
7.8779213191999995
 20
-7.6129200593999986
 30
0.0
 11
7.8779213191999933
 21
-7.6749318190000055
 31
0.0
  0
LINE
  5
9E
100
AcDbEntity
100
AcDbLine
  8
CUT_SHEET_3b
 62
3
420
65280
370
15
  6
ByLayer
 10
7.8779213191999933
 20
-7.6749318190000055
 30
0.0
 11
7.7991994790999968
 21
-7.6749318190000038
 31
0.0
  0
LINE
  5
9F
100
AcDbEntity
100
AcDbLine
  8
CUT_SHEET_3b
 62
3
420
65280
370
15
  6
ByLayer
 10
7.7991994790999968
 20
-7.6749318190000038
 30
0.0
 11
7.7991994790999959
 21
-7.8008270844000043
 31
0.0
  0
LINE
  5
A0
100
AcDbEntity
100
AcDbLine
  8
CUT_SHEET_3b
 62
3
420
65280
370
15
  6
ByLayer
 10
7.7991994790999959
 20
-7.8008270844000043
 30
0.0
 11
7.8779213191999968
 21
-7.8008270844000025
 31
0.0
  0
LINE
  5
A1
100
AcDbEntity
100
AcDbLine
  8
CUT_SHEET_3b
 62
3
420
65280
370
15
  6
ByLayer
 10
7.8779213191999968
 20
-7.8008270844000025
 30
0.0
 11
7.8779213191999933
 21
-7.8627845905000031
 31
0.0
  0
LINE
  5
A2
100
AcDbEntity
100
AcDbLine
  8
CUT_SHEET_3b
 62
3
420
65280
370
15
  6
ByLayer
 10
7.8779213191999933
 20
-7.8627845905000031
 30
0.0
 11
7.9959769525999951
 21
-7.8627845905000031
 31
0.0
  0
LINE
  5
A3
100
AcDbEntity
100
AcDbLine
  8
CUT_SHEET_3b
 62
3
420
65280
370
15
  6
ByLayer
 10
7.9959769525999951
 20
-7.8627845905000031
 30
0.0
 11
7.9959769525999977
 21
-7.8008270844000034
 31
0.0
  0
LINE
  5
A4
100
AcDbEntity
100
AcDbLine
  8
CUT_SHEET_3b
 62
3
420
65280
370
15
  6
ByLayer
 10
7.9959769525999977
 20
-7.8008270844000034
 30
0.0
 11
8.3638699902999925
 21
-7.8008270844000052
 31
0.0
  0
LINE
  5
A5
100
AcDbEntity
100
AcDbLine
  8
CUT_SHEET_3b
 62
3
420
65280
370
15
  6
ByLayer
 10
8.3638699902999925
 20
-7.8008270844000052
 30
0.0
 11
8.363869990299996
 21
-7.9346026717000022
 31
0.0
  0
LINE
  5
A6
100
AcDbEntity
100
AcDbLine
  8
CUT_SHEET_3b
 62
3
420
65280
370
15
  6
ByLayer
 10
8.363869990299996
 20
-7.9346026717000022
 30
0.0
 11
8.578741008699998
 21
-7.934602671700004
 31
0.0
  0
LINE
  5
A7
100
AcDbEntity
100
AcDbLine
  8
CUT_SHEET_3b
 62
3
420
65280
370
15
  6
ByLayer
 10
8.578741008699998
 20
-7.934602671700004
 30
0.0
 11
8.5787410086999998
 21
-8.3543756265000013
 31
0.0
  0
LINE
  5
A8
100
AcDbEntity
100
AcDbLine
  8
CUT_SHEET_3b
 62
3
420
65280
370
15
  6
ByLayer
 10
8.5787410086999998
 20
-8.3543756265000013
 30
0.0
 11
8.3638699902999996
 21
-8.3550537952999981
 31
0.0
  0
LINE
  5
A9
100
AcDbEntity
100
AcDbLine
  8
CUT_SHEET_3b
 62
3
420
65280
370
15
  6
ByLayer
 10
8.3638699902999996
 20
-8.3550537952999981
 30
0.0
 11
8.3638699903000013
 21
-11.6331999457999977
 31
0.0
  0
LINE
  5
AA
100
AcDbEntity
100
AcDbLine
  8
CUT_SHEET_3b
 62
3
420
65280
370
15
  6
ByLayer
 10
8.3638699903000013
 20
-11.6331999457999977
 30
0.0
 11
8.5787410086999998
 21
-11.6338645513000003
 31
0.0
  0
LINE
  5
AB
100
AcDbEntity
100
AcDbLine
  8
CUT_SHEET_3b
 62
3
420
65280
370
15
  6
ByLayer
 10
8.5787410086999998
 20
-11.6338645513000003
 30
0.0
 11
8.5787410086999962
 21
-12.0536375060000012
 31
0.0
  0
LINE
  5
AC
100
AcDbEntity
100
AcDbLine
  8
CUT_SHEET_3b
 62
3
420
65280
370
15
  6
ByLayer
 10
8.5787410086999962
 20
-12.0536375060000012
 30
0.0
 11
8.3638699902999996
 21
-12.0536375059999994
 31
0.0
  0
LINE
  5
AD
100
AcDbEntity
100
AcDbLine
  8
CUT_SHEET_3b
 62
3
420
65280
370
15
  6
ByLayer
 10
8.3638699902999996
 20
-12.0536375059999994
 30
0.0
 11
8.3638699902999978
 21
-12.1873859666000008
 31
0.0
  0
LINE
  5
AE
100
AcDbEntity
100
AcDbLine
  8
CUT_SHEET_3b
 62
3
420
65280
370
15
  6
ByLayer
 10
8.3638699902999978
 20
-12.1873859666000008
 30
0.0
 11
7.9959769525999995
 21
-12.1873859666000008
 31
0.0
  0
LINE
  5
AF
100
AcDbEntity
100
AcDbLine
  8
CUT_SHEET_3b
 62
3
420
65280
370
15
  6
ByLayer
 10
7.9959769525999995
 20
-12.1873859666000008
 30
0.0
 11
7.9959769525999933
 21
-12.1254555872000029
 31
0.0
  0
LINE
  5
B0
100
AcDbEntity
100
AcDbLine
  8
CUT_SHEET_3b
 62
3
420
65280
370
15
  6
ByLayer
 10
7.9959769525999933
 20
-12.1254555872000029
 30
0.0
 11
7.8779213191999906
 21
-12.1254555872000047
 31
0.0
  0
LINE
  5
B1
100
AcDbEntity
100
AcDbLine
  8
CUT_SHEET_3b
 62
3
420
65280
370
15
  6
ByLayer
 10
7.8779213191999906
 20
-12.1254555872000047
 30
0.0
 11
7.8779213191999915
 21
-12.1873859666000062
 31
0.0
  0
LINE
  5
B2
100
AcDbEntity
100
AcDbLine
  8
CUT_SHEET_3b
 62
3
420
65280
370
15
  6
ByLayer
 10
7.8779213191999915
 20
-12.1873859666000062
 30
0.0
 11
7.7991994791000003
 21
-12.1873859666000026
 31
0.0
  0
LINE
  5
B3
100
AcDbEntity
100
AcDbLine
  8
CUT_SHEET_3b
 62
3
420
65280
370
15
  6
ByLayer
 10
7.7991994791000003
 20
-12.1873859666000026
 30
0.0
 11
7.7991994790999968
 21
-12.3133083587000023
 31
0.0
  0
LINE
  5
B4
100
AcDbEntity
100
AcDbLine
  8
CUT_SHEET_3b
 62
3
420
65280
370
15
  6
ByLayer
 10
7.7991994790999968
 20
-12.3133083587000023
 30
0.0
 11
7.8779213191999933
 21
-12.3133083587000041
 31
0.0
  0
LINE
  5
B5
100
AcDbEntity
100
AcDbLine
  8
CUT_SHEET_3b
 62
3
420
65280
370
15
  6
ByLayer
 10
7.8779213191999933
 20
-12.3133083587000041
 30
0.0
 11
7.8779213191999977
 21
-12.3753065549999999
 31
0.0
  0
LINE
  5
B6
100
AcDbEntity
100
AcDbLine
  8
CUT_SHEET_3b
 62
3
420
65280
370
15
  6
ByLayer
 10
7.8779213191999977
 20
-12.3753065549999999
 30
0.0
 11
7.9959769525999942
 21
-12.3753065550000017
 31
0.0
  0
LINE
  5
B7
100
AcDbEntity
100
AcDbLine
  8
CUT_SHEET_3b
 62
3
420
65280
370
15
  6
ByLayer
 10
7.9959769525999942
 20
-12.3753065550000017
 30
0.0
 11
7.9959769525999977
 21
-12.3133083587000005
 31
0.0
  0
LINE
  5
B8
100
AcDbEntity
100
AcDbLine
  8
CUT_SHEET_3b
 62
3
420
65280
370
15
  6
ByLayer
 10
7.9959769525999977
 20
-12.3133083587000005
 30
0.0
 11
8.3638699902999996
 21
-12.3133083587000005
 31
0.0
  0
LINE
  5
B9
100
AcDbEntity
100
AcDbLine
  8
CUT_SHEET_3b
 62
3
420
65280
370
15
  6
ByLayer
 10
8.3638699902999996
 20
-12.3133083587000005
 30
0.0
 11
8.3638699902999996
 21
-12.4470839459999976
 31
0.0
  0
LINE
  5
BA
100
AcDbEntity
100
AcDbLine
  8
CUT_SHEET_3b
 62
3
420
65280
370
15
  6
ByLayer
 10
8.3638699902999996
 20
-12.4470839459999976
 30
0.0
 11
8.5787138819999971
 21
-12.4470839460000011
 31
0.0
  0
LINE
  5
BB
100
AcDbEntity
100
AcDbLine
  8
CUT_SHEET_3b
 62
3
420
65280
370
15
  6
ByLayer
 10
8.5787138819999971
 20
-12.4470839460000011
 30
0.0
 11
8.5787138819999988
 21
-12.8668840276000012
 31
0.0
  0
LINE
  5
BC
100
AcDbEntity
100
AcDbLine
  8
CUT_SHEET_3b
 62
3
420
65280
370
15
  6
ByLayer
 10
8.5787138819999988
 20
-12.8668840276000012
 30
0.0
 11
8.363869990299996
 21
-12.8675486330000055
 31
0.0
  0
LINE
  5
BD
100
AcDbEntity
100
AcDbLine
  8
CUT_SHEET_3b
 62
3
420
65280
370
15
  6
ByLayer
 10
8.363869990299996
 20
-12.8675486330000055
 30
0.0
 11
8.3638699902999942
 21
-13.617115099600003
 31
0.0
  0
LINE
  5
BE
100
AcDbEntity
100
AcDbLine
  8
CUT_SHEET_3b
 62
3
420
65280
370
15
  6
ByLayer
 10
8.3638699902999942
 20
-13.617115099600003
 30
0.0
 11
7.6143035237999941
 21
-13.617115099600003
 31
0.0
  0
LINE
  5
BF
100
AcDbEntity
100
AcDbLine
  8
CUT_SHEET_3b
 62
3
420
65280
370
15
  6
ByLayer
 10
7.6143035237999941
 20
-13.617115099600003
 30
0.0
 11
7.6136253548999946
 21
-13.831999681400001
 31
0.0
  0
LINE
  5
C0
100
AcDbEntity
100
AcDbLine
  8
CUT_SHEET_3b
 62
3
420
65280
370
15
  6
ByLayer
 10
7.6136253548999946
 20
-13.831999681400001
 30
0.0
 11
7.1938659635999977
 21
-13.831999681400001
 31
0.0
  0
LINE
  5
C1
100
AcDbEntity
100
AcDbLine
  8
CUT_SHEET_3b
 62
3
420
65280
370
15
  6
ByLayer
 10
7.1938659635999977
 20
-13.831999681400001
 30
0.0
 11
7.1938659635999933
 21
-13.617115099600003
 31
0.0
  0
LINE
  5
C2
100
AcDbEntity
100
AcDbLine
  8
CUT_SHEET_3b
 62
3
420
65280
370
15
  6
ByLayer
 10
7.1938659635999933
 20
-13.617115099600003
 30
0.0
 11
7.0601039395999976
 21
-13.6171150995999977
 31
0.0
  0
LINE
  5
C3
100
AcDbEntity
100
AcDbLine
  8
CUT_SHEET_3b
 62
3
420
65280
370
15
  6
ByLayer
 10
7.0601039395999976
 20
-13.6171150995999977
 30
0.0
 11
7.0601039395999914
 21
-13.2492356252000043
 31
0.0
  0
LINE
  5
C4
100
AcDbEntity
100
AcDbLine
  8
CUT_SHEET_3b
 62
3
420
65280
370
15
  6
ByLayer
 10
7.0601039395999914
 20
-13.2492356252000043
 30
0.0
 11
7.1220478823000022
 21
-13.249235625199999
 31
0.0
  0
LINE
  5
C5
100
AcDbEntity
100
AcDbLine
  8
CUT_SHEET_3b
 62
3
420
65280
370
15
  6
ByLayer
 10
7.1220478823000022
 20
-13.249235625199999
 30
0.0
 11
7.1220478822999969
 21
-13.1311799918000016
 31
0.0
  0
LINE
  5
C6
100
AcDbEntity
100
AcDbLine
  8
CUT_SHEET_3b
 62
3
420
65280
370
15
  6
ByLayer
 10
7.1220478822999969
 20
-13.1311799918000016
 30
0.0
 11
7.0601039395999967
 21
-13.1311799917999998
 31
0.0
  0
LINE
  5
C7
100
AcDbEntity
100
AcDbLine
  8
CUT_SHEET_3b
 62
3
420
65280
370
15
  6
ByLayer
 10
7.0601039395999967
 20
-13.1311799917999998
 30
0.0
 11
7.0601039395999985
 21
-13.0524581517000016
 31
0.0
  0
LINE
  5
C8
100
AcDbEntity
100
AcDbLine
  8
CUT_SHEET_3b
 62
3
420
65280
370
15
  6
ByLayer
 10
7.0601039395999985
 20
-13.0524581517000016
 30
0.0
 11
6.9341951108999975
 21
-13.0524581517000016
 31
0.0
  0
LINE
  5
C9
100
AcDbEntity
100
AcDbLine
  8
CUT_SHEET_3b
 62
3
420
65280
370
15
  6
ByLayer
 10
6.9341951108999975
 20
-13.0524581517000016
 30
0.0
 11
6.9341951108999913
 21
-13.1311799918000052
 31
0.0
  0
LINE
  5
CA
100
AcDbEntity
100
AcDbLine
  8
CUT_SHEET_3b
 62
3
420
65280
370
15
  6
ByLayer
 10
6.9341951108999913
 20
-13.1311799918000052
 30
0.0
 11
6.8721969146000035
 21
-13.1311799917999981
 31
0.0
  0
LINE
  5
CB
100
AcDbEntity
100
AcDbLine
  8
CUT_SHEET_3b
 62
3
420
65280
370
15
  6
ByLayer
 10
6.8721969146000035
 20
-13.1311799917999981
 30
0.0
 11
6.8721969145999928
 21
-13.2492356252000043
 31
0.0
  0
LINE
  5
CC
100
AcDbEntity
100
AcDbLine
  8
CUT_SHEET_3b
 62
3
420
65280
370
15
  6
ByLayer
 10
6.8721969145999928
 20
-13.2492356252000043
 30
0.0
 11
6.9341951108999993
 21
-13.2492356252000008
 31
0.0
  0
LINE
  5
CD
100
AcDbEntity
100
AcDbLine
  8
CUT_SHEET_3b
 62
3
420
65280
370
15
  6
ByLayer
 10
6.9341951108999993
 20
-13.2492356252000008
 30
0.0
 11
6.9341951108999904
 21
-13.6171150996000048
 31
0.0
  0
LINE
  5
CE
100
AcDbEntity
100
AcDbLine
  8
CUT_SHEET_3b
 62
3
420
65280
370
15
  6
ByLayer
 10
6.9341951108999904
 20
-13.6171150996000048
 30
0.0
 11
6.8004059601999964
 21
-13.6171150995999994
 31
0.0
  0
LINE
  5
CF
100
AcDbEntity
100
AcDbLine
  8
CUT_SHEET_3b
 62
3
420
65280
370
15
  6
ByLayer
 10
6.8004059601999964
 20
-13.6171150995999994
 30
0.0
 11
6.8004059602
 21
-13.8319725545999983
 31
0.0
  0
LINE
  5
D0
100
AcDbEntity
100
AcDbLine
  8
CUT_SHEET_3b
 62
3
420
65280
370
15
  6
ByLayer
 10
6.8004059602
 20
-13.8319725545999983
 30
0.0
 11
6.3806194420000013
 21
-13.8319725546000001
 31
0.0
  0
LINE
  5
D1
100
AcDbEntity
100
AcDbLine
  8
CUT_SHEET_3b
 62
3
420
65280
370
15
  6
ByLayer
 10
6.3806194420000013
 20
-13.8319725546000001
 30
0.0
 11
6.3799412732000036
 21
-13.6171150995999977
 31
0.0
  0
LINE
  5
D2
100
AcDbEntity
100
AcDbLine
  8
CUT_SHEET_3b
 62
3
420
65280
370
15
  6
ByLayer
 10
6.3799412732000036
 20
-13.6171150995999977
 30
0.0
 11
1.9839287170999995
 21
-13.6171150995999994
 31
0.0
  0
LINE
  5
D3
100
AcDbEntity
100
AcDbLine
  8
CUT_SHEET_3b
 62
3
420
65280
370
15
  6
ByLayer
 10
1.9839287170999995
 20
-13.6171150995999994
 30
0.0
 11
1.9832505482999938
 21
-13.8319996813999992
 31
0.0
  0
LINE
  5
D4
100
AcDbEntity
100
AcDbLine
  8
CUT_SHEET_3b
 62
3
420
65280
370
15
  6
ByLayer
 10
1.9832505482999938
 20
-13.8319996813999992
 30
0.0
 11
1.563464030100004
 21
-13.8319996813999992
 31
0.0
  0
LINE
  5
D5
100
AcDbEntity
100
AcDbLine
  8
CUT_SHEET_3b
 62
3
420
65280
370
15
  6
ByLayer
 10
1.563464030100004
 20
-13.8319996813999992
 30
0.0
 11
1.5634640300999934
 21
-13.6171150995999994
 31
0.0
  0
LINE
  5
D6
100
AcDbEntity
100
AcDbLine
  8
CUT_SHEET_3b
 62
3
420
65280
370
15
  6
ByLayer
 10
1.5634640300999934
 20
-13.6171150995999994
 30
0.0
 11
1.4296884427999981
 21
-13.6171150995999994
 31
0.0
  0
LINE
  5
D7
100
AcDbEntity
100
AcDbLine
  8
CUT_SHEET_3b
 62
3
420
65280
370
15
  6
ByLayer
 10
1.4296884427999981
 20
-13.6171150995999994
 30
0.0
 11
1.4296884427999927
 21
-13.2492356252000008
 31
0.0
  0
LINE
  5
D8
100
AcDbEntity
100
AcDbLine
  8
CUT_SHEET_3b
 62
3
420
65280
370
15
  6
ByLayer
 10
1.4296884427999927
 20
-13.2492356252000008
 30
0.0
 11
1.4916459488999987
 21
-13.2492356252000025
 31
0.0
  0
LINE
  5
D9
100
AcDbEntity
100
AcDbLine
  8
CUT_SHEET_3b
 62
3
420
65280
370
15
  6
ByLayer
 10
1.4916459488999987
 20
-13.2492356252000025
 30
0.0
 11
1.4916459488999987
 21
-13.1311799918000016
 31
0.0
  0
LINE
  5
DA
100
AcDbEntity
100
AcDbLine
  8
CUT_SHEET_3b
 62
3
420
65280
370
15
  6
ByLayer
 10
1.4916459488999987
 20
-13.1311799918000016
 30
0.0
 11
1.4296884427999998
 21
-13.1311799917999998
 31
0.0
  0
LINE
  5
DB
100
AcDbEntity
100
AcDbLine
  8
CUT_SHEET_3b
 62
3
420
65280
370
15
  6
ByLayer
 10
1.4296884427999998
 20
-13.1311799917999998
 30
0.0
 11
1.429688442799991
 21
-13.0524581517000016
 31
0.0
  0
LINE
  5
DC
100
AcDbEntity
100
AcDbLine
  8
CUT_SHEET_3b
 62
3
420
65280
370
15
  6
ByLayer
 10
1.429688442799991
 20
-13.0524581517000016
 30
0.0
 11
1.3037931774999976
 21
-13.0524581516999998
 31
0.0
  0
LINE
  5
DD
100
AcDbEntity
100
AcDbLine
  8
CUT_SHEET_3b
 62
3
420
65280
370
15
  6
ByLayer
 10
1.3037931774999976
 20
-13.0524581516999998
 30
0.0
 11
1.3037931775000029
 21
-13.1311799917999998
 31
0.0
  0
LINE
  5
DE
100
AcDbEntity
100
AcDbLine
  8
CUT_SHEET_3b
 62
3
420
65280
370
15
  6
ByLayer
 10
1.3037931775000029
 20
-13.1311799917999998
 30
0.0
 11
1.2417814178000022
 21
-13.1311799917999981
 31
0.0
  0
LINE
  5
DF
100
AcDbEntity
100
AcDbLine
  8
CUT_SHEET_3b
 62
3
420
65280
370
15
  6
ByLayer
 10
1.2417814178000022
 20
-13.1311799917999981
 30
0.0
 11
1.2417814178000022
 21
-13.249235625199999
 31
0.0
  0
LINE
  5
E0
100
AcDbEntity
100
AcDbLine
  8
CUT_SHEET_3b
 62
3
420
65280
370
15
  6
ByLayer
 10
1.2417814178000022
 20
-13.249235625199999
 30
0.0
 11
1.3037931774999958
 21
-13.2492356252000025
 31
0.0
  0
LINE
  5
E1
100
AcDbEntity
100
AcDbLine
  8
CUT_SHEET_3b
 62
3
420
65280
370
15
  6
ByLayer
 10
1.3037931774999958
 20
-13.2492356252000025
 30
0.0
 11
1.3037931775000029
 21
-13.6171150995999977
 31
0.0
  0
LINE
  5
E2
100
AcDbEntity
100
AcDbLine
  8
CUT_SHEET_3b
 62
3
420
65280
370
15
  6
ByLayer
 10
1.3037931775000029
 20
-13.6171150995999977
 30
0.0
 11
1.1700040266999956
 21
-13.6171150995999994
 31
0.0
  0
LINE
  5
E3
100
AcDbEntity
100
AcDbLine
  8
CUT_SHEET_3b
 62
3
420
65280
370
15
  6
ByLayer
 10
1.1700040266999956
 20
-13.6171150995999994
 30
0.0
 11
1.1700040266999991
 21
-13.8319725546000001
 31
0.0
  0
LINE
  5
E4
100
AcDbEntity
100
AcDbLine
  8
CUT_SHEET_3b
 62
3
420
65280
370
15
  6
ByLayer
 10
1.1700040266999991
 20
-13.8319725546000001
 30
0.0
 11
0.7502446353999961
 21
-13.8319725546000001
 31
0.0
  0
LINE
  5
E5
100
AcDbEntity
100
AcDbLine
  8
CUT_SHEET_3b
 62
3
420
65280
370
15
  6
ByLayer
 10
0.7502446353999961
 20
-13.8319725546000001
 30
0.0
 11
0.7495664664999975
 21
-13.6171150996000012
 31
0.0
  0
LINE
  5
E6
100
AcDbEntity
100
AcDbLine
  8
CUT_SHEET_3b
 62
3
420
65280
370
15
  6
ByLayer
 10
0.7495664664999975
 20
-13.6171150996000012
 30
0.0
 11
-0.0000000000000018
 21
-13.6171150995999994
 31
0.0
  0
LINE
  5
E7
100
AcDbEntity
100
AcDbLine
  8
CUT_SHEET_3b
 62
3
420
65280
370
15
  6
ByLayer
 10
-0.0000000000000018
 20
-13.6171150995999994
 30
0.0
 11
-0.0000000000000018
 21
-12.8675486330000002
 31
0.0
  0
LINE
  5
E8
100
AcDbEntity
100
AcDbLine
  8
CUT_SHEET_3b
 62
3
420
65280
370
15
  6
ByLayer
 10
-0.0000000000000018
 20
-12.8675486330000002
 30
0.0
 11
-0.2148710184999985
 21
-12.8668840275999994
 31
0.0
  0
LINE
  5
E9
100
AcDbEntity
100
AcDbLine
  8
CUT_SHEET_3b
 62
3
420
65280
370
15
  6
ByLayer
 10
-0.2148710184999985
 20
-12.8668840275999994
 30
0.0
 11
-0.2148710185000038
 21
-12.4470839459999976
 31
0.0
  0
LINE
  5
EA
100
AcDbEntity
100
AcDbLine
  8
CUT_SHEET_3b
 62
3
420
65280
370
15
  6
ByLayer
 10
-0.2148710185000038
 20
-12.4470839459999976
 30
0.0
 11
-0.0000000000000018
 21
-12.4470839459999993
 31
0.0
  0
LINE
  5
EB
100
AcDbEntity
100
AcDbLine
  8
CUT_SHEET_3b
 62
3
420
65280
370
15
  6
ByLayer
 10
-0.0000000000000018
 20
-12.4470839459999993
 30
0.0
 11
-0.0000000000000018
 21
-12.3133083587000005
 31
0.0
  0
LINE
  5
EC
100
AcDbEntity
100
AcDbLine
  8
CUT_SHEET_3b
 62
3
420
65280
370
15
  6
ByLayer
 10
-0.0000000000000018
 20
-12.3133083587000005
 30
0.0
 11
0.3678930377000018
 21
-12.3133083587000005
 31
0.0
  0
LINE
  5
ED
100
AcDbEntity
100
AcDbLine
  8
CUT_SHEET_3b
 62
3
420
65280
370
15
  6
ByLayer
 10
0.3678930377000018
 20
-12.3133083587000005
 30
0.0
 11
0.3678930377000018
 21
-12.3753065549999999
 31
0.0
  0
LINE
  5
EE
100
AcDbEntity
100
AcDbLine
  8
CUT_SHEET_3b
 62
3
420
65280
370
15
  6
ByLayer
 10
0.3678930377000018
 20
-12.3753065549999999
 30
0.0
 11
0.4859351077999978
 21
-12.3753065549999999
 31
0.0
  0
LINE
  5
EF
100
AcDbEntity
100
AcDbLine
  8
CUT_SHEET_3b
 62
3
420
65280
370
15
  6
ByLayer
 10
0.4859351077999978
 20
-12.3753065549999999
 30
0.0
 11
0.4859351078000032
 21
-12.3133083587000005
 31
0.0
  0
LINE
  5
F0
100
AcDbEntity
100
AcDbLine
  8
CUT_SHEET_3b
 62
3
420
65280
370
15
  6
ByLayer
 10
0.4859351078000032
 20
-12.3133083587000005
 30
0.0
 11
0.5646705111999974
 21
-12.3133083587000005
 31
0.0
  0
LINE
  5
F1
100
AcDbEntity
100
AcDbLine
  8
CUT_SHEET_3b
 62
3
420
65280
370
15
  6
ByLayer
 10
0.5646705111999974
 20
-12.3133083587000005
 30
0.0
 11
0.5646705111999939
 21
-12.1873859666000008
 31
0.0
  0
LINE
  5
F2
100
AcDbEntity
100
AcDbLine
  8
CUT_SHEET_3b
 62
3
420
65280
370
15
  6
ByLayer
 10
0.5646705111999939
 20
-12.1873859666000008
 30
0.0
 11
0.485935107799996
 21
-12.1873859666000008
 31
0.0
  0
LINE
  5
F3
100
AcDbEntity
100
AcDbLine
  8
CUT_SHEET_3b
 62
3
420
65280
370
15
  6
ByLayer
 10
0.485935107799996
 20
-12.1873859666000008
 30
0.0
 11
0.4859351077999925
 21
-12.1254555871999994
 31
0.0
  0
LINE
  5
F4
100
AcDbEntity
100
AcDbLine
  8
CUT_SHEET_3b
 62
3
420
65280
370
15
  6
ByLayer
 10
0.4859351077999925
 20
-12.1254555871999994
 30
0.0
 11
0.3678930376999965
 21
-12.1254555871999994
 31
0.0
  0
LINE
  5
F5
100
AcDbEntity
100
AcDbLine
  8
CUT_SHEET_3b
 62
3
420
65280
370
15
  6
ByLayer
 10
0.3678930376999965
 20
-12.1254555871999994
 30
0.0
 11
0.3678930376999965
 21
-12.1873859666000008
 31
0.0
  0
LINE
  5
F6
100
AcDbEntity
100
AcDbLine
  8
CUT_SHEET_3b
 62
3
420
65280
370
15
  6
ByLayer
 10
0.3678930376999965
 20
-12.1873859666000008
 30
0.0
 11
-0.0000000000000018
 21
-12.1873859666000008
 31
0.0
  0
LINE
  5
F7
100
AcDbEntity
100
AcDbLine
  8
CUT_SHEET_3b
 62
3
420
65280
370
15
  6
ByLayer
 10
-0.0000000000000018
 20
-12.1873859666000008
 30
0.0
 11
-0.0000000000000018
 21
-12.0536375059999994
 31
0.0
  0
LINE
  5
F8
100
AcDbEntity
100
AcDbLine
  8
CUT_SHEET_3b
 62
3
420
65280
370
15
  6
ByLayer
 10
-0.0000000000000018
 20
-12.0536375059999994
 30
0.0
 11
-0.2148845818000016
 21
-12.0536375059999994
 31
0.0
  0
LINE
  5
F9
100
AcDbEntity
100
AcDbLine
  8
CUT_SHEET_3b
 62
3
420
65280
370
15
  6
ByLayer
 10
-0.2148845818000016
 20
-12.0536375059999994
 30
0.0
 11
-0.2148845818000016
 21
-11.6338645513000003
 31
0.0
  0
LINE
  5
FA
100
AcDbEntity
100
AcDbLine
  8
CUT_SHEET_3b
 62
3
420
65280
370
15
  6
ByLayer
 10
-0.2148845818000016
 20
-11.6338645513000003
 30
0.0
 11
-0.0000000000000018
 21
-11.6331999457999995
 31
0.0
  0
LINE
  5
FB
100
AcDbEntity
100
AcDbLine
  8
CUT_SHEET_3b
 62
3
420
65280
370
15
  6
ByLayer
 10
-0.0000000000000018
 20
-11.6331999457999995
 30
0.0
 11
-0.0000000000000018
 21
-8.3550537952999999
 31
0.0
  0
LINE
  5
FC
100
AcDbEntity
100
AcDbLine
  8
CUT_SHEET_3b
 62
3
420
65280
370
15
  6
ByLayer
 10
-0.0000000000000018
 20
-8.3550537952999999
 30
0.0
 11
-0.2148845818000016
 21
-8.3543756264999995
 31
0.0
  0
LINE
  5
FD
100
AcDbEntity
100
AcDbLine
  8
CUT_SHEET_3b
 62
3
420
65280
370
15
  6
ByLayer
 10
-0.2148845818000016
 20
-8.3543756264999995
 30
0.0
 11
-0.2148845818000016
 21
-7.9346026717000004
 31
0.0
  0
LINE
  5
FE
100
AcDbEntity
100
AcDbLine
  8
CUT_SHEET_3b
 62
3
420
65280
370
15
  6
ByLayer
 10
-0.2148845818000016
 20
-7.9346026717000004
 30
0.0
 11
-0.0000000000000018
 21
-7.9346026716999996
 31
0.0
  0
LINE
  5
FF
100
AcDbEntity
100
AcDbLine
  8
CUT_SHEET_3b
 62
3
420
65280
370
15
  6
ByLayer
 10
-0.0000000000000018
 20
-7.9346026716999996
 30
0.0
 11
-0.0000000000000018
 21
-7.8008270843999998
 31
0.0
  0
LINE
  5
100
100
AcDbEntity
100
AcDbLine
  8
CUT_SHEET_3b
 62
3
420
65280
370
15
  6
ByLayer
 10
-0.0000000000000018
 20
-7.8008270843999998
 30
0.0
 11
0.3678930376999983
 21
-7.8008270843999989
 31
0.0
  0
LINE
  5
101
100
AcDbEntity
100
AcDbLine
  8
CUT_SHEET_3b
 62
3
420
65280
370
15
  6
ByLayer
 10
0.3678930376999983
 20
-7.8008270843999989
 30
0.0
 11
0.3678930376999983
 21
-7.8627845904999996
 31
0.0
  0
LINE
  5
102
100
AcDbEntity
100
AcDbLine
  8
CUT_SHEET_3b
 62
3
420
65280
370
15
  6
ByLayer
 10
0.3678930376999983
 20
-7.8627845904999996
 30
0.0
 11
0.485935107799996
 21
-7.8627845904999996
 31
0.0
  0
LINE
  5
103
100
AcDbEntity
100
AcDbLine
  8
CUT_SHEET_3b
 62
3
420
65280
370
15
  6
ByLayer
 10
0.485935107799996
 20
-7.8627845904999996
 30
0.0
 11
0.485935107799996
 21
-7.8008270843999998
 31
0.0
  0
LINE
  5
104
100
AcDbEntity
100
AcDbLine
  8
CUT_SHEET_3b
 62
3
420
65280
370
15
  6
ByLayer
 10
0.485935107799996
 20
-7.8008270843999998
 30
0.0
 11
0.564670511200001
 21
-7.8008270843999998
 31
0.0
  0
LINE
  5
105
100
AcDbEntity
100
AcDbLine
  8
CUT_SHEET_3b
 62
3
420
65280
370
15
  6
ByLayer
 10
0.564670511200001
 20
-7.8008270843999998
 30
0.0
 11
0.5646705111999957
 21
-7.6749318190000011
 31
0.0
  0
LINE
  5
106
100
AcDbEntity
100
AcDbLine
  8
CUT_SHEET_3b
 62
3
420
65280
370
15
  6
ByLayer
 10
0.5646705111999957
 20
-7.6749318190000011
 30
0.0
 11
0.4859351077999978
 21
-7.6749318189999993
 31
0.0
  0
LINE
  5
107
100
AcDbEntity
100
AcDbLine
  8
CUT_SHEET_3b
 62
3
420
65280
370
15
  6
ByLayer
 10
0.4859351077999978
 20
-7.6749318189999993
 30
0.0
 11
0.4859351077999978
 21
-7.6129200593999995
 31
0.0
  0
LINE
  5
108
100
AcDbEntity
100
AcDbLine
  8
CUT_SHEET_3b
 62
3
420
65280
370
15
  6
ByLayer
 10
0.4859351077999978
 20
-7.6129200593999995
 30
0.0
 11
0.3678930376999965
 21
-7.6129200594000004
 31
0.0
  0
LINE
  5
109
100
AcDbEntity
100
AcDbLine
  8
CUT_SHEET_3b
 62
3
420
65280
370
15
  6
ByLayer
 10
0.3678930376999965
 20
-7.6129200594000004
 30
0.0
 11
0.3678930377
 21
-7.6749318189999993
 31
0.0
  0
LINE
  5
10A
100
AcDbEntity
100
AcDbLine
  8
CUT_SHEET_3b
 62
3
420
65280
370
15
  6
ByLayer
 10
0.3678930377
 20
-7.6749318189999993
 30
0.0
 11
-0.0000000000000018
 21
-7.6749318190000002
 31
0.0
  0
LINE
  5
10B
100
AcDbEntity
100
AcDbLine
  8
CUT_SHEET_3b
 62
3
420
65280
370
15
  6
ByLayer
 10
-0.0000000000000018
 20
-7.6749318190000002
 30
0.0
 11
-0.0000000000000018
 21
-7.5411291048999995
 31
0.0
  0
LINE
  5
10C
100
AcDbEntity
100
AcDbLine
  8
CUT_SHEET_3b
 62
3
420
65280
370
15
  6
ByLayer
 10
-0.0000000000000018
 20
-7.5411291048999995
 30
0.0
 11
-0.2148710185000038
 21
-7.5411291048999987
 31
0.0
  0
LINE
  5
10D
100
AcDbEntity
100
AcDbLine
  8
CUT_SHEET_3b
 62
3
420
65280
370
15
  6
ByLayer
 10
-0.2148710185000038
 20
-7.5411291048999987
 30
0.0
 11
-0.2148710185000002
 21
-7.1213697135
 31
0.0
  0
LINE
  5
10E
100
AcDbEntity
100
AcDbLine
  8
CUT_SHEET_3b
 62
3
420
65280
370
15
  6
ByLayer
 10
-0.2148710185000002
 20
-7.1213697135
 30
0.0
 11
-0.0000000000000018
 21
-7.1206915446999997
 31
0.0
  0
LINE
  5
10F
100
AcDbEntity
100
AcDbLine
  8
CUT_SHEET_3b
 62
3
420
65280
370
15
  6
ByLayer
 10
-0.0000000000000018
 20
-7.1206915446999997
 30
0.0
 11
0.0
 21
-3.9621743794000004
 31
0.0
  0
LINE
  5
110
100
AcDbEntity
100
AcDbLine
  8
CUT_SHEET_3b
 62
3
420
65280
370
15
  6
ByLayer
 10
0.0
 20
-3.9621743794000004
 30
0.0
 11
-0.2148845818000016
 21
-3.9614826471000004
 31
0.0
  0
LINE
  5
111
100
AcDbEntity
100
AcDbLine
  8
CUT_SHEET_3b
 62
3
420
65280
370
15
  6
ByLayer
 10
-0.2148845818000016
 20
-3.9614826471000004
 30
0.0
 11
-0.2148845817999998
 21
-3.5417232556999991
 31
0.0
  0
LINE
  5
112
100
AcDbEntity
100
AcDbLine
  8
CUT_SHEET_3b
 62
3
420
65280
370
15
  6
ByLayer
 10
-0.2148845817999998
 20
-3.5417232556999991
 30
0.0
 11
0.0
 21
-3.5417232556999991
 31
0.0
  0
LINE
  5
113
100
AcDbEntity
100
AcDbLine
  8
CUT_SHEET_3b
 62
3
420
65280
370
15
  6
ByLayer
 10
0.0
 20
-3.5417232556999991
 30
0.0
 11
0.0
 21
-3.4079476684000003
 31
0.0
  0
LINE
  5
114
100
AcDbEntity
100
AcDbLine
  8
CUT_SHEET_3b
 62
3
420
65280
370
15
  6
ByLayer
 10
0.0
 20
-3.4079476684000003
 30
0.0
 11
0.3678930377
 21
-3.4079476684000003
 31
0.0
  0
LINE
  5
115
100
AcDbEntity
100
AcDbLine
  8
CUT_SHEET_3b
 62
3
420
65280
370
15
  6
ByLayer
 10
0.3678930377
 20
-3.4079476684000003
 30
0.0
 11
0.3678930377
 21
-3.4699051744999991
 31
0.0
  0
LINE
  5
116
100
AcDbEntity
100
AcDbLine
  8
CUT_SHEET_3b
 62
3
420
65280
370
15
  6
ByLayer
 10
0.3678930377
 20
-3.4699051744999991
 30
0.0
 11
0.4859351077999978
 21
-3.4699051744999991
 31
0.0
  0
LINE
  5
117
100
AcDbEntity
100
AcDbLine
  8
CUT_SHEET_3b
 62
3
420
65280
370
15
  6
ByLayer
 10
0.4859351077999978
 20
-3.4699051744999991
 30
0.0
 11
0.4859351077999978
 21
-3.4079476684000003
 31
0.0
  0
LINE
  5
118
100
AcDbEntity
100
AcDbLine
  8
CUT_SHEET_3b
 62
3
420
65280
370
15
  6
ByLayer
 10
0.4859351077999978
 20
-3.4079476684000003
 30
0.0
 11
0.5646705111999974
 21
-3.4079476684000003
 31
0.0
  0
LINE
  5
119
100
AcDbEntity
100
AcDbLine
  8
CUT_SHEET_3b
 62
3
420
65280
370
15
  6
ByLayer
 10
0.5646705111999974
 20
-3.4079476684000003
 30
0.0
 11
0.5646705111999974
 21
-3.2820524030999998
 31
0.0
  0
LINE
  5
11A
100
AcDbEntity
100
AcDbLine
  8
CUT_SHEET_3b
 62
3
420
65280
370
15
  6
ByLayer
 10
0.5646705111999974
 20
-3.2820524030999998
 30
0.0
 11
0.4859351077999996
 21
-3.2820524030999998
 31
0.0
  0
LINE
  5
11B
100
AcDbEntity
100
AcDbLine
  8
CUT_SHEET_3b
 62
3
420
65280
370
15
  6
ByLayer
 10
0.4859351077999996
 20
-3.2820524030999998
 30
0.0
 11
0.4859351077999996
 21
-3.2200542068000004
 31
0.0
  0
LINE
  5
11C
100
AcDbEntity
100
AcDbLine
  8
CUT_SHEET_3b
 62
3
420
65280
370
15
  6
ByLayer
 10
0.4859351077999996
 20
-3.2200542068000004
 30
0.0
 11
0.3678930377
 21
-3.2200542068000004
 31
0.0
  0
LINE
  5
11D
100
AcDbEntity
100
AcDbLine
  8
CUT_SHEET_3b
 62
3
420
65280
370
15
  6
ByLayer
 10
0.3678930377
 20
-3.2200542068000004
 30
0.0
 11
0.3678930377
 21
-3.2820524030999998
 31
0.0
  0
LINE
  5
11E
100
AcDbEntity
100
AcDbLine
  8
CUT_SHEET_3b
 62
3
420
65280
370
15
  6
ByLayer
 10
0.3678930377
 20
-3.2820524030999998
 30
0.0
 11
0.0
 21
-3.2820524030999998
 31
0.0
  0
LINE
  5
11F
100
AcDbEntity
100
AcDbLine
  8
CUT_SHEET_3b
 62
3
420
65280
370
15
  6
ByLayer
 10
0.0
 20
-3.2820524030999998
 30
0.0
 11
0.0
 21
-3.148249689
 31
0.0
  0
LINE
  5
120
100
AcDbEntity
100
AcDbLine
  8
CUT_SHEET_3b
 62
3
420
65280
370
15
  6
ByLayer
 10
0.0
 20
-3.148249689
 30
0.0
 11
-0.2148710185000038
 21
-3.148249689
 31
0.0
  0
LINE
  5
121
100
AcDbEntity
100
AcDbLine
  8
CUT_SHEET_3b
 62
3
420
65280
370
15
  6
ByLayer
 10
-0.2148710185000038
 20
-3.148249689
 30
0.0
 11
-0.2148710185000038
 21
-2.7285038610000001
 31
0.0
  0
LINE
  5
122
100
AcDbEntity
100
AcDbLine
  8
CUT_SHEET_3b
 62
3
420
65280
370
15
  6
ByLayer
 10
-0.2148710185000038
 20
-2.7285038610000001
 30
0.0
 11
0.0
 21
-2.7285174242999997
 31
0.0
  0
LINE
  5
123
100
AcDbEntity
100
AcDbLine
  8
CUT_SHEET_3b
 62
3
420
65280
370
15
  6
ByLayer
 10
0.0
 20
-2.7285174242999997
 30
0.0
 11
0.0
 21
0.0
 31
0.0
  0
LINE
  5
124
100
AcDbEntity
100
AcDbLine
  8
CUT_SHEET_3b
 62
3
420
65280
370
15
  6
ByLayer
 10
0.0
 20
0.0
 30
0.0
 11
0.7495664664999993
 21
0.0
 31
0.0
  0
LINE
  5
125
100
AcDbEntity
100
AcDbLine
  8
CUT_SHEET_3b
 62
3
420
65280
370
15
  6
ByLayer
 10
0.7495664664999993
 20
0.0
 30
0.0
 11
0.7495664664999993
 21
0.2148710184000002
 31
0.0
  0
LINE
  5
126
100
AcDbEntity
100
AcDbLine
  8
CUT_SHEET_3b
 62
3
420
65280
370
15
  6
ByLayer
 10
4.7585344964999914
 20
-7.4961665102000028
 30
0.0
 11
4.758548059899999
 21
-7.496166510200001
 31
0.0
  0
SPLINE
  5
127
  8
CUT_SHEET_3b
 62
3
420
65280
370
15
  6
ByLayer
100
AcDbEntity
100
AcDbSpline
 70
8
 71
3
 72
8
 73
4
 74
0
 40
0.0
 40
0.0
 40
0.0
 40
0.0
 40
1.0
 40
1.0
 40
1.0
 40
1.0
 10
4.6486033258935091
 20
-11.7310868375982249
 30
0.0
 10
4.6072757161749669
 20
-11.7310868375982249
 30
0.0
 10
4.5738013017393335
 20
-11.7645883787878542
 30
0.0
 10
4.5738013017393362
 20
-11.8059024251293945
 30
0.0
  0
SPLINE
  5
128
  8
CUT_SHEET_3b
 62
3
420
65280
370
15
  6
ByLayer
100
AcDbEntity
100
AcDbSpline
 70
8
 71
3
 72
8
 73
4
 74
0
 40
0.0
 40
0.0
 40
0.0
 40
0.0
 40
1.0
 40
1.0
 40
1.0
 40
1.0
 10
4.7233917866706721
 20
-11.8059159885063956
 30
0.0
 10
4.7234053500476803
 20
-11.76460194216485
 30
0.0
 10
4.6899309356120522
 20
-11.7311004009752242
 30
0.0
 10
4.6486168892705102
 20
-11.7310868375982249
 30
0.0
  0
SPLINE
  5
129
  8
CUT_SHEET_3b
 62
3
420
65280
370
15
  6
ByLayer
100
AcDbEntity
100
AcDbSpline
 70
8
 71
3
 72
8
 73
4
 74
0
 40
0.0
 40
0.0
 40
0.0
 40
0.0
 40
1.0
 40
1.0
 40
1.0
 40
1.0
 10
4.6486033258935064
 20
-11.8806908859065601
 30
0.0
 10
4.6899038088580438
 20
-11.880704449283563
 30
0.0
 10
4.7233917866706729
 20
-11.8472164714709347
 30
0.0
 10
4.7233917866706721
 20
-11.8059159885063956
 30
0.0
  0
SPLINE
  5
12A
  8
CUT_SHEET_3b
 62
3
420
65280
370
15
  6
ByLayer
100
AcDbEntity
100
AcDbSpline
 70
8
 71
3
 72
8
 73
4
 74
0
 40
0.0
 40
0.0
 40
0.0
 40
0.0
 40
1.0
 40
1.0
 40
1.0
 40
1.0
 10
4.5738013017393326
 20
-11.8059159885063956
 30
0.0
 10
4.5738013017393415
 20
-11.8472164714709329
 30
0.0
 10
4.607302842928962
 20
-11.880704449283563
 30
0.0
 10
4.6486033258935064
 20
-11.8806908859065601
 30
0.0
  0
SPLINE
  5
12B
  8
CUT_SHEET_3b
 62
3
420
65280
370
15
  6
ByLayer
100
AcDbEntity
100
AcDbSpline
 70
8
 71
3
 72
8
 73
4
 74
0
 40
0.0
 40
0.0
 40
0.0
 40
0.0
 40
1.0
 40
1.0
 40
1.0
 40
1.0
 10
3.7153480446648892
 20
-11.7310868375982249
 30
0.0
 10
3.6740339983233437
 20
-11.7310868375982267
 30
0.0
 10
3.6405324571337232
 20
-11.7645748154108514
 30
0.0
 10
3.6405324571337223
 20
-11.8058888617523934
 30
0.0
  0
SPLINE
  5
12C
  8
CUT_SHEET_3b
 62
3
420
65280
370
15
  6
ByLayer
100
AcDbEntity
100
AcDbSpline
 70
8
 71
2
 72
6
 73
3
 74
0
 40
0.0
 40
0.0
 40
0.0
 40
1.0
 40
1.0
 40
1.0
 10
3.6405324571337223
 20
-11.8058888617523934
 30
0.0
 10
3.6405324571337143
 20
-11.8059024251293945
 30
0.0
 10
3.6405324571337143
 20
-11.8059159885063938
 30
0.0
  0
SPLINE
  5
12D
  8
CUT_SHEET_3b
 62
3
420
65280
370
15
  6
ByLayer
100
AcDbEntity
100
AcDbSpline
 70
8
 71
3
 72
8
 73
4
 74
0
 40
0.0
 40
0.0
 40
0.0
 40
0.0
 40
1.0
 40
1.0
 40
1.0
 40
1.0
 10
3.7901365054420584
 20
-11.805915988506392
 30
0.0
 10
3.7901500688190568
 20
-11.7646019421648536
 30
0.0
 10
3.7566756543834217
 20
-11.731100400975226
 30
0.0
 10
3.7153616080418885
 20
-11.7310868375982231
 30
0.0
  0
SPLINE
  5
12E
  8
CUT_SHEET_3b
 62
3
420
65280
370
15
  6
ByLayer
100
AcDbEntity
100
AcDbSpline
 70
8
 71
3
 72
8
 73
4
 74
0
 40
0.0
 40
0.0
 40
0.0
 40
0.0
 40
1.0
 40
1.0
 40
1.0
 40
1.0
 10
3.7153480446648928
 20
-11.8806908859065583
 30
0.0
 10
3.7566485276294337
 20
-11.8806908859065583
 30
0.0
 10
3.7901229420650493
 20
-11.8472029080939336
 30
0.0
 10
3.7901365054420584
 20
-11.805915988506392
 30
0.0
  0
SPLINE
  5
12F
  8
CUT_SHEET_3b
 62
3
420
65280
370
15
  6
ByLayer
100
AcDbEntity
100
AcDbSpline
 70
8
 71
3
 72
8
 73
4
 74
0
 40
0.0
 40
0.0
 40
0.0
 40
0.0
 40
1.0
 40
1.0
 40
1.0
 40
1.0
 10
3.6405324571337143
 20
-11.8059159885063938
 30
0.0
 10
3.6405460205107198
 20
-11.8472164714709329
 30
0.0
 10
3.6740475617003501
 20
-11.8807044492835576
 30
0.0
 10
3.7153480446648928
 20
-11.8806908859065583
 30
0.0
  0
SPLINE
  5
130
  8
CUT_SHEET_3b
 62
3
420
65280
370
15
  6
ByLayer
100
AcDbEntity
100
AcDbSpline
 70
8
 71
3
 72
8
 73
4
 74
0
 40
0.0
 40
0.0
 40
0.0
 40
0.0
 40
1.0
 40
1.0
 40
1.0
 40
1.0
 10
5.2802091026454852
 20
-6.6380659009088667
 30
0.0
 10
5.2388543661729408
 20
-6.6380252107778617
 30
0.0
 10
5.2052985714753133
 20
-6.6715267519674946
 30
0.0
 10
5.2052578813443207
 20
-6.7128814884400274
 30
0.0
  0
SPLINE
  5
131
  8
CUT_SHEET_3b
 62
3
420
65280
370
15
  6
ByLayer
100
AcDbEntity
100
AcDbSpline
 70
8
 71
3
 72
8
 73
4
 74
0
 40
0.0
 40
0.0
 40
0.0
 40
0.0
 40
1.0
 40
1.0
 40
1.0
 40
1.0
 10
5.3551874507006509
 20
-6.712881488440031
 30
0.0
 10
5.3551603239466443
 20
-6.6715267519674946
 30
0.0
 10
5.3216045292490266
 20
-6.6380252107778634
 30
0.0
 10
5.2802362293994891
 20
-6.6380659009088632
 30
0.0
  0
SPLINE
  5
132
  8
CUT_SHEET_3b
 62
3
420
65280
370
15
  6
ByLayer
100
AcDbEntity
100
AcDbSpline
 70
8
 71
3
 72
8
 73
4
 74
0
 40
0.0
 40
0.0
 40
0.0
 40
0.0
 40
1.0
 40
1.0
 40
1.0
 40
1.0
 10
5.280209102645486
 20
-6.7876699492172001
 30
0.0
 10
5.3215774024950164
 20
-6.7877106393482016
 30
0.0
 10
5.355133197192651
 20
-6.7542362249125691
 30
0.0
 10
5.3551874507006509
 20
-6.712881488440031
 30
0.0
  0
SPLINE
  5
133
  8
CUT_SHEET_3b
 62
3
420
65280
370
15
  6
ByLayer
100
AcDbEntity
100
AcDbSpline
 70
8
 71
3
 72
8
 73
4
 74
0
 40
0.0
 40
0.0
 40
0.0
 40
0.0
 40
1.0
 40
1.0
 40
1.0
 40
1.0
 10
5.2052578813443207
 20
-6.7128814884400274
 30
0.0
 10
5.2053121348523215
 20
-6.7542362249125709
 30
0.0
 10
5.2388679295499392
 20
-6.7877106393481981
 30
0.0
 10
5.280209102645486
 20
-6.7876699492172001
 30
0.0
  0
SPLINE
  5
134
  8
CUT_SHEET_3b
 62
3
420
65280
370
15
  6
ByLayer
100
AcDbEntity
100
AcDbSpline
 70
8
 71
3
 72
8
 73
4
 74
0
 40
0.0
 40
0.0
 40
0.0
 40
0.0
 40
1.0
 40
1.0
 40
1.0
 40
1.0
 10
3.0837015777819055
 20
-6.6380659009088649
 30
0.0
 10
3.0423332779323689
 20
-6.6380252107778617
 30
0.0
 10
3.0087910466117354
 20
-6.6715267519674946
 30
0.0
 10
3.0087503564807481
 20
-6.7128814884400292
 30
0.0
  0
SPLINE
  5
135
  8
CUT_SHEET_3b
 62
3
420
65280
370
15
  6
ByLayer
100
AcDbEntity
100
AcDbSpline
 70
8
 71
3
 72
8
 73
4
 74
0
 40
0.0
 40
0.0
 40
0.0
 40
0.0
 40
1.0
 40
1.0
 40
1.0
 40
1.0
 10
3.1586799258370828
 20
-6.7128814884400292
 30
0.0
 10
3.1586392357060813
 20
-6.6715267519674892
 30
0.0
 10
3.1250698776314483
 20
-6.6380252107778617
 30
0.0
 10
3.0837151411589083
 20
-6.6380659009088632
 30
0.0
  0
SPLINE
  5
136
  8
CUT_SHEET_3b
 62
3
420
65280
370
15
  6
ByLayer
100
AcDbEntity
100
AcDbSpline
 70
8
 71
3
 72
8
 73
4
 74
0
 40
0.0
 40
0.0
 40
0.0
 40
0.0
 40
1.0
 40
1.0
 40
1.0
 40
1.0
 10
3.0837015777819063
 20
-6.7876699492171966
 30
0.0
 10
3.1250427508774479
 20
-6.7877106393481981
 30
0.0
 10
3.1586256723290784
 20
-6.7542362249125727
 30
0.0
 10
3.1586799258370828
 20
-6.7128814884400292
 30
0.0
  0
SPLINE
  5
137
  8
CUT_SHEET_3b
 62
3
420
65280
370
15
  6
ByLayer
100
AcDbEntity
100
AcDbSpline
 70
8
 71
3
 72
8
 73
4
 74
0
 40
0.0
 40
0.0
 40
0.0
 40
0.0
 40
1.0
 40
1.0
 40
1.0
 40
1.0
 10
3.0087503564807481
 20
-6.7128814884400292
 30
0.0
 10
3.0088046099887382
 20
-6.7542362249125709
 30
0.0
 10
3.0423604046863684
 20
-6.7877106393481998
 30
0.0
 10
3.0837015777819063
 20
-6.7876699492171966
 30
0.0
  0
SPLINE
  5
138
  8
CUT_SHEET_3b
 62
3
420
65280
370
15
  6
ByLayer
100
AcDbEntity
100
AcDbSpline
 70
8
 71
3
 72
8
 73
4
 74
0
 40
0.0
 40
0.0
 40
0.0
 40
0.0
 40
1.0
 40
1.0
 40
1.0
 40
1.0
 10
3.2749858836107855
 20
-8.073559469064902
 30
0.0
 10
3.3507915976629423
 20
-8.0736408493268961
 30
0.0
 10
3.4123015123572564
 20
-8.0122530050255847
 30
0.0
 10
3.4123828926192594
 20
-7.9364608543504236
 30
0.0
  0
SPLINE
  5
139
  8
CUT_SHEET_3b
 62
3
420
65280
370
15
  6
ByLayer
100
AcDbEntity
100
AcDbSpline
 70
8
 71
3
 72
8
 73
4
 74
0
 40
0.0
 40
0.0
 40
0.0
 40
0.0
 40
1.0
 40
1.0
 40
1.0
 40
1.0
 10
3.1375617478483058
 20
-7.9364472909734243
 30
0.0
 10
3.1376431281103088
 20
-8.0122530050255829
 30
0.0
 10
3.1991666061816257
 20
-8.0736408493268979
 30
0.0
 10
3.2749587568567744
 20
-8.0735594690649037
 30
0.0
  0
SPLINE
  5
13A
  8
CUT_SHEET_3b
 62
3
420
65280
370
15
  6
ByLayer
100
AcDbEntity
100
AcDbSpline
 70
8
 71
3
 72
8
 73
4
 74
0
 40
0.0
 40
0.0
 40
0.0
 40
0.0
 40
1.0
 40
1.0
 40
1.0
 40
1.0
 10
3.2749587568567744
 20
-8.0735594690649037
 30
0.0
 10
3.274972320233779
 20
-8.0735594690649002
 30
0.0
 10
3.274972320233779
 20
-8.0735594690649002
 30
0.0
 10
3.2749858836107855
 20
-8.073559469064902
 30
0.0
  0
SPLINE
  5
13B
  8
CUT_SHEET_3b
 62
3
420
65280
370
15
  6
ByLayer
100
AcDbEntity
100
AcDbSpline
 70
8
 71
3
 72
8
 73
4
 74
0
 40
0.0
 40
0.0
 40
0.0
 40
0.0
 40
1.0
 40
1.0
 40
1.0
 40
1.0
 10
3.2749858836107899
 20
-7.7993351128819475
 30
0.0
 10
3.1991666061816346
 20
-7.7992401692429461
 30
0.0
 10
3.1376431281103025
 20
-7.8606415769212692
 30
0.0
 10
3.1375617478483058
 20
-7.9364472909734243
 30
0.0
  0
SPLINE
  5
13C
  8
CUT_SHEET_3b
 62
3
420
65280
370
15
  6
ByLayer
100
AcDbEntity
100
AcDbSpline
 70
8
 71
3
 72
8
 73
4
 74
0
 40
0.0
 40
0.0
 40
0.0
 40
0.0
 40
1.0
 40
1.0
 40
1.0
 40
1.0
 10
3.4123828926192594
 20
-7.9364472909734216
 30
0.0
 10
3.4123015123572555
 20
-7.8606415769212674
 30
0.0
 10
3.3507915976629352
 20
-7.7992537326199516
 30
0.0
 10
3.2749858836107899
 20
-7.7993351128819475
 30
0.0
  0
SPLINE
  5
13D
  8
CUT_SHEET_3b
 62
3
420
65280
370
15
  6
ByLayer
100
AcDbEntity
100
AcDbSpline
 70
8
 71
3
 72
8
 73
4
 74
0
 40
0.0
 40
0.0
 40
0.0
 40
0.0
 40
1.0
 40
1.0
 40
1.0
 40
1.0
 10
3.274985883610789
 20
-9.8875255090247265
 30
0.0
 10
3.3507915976629317
 20
-9.8876068892867313
 30
0.0
 10
3.4123015123572547
 20
-9.826219044985411
 30
0.0
 10
3.4123828926192576
 20
-9.7504268943102517
 30
0.0
  0
SPLINE
  5
13E
  8
CUT_SHEET_3b
 62
3
420
65280
370
15
  6
ByLayer
100
AcDbEntity
100
AcDbSpline
 70
8
 71
3
 72
8
 73
4
 74
0
 40
0.0
 40
0.0
 40
0.0
 40
0.0
 40
1.0
 40
1.0
 40
1.0
 40
1.0
 10
3.137561747848312
 20
-9.7504133309332506
 30
0.0
 10
3.1376431281103097
 20
-9.8262190449854074
 30
0.0
 10
3.1991666061816337
 20
-9.8876068892867259
 30
0.0
 10
3.2749587568567788
 20
-9.8875255090247265
 30
0.0
  0
SPLINE
  5
13F
  8
CUT_SHEET_3b
 62
3
420
65280
370
15
  6
ByLayer
100
AcDbEntity
100
AcDbSpline
 70
8
 71
3
 72
8
 73
4
 74
0
 40
0.0
 40
0.0
 40
0.0
 40
0.0
 40
1.0
 40
1.0
 40
1.0
 40
1.0
 10
3.2749587568567788
 20
-9.8875255090247265
 30
0.0
 10
3.2749723202337755
 20
-9.8875255090247265
 30
0.0
 10
3.2749723202337755
 20
-9.8875255090247265
 30
0.0
 10
3.274985883610789
 20
-9.8875255090247265
 30
0.0
  0
SPLINE
  5
140
  8
CUT_SHEET_3b
 62
3
420
65280
370
15
  6
ByLayer
100
AcDbEntity
100
AcDbSpline
 70
8
 71
3
 72
8
 73
4
 74
0
 40
0.0
 40
0.0
 40
0.0
 40
0.0
 40
1.0
 40
1.0
 40
1.0
 40
1.0
 10
3.2749858836107908
 20
-9.6133011528417729
 30
0.0
 10
3.1991666061816257
 20
-9.613219772579777
 30
0.0
 10
3.137643128110307
 20
-9.6746076168810955
 30
0.0
 10
3.137561747848312
 20
-9.7504133309332506
 30
0.0
  0
SPLINE
  5
141
  8
CUT_SHEET_3b
 62
3
420
65280
370
15
  6
ByLayer
100
AcDbEntity
100
AcDbSpline
 70
8
 71
3
 72
8
 73
4
 74
0
 40
0.0
 40
0.0
 40
0.0
 40
0.0
 40
1.0
 40
1.0
 40
1.0
 40
1.0
 10
3.4123828926192594
 20
-9.7504133309332506
 30
0.0
 10
3.4123015123572547
 20
-9.6746211802580948
 30
0.0
 10
3.350791597662937
 20
-9.613219772579777
 30
0.0
 10
3.2749858836107908
 20
-9.6133011528417729
 30
0.0
  0
SPLINE
  5
142
  8
CUT_SHEET_3b
 62
3
420
65280
370
15
  6
ByLayer
100
AcDbEntity
100
AcDbSpline
 70
8
 71
3
 72
8
 73
4
 74
0
 40
0.0
 40
0.0
 40
0.0
 40
0.0
 40
1.0
 40
1.0
 40
1.0
 40
1.0
 10
5.0889112334396112
 20
-8.0735594690649002
 30
0.0
 10
5.1647305108687647
 20
-8.0736408493268961
 30
0.0
 10
5.2262539889400808
 20
-8.0122530050255794
 30
0.0
 10
5.2263353692020758
 20
-7.9364608543504263
 30
0.0
  0
SPLINE
  5
143
  8
CUT_SHEET_3b
 62
3
420
65280
370
15
  6
ByLayer
100
AcDbEntity
100
AcDbSpline
 70
8
 71
3
 72
8
 73
4
 74
0
 40
0.0
 40
0.0
 40
0.0
 40
0.0
 40
1.0
 40
1.0
 40
1.0
 40
1.0
 10
4.9515142244311399
 20
-7.9364472909734234
 30
0.0
 10
4.9515956046931375
 20
-8.0122530050255829
 30
0.0
 10
5.013091956010463
 20
-8.0736408493268943
 30
0.0
 10
5.0889112334396112
 20
-8.0735594690649002
 30
0.0
  0
SPLINE
  5
144
  8
CUT_SHEET_3b
 62
3
420
65280
370
15
  6
ByLayer
100
AcDbEntity
100
AcDbSpline
 70
8
 71
3
 72
8
 73
4
 74
0
 40
0.0
 40
0.0
 40
0.0
 40
0.0
 40
1.0
 40
1.0
 40
1.0
 40
1.0
 10
5.0889112334396067
 20
-7.7993351128819501
 30
0.0
 10
5.0131055193874543
 20
-7.7992401692429532
 30
0.0
 10
4.9515956046931358
 20
-7.8606415769212674
 30
0.0
 10
4.9515142244311399
 20
-7.9364472909734234
 30
0.0
  0
SPLINE
  5
145
  8
CUT_SHEET_3b
 62
3
420
65280
370
15
  6
ByLayer
100
AcDbEntity
100
AcDbSpline
 70
8
 71
3
 72
8
 73
4
 74
0
 40
0.0
 40
0.0
 40
0.0
 40
0.0
 40
1.0
 40
1.0
 40
1.0
 40
1.0
 10
5.2263353692020775
 20
-7.9364472909734243
 30
0.0
 10
5.2262539889400763
 20
-7.8606415769212683
 30
0.0
 10
5.1647305108687691
 20
-7.7992537326199489
 30
0.0
 10
5.0889112334396067
 20
-7.7993351128819501
 30
0.0
  0
SPLINE
  5
146
  8
CUT_SHEET_3b
 62
3
420
65280
370
15
  6
ByLayer
100
AcDbEntity
100
AcDbSpline
 70
8
 71
3
 72
8
 73
4
 74
0
 40
0.0
 40
0.0
 40
0.0
 40
0.0
 40
1.0
 40
1.0
 40
1.0
 40
1.0
 10
5.0889112334396076
 20
-9.8875255090247283
 30
0.0
 10
5.1647305108687656
 20
-9.8876068892867259
 30
0.0
 10
5.2262539889400772
 20
-9.8262190449854092
 30
0.0
 10
5.2263353692020713
 20
-9.7504268943102552
 30
0.0
  0
SPLINE
  5
147
  8
CUT_SHEET_3b
 62
3
420
65280
370
15
  6
ByLayer
100
AcDbEntity
100
AcDbSpline
 70
8
 71
3
 72
8
 73
4
 74
0
 40
0.0
 40
0.0
 40
0.0
 40
0.0
 40
1.0
 40
1.0
 40
1.0
 40
1.0
 10
4.951514224431139
 20
-9.7504133309332524
 30
0.0
 10
4.9515956046931393
 20
-9.8262190449854074
 30
0.0
 10
5.0130919560104568
 20
-9.8876068892867277
 30
0.0
 10
5.0889112334396076
 20
-9.8875255090247283
 30
0.0
  0
SPLINE
  5
148
  8
CUT_SHEET_3b
 62
3
420
65280
370
15
  6
ByLayer
100
AcDbEntity
100
AcDbSpline
 70
8
 71
3
 72
8
 73
4
 74
0
 40
0.0
 40
0.0
 40
0.0
 40
0.0
 40
1.0
 40
1.0
 40
1.0
 40
1.0
 10
5.0889112334396049
 20
-9.6133011528417764
 30
0.0
 10
5.0131055193874579
 20
-9.6132197725797752
 30
0.0
 10
4.9515956046931349
 20
-9.6746076168810955
 30
0.0
 10
4.951514224431139
 20
-9.7504133309332524
 30
0.0
  0
SPLINE
  5
149
  8
CUT_SHEET_3b
 62
3
420
65280
370
15
  6
ByLayer
100
AcDbEntity
100
AcDbSpline
 70
8
 71
3
 72
8
 73
4
 74
0
 40
0.0
 40
0.0
 40
0.0
 40
0.0
 40
1.0
 40
1.0
 40
1.0
 40
1.0
 10
5.2263353692020775
 20
-9.7504133309332524
 30
0.0
 10
5.2262539889400772
 20
-9.674621180258093
 30
0.0
 10
5.1647305108687664
 20
-9.6132197725797752
 30
0.0
 10
5.0889112334396049
 20
-9.6133011528417764
 30
0.0
  0
SPLINE
  5
14A
  8
CUT_SHEET_3b
 62
3
420
65280
370
15
  6
ByLayer
100
AcDbEntity
100
AcDbSpline
 70
8
 71
3
 72
8
 73
4
 74
0
 40
0.0
 40
0.0
 40
0.0
 40
0.0
 40
1.0
 40
1.0
 40
1.0
 40
1.0
 10
4.1819417768366955
 20
-9.3431322463817796
 30
0.0
 10
4.4579293720296311
 20
-9.3431322463817779
 30
0.0
 10
4.6816437122651404
 20
-9.1193907793922691
 30
0.0
 10
4.6816437122651386
 20
-8.8434167475763381
 30
0.0
  0
SPLINE
  5
14B
  8
CUT_SHEET_3b
 62
3
420
65280
370
15
  6
ByLayer
100
AcDbEntity
100
AcDbSpline
 70
8
 71
3
 72
8
 73
4
 74
0
 40
0.0
 40
0.0
 40
0.0
 40
0.0
 40
1.0
 40
1.0
 40
1.0
 40
1.0
 10
3.6822262780312602
 20
-8.8434167475763363
 30
0.0
 10
3.6822534047852464
 20
-9.1193772160152697
 30
0.0
 10
3.905981308397763
 20
-9.3431186830047821
 30
0.0
 10
4.1819417768366955
 20
-9.3431322463817796
 30
0.0
  0
SPLINE
  5
14C
  8
CUT_SHEET_3b
 62
3
420
65280
370
15
  6
ByLayer
100
AcDbEntity
100
AcDbSpline
 70
8
 71
3
 72
8
 73
4
 74
0
 40
0.0
 40
0.0
 40
0.0
 40
0.0
 40
1.0
 40
1.0
 40
1.0
 40
1.0
 10
4.1819417768367009
 20
-8.3437148121478923
 30
0.0
 10
3.9059813083977701
 20
-8.3436876853938937
 30
0.0
 10
3.6822534047852464
 20
-8.5673884622524081
 30
0.0
 10
3.6822262780312593
 20
-8.843348930691338
 30
0.0
  0
SPLINE
  5
14D
  8
CUT_SHEET_3b
 62
3
420
65280
370
15
  6
ByLayer
100
AcDbEntity
100
AcDbSpline
 70
8
 71
3
 72
8
 73
4
 74
0
 40
0.0
 40
0.0
 40
0.0
 40
0.0
 40
1.0
 40
1.0
 40
1.0
 40
1.0
 10
3.6822262780312593
 20
-8.843348930691338
 30
0.0
 10
3.6822262780312602
 20
-8.8433760574453348
 30
0.0
 10
3.6822262780312567
 20
-8.843403184199337
 30
0.0
 10
3.6822262780312602
 20
-8.8434167475763363
 30
0.0
  0
SPLINE
  5
14E
  8
CUT_SHEET_3b
 62
3
420
65280
370
15
  6
ByLayer
100
AcDbEntity
100
AcDbSpline
 70
8
 71
3
 72
8
 73
4
 74
0
 40
0.0
 40
0.0
 40
0.0
 40
0.0
 40
1.0
 40
1.0
 40
1.0
 40
1.0
 10
4.6816437122651386
 20
-8.8434167475763381
 30
0.0
 10
4.6816844023961393
 20
-8.5674698425144058
 30
0.0
 10
4.458024315668629
 20
-8.3437419389018963
 30
0.0
 10
4.1820774106066931
 20
-8.3437148121478959
 30
0.0
  0
SPLINE
  5
14F
  8
CUT_SHEET_3b
 62
3
420
65280
370
15
  6
ByLayer
100
AcDbEntity
100
AcDbSpline
 70
8
 71
3
 72
8
 73
4
 74
0
 40
0.0
 40
0.0
 40
0.0
 40
0.0
 40
1.0
 40
1.0
 40
1.0
 40
1.0
 10
4.1820774106066931
 20
-8.3437148121478959
 30
0.0
 10
4.1820502838527007
 20
-8.3437148121478923
 30
0.0
 10
4.1819824669677006
 20
-8.3437148121478941
 30
0.0
 10
4.1819417768367009
 20
-8.3437148121478923
 30
0.0
  0
SPLINE
  5
150
  8
CUT_SHEET_3b
 62
3
420
65280
370
15
  6
ByLayer
100
AcDbEntity
100
AcDbSpline
 70
8
 71
3
 72
8
 73
4
 74
0
 40
0.0
 40
0.0
 40
0.0
 40
0.0
 40
1.0
 40
1.0
 40
1.0
 40
1.0
 10
4.5711428798473683
 20
-7.3087748935514032
 30
0.0
 10
4.5711428798473683
 20
-7.4122634600602533
 30
0.0
 10
4.6550459299684279
 20
-7.49616651018132
 30
0.0
 10
4.758534496477286
 20
-7.49616651018132
 30
0.0
  0
SPLINE
  5
151
  8
CUT_SHEET_3b
 62
3
420
65280
370
15
  6
ByLayer
100
AcDbEntity
100
AcDbSpline
 70
8
 71
3
 72
8
 73
4
 74
0
 40
0.0
 40
0.0
 40
0.0
 40
0.0
 40
1.0
 40
1.0
 40
1.0
 40
1.0
 10
4.758548059854288
 20
-7.49616651018132
 30
0.0
 10
4.8620230629861361
 20
-7.4961665101813209
 30
0.0
 10
4.9459396764841994
 20
-7.4122770234372517
 30
0.0
 10
4.9459396764841967
 20
-7.3087748935514032
 30
0.0
  0
SPLINE
  5
152
  8
CUT_SHEET_3b
 62
3
420
65280
370
15
  6
ByLayer
100
AcDbEntity
100
AcDbSpline
 70
8
 71
3
 72
8
 73
4
 74
0
 40
0.0
 40
0.0
 40
0.0
 40
0.0
 40
1.0
 40
1.0
 40
1.0
 40
1.0
 10
4.9459396764841967
 20
-7.3087748935514032
 30
0.0
 10
4.9459396764841959
 20
-7.2052863270425549
 30
0.0
 10
4.8620366263631372
 20
-7.1213832769214864
 30
0.0
 10
4.758548059854288
 20
-7.1213832769214864
 30
0.0
  0
SPLINE
  5
153
  8
CUT_SHEET_3b
 62
3
420
65280
370
15
  6
ByLayer
100
AcDbEntity
100
AcDbSpline
 70
8
 71
3
 72
8
 73
4
 74
0
 40
0.0
 40
0.0
 40
0.0
 40
0.0
 40
1.0
 40
1.0
 40
1.0
 40
1.0
 10
4.758548059854288
 20
-7.1213832769214864
 30
0.0
 10
4.6550459299684279
 20
-7.12138327692149
 30
0.0
 10
4.5711428798473666
 20
-7.2052863270425549
 30
0.0
 10
4.5711428798473683
 20
-7.3087748935514032
 30
0.0
  0
SPLINE
  5
154
  8
CUT_SHEET_3b
 62
3
420
65280
370
15
  6
ByLayer
100
AcDbEntity
100
AcDbSpline
 70
8
 71
3
 72
8
 73
4
 74
0
 40
0.0
 40
0.0
 40
0.0
 40
0.0
 40
1.0
 40
1.0
 40
1.0
 40
1.0
 10
3.4179303138121995
 20
-7.3087748935514032
 30
0.0
 10
3.4179303138121977
 20
-7.4122634600602542
 30
0.0
 10
3.5018198005562571
 20
-7.49616651018132
 30
0.0
 10
3.6053219304421056
 20
-7.49616651018132
 30
0.0
  0
SPLINE
  5
155
  8
CUT_SHEET_3b
 62
3
420
65280
370
15
  6
ByLayer
100
AcDbEntity
100
AcDbSpline
 70
8
 71
3
 72
8
 73
4
 74
0
 40
0.0
 40
0.0
 40
0.0
 40
0.0
 40
1.0
 40
1.0
 40
1.0
 40
1.0
 10
3.6053219304421056
 20
-7.49616651018132
 30
0.0
 10
3.7088104969509601
 20
-7.4961665101813182
 30
0.0
 10
3.7927135470720259
 20
-7.4122770234372526
 30
0.0
 10
3.7927135470720259
 20
-7.308774893551405
 30
0.0
  0
SPLINE
  5
156
  8
CUT_SHEET_3b
 62
3
420
65280
370
15
  6
ByLayer
100
AcDbEntity
100
AcDbSpline
 70
8
 71
3
 72
8
 73
4
 74
0
 40
0.0
 40
0.0
 40
0.0
 40
0.0
 40
1.0
 40
1.0
 40
1.0
 40
1.0
 10
3.7927135470720259
 20
-7.308774893551405
 30
0.0
 10
3.7927135470720277
 20
-7.2052863270425549
 30
0.0
 10
3.7088240603279585
 20
-7.1213832769214873
 30
0.0
 10
3.6053219304421074
 20
-7.1213832769214873
 30
0.0
  0
SPLINE
  5
157
  8
CUT_SHEET_3b
 62
3
420
65280
370
15
  6
ByLayer
100
AcDbEntity
100
AcDbSpline
 70
8
 71
3
 72
8
 73
4
 74
0
 40
0.0
 40
0.0
 40
0.0
 40
0.0
 40
1.0
 40
1.0
 40
1.0
 40
1.0
 10
3.6053219304421074
 20
-7.1213832769214873
 30
0.0
 10
3.5018333639332564
 20
-7.1213832769214864
 30
0.0
 10
3.4179303138121933
 20
-7.2052863270425576
 30
0.0
 10
3.4179303138121995
 20
-7.3087748935514032
 30
0.0
  0
LINE
  5
158
100
AcDbEntity
100
AcDbLine
  8
CUT_SHEET_3b
 62
7
420
0
370
15
  6
ByLayer
 10
4.438276038799998
 20
-0.9359272665000002
 30
0.0
 11
4.501576319199998
 21
-0.9992275470000038
 31
0.0
  0
LINE
  5
159
100
AcDbEntity
100
AcDbLine
  8
CUT_SHEET_3b
 62
7
420
0
370
15
  6
ByLayer
 10
4.6218699098000009
 20
-0.9992275469999985
 30
0.0
 11
4.6218699098
 21
-0.7460399885000033
 31
0.0
  0
LINE
  5
15A
100
AcDbEntity
100
AcDbLine
  8
CUT_SHEET_3b
 62
7
420
0
370
15
  6
ByLayer
 10
5.0016309023999987
 20
-0.7460399884999998
 30
0.0
 11
5.2548048974999979
 21
-0.746039988499998
 31
0.0
  0
LINE
  5
15B
100
AcDbEntity
100
AcDbLine
  8
CUT_SHEET_3b
 62
7
420
0
370
15
  6
ByLayer
 10
2.5141075606999967
 20
-1.2524015421000012
 30
0.0
 11
2.5141075606999976
 21
-1.6258420009999988
 31
0.0
  0
LINE
  5
15C
100
AcDbEntity
100
AcDbLine
  8
CUT_SHEET_3b
 62
7
420
0
370
15
  6
ByLayer
 10
3.020523367700001
 20
-1.5688758176000004
 30
0.0
 11
3.0837829580000005
 21
-1.6258420010000005
 31
0.0
  0
LINE
  5
15D
100
AcDbEntity
100
AcDbLine
  8
CUT_SHEET_3b
 62
7
420
0
370
15
  6
ByLayer
 10
3.5838104145000003
 20
-1.6258420010000023
 30
0.0
 11
3.5838104145000003
 21
-1.2524015420999994
 31
0.0
  0
LINE
  5
15E
100
AcDbEntity
100
AcDbLine
  8
CUT_SHEET_3b
 62
7
420
0
370
15
  6
ByLayer
 10
3.7104381021999977
 20
-1.5055755371000004
 30
0.0
 11
3.8369844095999985
 21
-1.6258420010000041
 31
0.0
  0
LINE
  5
15F
100
AcDbEntity
100
AcDbLine
  8
CUT_SHEET_3b
 62
7
420
0
370
15
  6
ByLayer
 10
4.9066737001000007
 20
-1.5688758176000022
 30
0.0
 11
4.9699604171999985
 21
-1.6258420010000023
 31
0.0
  0
LINE
  5
160
100
AcDbEntity
100
AcDbLine
  8
CUT_SHEET_3b
 62
7
420
0
370
15
  6
ByLayer
 10
5.0965609780999976
 20
-1.6258420010000023
 30
0.0
 11
5.0965609780999976
 21
-1.3789749762000039
 31
0.0
  0
LINE
  5
161
100
AcDbEntity
100
AcDbLine
  8
CUT_SHEET_3b
 62
7
420
0
370
15
  6
ByLayer
 10
3.5838104145000003
 20
-1.5055755371000004
 30
0.0
 11
3.7104381021999977
 21
-1.5055755371000004
 31
0.0
  0
LINE
  5
162
100
AcDbEntity
100
AcDbLine
  8
CUT_SHEET_3b
 62
7
420
0
370
15
  6
ByLayer
 10
3.7104381021999977
 20
-1.5055755371000004
 30
0.0
 11
3.8369844095999994
 21
-1.3789749762000003
 31
0.0
  0
LINE
  5
163
100
AcDbEntity
100
AcDbLine
  8
CUT_SHEET_3b
 62
7
420
0
370
15
  6
ByLayer
 10
4.6218699098000009
 20
-0.8726269861000002
 30
0.0
 11
4.7484433439999982
 21
-0.7460399885000015
 31
0.0
  0
LINE
  5
164
100
AcDbEntity
100
AcDbLine
  8
CUT_SHEET_3b
 62
7
420
0
370
15
  6
ByLayer
 10
4.7484433439999982
 20
-0.7460399885000015
 30
0.0
 11
4.8117300611000005
 21
-0.7460399884999998
 31
0.0
  0
LINE
  5
165
100
AcDbEntity
100
AcDbLine
  8
CUT_SHEET_3b
 62
7
420
0
370
15
  6
ByLayer
 10
4.8117300611000005
 20
-0.7460399884999998
 30
0.0
 11
4.8750303414999996
 21
-0.8093402690000016
 31
0.0
  0
LINE
  5
166
100
AcDbEntity
100
AcDbLine
  8
CUT_SHEET_3b
 62
7
420
0
370
15
  6
ByLayer
 10
5.1282043365999996
 20
-0.6194529910000082
 30
0.0
 11
5.1282043365999996
 21
-0.9359272665000038
 31
0.0
  0
LINE
  5
167
100
AcDbEntity
100
AcDbLine
  8
CUT_SHEET_3b
 62
7
420
0
370
15
  6
ByLayer
 10
5.1282043365999996
 20
-0.9359272665000038
 30
0.0
 11
5.1914910536999974
 21
-0.9992275470000074
 31
0.0
  0
LINE
  5
168
100
AcDbEntity
100
AcDbLine
  8
CUT_SHEET_3b
 62
7
420
0
370
15
  6
ByLayer
 10
5.1914910536999974
 20
-0.9992275470000074
 30
0.0
 11
5.2548048974999979
 21
-0.9359272665000002
 31
0.0
  0
LINE
  5
169
100
AcDbEntity
100
AcDbLine
  8
CUT_SHEET_3b
 62
7
420
0
370
15
  6
ByLayer
 10
2.4508479702999999
 20
-1.6258420010000005
 30
0.0
 11
2.640721684999999
 21
-1.6258420010000023
 31
0.0
  0
LINE
  5
16A
100
AcDbEntity
100
AcDbLine
  8
CUT_SHEET_3b
 62
7
420
0
370
15
  6
ByLayer
 10
2.640721684999999
 20
-1.6258420010000023
 30
0.0
 11
2.7040219653999991
 21
-1.5688758176000022
 31
0.0
  0
LINE
  5
16B
100
AcDbEntity
100
AcDbLine
  8
CUT_SHEET_3b
 62
7
420
0
370
15
  6
ByLayer
 10
2.7040219653999991
 20
-1.5688758176000022
 30
0.0
 11
2.7040219653999982
 21
-1.5055755371000021
 31
0.0
  0
LINE
  5
16C
100
AcDbEntity
100
AcDbLine
  8
CUT_SHEET_3b
 62
7
420
0
370
15
  6
ByLayer
 10
2.7040219653999982
 20
-1.5055755371000021
 30
0.0
 11
2.640721684999999
 21
-1.4422888200999999
 31
0.0
  0
LINE
  5
16D
100
AcDbEntity
100
AcDbLine
  8
CUT_SHEET_3b
 62
7
420
0
370
15
  6
ByLayer
 10
2.640721684999999
 20
-1.4422888200999999
 30
0.0
 11
2.5141075606999976
 21
-1.4422888200999999
 31
0.0
  0
LINE
  5
16E
100
AcDbEntity
100
AcDbLine
  8
CUT_SHEET_3b
 62
7
420
0
370
15
  6
ByLayer
 10
2.640721684999999
 20
-1.4422888200999999
 30
0.0
 11
2.7040219653999991
 21
-1.3789749762000003
 31
0.0
  0
LINE
  5
16F
100
AcDbEntity
100
AcDbLine
  8
CUT_SHEET_3b
 62
7
420
0
370
15
  6
ByLayer
 10
2.7040219653999991
 20
-1.3789749762000003
 30
0.0
 11
2.7040219653999991
 21
-1.315715385899999
 31
0.0
  0
LINE
  5
170
100
AcDbEntity
100
AcDbLine
  8
CUT_SHEET_3b
 62
7
420
0
370
15
  6
ByLayer
 10
2.7040219653999991
 20
-1.315715385899999
 30
0.0
 11
2.6407216849999982
 21
-1.2524015421000012
 31
0.0
  0
LINE
  5
171
100
AcDbEntity
100
AcDbLine
  8
CUT_SHEET_3b
 62
7
420
0
370
15
  6
ByLayer
 10
2.6407216849999982
 20
-1.2524015421000012
 30
0.0
 11
2.4508479702999999
 21
-1.2524015420999994
 31
0.0
  0
LINE
  5
172
100
AcDbEntity
100
AcDbLine
  8
CUT_SHEET_3b
 62
7
420
0
370
15
  6
ByLayer
 10
2.9572095238999978
 20
-1.6258420010000005
 30
0.0
 11
2.8939092433999978
 21
-1.6258420010000023
 31
0.0
  0
LINE
  5
173
100
AcDbEntity
100
AcDbLine
  8
CUT_SHEET_3b
 62
7
420
0
370
15
  6
ByLayer
 10
2.8939092433999978
 20
-1.6258420010000023
 30
0.0
 11
2.8305818361999995
 21
-1.5688758176000022
 31
0.0
  0
LINE
  5
174
100
AcDbEntity
100
AcDbLine
  8
CUT_SHEET_3b
 62
7
420
0
370
15
  6
ByLayer
 10
2.8305818361999995
 20
-1.5688758176000022
 30
0.0
 11
2.8305818362000004
 21
-1.4422888200999999
 31
0.0
  0
LINE
  5
175
100
AcDbEntity
100
AcDbLine
  8
CUT_SHEET_3b
 62
7
420
0
370
15
  6
ByLayer
 10
2.8305818362000004
 20
-1.4422888200999999
 30
0.0
 11
2.8939092433999996
 21
-1.3789749762000003
 31
0.0
  0
LINE
  5
176
100
AcDbEntity
100
AcDbLine
  8
CUT_SHEET_3b
 62
7
420
0
370
15
  6
ByLayer
 10
2.8939092433999996
 20
-1.3789749762000003
 30
0.0
 11
2.9572095238999969
 21
-1.3789749762000021
 31
0.0
  0
LINE
  5
177
100
AcDbEntity
100
AcDbLine
  8
CUT_SHEET_3b
 62
7
420
0
370
15
  6
ByLayer
 10
2.9572095238999969
 20
-1.3789749762000021
 30
0.0
 11
3.0205233677000001
 21
-1.4422888201000017
 31
0.0
  0
LINE
  5
178
100
AcDbEntity
100
AcDbLine
  8
CUT_SHEET_3b
 62
7
420
0
370
15
  6
ByLayer
 10
3.0205233677000001
 20
-1.4422888201000017
 30
0.0
 11
3.020523367700001
 21
-1.5688758176000004
 31
0.0
  0
LINE
  5
179
100
AcDbEntity
100
AcDbLine
  8
CUT_SHEET_3b
 62
7
420
0
370
15
  6
ByLayer
 10
3.020523367700001
 20
-1.5688758176000004
 30
0.0
 11
2.9572095238999978
 21
-1.6258420010000005
 31
0.0
  0
LINE
  5
17A
100
AcDbEntity
100
AcDbLine
  8
CUT_SHEET_3b
 62
7
420
0
370
15
  6
ByLayer
 10
3.4571962901999989
 20
-1.3789749762000021
 30
0.0
 11
3.273670236000001
 21
-1.3789749761999985
 31
0.0
  0
LINE
  5
17B
100
AcDbEntity
100
AcDbLine
  8
CUT_SHEET_3b
 62
7
420
0
370
15
  6
ByLayer
 10
3.273670236000001
 20
-1.3789749761999985
 30
0.0
 11
3.2103835190000005
 21
-1.4422888200999999
 31
0.0
  0
LINE
  5
17C
100
AcDbEntity
100
AcDbLine
  8
CUT_SHEET_3b
 62
7
420
0
370
15
  6
ByLayer
 10
3.2103835190000005
 20
-1.4422888200999999
 30
0.0
 11
3.2103835190000005
 21
-1.5688758176000004
 31
0.0
  0
LINE
  5
17D
100
AcDbEntity
100
AcDbLine
  8
CUT_SHEET_3b
 62
7
420
0
370
15
  6
ByLayer
 10
3.2103835190000005
 20
-1.5688758176000004
 30
0.0
 11
3.2736702360000001
 21
-1.6258420010000023
 31
0.0
  0
LINE
  5
17E
100
AcDbEntity
100
AcDbLine
  8
CUT_SHEET_3b
 62
7
420
0
370
15
  6
ByLayer
 10
3.2736702360000001
 20
-1.6258420010000023
 30
0.0
 11
3.4571962901999989
 21
-1.6258420009999988
 31
0.0
  0
LINE
  5
17F
100
AcDbEntity
100
AcDbLine
  8
CUT_SHEET_3b
 62
7
420
0
370
15
  6
ByLayer
 10
4.3433459630999991
 20
-1.6258420010000005
 30
0.0
 11
4.3433459630999982
 21
-1.252401542100003
 31
0.0
  0
LINE
  5
180
100
AcDbEntity
100
AcDbLine
  8
CUT_SHEET_3b
 62
7
420
0
370
15
  6
ByLayer
 10
4.3433459630999982
 20
-1.252401542100003
 30
0.0
 11
4.5332196777999982
 21
-1.2524015420999977
 31
0.0
  0
LINE
  5
181
100
AcDbEntity
100
AcDbLine
  8
CUT_SHEET_3b
 62
7
420
0
370
15
  6
ByLayer
 10
4.5332196777999982
 20
-1.2524015420999977
 30
0.0
 11
4.5965199581999983
 21
-1.3157153858999955
 31
0.0
  0
LINE
  5
182
100
AcDbEntity
100
AcDbLine
  8
CUT_SHEET_3b
 62
7
420
0
370
15
  6
ByLayer
 10
4.5965199581999983
 20
-1.3157153858999955
 30
0.0
 11
4.5965199581999974
 21
-1.3789749762000003
 31
0.0
  0
LINE
  5
183
100
AcDbEntity
100
AcDbLine
  8
CUT_SHEET_3b
 62
7
420
0
370
15
  6
ByLayer
 10
4.5965199581999974
 20
-1.3789749762000003
 30
0.0
 11
4.5332196777999973
 21
-1.4422888201000017
 31
0.0
  0
LINE
  5
184
100
AcDbEntity
100
AcDbLine
  8
CUT_SHEET_3b
 62
7
420
0
370
15
  6
ByLayer
 10
4.5332196777999973
 20
-1.4422888201000017
 30
0.0
 11
4.3433459630999991
 21
-1.4422888201000017
 31
0.0
  0
LINE
  5
185
100
AcDbEntity
100
AcDbLine
  8
CUT_SHEET_3b
 62
7
420
0
370
15
  6
ByLayer
 10
4.8434005463999972
 20
-1.6258420010000023
 30
0.0
 11
4.7801002658999989
 21
-1.6258420010000023
 31
0.0
  0
LINE
  5
186
100
AcDbEntity
100
AcDbLine
  8
CUT_SHEET_3b
 62
7
420
0
370
15
  6
ByLayer
 10
4.7801002658999989
 20
-1.6258420010000023
 30
0.0
 11
4.7167864220999993
 21
-1.5688758176000039
 31
0.0
  0
LINE
  5
187
100
AcDbEntity
100
AcDbLine
  8
CUT_SHEET_3b
 62
7
420
0
370
15
  6
ByLayer
 10
4.7167864220999993
 20
-1.5688758176000039
 30
0.0
 11
4.7167864221000002
 21
-1.4422888200999999
 31
0.0
  0
LINE
  5
188
100
AcDbEntity
100
AcDbLine
  8
CUT_SHEET_3b
 62
7
420
0
370
15
  6
ByLayer
 10
4.7167864221000002
 20
-1.4422888200999999
 30
0.0
 11
4.7801002658999998
 21
-1.3789749762000021
 31
0.0
  0
LINE
  5
189
100
AcDbEntity
100
AcDbLine
  8
CUT_SHEET_3b
 62
7
420
0
370
15
  6
ByLayer
 10
4.7801002658999998
 20
-1.3789749762000021
 30
0.0
 11
4.8434005463999981
 21
-1.3789749762000003
 31
0.0
  0
LINE
  5
18A
100
AcDbEntity
100
AcDbLine
  8
CUT_SHEET_3b
 62
7
420
0
370
15
  6
ByLayer
 10
4.8434005463999981
 20
-1.3789749762000003
 30
0.0
 11
4.9066737001000007
 21
-1.4422888200999981
 31
0.0
  0
LINE
  5
18B
100
AcDbEntity
100
AcDbLine
  8
CUT_SHEET_3b
 62
7
420
0
370
15
  6
ByLayer
 10
4.9066737001000007
 20
-1.4422888200999981
 30
0.0
 11
4.9066737001000007
 21
-1.5688758176000022
 31
0.0
  0
LINE
  5
18C
100
AcDbEntity
100
AcDbLine
  8
CUT_SHEET_3b
 62
7
420
0
370
15
  6
ByLayer
 10
4.9066737001000007
 20
-1.5688758176000022
 30
0.0
 11
4.8434005463999972
 21
-1.6258420010000023
 31
0.0
  0
LINE
  5
18D
100
AcDbEntity
100
AcDbLine
  8
CUT_SHEET_3b
 62
7
420
0
370
15
  6
ByLayer
 10
5.4763626607999996
 20
-1.5055755371000004
 30
0.0
 11
5.6662092486999995
 21
-1.5055755371000021
 31
0.0
  0
LINE
  5
18E
100
AcDbEntity
100
AcDbLine
  8
CUT_SHEET_3b
 62
7
420
0
370
15
  6
ByLayer
 10
5.6662092486999995
 20
-1.5055755371000021
 30
0.0
 11
5.7295230924999991
 21
-1.4422888200999964
 31
0.0
  0
LINE
  5
18F
100
AcDbEntity
100
AcDbLine
  8
CUT_SHEET_3b
 62
7
420
0
370
15
  6
ByLayer
 10
5.7295230924999991
 20
-1.4422888200999964
 30
0.0
 11
5.6662092486999995
 21
-1.3789749762000021
 31
0.0
  0
LINE
  5
190
100
AcDbEntity
100
AcDbLine
  8
CUT_SHEET_3b
 62
7
420
0
370
15
  6
ByLayer
 10
5.6662092486999995
 20
-1.3789749762000021
 30
0.0
 11
5.5396358144999978
 21
-1.3789749761999985
 31
0.0
  0
LINE
  5
191
100
AcDbEntity
100
AcDbLine
  8
CUT_SHEET_3b
 62
7
420
0
370
15
  6
ByLayer
 10
5.5396358144999978
 20
-1.3789749761999985
 30
0.0
 11
5.4763626607999987
 21
-1.4422888201000035
 31
0.0
  0
LINE
  5
192
100
AcDbEntity
100
AcDbLine
  8
CUT_SHEET_3b
 62
7
420
0
370
15
  6
ByLayer
 10
5.4763626607999987
 20
-1.4422888201000035
 30
0.0
 11
5.4763626607999987
 21
-1.5688758176000057
 31
0.0
  0
LINE
  5
193
100
AcDbEntity
100
AcDbLine
  8
CUT_SHEET_3b
 62
7
420
0
370
15
  6
ByLayer
 10
5.4763626607999987
 20
-1.5688758176000057
 30
0.0
 11
5.5396358144999978
 21
-1.6258420010000023
 31
0.0
  0
LINE
  5
194
100
AcDbEntity
100
AcDbLine
  8
CUT_SHEET_3b
 62
7
420
0
370
15
  6
ByLayer
 10
5.5396358144999978
 20
-1.6258420010000023
 30
0.0
 11
5.6662092486999995
 21
-1.6258420009999988
 31
0.0
  0
LINE
  5
195
100
AcDbEntity
100
AcDbLine
  8
CUT_SHEET_3b
 62
7
420
0
370
15
  6
ByLayer
 10
5.0965609780999976
 20
-1.5055755371000004
 30
0.0
 11
5.2231479755999999
 21
-1.3789749762000021
 31
0.0
  0
LINE
  5
196
100
AcDbEntity
100
AcDbLine
  8
CUT_SHEET_3b
 62
7
420
0
370
15
  6
ByLayer
 10
5.2231479755999999
 20
-1.3789749762000021
 30
0.0
 11
5.286421129299999
 21
-1.3789749762000003
 31
0.0
  0
LINE
  5
197
100
AcDbEntity
100
AcDbLine
  8
CUT_SHEET_3b
 62
7
420
0
370
15
  6
ByLayer
 10
5.286421129299999
 20
-1.3789749762000003
 30
0.0
 11
5.3497485364999964
 21
-1.4422888201000035
 31
0.0
  0
LINE
  5
198
100
AcDbEntity
100
AcDbLine
  8
CUT_SHEET_3b
 62
7
420
0
370
15
  6
ByLayer
 10
5.3497485364999964
 20
-1.4422888201000035
 30
0.0
 11
5.3497485364999982
 21
-1.6258420009999988
 31
0.0
  0
LINE
  5
199
100
AcDbEntity
100
AcDbLine
  8
CUT_SHEET_3b
 62
7
420
0
370
15
  6
ByLayer
 10
3.1154398800000003
 20
-0.6194529909999993
 30
0.0
 11
3.3686138749999976
 21
-0.6194529910000011
 31
0.0
  0
LINE
  5
19A
100
AcDbEntity
100
AcDbLine
  8
CUT_SHEET_3b
 62
7
420
0
370
15
  6
ByLayer
 10
3.3686138749999976
 20
-0.6194529910000011
 30
0.0
 11
3.1154398800000003
 21
-0.999227547000002
 31
0.0
  0
LINE
  5
19B
100
AcDbEntity
100
AcDbLine
  8
CUT_SHEET_3b
 62
7
420
0
370
15
  6
ByLayer
 10
3.1154398800000003
 20
-0.999227547000002
 30
0.0
 11
3.3686138749999976
 21
-0.9992275470000003
 31
0.0
  0
LINE
  5
19C
100
AcDbEntity
100
AcDbLine
  8
CUT_SHEET_3b
 62
7
420
0
370
15
  6
ByLayer
 10
4.1218424533999993
 20
-0.9359272665000002
 30
0.0
 11
4.0585286094999979
 21
-0.999227547000002
 31
0.0
  0
LINE
  5
19D
100
AcDbEntity
100
AcDbLine
  8
CUT_SHEET_3b
 62
7
420
0
370
15
  6
ByLayer
 10
4.0585286094999979
 20
-0.999227547000002
 30
0.0
 11
3.9319144852000001
 21
-0.9992275470000003
 31
0.0
  0
LINE
  5
19E
100
AcDbEntity
100
AcDbLine
  8
CUT_SHEET_3b
 62
7
420
0
370
15
  6
ByLayer
 10
3.9319144852000001
 20
-0.9992275470000003
 30
0.0
 11
3.8686684583000002
 21
-0.935927266500002
 31
0.0
  0
LINE
  5
19F
100
AcDbEntity
100
AcDbLine
  8
CUT_SHEET_3b
 62
7
420
0
370
15
  6
ByLayer
 10
3.8686684583000002
 20
-0.935927266500002
 30
0.0
 11
3.8686684583000002
 21
-0.6827668348000007
 31
0.0
  0
LINE
  5
1A0
100
AcDbEntity
100
AcDbLine
  8
CUT_SHEET_3b
 62
7
420
0
370
15
  6
ByLayer
 10
3.8686684583000002
 20
-0.6827668348000007
 30
0.0
 11
3.9319144852000001
 21
-0.6194529910000028
 31
0.0
  0
LINE
  5
1A1
100
AcDbEntity
100
AcDbLine
  8
CUT_SHEET_3b
 62
7
420
0
370
15
  6
ByLayer
 10
3.9319144852000001
 20
-0.6194529910000028
 30
0.0
 11
4.0585286094999971
 21
-0.6194529910000046
 31
0.0
  0
LINE
  5
1A2
100
AcDbEntity
100
AcDbLine
  8
CUT_SHEET_3b
 62
7
420
0
370
15
  6
ByLayer
 10
4.0585286094999971
 20
-0.6194529910000046
 30
0.0
 11
4.1218424533999993
 21
-0.6827668347999971
 31
0.0
  0
LINE
  5
1A3
100
AcDbEntity
100
AcDbLine
  8
CUT_SHEET_3b
 62
7
420
0
370
15
  6
ByLayer
 10
5.8497895564000011
 20
-1.2524015421000012
 30
0.0
 11
5.8497895564000011
 21
-1.5688758176000022
 31
0.0
  0
LINE
  5
1A4
100
AcDbEntity
100
AcDbLine
  8
CUT_SHEET_3b
 62
7
420
0
370
15
  6
ByLayer
 10
5.8497895564000011
 20
-1.5688758176000022
 30
0.0
 11
5.9130491466999997
 21
-1.6258420010000041
 31
0.0
  0
LINE
  5
1A5
100
AcDbEntity
100
AcDbLine
  8
CUT_SHEET_3b
 62
7
420
0
370
15
  6
ByLayer
 10
4.3750028850999989
 20
-0.9992275470000003
 30
0.0
 11
4.3117161680000002
 21
-0.999227547000002
 31
0.0
  0
LINE
  5
1A6
100
AcDbEntity
100
AcDbLine
  8
CUT_SHEET_3b
 62
7
420
0
370
15
  6
ByLayer
 10
4.3117161680000002
 20
-0.999227547000002
 30
0.0
 11
4.2484158874999975
 21
-0.9359272665000002
 31
0.0
  0
LINE
  5
1A7
100
AcDbEntity
100
AcDbLine
  8
CUT_SHEET_3b
 62
7
420
0
370
15
  6
ByLayer
 10
4.2484158874999975
 20
-0.9359272665000002
 30
0.0
 11
4.2484158874999975
 21
-0.8093402690000051
 31
0.0
  0
LINE
  5
1A8
100
AcDbEntity
100
AcDbLine
  8
CUT_SHEET_3b
 62
7
420
0
370
15
  6
ByLayer
 10
4.2484158874999975
 20
-0.8093402690000051
 30
0.0
 11
4.3117161680000002
 21
-0.7460399884999998
 31
0.0
  0
LINE
  5
1A9
100
AcDbEntity
100
AcDbLine
  8
CUT_SHEET_3b
 62
7
420
0
370
15
  6
ByLayer
 10
4.3117161680000002
 20
-0.7460399884999998
 30
0.0
 11
4.3750028850999989
 21
-0.7460399885000015
 31
0.0
  0
LINE
  5
1AA
100
AcDbEntity
100
AcDbLine
  8
CUT_SHEET_3b
 62
7
420
0
370
15
  6
ByLayer
 10
4.3750028850999989
 20
-0.7460399885000015
 30
0.0
 11
4.438276038799998
 21
-0.8093402689999998
 31
0.0
  0
LINE
  5
1AB
100
AcDbEntity
100
AcDbLine
  8
CUT_SHEET_3b
 62
7
420
0
370
15
  6
ByLayer
 10
4.438276038799998
 20
-0.8093402689999998
 30
0.0
 11
4.438276038799998
 21
-0.9359272665000002
 31
0.0
  0
LINE
  5
1AC
100
AcDbEntity
100
AcDbLine
  8
CUT_SHEET_3b
 62
7
420
0
370
15
  6
ByLayer
 10
4.438276038799998
 20
-0.9359272665000002
 30
0.0
 11
4.3750028850999989
 21
-0.9992275470000003
 31
0.0
  0
ENDBLK
  5
1AD
100
AcDbEntity
  8
0
100
AcDbBlockEnd
  0
ENDSEC
  0
SECTION
  2
ENTITIES
  0
INSERT
  5
1AE
100
AcDbEntity
100
AcDbBlockReference
  8
0
 62
256
370
-1
  6
ByLayer
  2
BORDER
 10
-12.0
 20
6.0000000000000027
 30
0.0
  0
INSERT
  5
1AF
100
AcDbEntity
100
AcDbBlockReference
  8
CUT_SHEET_3b
 62
256
370
-1
  6
ByLayer
  2
frag
 10
-10.9930204656340145
 20
-5.1269364844536023
 30
0.0
 50
90.0
  0
ENDSEC
  0
SECTION
  2
OBJECTS
  0
DICTIONARY
  5
C
100
AcDbDictionary
280
0
281
1
  3
ACAD_GROUP
350
D
  3
ACAD_LAYOUT
350
1A
  3
ACAD_MLINESTYLE
350
17
  3
ACAD_PLOTSETTINGS
350
19
  3
ACAD_PLOTSTYLENAME
350
E
  3
AcDbVariableDictionary
350
1B0
  0
DICTIONARY
  5
D
100
AcDbDictionary
280
0
281
1
  0
ACDBDICTIONARYWDFLT
  5
E
100
AcDbDictionary
281
1
  3
Normal
350
F
100
AcDbDictionaryWithDefault
340
F
  0
ACDBPLACEHOLDER
  5
F
  0
DICTIONARY
  5
17
100
AcDbDictionary
280
0
281
1
  3
Standard
350
18
  0
MLINESTYLE
  5
18
100
AcDbMlineStyle
  2
STANDARD
 70
0
  3

 62
256
 51
90.0
 52
90.0
 71
2
 49
0.5
 62
256
  6
BYLAYER
 49
-0.5
 62
256
  6
BYLAYER
  0
DICTIONARY
  5
19
100
AcDbDictionary
280
0
281
1
  0
DICTIONARY
  5
1A
100
AcDbDictionary
281
1
  3
Layout1
350
1E
  3
Layout2
350
26
  3
Model
350
22
  0
LAYOUT
  5
1E
100
AcDbPlotSettings
  1

  2
C:\Program Files\AutoCAD 2002\plotters\DWF ePlot (optimized for plotting).pc3
  4

  6

 40
0.0
 41
0.0
 42
0.0
 43
0.0
 44
0.0
 45
0.0
 46
0.0
 47
0.0
 48
0.0
 49
0.0
140
0.0
141
0.0
142
1.0
143
1.0
 70
688
 72
0
 73
0
 74
5
  7

 75
16
147
1.0
148
0.0
149
0.0
100
AcDbLayout
  1
Layout1
 70
1
 71
1
 10
0.0
 20
0.0
 11
420.0
 21
297.0
 12
0.0
 22
0.0
 32
0.0
 14
100000000000000000000.0
 24
100000000000000000000.0
 34
100000000000000000000.0
 15
-100000000000000000000.0
 25
-100000000000000000000.0
 35
-100000000000000000000.0
146
0.0
 13
0.0
 23
0.0
 33
0.0
 16
1.0
 26
0.0
 36
0.0
 17
0.0
 27
1.0
 37
0.0
 76
0
330
1B
  0
LAYOUT
  5
22
100
AcDbPlotSettings
  1

  2
C:\Program Files\AutoCAD 2002\plotters\DWF ePlot (optimized for plotting).pc3
  4

  6

 40
0.0
 41
0.0
 42
0.0
 43
0.0
 44
0.0
 45
0.0
 46
0.0
 47
0.0
 48
0.0
 49
0.0
140
0.0
141
0.0
142
1.0
143
1.0
 70
1712
 72
0
 73
0
 74
0
  7

 75
0
147
1.0
148
0.0
149
0.0
100
AcDbLayout
  1
Model
 70
1
 71
0
 10
0.0
 20
0.0
 11
12.0
 21
9.0
 12
0.0
 22
0.0
 32
0.0
 14
0.0
 24
0.0
 34
0.0
 15
0.0
 25
0.0
 35
0.0
146
0.0
 13
0.0
 23
0.0
 33
0.0
 16
1.0
 26
0.0
 36
0.0
 17
0.0
 27
1.0
 37
0.0
 76
0
330
1F
  0
LAYOUT
  5
26
100
AcDbPlotSettings
  1

  2
C:\Program Files\AutoCAD 2002\plotters\DWF ePlot (optimized for plotting).pc3
  4

  6

 40
0.0
 41
0.0
 42
0.0
 43
0.0
 44
0.0
 45
0.0
 46
0.0
 47
0.0
 48
0.0
 49
0.0
140
0.0
141
0.0
142
1.0
143
1.0
 70
688
 72
0
 73
0
 74
5
  7

 75
16
147
1.0
148
0.0
149
0.0
100
AcDbLayout
  1
Layout2
 70
1
 71
2
 10
0.0
 20
0.0
 11
12.0
 21
9.0
 12
0.0
 22
0.0
 32
0.0
 14
0.0
 24
0.0
 34
0.0
 15
0.0
 25
0.0
 35
0.0
146
0.0
 13
0.0
 23
0.0
 33
0.0
 16
1.0
 26
0.0
 36
0.0
 17
0.0
 27
1.0
 37
0.0
 76
0
330
23
  0
DICTIONARY
  5
1B0
100
AcDbDictionary
281
1
  3
DIMASSOC
350
1B2
  3
HIDETEXT
350
1B1
  0
DICTIONARYVAR
  5
1B1
100
DictionaryVariables
280
0
  1
2
  0
DICTIONARYVAR
  5
1B2
100
DictionaryVariables
280
0
  1
1
  0
ENDSEC
  0
EOF
