999
dxflib 2.2.0.0
  0
SECTION
  2
HEADER
  9
$ACADVER
  1
AC1015
  9
$HANDSEED
  5
FFFF
  9
$SPLINESEGS
 70
8
  9
$DIMEXE
 40
1.25
  9
$DIMAZIN
 70
8
  9
$DIMZIN
 70
8
  9
$DIMLUNIT
 70
2
  9
$GRIDMODE
 70
1
  9
$INSUNITS
 70
1
  9
$DIMADEC
 70
2
  9
$DIMASZ
 40
2.5
  9
$DIMGAP
 40
0.625
  9
$DIMTXT
 40
2.5
  9
$GRIDUNIT
 10
0.0
 20
0.0
  9
$DIMEXO
 40
0.625
  9
$LUPREC
 70
4
  9
$DIMAUNIT
 70
0
  9
$AUPREC
 70
2
  9
$PLIMMIN
 10
0.0
 20
0.0
  9
$LUNITS
 70
2
  9
$PLIMMAX
 10
8.2677165354330722
 20
11.6929133858267722
  9
$DIMBLK
  1

  9
$AUNITS
 70
0
  9
$CLAYER
  8
0
  0
ENDSEC
  0
SECTION
  2
TABLES
  0
TABLE
  2
VPORT
  5
8
100
AcDbSymbolTable
 70
1
  0
VPORT
  5
30
100
AcDbSymbolTableRecord
100
AcDbViewportTableRecord
  2
*Active
 70
0
 10
0.0
 20
0.0
 11
1.0
 21
1.0
 12
286.3055555555554861
 22
148.5
 13
0.0
 23
0.0
 14
10.0
 24
10.0
 15
10.0
 25
10.0
 16
0.0
 26
0.0
 36
1.0
 17
0.0
 27
0.0
 37
0.0
 40
297.0
 41
1.92798353909465
 42
50.0
 43
0.0
 44
0.0
 50
0.0
 51
0.0
 71
0
 72
100
 73
1
 74
3
 75
1
 76
1
 77
0
 78
0
281
0
 65
1
110
0.0
120
0.0
130
0.0
111
1.0
121
0.0
131
0.0
112
0.0
122
1.0
132
0.0
 79
0
146
0.0
  0
ENDTAB
  0
TABLE
  2
LTYPE
  5
5
100
AcDbSymbolTable
 70
21
  0
LTYPE
  5
14
100
AcDbSymbolTableRecord
100
AcDbLinetypeTableRecord
  2
ByBlock
 70
0
  3

 72
65
 73
0
 40
0.0
  0
LTYPE
  5
15
100
AcDbSymbolTableRecord
100
AcDbLinetypeTableRecord
  2
ByLayer
 70
0
  3

 72
65
 73
0
 40
0.0
  0
LTYPE
  5
16
100
AcDbSymbolTableRecord
100
AcDbLinetypeTableRecord
  2
CONTINUOUS
 70
0
  3
Solid line
 72
65
 73
0
 40
0.0
  0
LTYPE
  5
31
100
AcDbSymbolTableRecord
100
AcDbLinetypeTableRecord
  2
DOT
 70
0
  3
Dot . . . . . . . . . . . . . . . . . . . . . .
 72
65
 73
2
 40
6.3499999999999996
 49
0.0
 74
0
 49
-6.3499999999999996
 74
0
  0
LTYPE
  5
32
100
AcDbSymbolTableRecord
100
AcDbLinetypeTableRecord
  2
DOT2
 70
0
  3
Dot (.5x) .....................................
 72
65
 73
2
 40
3.1749999999999998
 49
0.0
 74
0
 49
-3.1749999999999998
 74
0
  0
LTYPE
  5
33
100
AcDbSymbolTableRecord
100
AcDbLinetypeTableRecord
  2
DOTX2
 70
0
  3
Dot (2x) .  .  .  .  .  .  .  .  .  .  .  .  .
 72
65
 73
2
 40
12.6999999999999993
 49
0.0
 74
0
 49
-12.6999999999999993
 74
0
  0
LTYPE
  5
34
100
AcDbSymbolTableRecord
100
AcDbLinetypeTableRecord
  2
DASHED
 70
0
  3
Dashed __ __ __ __ __ __ __ __ __ __ __ __ __ _
 72
65
 73
2
 40
19.0500000000000007
 49
12.6999999999999993
 74
0
 49
-6.3499999999999996
 74
0
  0
LTYPE
  5
35
100
AcDbSymbolTableRecord
100
AcDbLinetypeTableRecord
  2
DASHED2
 70
0
  3
Dashed (.5x) _ _ _ _ _ _ _ _ _ _ _ _ _ _ _ _ _
 72
65
 73
2
 40
9.5250000000000004
 49
6.3499999999999996
 74
0
 49
-3.1749999999999998
 74
0
  0
LTYPE
  5
36
100
AcDbSymbolTableRecord
100
AcDbLinetypeTableRecord
  2
DASHEDX2
 70
0
  3
Dashed (2x) ____  ____  ____  ____  ____  ___
 72
65
 73
2
 40
38.1000000000000014
 49
25.3999999999999986
 74
0
 49
-12.6999999999999993
 74
0
  0
LTYPE
  5
37
100
AcDbSymbolTableRecord
100
AcDbLinetypeTableRecord
  2
DASHDOT
 70
0
  3
Dash dot __ . __ . __ . __ . __ . __ . __ . __
 72
65
 73
4
 40
25.3999999999999986
 49
12.6999999999999993
 74
0
 49
-6.3499999999999996
 74
0
 49
0.0
 74
0
 49
-6.3499999999999996
 74
0
  0
LTYPE
  5
38
100
AcDbSymbolTableRecord
100
AcDbLinetypeTableRecord
  2
DASHDOT2
 70
0
  3
Dash dot (.5x) _._._._._._._._._._._._._._._.
 72
65
 73
4
 40
12.6999999999999993
 49
6.3499999999999996
 74
0
 49
-3.1749999999999998
 74
0
 49
0.0
 74
0
 49
-3.1749999999999998
 74
0
  0
LTYPE
  5
39
100
AcDbSymbolTableRecord
100
AcDbLinetypeTableRecord
  2
DASHDOTX2
 70
0
  3
Dash dot (2x) ____  .  ____  .  ____  .  ___
 72
65
 73
4
 40
50.7999999999999972
 49
25.3999999999999986
 74
0
 49
-12.6999999999999993
 74
0
 49
0.0
 74
0
 49
-12.6999999999999993
 74
0
  0
LTYPE
  5
3A
100
AcDbSymbolTableRecord
100
AcDbLinetypeTableRecord
  2
DIVIDE
 70
0
  3
Divide ____ . . ____ . . ____ . . ____ . . ____
 72
65
 73
6
 40
31.75
 49
12.6999999999999993
 74
0
 49
-6.3499999999999996
 74
0
 49
0.0
 74
0
 49
-6.3499999999999996
 74
0
 49
0.0
 74
0
 49
-6.3499999999999996
 74
0
  0
LTYPE
  5
3B
100
AcDbSymbolTableRecord
100
AcDbLinetypeTableRecord
  2
DIVIDE2
 70
0
  3
Divide (.5x) __..__..__..__..__..__..__..__.._
 72
65
 73
6
 40
15.875
 49
6.3499999999999996
 74
0
 49
-3.1749999999999998
 74
0
 49
0.0
 74
0
 49
-3.1749999999999998
 74
0
 49
0.0
 74
0
 49
-3.1749999999999998
 74
0
  0
LTYPE
  5
3C
100
AcDbSymbolTableRecord
100
AcDbLinetypeTableRecord
  2
DIVIDEX2
 70
0
  3
Divide (2x) ________  .  .  ________  .  .  _
 72
65
 73
6
 40
63.5
 49
25.3999999999999986
 74
0
 49
-12.6999999999999993
 74
0
 49
0.0
 74
0
 49
-12.6999999999999993
 74
0
 49
0.0
 74
0
 49
-12.6999999999999993
 74
0
  0
LTYPE
  5
3D
100
AcDbSymbolTableRecord
100
AcDbLinetypeTableRecord
  2
CENTER
 70
0
  3
Center ____ _ ____ _ ____ _ ____ _ ____ _ ____
 72
65
 73
4
 40
50.7999999999999972
 49
31.75
 74
0
 49
-6.3499999999999996
 74
0
 49
6.3499999999999996
 74
0
 49
-6.3499999999999996
 74
0
  0
LTYPE
  5
3E
100
AcDbSymbolTableRecord
100
AcDbLinetypeTableRecord
  2
CENTER2
 70
0
  3
Center (.5x) ___ _ ___ _ ___ _ ___ _ ___ _ ___
 72
65
 73
4
 40
28.5749999999999993
 49
19.0500000000000007
 74
0
 49
-3.1749999999999998
 74
0
 49
3.1749999999999998
 74
0
 49
-3.1749999999999998
 74
0
  0
LTYPE
  5
3F
100
AcDbSymbolTableRecord
100
AcDbLinetypeTableRecord
  2
CENTERX2
 70
0
  3
Center (2x) ________  __  ________  __  _____
 72
65
 73
4
 40
101.5999999999999943
 49
63.5
 74
0
 49
-12.6999999999999993
 74
0
 49
12.6999999999999993
 74
0
 49
-12.6999999999999993
 74
0
  0
LTYPE
  5
40
100
AcDbSymbolTableRecord
100
AcDbLinetypeTableRecord
  2
BORDER
 70
0
  3
Border __ __ . __ __ . __ __ . __ __ . __ __ .
 72
65
 73
6
 40
44.4500000000000028
 49
12.6999999999999993
 74
0
 49
-6.3499999999999996
 74
0
 49
12.6999999999999993
 74
0
 49
-6.3499999999999996
 74
0
 49
0.0
 74
0
 49
-6.3499999999999996
 74
0
  0
LTYPE
  5
41
100
AcDbSymbolTableRecord
100
AcDbLinetypeTableRecord
  2
BORDER2
 70
0
  3
Border (.5x) __.__.__.__.__.__.__.__.__.__.__.
 72
65
 73
6
 40
22.2250000000000014
 49
6.3499999999999996
 74
0
 49
-3.1749999999999998
 74
0
 49
6.3499999999999996
 74
0
 49
-3.1749999999999998
 74
0
 49
0.0
 74
0
 49
-3.1749999999999998
 74
0
  0
LTYPE
  5
42
100
AcDbSymbolTableRecord
100
AcDbLinetypeTableRecord
  2
BORDERX2
 70
0
  3
Border (2x) ____  ____  .  ____  ____  .  ___
 72
65
 73
6
 40
88.9000000000000057
 49
25.3999999999999986
 74
0
 49
-12.6999999999999993
 74
0
 49
25.3999999999999986
 74
0
 49
-12.6999999999999993
 74
0
 49
0.0
 74
0
 49
-12.6999999999999993
 74
0
  0
ENDTAB
  0
TABLE
  2
LAYER
  5
2
100
AcDbSymbolTable
 70
2
  0
LAYER
  5
10
100
AcDbSymbolTableRecord
100
AcDbLayerTableRecord
  2
0
 70
0
 62
7
420
0
  6
CONTINUOUS
370
25
390
F
  0
LAYER
  5
43
100
AcDbSymbolTableRecord
100
AcDbLayerTableRecord
  2
CUT_SHEET_6b
 70
0
 62
7
420
0
  6
CONTINUOUS
370
0
390
F
  0
ENDTAB
  0
TABLE
  2
STYLE
  5
3
100
AcDbSymbolTable
 70
1
  0
STYLE
  5
11
100
AcDbSymbolTableRecord
100
AcDbTextStyleTableRecord
  2
Standard
 70
0
 40
0.0
 41
0.75
 50
0.0
 71
0
 42
2.5
  3
txt
  4

  0
ENDTAB
  0
TABLE
  2
VIEW
  5
6
100
AcDbSymbolTable
 70
0
  0
ENDTAB
  0
TABLE
  2
UCS
  5
7
100
AcDbSymbolTable
 70
0
  0
ENDTAB
  0
TABLE
  2
APPID
  5
9
100
AcDbSymbolTable
 70
1
  0
APPID
  5
12
100
AcDbSymbolTableRecord
100
AcDbRegAppTableRecord
  2
ACAD
 70
0
  0
ENDTAB
  0
TABLE
  2
DIMSTYLE
  5
A
100
AcDbSymbolTable
 70
1
100
AcDbDimStyleTable
 71
0
  0
DIMSTYLE
105
27
100
AcDbSymbolTableRecord
100
AcDbDimStyleTableRecord
  2
Standard
 41
2.5
 42
0.625
 43
3.75
 44
1.25
 70
0
 73
0
 74
0
 77
1
 78
8
140
2.5
141
2.5
143
0.03937007874016
147
0.625
171
3
172
1
271
2
272
2
274
3
278
44
283
0
284
8
340
11
  0
ENDTAB
  0
TABLE
  2
BLOCK_RECORD
  5
1
100
AcDbSymbolTable
 70
1
  0
BLOCK_RECORD
  5
1F
100
AcDbSymbolTableRecord
100
AcDbBlockTableRecord
  2
*Model_Space
340
22
  0
BLOCK_RECORD
  5
1B
100
AcDbSymbolTableRecord
100
AcDbBlockTableRecord
  2
*Paper_Space
340
1E
  0
BLOCK_RECORD
  5
23
100
AcDbSymbolTableRecord
100
AcDbBlockTableRecord
  2
*Paper_Space0
340
26
  0
BLOCK_RECORD
  5
44
100
AcDbSymbolTableRecord
100
AcDbBlockTableRecord
  2
BORDER
340
0
  0
BLOCK_RECORD
  5
45
100
AcDbSymbolTableRecord
100
AcDbBlockTableRecord
  2
intblock
340
0
  0
BLOCK_RECORD
  5
46
100
AcDbSymbolTableRecord
100
AcDbBlockTableRecord
  2
foobar4
340
0
  0
ENDTAB
  0
ENDSEC
  0
SECTION
  2
BLOCKS
  0
BLOCK
  5
20
100
AcDbEntity
  8
0
100
AcDbBlockBegin
  2
*Model_Space
 70
0
 10
0.0
 20
0.0
 30
0.0
  3
*Model_Space
  1

  0
ENDBLK
  5
21
100
AcDbEntity
  8
0
100
AcDbBlockEnd
  0
BLOCK
  5
1C
100
AcDbEntity
 67
1
  8
0
100
AcDbBlockBegin
  2
*Paper_Space
 70
0
 10
0.0
 20
0.0
 30
0.0
  3
*Paper_Space
  1

  0
ENDBLK
  5
1D
100
AcDbEntity
 67
1
  8
0
100
AcDbBlockEnd
  0
BLOCK
  5
24
100
AcDbEntity
  8
0
100
AcDbBlockBegin
  2
*Paper_Space0
 70
0
 10
0.0
 20
0.0
 30
0.0
  3
*Paper_Space0
  1

  0
ENDBLK
  5
25
100
AcDbEntity
  8
0
100
AcDbBlockEnd
  0
BLOCK
  5
47
100
AcDbEntity
  8
0
100
AcDbBlockBegin
  2
BORDER
 70
0
 10
0.0
 20
0.0
 30
0.0
  3
BORDER
  1

  0
LINE
  5
48
100
AcDbEntity
100
AcDbLine
  8
0
 62
256
370
-1
  6
ByLayer
 10
0.0
 20
-12.0
 30
0.0
 11
24.0
 21
-12.0
 31
0.0
  0
LINE
  5
49
100
AcDbEntity
100
AcDbLine
  8
0
 62
256
370
-1
  6
ByLayer
 10
24.0
 20
-12.0
 30
0.0
 11
24.0
 21
0.0
 31
0.0
  0
LINE
  5
4A
100
AcDbEntity
100
AcDbLine
  8
0
 62
256
370
-1
  6
ByLayer
 10
24.0
 20
0.0
 30
0.0
 11
0.0
 21
0.0
 31
0.0
  0
LINE
  5
4B
100
AcDbEntity
100
AcDbLine
  8
0
 62
256
370
-1
  6
ByLayer
 10
0.0
 20
0.0
 30
0.0
 11
0.0
 21
-12.0
 31
0.0
  0
ENDBLK
  5
4C
100
AcDbEntity
  8
0
100
AcDbBlockEnd
  0
BLOCK
  5
4D
100
AcDbEntity
  8
0
100
AcDbBlockBegin
  2
intblock
 70
0
 10
0.0
 20
0.0
 30
0.0
  3
intblock
  1

  0
LINE
  5
4E
100
AcDbEntity
100
AcDbLine
  8
CUT_SHEET_6b
 62
3
420
65280
370
15
  6
ByLayer
 10
9.7477277823000001
 20
2.3731162567999995
 30
0.0
 11
9.7477277823000001
 21
2.3731298200999991
 31
0.0
  0
LINE
  5
4F
100
AcDbEntity
100
AcDbLine
  8
CUT_SHEET_6b
 62
3
420
65280
370
15
  6
ByLayer
 10
7.5491993143000009
 20
3.1240797511000014
 30
0.0
 11
7.5491993143000009
 21
3.1240661876999987
 31
0.0
  0
LINE
  5
50
100
AcDbEntity
100
AcDbLine
  8
CUT_SHEET_6b
 62
3
420
65280
370
15
  6
ByLayer
 10
7.7365773675000007
 20
2.9366745710999997
 30
0.0
 11
7.7365909309000003
 21
2.9366745710999971
 31
0.0
  0
LINE
  5
51
100
AcDbEntity
100
AcDbLine
  8
CUT_SHEET_6b
 62
3
420
65280
370
15
  6
ByLayer
 10
6.8971264016000013
 20
2.6795265066000016
 30
0.0
 11
6.8971399650000009
 21
2.6795265065999998
 31
0.0
  0
LINE
  5
52
100
AcDbEntity
100
AcDbLine
  8
CUT_SHEET_6b
 62
3
420
65280
370
15
  6
ByLayer
 10
6.8223243774999993
 20
2.7544912911999995
 30
0.0
 11
6.8223243774999993
 21
2.7544777279000003
 31
0.0
  0
LINE
  5
53
100
AcDbEntity
100
AcDbLine
  8
CUT_SHEET_6b
 62
3
420
65280
370
15
  6
ByLayer
 10
3.3581022579000006
 20
0.7134200667999995
 30
0.0
 11
3.3581158213000002
 21
0.5468482339000014
 31
0.0
  0
LINE
  5
54
100
AcDbEntity
100
AcDbLine
  8
CUT_SHEET_6b
 62
3
420
65280
370
15
  6
ByLayer
 10
3.2085931533000007
 20
0.3802899642999993
 30
0.0
 11
2.7580381143999997
 21
0.3802899643000011
 31
0.0
  0
LINE
  5
55
100
AcDbEntity
100
AcDbLine
  8
CUT_SHEET_6b
 62
3
420
65280
370
15
  6
ByLayer
 10
2.6085357913999996
 20
0.5468346704999991
 30
0.0
 11
2.6085493548000009
 21
0.713406503399999
 31
0.0
  0
LINE
  5
56
100
AcDbEntity
100
AcDbLine
  8
CUT_SHEET_6b
 62
3
420
65280
370
15
  6
ByLayer
 10
2.7580652411000006
 20
0.8799918996999994
 30
0.0
 11
3.2085931533000007
 21
0.879991899700002
 31
0.0
  0
LINE
  5
57
100
AcDbEntity
100
AcDbLine
  8
CUT_SHEET_6b
 62
3
420
65280
370
15
  6
ByLayer
 10
8.6376331917000009
 20
3.7460012766999982
 30
0.0
 11
8.6376331917000009
 21
3.7460148400999995
 31
0.0
  0
LINE
  5
58
100
AcDbEntity
100
AcDbLine
  8
CUT_SHEET_6b
 62
3
420
65280
370
15
  6
ByLayer
 10
4.4973852357999995
 20
3.2475200451999999
 30
0.0
 11
4.4973852357999995
 21
3.4007862052999998
 31
0.0
  0
LINE
  5
59
100
AcDbEntity
100
AcDbLine
  8
CUT_SHEET_6b
 62
3
420
65280
370
15
  6
ByLayer
 10
4.4973852357999995
 20
3.4007862052999998
 30
0.0
 11
4.7372264313000017
 21
3.4007862052999993
 31
0.0
  0
LINE
  5
5A
100
AcDbEntity
100
AcDbLine
  8
CUT_SHEET_6b
 62
3
420
65280
370
15
  6
ByLayer
 10
4.7372264313000017
 20
3.4007862052999993
 30
0.0
 11
4.7372264313000017
 21
2.0955959999999991
 31
0.0
  0
LINE
  5
5B
100
AcDbEntity
100
AcDbLine
  8
CUT_SHEET_6b
 62
3
420
65280
370
15
  6
ByLayer
 10
4.7372264313000017
 20
2.0955959999999991
 30
0.0
 11
4.4973987991999991
 21
2.095596
 31
0.0
  0
LINE
  5
5C
100
AcDbEntity
100
AcDbLine
  8
CUT_SHEET_6b
 62
3
420
65280
370
15
  6
ByLayer
 10
4.4973987991999991
 20
2.095596
 30
0.0
 11
4.4973987991999991
 21
2.2488621601000003
 31
0.0
  0
LINE
  5
5D
100
AcDbEntity
100
AcDbLine
  8
CUT_SHEET_6b
 62
3
420
65280
370
15
  6
ByLayer
 10
4.4973987991999991
 20
2.2488621601000003
 30
0.0
 11
4.0463486969999991
 21
2.2490927375000003
 31
0.0
  0
LINE
  5
5E
100
AcDbEntity
100
AcDbLine
  8
CUT_SHEET_6b
 62
3
420
65280
370
15
  6
ByLayer
 10
3.7140459605000018
 20
2.2490927374999985
 30
0.0
 11
1.7217011680000012
 21
2.2489028501999999
 31
0.0
  0
LINE
  5
5F
100
AcDbEntity
100
AcDbLine
  8
CUT_SHEET_6b
 62
3
420
65280
370
15
  6
ByLayer
 10
1.3912566141
 20
2.2489028501999995
 30
0.0
 11
-0.0000135632999995
 21
2.2488892867999999
 31
0.0
  0
LINE
  5
60
100
AcDbEntity
100
AcDbLine
  8
CUT_SHEET_6b
 62
3
420
65280
370
15
  6
ByLayer
 10
-0.0000135632999995
 20
2.2488892867999999
 30
0.0
 11
0.0
 21
0.0
 31
0.0
  0
LINE
  5
61
100
AcDbEntity
100
AcDbLine
  8
CUT_SHEET_6b
 62
3
420
65280
370
15
  6
ByLayer
 10
0.0
 20
0.0
 30
0.0
 11
10.9949074242000009
 21
0.000081380439096
 31
0.0
  0
LINE
  5
62
100
AcDbEntity
100
AcDbLine
  8
CUT_SHEET_6b
 62
3
420
65280
370
15
  6
ByLayer
 10
10.9949074242000009
 20
0.000081380439096
 30
0.0
 11
10.9949074242000009
 21
8.245949990699998
 31
0.0
  0
LINE
  5
63
100
AcDbEntity
100
AcDbLine
  8
CUT_SHEET_6b
 62
3
420
65280
370
15
  6
ByLayer
 10
10.9949074242000009
 20
8.245949990699998
 30
0.0
 11
7.6128522425000016
 21
8.245949990699998
 31
0.0
  0
LINE
  5
64
100
AcDbEntity
100
AcDbLine
  8
CUT_SHEET_6b
 62
3
420
65280
370
15
  6
ByLayer
 10
7.6128522425000016
 20
8.245949990699998
 30
0.0
 11
6.2101820467000035
 21
7.6474117270999971
 31
0.0
  0
LINE
  5
65
100
AcDbEntity
100
AcDbLine
  8
CUT_SHEET_6b
 62
3
420
65280
370
15
  6
ByLayer
 10
6.2101820467000035
 20
7.6474117270999971
 30
0.0
 11
6.1258449685000018
 21
7.8450436933000001
 31
0.0
  0
LINE
  5
66
100
AcDbEntity
100
AcDbLine
  8
CUT_SHEET_6b
 62
3
420
65280
370
15
  6
ByLayer
 10
6.1258449685000018
 20
7.8450436933000001
 30
0.0
 11
5.7397770056000006
 21
7.6802757894999987
 31
0.0
  0
LINE
  5
67
100
AcDbEntity
100
AcDbLine
  8
CUT_SHEET_6b
 62
3
420
65280
370
15
  6
ByLayer
 10
5.7397770056000006
 20
7.6802757894999987
 30
0.0
 11
5.8241005204000018
 21
7.4826573865999988
 31
0.0
  0
LINE
  5
68
100
AcDbEntity
100
AcDbLine
  8
CUT_SHEET_6b
 62
3
420
65280
370
15
  6
ByLayer
 10
5.8241005204000018
 20
7.4826573865999988
 30
0.0
 11
5.7010400009000008
 21
7.4301535543000012
 31
0.0
  0
LINE
  5
69
100
AcDbEntity
100
AcDbLine
  8
CUT_SHEET_6b
 62
3
420
65280
370
15
  6
ByLayer
 10
5.7010400009000008
 20
7.4301535543000012
 30
0.0
 11
5.8454085857000004
 21
7.0917879882999992
 31
0.0
  0
LINE
  5
6A
100
AcDbEntity
100
AcDbLine
  8
CUT_SHEET_6b
 62
3
420
65280
370
15
  6
ByLayer
 10
5.8454085857000004
 20
7.0917879882999992
 30
0.0
 11
5.9024697127000003
 21
7.1160935598000012
 31
0.0
  0
LINE
  5
6B
100
AcDbEntity
100
AcDbLine
  8
CUT_SHEET_6b
 62
3
420
65280
370
15
  6
ByLayer
 10
5.9024697127000003
 20
7.1160935598000012
 30
0.0
 11
5.9487750818000009
 21
7.0075458537000008
 31
0.0
  0
LINE
  5
6C
100
AcDbEntity
100
AcDbLine
  8
CUT_SHEET_6b
 62
3
420
65280
370
15
  6
ByLayer
 10
5.9487750818000009
 20
7.0075458537000008
 30
0.0
 11
5.891741081500002
 21
6.983213155399997
 31
0.0
  0
LINE
  5
6D
100
AcDbEntity
100
AcDbLine
  8
CUT_SHEET_6b
 62
3
420
65280
370
15
  6
ByLayer
 10
5.891741081500002
 20
6.983213155399997
 30
0.0
 11
5.9226520177000008
 21
6.9107982856000003
 31
0.0
  0
LINE
  5
6E
100
AcDbEntity
100
AcDbLine
  8
CUT_SHEET_6b
 62
3
420
65280
370
15
  6
ByLayer
 10
5.9226520177000008
 20
6.9107982856000003
 30
0.0
 11
5.806861468200001
 21
6.8614004664999984
 31
0.0
  0
LINE
  5
6F
100
AcDbEntity
100
AcDbLine
  8
CUT_SHEET_6b
 62
3
420
65280
370
15
  6
ByLayer
 10
5.806861468200001
 20
6.8614004664999984
 30
0.0
 11
5.7759369687000026
 21
6.933801772999999
 31
0.0
  0
LINE
  5
70
100
AcDbEntity
100
AcDbLine
  8
CUT_SHEET_6b
 62
3
420
65280
370
15
  6
ByLayer
 10
5.7759369687000026
 20
6.933801772999999
 30
0.0
 11
5.7189707853000016
 21
6.9094826379999992
 31
0.0
  0
LINE
  5
71
100
AcDbEntity
100
AcDbLine
  8
CUT_SHEET_6b
 62
3
420
65280
370
15
  6
ByLayer
 10
5.7189707853000016
 20
6.9094826379999992
 30
0.0
 11
5.6726382894000018
 21
7.0180439074999992
 31
0.0
  0
LINE
  5
72
100
AcDbEntity
100
AcDbLine
  8
CUT_SHEET_6b
 62
3
420
65280
370
15
  6
ByLayer
 10
5.6726382894000018
 20
7.0180439074999992
 30
0.0
 11
5.729631599600002
 21
7.0423630424999999
 31
0.0
  0
LINE
  5
73
100
AcDbEntity
100
AcDbLine
  8
CUT_SHEET_6b
 62
3
420
65280
370
15
  6
ByLayer
 10
5.729631599600002
 20
7.0423630424999999
 30
0.0
 11
5.5852358880000006
 21
7.3807557351999984
 31
0.0
  0
LINE
  5
74
100
AcDbEntity
100
AcDbLine
  8
CUT_SHEET_6b
 62
3
420
65280
370
15
  6
ByLayer
 10
5.5852358880000006
 20
7.3807557351999984
 30
0.0
 11
5.4622024953000032
 21
7.3282383394999995
 31
0.0
  0
LINE
  5
75
100
AcDbEntity
100
AcDbLine
  8
CUT_SHEET_6b
 62
3
420
65280
370
15
  6
ByLayer
 10
5.4622024953000032
 20
7.3282383394999995
 30
0.0
 11
5.3778789805000002
 21
7.525897432499999
 31
0.0
  0
LINE
  5
76
100
AcDbEntity
100
AcDbLine
  8
CUT_SHEET_6b
 62
3
420
65280
370
15
  6
ByLayer
 10
5.3778789805000002
 20
7.525897432499999
 30
0.0
 11
4.9917838908000007
 21
7.3611430921000016
 31
0.0
  0
LINE
  5
77
100
AcDbEntity
100
AcDbLine
  8
CUT_SHEET_6b
 62
3
420
65280
370
15
  6
ByLayer
 10
4.9917838908000007
 20
7.3611430921000016
 30
0.0
 11
5.0761209690000015
 21
7.1635111257999986
 31
0.0
  0
LINE
  5
78
100
AcDbEntity
100
AcDbLine
  8
CUT_SHEET_6b
 62
3
420
65280
370
15
  6
ByLayer
 10
5.0761209690000015
 20
7.1635111257999986
 30
0.0
 11
2.5367312736000005
 21
6.0799465007000002
 31
0.0
  0
LINE
  5
79
100
AcDbEntity
100
AcDbLine
  8
CUT_SHEET_6b
 62
3
420
65280
370
15
  6
ByLayer
 10
2.5367312736000005
 20
6.0799465007000002
 30
0.0
 11
2.4523941953999997
 21
6.2775920303000001
 31
0.0
  0
LINE
  5
7A
100
AcDbEntity
100
AcDbLine
  8
CUT_SHEET_6b
 62
3
420
65280
370
15
  6
ByLayer
 10
2.4523941953999997
 20
6.2775920303000001
 30
0.0
 11
2.0663262324999989
 21
6.1128241264999996
 31
0.0
  0
LINE
  5
7B
100
AcDbEntity
100
AcDbLine
  8
CUT_SHEET_6b
 62
3
420
65280
370
15
  6
ByLayer
 10
2.0663262324999989
 20
6.1128241264999996
 30
0.0
 11
2.1506565289999995
 21
5.9152192870000002
 31
0.0
  0
LINE
  5
7C
100
AcDbEntity
100
AcDbLine
  8
CUT_SHEET_6b
 62
3
420
65280
370
15
  6
ByLayer
 10
2.1506565289999995
 20
5.9152192870000002
 30
0.0
 11
2.0275892277000001
 21
5.8627018913000004
 31
0.0
  0
LINE
  5
7D
100
AcDbEntity
100
AcDbLine
  8
CUT_SHEET_6b
 62
3
420
65280
370
15
  6
ByLayer
 10
2.0275892277000001
 20
5.8627018913000004
 30
0.0
 11
2.1719713759000006
 21
5.5243227619000006
 31
0.0
  0
LINE
  5
7E
100
AcDbEntity
100
AcDbLine
  8
CUT_SHEET_6b
 62
3
420
65280
370
15
  6
ByLayer
 10
2.1719713759000006
 20
5.5243227619000006
 30
0.0
 11
2.2290189395999986
 21
5.5486418969000004
 31
0.0
  0
LINE
  5
7F
100
AcDbEntity
100
AcDbLine
  8
CUT_SHEET_6b
 62
3
420
65280
370
15
  6
ByLayer
 10
2.2290189395999986
 20
5.5486418969000004
 30
0.0
 11
2.2753243086000001
 21
5.4400806273999995
 31
0.0
  0
LINE
  5
80
100
AcDbEntity
100
AcDbLine
  8
CUT_SHEET_6b
 62
3
420
65280
370
15
  6
ByLayer
 10
2.2753243086000001
 20
5.4400806273999995
 30
0.0
 11
2.2183174351000017
 21
5.4157479290000001
 31
0.0
  0
LINE
  5
81
100
AcDbEntity
100
AcDbLine
  8
CUT_SHEET_6b
 62
3
420
65280
370
15
  6
ByLayer
 10
2.2183174351000017
 20
5.4157479290000001
 30
0.0
 11
2.2492080261999989
 21
5.3433330591999999
 31
0.0
  0
LINE
  5
82
100
AcDbEntity
100
AcDbLine
  8
CUT_SHEET_6b
 62
3
420
65280
370
15
  6
ByLayer
 10
2.2492080261999989
 20
5.3433330591999999
 30
0.0
 11
2.1334106951000007
 21
5.2939352401999997
 31
0.0
  0
LINE
  5
83
100
AcDbEntity
100
AcDbLine
  8
CUT_SHEET_6b
 62
3
420
65280
370
15
  6
ByLayer
 10
2.1334106951000007
 20
5.2939352401999997
 30
0.0
 11
2.1025065406000008
 21
5.3663501099999991
 31
0.0
  0
LINE
  5
84
100
AcDbEntity
100
AcDbLine
  8
CUT_SHEET_6b
 62
3
420
65280
370
15
  6
ByLayer
 10
2.1025065406000008
 20
5.3663501099999991
 30
0.0
 11
2.0455335755000013
 21
5.3420445383999997
 31
0.0
  0
LINE
  5
85
100
AcDbEntity
100
AcDbLine
  8
CUT_SHEET_6b
 62
3
420
65280
370
15
  6
ByLayer
 10
2.0455335755000013
 20
5.3420445383999997
 30
0.0
 11
1.9992010797000004
 21
5.4505922444999992
 31
0.0
  0
LINE
  5
86
100
AcDbEntity
100
AcDbLine
  8
CUT_SHEET_6b
 62
3
420
65280
370
15
  6
ByLayer
 10
1.9992010797000004
 20
5.4505922444999992
 30
0.0
 11
2.0561876080999997
 21
5.4749113795
 31
0.0
  0
LINE
  5
87
100
AcDbEntity
100
AcDbLine
  8
CUT_SHEET_6b
 62
3
420
65280
370
15
  6
ByLayer
 10
2.0561876080999997
 20
5.4749113795
 30
0.0
 11
1.9117918966
 21
5.8133040722999993
 31
0.0
  0
LINE
  5
88
100
AcDbEntity
100
AcDbLine
  8
CUT_SHEET_6b
 62
3
420
65280
370
15
  6
ByLayer
 10
1.9117918966
 20
5.8133040722999993
 30
0.0
 11
1.7887517222000002
 21
5.7608002399000009
 31
0.0
  0
LINE
  5
89
100
AcDbEntity
100
AcDbLine
  8
CUT_SHEET_6b
 62
3
420
65280
370
15
  6
ByLayer
 10
1.7887517222000002
 20
5.7608002399000009
 30
0.0
 11
1.7044282073000012
 21
5.9584322062000004
 31
0.0
  0
LINE
  5
8A
100
AcDbEntity
100
AcDbLine
  8
CUT_SHEET_6b
 62
3
420
65280
370
15
  6
ByLayer
 10
1.7044282073000012
 20
5.9584322062000004
 30
0.0
 11
1.318346681
 21
5.7937049924999995
 31
0.0
  0
LINE
  5
8B
100
AcDbEntity
100
AcDbLine
  8
CUT_SHEET_6b
 62
3
420
65280
370
15
  6
ByLayer
 10
1.318346681
 20
5.7937049924999995
 30
0.0
 11
1.4026905409000001
 21
5.5960458994999991
 31
0.0
  0
LINE
  5
8C
100
AcDbEntity
100
AcDbLine
  8
CUT_SHEET_6b
 62
3
420
65280
370
15
  6
ByLayer
 10
1.4026905409000001
 20
5.5960458994999991
 30
0.0
 11
-0.0000135633000002
 21
4.9975211991999995
 31
0.0
  0
LINE
  5
8D
100
AcDbEntity
100
AcDbLine
  8
CUT_SHEET_6b
 62
3
420
65280
370
15
  6
ByLayer
 10
-0.0000135633000002
 20
4.9975211991999995
 30
0.0
 11
-0.0000135632999991
 21
3.2483881012999998
 31
0.0
  0
LINE
  5
8E
100
AcDbEntity
100
AcDbLine
  8
CUT_SHEET_6b
 62
3
420
65280
370
15
  6
ByLayer
 10
-0.0000135632999991
 20
3.2483881012999998
 30
0.0
 11
1.3903207411
 21
3.2483881012999998
 31
0.0
  0
LINE
  5
8F
100
AcDbEntity
100
AcDbLine
  8
CUT_SHEET_6b
 62
3
420
65280
370
15
  6
ByLayer
 10
1.7225963508000002
 20
3.2483881012999998
 30
0.0
 11
3.7149547068000004
 21
3.2485779885999997
 31
0.0
  0
LINE
  5
90
100
AcDbEntity
100
AcDbLine
  8
CUT_SHEET_6b
 62
3
420
65280
370
15
  6
ByLayer
 10
4.0453992606
 20
3.2485779885999997
 30
0.0
 11
4.4973852357999995
 21
3.2475200451999999
 31
0.0
  0
LINE
  5
91
100
AcDbEntity
100
AcDbLine
  8
CUT_SHEET_6b
 62
3
420
65280
370
15
  6
ByLayer
 10
5.6942040588999987
 20
0.1437446693999886
 30
0.0
 11
6.1139634503000018
 21
0.1437446694000029
 31
0.0
  0
LINE
  5
92
100
AcDbEntity
100
AcDbLine
  8
CUT_SHEET_6b
 62
3
420
65280
370
15
  6
ByLayer
 10
6.1139634503000018
 20
0.1437446694000029
 30
0.0
 11
6.1139634503000018
 21
0.3835723014999903
 31
0.0
  0
LINE
  5
93
100
AcDbEntity
100
AcDbLine
  8
CUT_SHEET_6b
 62
3
420
65280
370
15
  6
ByLayer
 10
6.1139634503000018
 20
0.3835723014999903
 30
0.0
 11
5.6942040588999987
 21
0.3835723015000019
 31
0.0
  0
LINE
  5
94
100
AcDbEntity
100
AcDbLine
  8
CUT_SHEET_6b
 62
3
420
65280
370
15
  6
ByLayer
 10
5.6942040588999987
 20
0.3835723015000019
 30
0.0
 11
5.6942040588999987
 21
0.1437446693999886
 31
0.0
  0
LINE
  5
95
100
AcDbEntity
100
AcDbLine
  8
CUT_SHEET_6b
 62
3
420
65280
370
15
  6
ByLayer
 10
4.8809711007000018
 20
0.1437446693999824
 30
0.0
 11
5.3007304921000014
 21
0.1437446693999949
 31
0.0
  0
LINE
  5
96
100
AcDbEntity
100
AcDbLine
  8
CUT_SHEET_6b
 62
3
420
65280
370
15
  6
ByLayer
 10
5.3007304921000014
 20
0.1437446693999949
 30
0.0
 11
5.3007304921000014
 21
0.3835723015000001
 31
0.0
  0
LINE
  5
97
100
AcDbEntity
100
AcDbLine
  8
CUT_SHEET_6b
 62
3
420
65280
370
15
  6
ByLayer
 10
5.3007304921000014
 20
0.3835723015000001
 30
0.0
 11
4.8809711007000018
 21
0.3835723014999983
 31
0.0
  0
LINE
  5
98
100
AcDbEntity
100
AcDbLine
  8
CUT_SHEET_6b
 62
3
420
65280
370
15
  6
ByLayer
 10
4.8809711007000018
 20
0.3835723014999983
 30
0.0
 11
4.8809711007000018
 21
0.1437446693999824
 31
0.0
  0
LINE
  5
99
100
AcDbEntity
100
AcDbLine
  8
CUT_SHEET_6b
 62
3
420
65280
370
15
  6
ByLayer
 10
1.8133489062999999
 20
0.1437175427000028
 30
0.0
 11
2.233115079400001
 21
0.143717542700001
 31
0.0
  0
LINE
  5
9A
100
AcDbEntity
100
AcDbLine
  8
CUT_SHEET_6b
 62
3
420
65280
370
15
  6
ByLayer
 10
2.233115079400001
 20
0.143717542700001
 30
0.0
 11
2.233115079400001
 21
0.383572301500001
 31
0.0
  0
LINE
  5
9B
100
AcDbEntity
100
AcDbLine
  8
CUT_SHEET_6b
 62
3
420
65280
370
15
  6
ByLayer
 10
2.233115079400001
 20
0.383572301500001
 30
0.0
 11
1.8133489062999999
 21
0.3835723014999992
 31
0.0
  0
LINE
  5
9C
100
AcDbEntity
100
AcDbLine
  8
CUT_SHEET_6b
 62
3
420
65280
370
15
  6
ByLayer
 10
1.8133489062999999
 20
0.3835723014999992
 30
0.0
 11
1.8133489062999999
 21
0.1437175427000028
 31
0.0
  0
LINE
  5
9D
100
AcDbEntity
100
AcDbLine
  8
CUT_SHEET_6b
 62
3
420
65280
370
15
  6
ByLayer
 10
1.0001227299000011
 20
0.1437175427000001
 30
0.0
 11
1.4198821213000006
 21
0.1437175427000001
 31
0.0
  0
LINE
  5
9E
100
AcDbEntity
100
AcDbLine
  8
CUT_SHEET_6b
 62
3
420
65280
370
15
  6
ByLayer
 10
1.4198821213000006
 20
0.1437175427000001
 30
0.0
 11
1.4198821213000006
 21
0.3835723015000001
 31
0.0
  0
LINE
  5
9F
100
AcDbEntity
100
AcDbLine
  8
CUT_SHEET_6b
 62
3
420
65280
370
15
  6
ByLayer
 10
1.4198821213000006
 20
0.3835723015000001
 30
0.0
 11
1.0001227299000011
 21
0.3835723015000001
 31
0.0
  0
LINE
  5
A0
100
AcDbEntity
100
AcDbLine
  8
CUT_SHEET_6b
 62
3
420
65280
370
15
  6
ByLayer
 10
1.0001227299000011
 20
0.3835723015000001
 30
0.0
 11
1.0001227299000011
 21
0.1437175427000001
 31
0.0
  0
LINE
  5
A1
100
AcDbEntity
100
AcDbLine
  8
CUT_SHEET_6b
 62
3
420
65280
370
15
  6
ByLayer
 10
9.5750117396000007
 20
0.1437446694000331
 30
0.0
 11
9.9947711310000003
 21
0.1437446693999185
 31
0.0
  0
LINE
  5
A2
100
AcDbEntity
100
AcDbLine
  8
CUT_SHEET_6b
 62
3
420
65280
370
15
  6
ByLayer
 10
9.9947711310000003
 20
0.1437446693999185
 30
0.0
 11
9.9947711310000003
 21
0.3835994283000206
 31
0.0
  0
LINE
  5
A3
100
AcDbEntity
100
AcDbLine
  8
CUT_SHEET_6b
 62
3
420
65280
370
15
  6
ByLayer
 10
9.9947711310000003
 20
0.3835994283000206
 30
0.0
 11
9.5750117396000007
 21
0.3835994282999966
 31
0.0
  0
LINE
  5
A4
100
AcDbEntity
100
AcDbLine
  8
CUT_SHEET_6b
 62
3
420
65280
370
15
  6
ByLayer
 10
9.5750117396000007
 20
0.3835994282999966
 30
0.0
 11
9.5750117396000007
 21
0.1437446694000331
 31
0.0
  0
LINE
  5
A5
100
AcDbEntity
100
AcDbLine
  8
CUT_SHEET_6b
 62
3
420
65280
370
15
  6
ByLayer
 10
8.7617923447999999
 20
0.1437446693999123
 30
0.0
 11
9.1815381727999998
 21
0.143744669399954
 31
0.0
  0
LINE
  5
A6
100
AcDbEntity
100
AcDbLine
  8
CUT_SHEET_6b
 62
3
420
65280
370
15
  6
ByLayer
 10
9.1815381727999998
 20
0.143744669399954
 30
0.0
 11
9.1815381727999998
 21
0.3835994283000206
 31
0.0
  0
LINE
  5
A7
100
AcDbEntity
100
AcDbLine
  8
CUT_SHEET_6b
 62
3
420
65280
370
15
  6
ByLayer
 10
9.1815381727999998
 20
0.3835994283000206
 30
0.0
 11
8.7617923447999999
 21
0.3835994283000046
 31
0.0
  0
LINE
  5
A8
100
AcDbEntity
100
AcDbLine
  8
CUT_SHEET_6b
 62
3
420
65280
370
15
  6
ByLayer
 10
8.7617923447999999
 20
0.3835994283000046
 30
0.0
 11
8.7617923447999999
 21
0.1437446693999123
 31
0.0
  0
LINE
  5
A9
100
AcDbEntity
100
AcDbLine
  8
CUT_SHEET_6b
 62
3
420
65280
370
15
  6
ByLayer
 10
9.181565299599999
 20
8.1022324480000005
 30
0.0
 11
8.7618194715000026
 21
8.1022324479999988
 31
0.0
  0
LINE
  5
AA
100
AcDbEntity
100
AcDbLine
  8
CUT_SHEET_6b
 62
3
420
65280
370
15
  6
ByLayer
 10
8.7618194715000026
 20
8.1022324479999988
 30
0.0
 11
8.7618194715000008
 21
7.8623776891000015
 31
0.0
  0
LINE
  5
AB
100
AcDbEntity
100
AcDbLine
  8
CUT_SHEET_6b
 62
3
420
65280
370
15
  6
ByLayer
 10
8.7618194715000008
 20
7.8623776891000015
 30
0.0
 11
9.181565299599999
 21
7.8623776891000015
 31
0.0
  0
LINE
  5
AC
100
AcDbEntity
100
AcDbLine
  8
CUT_SHEET_6b
 62
3
420
65280
370
15
  6
ByLayer
 10
9.181565299599999
 20
7.8623776891000015
 30
0.0
 11
9.181565299599999
 21
8.1022324480000005
 31
0.0
  0
LINE
  5
AD
100
AcDbEntity
100
AcDbLine
  8
CUT_SHEET_6b
 62
3
420
65280
370
15
  6
ByLayer
 10
9.9947982577000012
 20
8.1022324479999988
 30
0.0
 11
9.5750388663000017
 21
8.1022324479999988
 31
0.0
  0
LINE
  5
AE
100
AcDbEntity
100
AcDbLine
  8
CUT_SHEET_6b
 62
3
420
65280
370
15
  6
ByLayer
 10
9.5750388663000017
 20
8.1022324479999988
 30
0.0
 11
9.5750388663000017
 21
7.8623776891000006
 31
0.0
  0
LINE
  5
AF
100
AcDbEntity
100
AcDbLine
  8
CUT_SHEET_6b
 62
3
420
65280
370
15
  6
ByLayer
 10
9.5750388663000017
 20
7.8623776891000006
 30
0.0
 11
9.9947982577000012
 21
7.8623776891000015
 31
0.0
  0
LINE
  5
B0
100
AcDbEntity
100
AcDbLine
  8
CUT_SHEET_6b
 62
3
420
65280
370
15
  6
ByLayer
 10
9.9947982577000012
 20
7.8623776891000015
 30
0.0
 11
9.9947982577000012
 21
8.1022324479999988
 31
0.0
  0
SPLINE
  5
B1
  8
CUT_SHEET_6b
 62
3
420
65280
370
15
  6
ByLayer
100
AcDbEntity
100
AcDbSpline
 70
8
 71
3
 72
8
 73
4
 74
0
 40
0.0
 40
0.0
 40
0.0
 40
0.0
 40
1.0
 40
1.0
 40
1.0
 40
1.0
 10
9.5603361656573398
 20
4.1979329983279019
 30
0.0
 10
9.6638247321661908
 20
4.1979329983279063
 30
0.0
 10
9.7477277822872601
 20
4.281836048448973
 30
0.0
 10
9.7477277822872601
 20
4.3853246149578196
 30
0.0
  0
SPLINE
  5
B2
  8
CUT_SHEET_6b
 62
3
420
65280
370
15
  6
ByLayer
100
AcDbEntity
100
AcDbSpline
 70
8
 71
3
 72
8
 73
4
 74
0
 40
0.0
 40
0.0
 40
0.0
 40
0.0
 40
1.0
 40
1.0
 40
1.0
 40
1.0
 10
9.7477277822872601
 20
4.3853246149578196
 30
0.0
 10
9.7477277822872601
 20
4.4888131814666705
 30
0.0
 10
9.6638382955431901
 20
4.5727162315877372
 30
0.0
 10
9.5603361656573398
 20
4.5727162315877372
 30
0.0
  0
SPLINE
  5
B3
  8
CUT_SHEET_6b
 62
3
420
65280
370
15
  6
ByLayer
100
AcDbEntity
100
AcDbSpline
 70
8
 71
3
 72
8
 73
4
 74
0
 40
0.0
 40
0.0
 40
0.0
 40
0.0
 40
1.0
 40
1.0
 40
1.0
 40
1.0
 10
9.5603361656573398
 20
4.5727162315877372
 30
0.0
 10
9.4568475991484817
 20
4.5727162315877354
 30
0.0
 10
9.3729445490274195
 20
4.4888267448436707
 30
0.0
 10
9.3729445490274195
 20
4.3853246149578204
 30
0.0
  0
SPLINE
  5
B4
  8
CUT_SHEET_6b
 62
3
420
65280
370
15
  6
ByLayer
100
AcDbEntity
100
AcDbSpline
 70
8
 71
3
 72
8
 73
4
 74
0
 40
0.0
 40
0.0
 40
0.0
 40
0.0
 40
1.0
 40
1.0
 40
1.0
 40
1.0
 10
9.3729445490274195
 20
4.3853246149578204
 30
0.0
 10
9.3729445490274195
 20
4.2818496118259715
 30
0.0
 10
9.4568340357714895
 20
4.1979329983279019
 30
0.0
 10
9.5603361656573398
 20
4.1979329983279019
 30
0.0
  0
SPLINE
  5
B5
  8
CUT_SHEET_6b
 62
3
420
65280
370
15
  6
ByLayer
100
AcDbEntity
100
AcDbSpline
 70
8
 71
3
 72
8
 73
4
 74
0
 40
0.0
 40
0.0
 40
0.0
 40
0.0
 40
1.0
 40
1.0
 40
1.0
 40
1.0
 10
9.5603361656573398
 20
2.1857382035152795
 30
0.0
 10
9.6638247321661908
 20
2.1857382035152773
 30
0.0
 10
9.7477277822872601
 20
2.2696276902593433
 30
0.0
 10
9.7477277822872601
 20
2.3731162567681983
 30
0.0
  0
SPLINE
  5
B6
  8
CUT_SHEET_6b
 62
3
420
65280
370
15
  6
ByLayer
100
AcDbEntity
100
AcDbSpline
 70
8
 71
3
 72
8
 73
4
 74
0
 40
0.0
 40
0.0
 40
0.0
 40
0.0
 40
1.0
 40
1.0
 40
1.0
 40
1.0
 10
9.7477277822872601
 20
2.3731298201452042
 30
0.0
 10
9.7477277822872601
 20
2.4766183866540481
 30
0.0
 10
9.6638382955431901
 20
2.5605214367751117
 30
0.0
 10
9.5603361656573398
 20
2.5605214367751126
 30
0.0
  0
SPLINE
  5
B7
  8
CUT_SHEET_6b
 62
3
420
65280
370
15
  6
ByLayer
100
AcDbEntity
100
AcDbSpline
 70
8
 71
3
 72
8
 73
4
 74
0
 40
0.0
 40
0.0
 40
0.0
 40
0.0
 40
1.0
 40
1.0
 40
1.0
 40
1.0
 10
9.5603361656573398
 20
2.5605214367751126
 30
0.0
 10
9.4568475991484817
 20
2.5605214367751157
 30
0.0
 10
9.3729445490274195
 20
2.476631950031047
 30
0.0
 10
9.3729445490274195
 20
2.3731298201452007
 30
0.0
  0
SPLINE
  5
B8
  8
CUT_SHEET_6b
 62
3
420
65280
370
15
  6
ByLayer
100
AcDbEntity
100
AcDbSpline
 70
8
 71
3
 72
8
 73
4
 74
0
 40
0.0
 40
0.0
 40
0.0
 40
0.0
 40
1.0
 40
1.0
 40
1.0
 40
1.0
 10
9.3729445490274195
 20
2.3731298201452007
 30
0.0
 10
9.3729445490274195
 20
2.2696276902593455
 30
0.0
 10
9.4568340357714895
 20
2.1857382035152804
 30
0.0
 10
9.5603361656573398
 20
2.1857382035152795
 30
0.0
  0
SPLINE
  5
B9
  8
CUT_SHEET_6b
 62
3
420
65280
370
15
  6
ByLayer
100
AcDbEntity
100
AcDbSpline
 70
8
 71
3
 72
8
 73
4
 74
0
 40
0.0
 40
0.0
 40
0.0
 40
0.0
 40
1.0
 40
1.0
 40
1.0
 40
1.0
 10
7.7365909308806202
 20
2.9366745711119302
 30
0.0
 10
7.8400794973894712
 20
2.936674571111928
 30
0.0
 10
7.9239689841335412
 20
3.0205776212329996
 30
0.0
 10
7.9239825475105405
 20
3.1240661877418447
 30
0.0
  0
SPLINE
  5
BA
  8
CUT_SHEET_6b
 62
3
420
65280
370
15
  6
ByLayer
100
AcDbEntity
100
AcDbSpline
 70
8
 71
3
 72
8
 73
4
 74
0
 40
0.0
 40
0.0
 40
0.0
 40
0.0
 40
1.0
 40
1.0
 40
1.0
 40
1.0
 10
7.9239825475105405
 20
3.1240661877418447
 30
0.0
 10
7.9239825475105405
 20
3.2275683176276959
 30
0.0
 10
7.8400794973894712
 20
3.3114578043717628
 30
0.0
 10
7.7365909308806202
 20
3.3114578043717633
 30
0.0
  0
SPLINE
  5
BB
  8
CUT_SHEET_6b
 62
3
420
65280
370
15
  6
ByLayer
100
AcDbEntity
100
AcDbSpline
 70
8
 71
3
 72
8
 73
4
 74
0
 40
0.0
 40
0.0
 40
0.0
 40
0.0
 40
1.0
 40
1.0
 40
1.0
 40
1.0
 10
7.7365909308806202
 20
3.3114578043717633
 30
0.0
 10
7.6330888009947699
 20
3.3114578043717646
 30
0.0
 10
7.5491993142507106
 20
3.2275683176276941
 30
0.0
 10
7.5491993142507106
 20
3.1240797511188441
 30
0.0
  0
SPLINE
  5
BC
  8
CUT_SHEET_6b
 62
3
420
65280
370
15
  6
ByLayer
100
AcDbEntity
100
AcDbSpline
 70
8
 71
3
 72
8
 73
4
 74
0
 40
0.0
 40
0.0
 40
0.0
 40
0.0
 40
1.0
 40
1.0
 40
1.0
 40
1.0
 10
7.5491993142507106
 20
3.1240661877418492
 30
0.0
 10
7.5491993142507106
 20
3.0205776212329996
 30
0.0
 10
7.6330888009947699
 20
2.9366881344889282
 30
0.0
 10
7.7365773675036209
 20
2.936674571111932
 30
0.0
  0
SPLINE
  5
BD
  8
CUT_SHEET_6b
 62
3
420
65280
370
15
  6
ByLayer
100
AcDbEntity
100
AcDbSpline
 70
8
 71
3
 72
8
 73
4
 74
0
 40
0.0
 40
0.0
 40
0.0
 40
0.0
 40
1.0
 40
1.0
 40
1.0
 40
1.0
 10
10.1392210960108997
 20
4.4812448171007544
 30
0.0
 10
10.1391397157489003
 20
4.4399307707592124
 30
0.0
 10
10.1725734400535295
 20
4.4063749760615858
 30
0.0
 10
10.2138874863950697
 20
4.406293595799589
 30
0.0
  0
SPLINE
  5
BE
  8
CUT_SHEET_6b
 62
3
420
65280
370
15
  6
ByLayer
100
AcDbEntity
100
AcDbSpline
 70
8
 71
3
 72
8
 73
4
 74
0
 40
0.0
 40
0.0
 40
0.0
 40
0.0
 40
1.0
 40
1.0
 40
1.0
 40
1.0
 10
10.2138874863950697
 20
4.5562231651559175
 30
0.0
 10
10.1725734400535295
 20
4.5561282215169197
 30
0.0
 10
10.1391397157489003
 20
4.5225724268192913
 30
0.0
 10
10.1392210960108997
 20
4.4812448171007544
 30
0.0
  0
SPLINE
  5
BF
  8
CUT_SHEET_6b
 62
3
420
65280
370
15
  6
ByLayer
100
AcDbEntity
100
AcDbSpline
 70
8
 71
3
 72
8
 73
4
 74
0
 40
0.0
 40
0.0
 40
0.0
 40
0.0
 40
1.0
 40
1.0
 40
1.0
 40
1.0
 10
10.2884724965172403
 20
4.4812448171007517
 30
0.0
 10
10.2885810035332419
 20
4.5225453000652927
 30
0.0
 10
10.2551744059826113
 20
4.5561146581399194
 30
0.0
 10
10.2138874863950697
 20
4.5562231651559175
 30
0.0
  0
SPLINE
  5
C0
  8
CUT_SHEET_6b
 62
3
420
65280
370
15
  6
ByLayer
100
AcDbEntity
100
AcDbSpline
 70
8
 71
3
 72
8
 73
4
 74
0
 40
0.0
 40
0.0
 40
0.0
 40
0.0
 40
1.0
 40
1.0
 40
1.0
 40
1.0
 10
10.2138874863950697
 20
4.406293595799589
 30
0.0
 10
10.2551744059826113
 20
4.406388539438586
 30
0.0
 10
10.2885810035332419
 20
4.4399443341362117
 30
0.0
 10
10.2884724965172403
 20
4.4812448171007517
 30
0.0
  0
SPLINE
  5
C1
  8
CUT_SHEET_6b
 62
3
420
65280
370
15
  6
ByLayer
100
AcDbEntity
100
AcDbSpline
 70
8
 71
3
 72
8
 73
4
 74
0
 40
0.0
 40
0.0
 40
0.0
 40
0.0
 40
1.0
 40
1.0
 40
1.0
 40
1.0
 10
10.1392210960108997
 20
1.6557763740001725
 30
0.0
 10
10.1391397157489003
 20
1.6144623276586341
 30
0.0
 10
10.1725734400535295
 20
1.5809065329609986
 30
0.0
 10
10.2138874863950697
 20
1.5808251526990054
 30
0.0
  0
SPLINE
  5
C2
  8
CUT_SHEET_6b
 62
3
420
65280
370
15
  6
ByLayer
100
AcDbEntity
100
AcDbSpline
 70
8
 71
3
 72
8
 73
4
 74
0
 40
0.0
 40
0.0
 40
0.0
 40
0.0
 40
1.0
 40
1.0
 40
1.0
 40
1.0
 10
10.2138874863950697
 20
1.7307547220553463
 30
0.0
 10
10.1725734400535295
 20
1.7306733417933344
 30
0.0
 10
10.1391397157489003
 20
1.6971175470957132
 30
0.0
 10
10.1392210960108997
 20
1.6557763740001725
 30
0.0
  0
SPLINE
  5
C3
  8
CUT_SHEET_6b
 62
3
420
65280
370
15
  6
ByLayer
100
AcDbEntity
100
AcDbSpline
 70
8
 71
3
 72
8
 73
4
 74
0
 40
0.0
 40
0.0
 40
0.0
 40
0.0
 40
1.0
 40
1.0
 40
1.0
 40
1.0
 10
10.2884724965172403
 20
1.6557763740001725
 30
0.0
 10
10.2885810035332419
 20
1.697076856964709
 30
0.0
 10
10.2551744059826113
 20
1.730646215039342
 30
0.0
 10
10.2138874863950697
 20
1.7307547220553463
 30
0.0
  0
SPLINE
  5
C4
  8
CUT_SHEET_6b
 62
3
420
65280
370
15
  6
ByLayer
100
AcDbEntity
100
AcDbSpline
 70
8
 71
3
 72
8
 73
4
 74
0
 40
0.0
 40
0.0
 40
0.0
 40
0.0
 40
1.0
 40
1.0
 40
1.0
 40
1.0
 10
10.2138874863950697
 20
1.5808251526990054
 30
0.0
 10
10.2551744059826113
 20
1.5809336597149999
 30
0.0
 10
10.2885810035332419
 20
1.6144894544126398
 30
0.0
 10
10.2884724965172403
 20
1.6557763740001725
 30
0.0
  0
SPLINE
  5
C5
  8
CUT_SHEET_6b
 62
3
420
65280
370
15
  6
ByLayer
100
AcDbEntity
100
AcDbSpline
 70
8
 71
3
 72
8
 73
4
 74
0
 40
0.0
 40
0.0
 40
0.0
 40
0.0
 40
1.0
 40
1.0
 40
1.0
 40
1.0
 10
0.5129804815469496
 20
4.4812448171007544
 30
0.0
 10
0.5128991012849514
 20
4.4399307707592133
 30
0.0
 10
0.5463260439010806
 20
4.4063749760615849
 30
0.0
 10
0.5876400902426204
 20
4.4062935957995872
 30
0.0
  0
SPLINE
  5
C6
  8
CUT_SHEET_6b
 62
3
420
65280
370
15
  6
ByLayer
100
AcDbEntity
100
AcDbSpline
 70
8
 71
3
 72
8
 73
4
 74
0
 40
0.0
 40
0.0
 40
0.0
 40
0.0
 40
1.0
 40
1.0
 40
1.0
 40
1.0
 10
0.5876400902426213
 20
4.5562231651559184
 30
0.0
 10
0.5463260439010805
 20
4.5561282215169197
 30
0.0
 10
0.5128991012849513
 20
4.5225724268192931
 30
0.0
 10
0.5129804815469496
 20
4.4812448171007544
 30
0.0
  0
SPLINE
  5
C7
  8
CUT_SHEET_6b
 62
3
420
65280
370
15
  6
ByLayer
100
AcDbEntity
100
AcDbSpline
 70
8
 71
3
 72
8
 73
4
 74
0
 40
0.0
 40
0.0
 40
0.0
 40
0.0
 40
1.0
 40
1.0
 40
1.0
 40
1.0
 10
0.6622318820532912
 20
4.4812448171007535
 30
0.0
 10
0.6623403890692907
 20
4.5225453000652953
 30
0.0
 10
0.6289473548956597
 20
4.5561146581399203
 30
0.0
 10
0.5876400902426213
 20
4.5562231651559184
 30
0.0
  0
SPLINE
  5
C8
  8
CUT_SHEET_6b
 62
3
420
65280
370
15
  6
ByLayer
100
AcDbEntity
100
AcDbSpline
 70
8
 71
3
 72
8
 73
4
 74
0
 40
0.0
 40
0.0
 40
0.0
 40
0.0
 40
1.0
 40
1.0
 40
1.0
 40
1.0
 10
0.5876400902426204
 20
4.4062935957995872
 30
0.0
 10
0.6289473548956601
 20
4.406388539438586
 30
0.0
 10
0.6623268256922903
 20
4.4399443341362126
 30
0.0
 10
0.6622318820532912
 20
4.4812448171007535
 30
0.0
  0
SPLINE
  5
C9
  8
CUT_SHEET_6b
 62
3
420
65280
370
15
  6
ByLayer
100
AcDbEntity
100
AcDbSpline
 70
8
 71
3
 72
8
 73
4
 74
0
 40
0.0
 40
0.0
 40
0.0
 40
0.0
 40
1.0
 40
1.0
 40
1.0
 40
1.0
 10
0.5129804815469508
 20
1.6557763740001743
 30
0.0
 10
0.5128991012849513
 20
1.6144623276586341
 30
0.0
 10
0.5463260439010806
 20
1.5809065329610066
 30
0.0
 10
0.5876400902426212
 20
1.580825152699008
 30
0.0
  0
SPLINE
  5
CA
  8
CUT_SHEET_6b
 62
3
420
65280
370
15
  6
ByLayer
100
AcDbEntity
100
AcDbSpline
 70
8
 71
3
 72
8
 73
4
 74
0
 40
0.0
 40
0.0
 40
0.0
 40
0.0
 40
1.0
 40
1.0
 40
1.0
 40
1.0
 10
0.5876400902426212
 20
1.7307547220553401
 30
0.0
 10
0.5463260439010804
 20
1.7306733417933406
 30
0.0
 10
0.5128991012849511
 20
1.6971175470957141
 30
0.0
 10
0.5129804815469508
 20
1.6557763740001743
 30
0.0
  0
SPLINE
  5
CB
  8
CUT_SHEET_6b
 62
3
420
65280
370
15
  6
ByLayer
100
AcDbEntity
100
AcDbSpline
 70
8
 71
3
 72
8
 73
4
 74
0
 40
0.0
 40
0.0
 40
0.0
 40
0.0
 40
1.0
 40
1.0
 40
1.0
 40
1.0
 10
0.662231882053291
 20
1.6557763740001743
 30
0.0
 10
0.6623403890692909
 20
1.6970768569647152
 30
0.0
 10
0.6289473548956598
 20
1.7306462150393411
 30
0.0
 10
0.5876400902426212
 20
1.7307547220553401
 30
0.0
  0
SPLINE
  5
CC
  8
CUT_SHEET_6b
 62
3
420
65280
370
15
  6
ByLayer
100
AcDbEntity
100
AcDbSpline
 70
8
 71
3
 72
8
 73
4
 74
0
 40
0.0
 40
0.0
 40
0.0
 40
0.0
 40
1.0
 40
1.0
 40
1.0
 40
1.0
 10
0.5876400902426212
 20
1.580825152699008
 30
0.0
 10
0.6289473548956597
 20
1.5809336597150061
 30
0.0
 10
0.6623268256922896
 20
1.6144894544126327
 30
0.0
 10
0.662231882053291
 20
1.6557763740001743
 30
0.0
  0
SPLINE
  5
CD
  8
CUT_SHEET_6b
 62
3
420
65280
370
15
  6
ByLayer
100
AcDbEntity
100
AcDbSpline
 70
8
 71
3
 72
8
 73
4
 74
0
 40
0.0
 40
0.0
 40
0.0
 40
0.0
 40
1.0
 40
1.0
 40
1.0
 40
1.0
 10
6.822324377451789
 20
2.7544777278729566
 30
0.0
 10
6.822283687320791
 20
2.7131229914004162
 30
0.0
 10
6.8557716651334211
 20
2.6795671967027883
 30
0.0
 10
6.8971264016059592
 20
2.6795265065717881
 30
0.0
  0
SPLINE
  5
CE
  8
CUT_SHEET_6b
 62
3
420
65280
370
15
  6
ByLayer
100
AcDbEntity
100
AcDbSpline
 70
8
 71
3
 72
8
 73
4
 74
0
 40
0.0
 40
0.0
 40
0.0
 40
0.0
 40
1.0
 40
1.0
 40
1.0
 40
1.0
 10
6.8971399649829621
 20
2.8294425125511231
 30
0.0
 10
6.8557716651334211
 20
2.8294018224201221
 30
0.0
 10
6.822283687320791
 20
2.7958460277224964
 30
0.0
 10
6.822324377451789
 20
2.7544912912499528
 30
0.0
  0
SPLINE
  5
CF
  8
CUT_SHEET_6b
 62
3
420
65280
370
15
  6
ByLayer
100
AcDbEntity
100
AcDbSpline
 70
8
 71
3
 72
8
 73
4
 74
0
 40
0.0
 40
0.0
 40
0.0
 40
0.0
 40
1.0
 40
1.0
 40
1.0
 40
1.0
 10
6.9719012990061309
 20
2.7544777278729558
 30
0.0
 10
6.971955552514121
 20
2.7958324643454961
 30
0.0
 10
6.938481138078501
 20
2.8293882590431232
 30
0.0
 10
6.8971399649829621
 20
2.8294425125511231
 30
0.0
  0
SPLINE
  5
D0
  8
CUT_SHEET_6b
 62
3
420
65280
370
15
  6
ByLayer
100
AcDbEntity
100
AcDbSpline
 70
8
 71
3
 72
8
 73
4
 74
0
 40
0.0
 40
0.0
 40
0.0
 40
0.0
 40
1.0
 40
1.0
 40
1.0
 40
1.0
 10
6.8971399649829621
 20
2.6795265065717908
 30
0.0
 10
6.938481138078501
 20
2.6795807600797903
 30
0.0
 10
6.971955552514121
 20
2.7131365547774156
 30
0.0
 10
6.9719012990061309
 20
2.7544777278729558
 30
0.0
  0
SPLINE
  5
D1
  8
CUT_SHEET_6b
 62
3
420
65280
370
15
  6
ByLayer
100
AcDbEntity
100
AcDbSpline
 70
8
 71
3
 72
8
 73
4
 74
0
 40
0.0
 40
0.0
 40
0.0
 40
0.0
 40
1.0
 40
1.0
 40
1.0
 40
1.0
 10
3.3581022579203115
 20
0.7134200668046535
 30
0.0
 10
3.362618862461261
 20
0.8005512006516868
 30
0.0
 10
3.2956971603440088
 20
0.8751090840198561
 30
0.0
 10
3.2085931532509804
 20
0.8799918997398022
 30
0.0
  0
SPLINE
  5
D2
  8
CUT_SHEET_6b
 62
3
420
65280
370
15
  6
ByLayer
100
AcDbEntity
100
AcDbSpline
 70
8
 71
3
 72
8
 73
4
 74
0
 40
0.0
 40
0.0
 40
0.0
 40
0.0
 40
1.0
 40
1.0
 40
1.0
 40
1.0
 10
3.2085931532509804
 20
0.3802899643113609
 30
0.0
 10
3.2956835969670095
 20
0.3851727800313043
 30
0.0
 10
3.362618862461261
 20
0.4597306633994762
 30
0.0
 10
3.3581158212973108
 20
0.5468482338695067
 30
0.0
  0
SPLINE
  5
D3
  8
CUT_SHEET_6b
 62
3
420
65280
370
15
  6
ByLayer
100
AcDbEntity
100
AcDbSpline
 70
8
 71
3
 72
8
 73
4
 74
0
 40
0.0
 40
0.0
 40
0.0
 40
0.0
 40
1.0
 40
1.0
 40
1.0
 40
1.0
 10
2.6085357914006497
 20
0.5468346704925056
 30
0.0
 10
2.6040327502366996
 20
0.459717100022476
 30
0.0
 10
2.6709476706654609
 20
0.3851727800313052
 30
0.0
 10
2.75803811438149
 20
0.3802899643113582
 30
0.0
  0
SPLINE
  5
D4
  8
CUT_SHEET_6b
 62
3
420
65280
370
15
  6
ByLayer
100
AcDbEntity
100
AcDbSpline
 70
8
 71
3
 72
8
 73
4
 74
0
 40
0.0
 40
0.0
 40
0.0
 40
0.0
 40
1.0
 40
1.0
 40
1.0
 40
1.0
 10
2.7580652411354798
 20
0.8799918997398022
 30
0.0
 10
2.6709476706654609
 20
0.8750955206428559
 30
0.0
 10
2.6040327502366996
 20
0.8005512006516859
 30
0.0
 10
2.6085493547776508
 20
0.7134065034276533
 30
0.0
  0
SPLINE
  5
D5
  8
CUT_SHEET_6b
 62
3
420
65280
370
15
  6
ByLayer
100
AcDbEntity
100
AcDbSpline
 70
8
 71
3
 72
8
 73
4
 74
0
 40
0.0
 40
0.0
 40
0.0
 40
0.0
 40
1.0
 40
1.0
 40
1.0
 40
1.0
 10
8.6376331917346008
 20
3.7460148400699276
 30
0.0
 10
8.6376196283576014
 20
3.7874238300504692
 30
0.0
 10
8.6040367069059798
 20
3.8209796247480967
 30
0.0
 10
8.5626412803024401
 20
3.8209660613710947
 30
0.0
  0
SPLINE
  5
D6
  8
CUT_SHEET_6b
 62
3
420
65280
370
15
  6
ByLayer
100
AcDbEntity
100
AcDbSpline
 70
8
 71
3
 72
8
 73
4
 74
0
 40
0.0
 40
0.0
 40
0.0
 40
0.0
 40
1.0
 40
1.0
 40
1.0
 40
1.0
 10
8.5626412803024401
 20
3.6710500553917602
 30
0.0
 10
8.6040367069059798
 20
3.6710500553917602
 30
0.0
 10
8.6376196283576014
 20
3.7046058500893904
 30
0.0
 10
8.6376331917346008
 20
3.7460012766929265
 30
0.0
  0
SPLINE
  5
D7
  8
CUT_SHEET_6b
 62
3
420
65280
370
15
  6
ByLayer
100
AcDbEntity
100
AcDbSpline
 70
8
 71
3
 72
8
 73
4
 74
0
 40
0.0
 40
0.0
 40
0.0
 40
0.0
 40
1.0
 40
1.0
 40
1.0
 40
1.0
 10
8.4877171857552689
 20
3.7460012766929252
 30
0.0
 10
8.4877036223782696
 20
3.7046194134663897
 30
0.0
 10
8.5212458536989004
 20
3.6710636187687626
 30
0.0
 10
8.5626412803024401
 20
3.6710500553917602
 30
0.0
  0
SPLINE
  5
D8
  8
CUT_SHEET_6b
 62
3
420
65280
370
15
  6
ByLayer
100
AcDbEntity
100
AcDbSpline
 70
8
 71
3
 72
8
 73
4
 74
0
 40
0.0
 40
0.0
 40
0.0
 40
0.0
 40
1.0
 40
1.0
 40
1.0
 40
1.0
 10
8.5626412803024401
 20
3.8209660613710947
 30
0.0
 10
8.5212458536989004
 20
3.8209524979940972
 30
0.0
 10
8.4877036223782696
 20
3.787396703296471
 30
0.0
 10
8.4877171857552689
 20
3.7460012766929252
 30
0.0
  0
SPLINE
  5
D9
  8
CUT_SHEET_6b
 62
3
420
65280
370
15
  6
ByLayer
100
AcDbEntity
100
AcDbSpline
 70
8
 71
3
 72
8
 73
4
 74
0
 40
0.0
 40
0.0
 40
0.0
 40
0.0
 40
1.0
 40
1.0
 40
1.0
 40
1.0
 10
10.6329144554284092
 20
1.7507607031301191
 30
0.0
 10
10.6329008920514099
 20
1.7921696931106528
 30
0.0
 10
10.5993315339767911
 20
1.8257390511852858
 30
0.0
 10
10.5579361073732514
 20
1.8257254878082829
 30
0.0
  0
SPLINE
  5
DA
  8
CUT_SHEET_6b
 62
3
420
65280
370
15
  6
ByLayer
100
AcDbEntity
100
AcDbSpline
 70
8
 71
3
 72
8
 73
4
 74
0
 40
0.0
 40
0.0
 40
0.0
 40
0.0
 40
1.0
 40
1.0
 40
1.0
 40
1.0
 10
10.5579361073732514
 20
1.6758094818289475
 30
0.0
 10
10.5993179705997917
 20
1.6758094818289546
 30
0.0
 10
10.6328873286744106
 20
1.7093652765265812
 30
0.0
 10
10.6329144554284092
 20
1.7507607031301191
 30
0.0
  0
SPLINE
  5
DB
  8
CUT_SHEET_6b
 62
3
420
65280
370
15
  6
ByLayer
100
AcDbEntity
100
AcDbSpline
 70
8
 71
3
 72
8
 73
4
 74
0
 40
0.0
 40
0.0
 40
0.0
 40
0.0
 40
1.0
 40
1.0
 40
1.0
 40
1.0
 10
10.4829713226950787
 20
1.7507607031301156
 30
0.0
 10
10.4829713226950787
 20
1.7093652765265714
 30
0.0
 10
10.5165406807697117
 20
1.6758094818289448
 30
0.0
 10
10.5579361073732514
 20
1.6758094818289475
 30
0.0
  0
SPLINE
  5
DC
  8
CUT_SHEET_6b
 62
3
420
65280
370
15
  6
ByLayer
100
AcDbEntity
100
AcDbSpline
 70
8
 71
3
 72
8
 73
4
 74
0
 40
0.0
 40
0.0
 40
0.0
 40
0.0
 40
1.0
 40
1.0
 40
1.0
 40
1.0
 10
10.5579361073732514
 20
1.8257254878082829
 30
0.0
 10
10.5165406807697117
 20
1.8257119244312863
 30
0.0
 10
10.4829713226950787
 20
1.7921561297336517
 30
0.0
 10
10.4829713226950787
 20
1.7507607031301156
 30
0.0
  0
SPLINE
  5
DD
  8
CUT_SHEET_6b
 62
3
420
65280
370
15
  6
ByLayer
100
AcDbEntity
100
AcDbSpline
 70
8
 71
3
 72
8
 73
4
 74
0
 40
0.0
 40
0.0
 40
0.0
 40
0.0
 40
1.0
 40
1.0
 40
1.0
 40
1.0
 10
10.55796323412725
 20
3.6710771821457624
 30
0.0
 10
10.5993586607307897
 20
3.6710771821457624
 30
0.0
 10
10.6329144554284092
 20
3.7046465402203896
 30
0.0
 10
10.6329144554284092
 20
3.7460555302009295
 30
0.0
  0
SPLINE
  5
DE
  8
CUT_SHEET_6b
 62
3
420
65280
370
15
  6
ByLayer
100
AcDbEntity
100
AcDbSpline
 70
8
 71
3
 72
8
 73
4
 74
0
 40
0.0
 40
0.0
 40
0.0
 40
0.0
 40
1.0
 40
1.0
 40
1.0
 40
1.0
 10
10.4829984494490809
 20
3.746055530200926
 30
0.0
 10
10.4829713226950787
 20
3.7046601035973894
 30
0.0
 10
10.5165271173927088
 20
3.6710907455227608
 30
0.0
 10
10.5579361073732514
 20
3.6710771821457673
 30
0.0
  0
SPLINE
  5
DF
  8
CUT_SHEET_6b
 62
3
420
65280
370
15
  6
ByLayer
100
AcDbEntity
100
AcDbSpline
 70
8
 71
2
 72
6
 73
3
 74
0
 40
0.0
 40
0.0
 40
0.0
 40
1.0
 40
1.0
 40
1.0
 10
10.5579361073732514
 20
3.6710771821457673
 30
0.0
 10
10.5579496707502507
 20
3.6710771821457633
 30
0.0
 10
10.55796323412725
 20
3.6710771821457624
 30
0.0
  0
SPLINE
  5
E0
  8
CUT_SHEET_6b
 62
3
420
65280
370
15
  6
ByLayer
100
AcDbEntity
100
AcDbSpline
 70
8
 71
3
 72
8
 73
4
 74
0
 40
0.0
 40
0.0
 40
0.0
 40
0.0
 40
1.0
 40
1.0
 40
1.0
 40
1.0
 10
10.55796323412725
 20
3.8209796247480941
 30
0.0
 10
10.5165813709007097
 20
3.8209796247480976
 30
0.0
 10
10.4829984494490809
 20
3.7874373934274672
 30
0.0
 10
10.4829984494490809
 20
3.746055530200926
 30
0.0
  0
SPLINE
  5
E1
  8
CUT_SHEET_6b
 62
3
420
65280
370
15
  6
ByLayer
100
AcDbEntity
100
AcDbSpline
 70
8
 71
3
 72
8
 73
4
 74
0
 40
0.0
 40
0.0
 40
0.0
 40
0.0
 40
1.0
 40
1.0
 40
1.0
 40
1.0
 10
10.6329144554284092
 20
3.7460555302009295
 30
0.0
 10
10.6328873286744106
 20
3.7874373934274668
 30
0.0
 10
10.5993315339767911
 20
3.8209660613710938
 30
0.0
 10
10.55796323412725
 20
3.8209796247480941
 30
0.0
  0
SPLINE
  5
E2
  8
CUT_SHEET_6b
 62
3
420
65280
370
15
  6
ByLayer
100
AcDbEntity
100
AcDbSpline
 70
8
 71
3
 72
8
 73
4
 74
0
 40
0.0
 40
0.0
 40
0.0
 40
0.0
 40
1.0
 40
1.0
 40
1.0
 40
1.0
 10
8.5626684070564316
 20
1.6757959184519464
 30
0.0
 10
8.6040502702829791
 20
1.6757823550749462
 30
0.0
 10
8.6376196283576014
 20
1.7093110230185813
 30
0.0
 10
8.6376331917346008
 20
1.7506928862451216
 30
0.0
  0
SPLINE
  5
E3
  8
CUT_SHEET_6b
 62
3
420
65280
370
15
  6
ByLayer
100
AcDbEntity
100
AcDbSpline
 70
8
 71
3
 72
8
 73
4
 74
0
 40
0.0
 40
0.0
 40
0.0
 40
0.0
 40
1.0
 40
1.0
 40
1.0
 40
1.0
 10
8.6376331917346008
 20
1.7506928862451216
 30
0.0
 10
8.6376331917346008
 20
1.7507064496221201
 30
0.0
 10
8.6376331917346008
 20
1.7507335763761205
 30
0.0
 10
8.6376331917346008
 20
1.7507471397531233
 30
0.0
  0
SPLINE
  5
E4
  8
CUT_SHEET_6b
 62
3
420
65280
370
15
  6
ByLayer
100
AcDbEntity
100
AcDbSpline
 70
8
 71
3
 72
8
 73
4
 74
0
 40
0.0
 40
0.0
 40
0.0
 40
0.0
 40
1.0
 40
1.0
 40
1.0
 40
1.0
 10
8.4877036223782696
 20
1.7507471397531189
 30
0.0
 10
8.4877036223782696
 20
1.7093517131495819
 30
0.0
 10
8.521272980452899
 20
1.6757959184519491
 30
0.0
 10
8.5626684070564316
 20
1.6757959184519464
 30
0.0
  0
SPLINE
  5
E5
  8
CUT_SHEET_6b
 62
3
420
65280
370
15
  6
ByLayer
100
AcDbEntity
100
AcDbSpline
 70
8
 71
3
 72
8
 73
4
 74
0
 40
0.0
 40
0.0
 40
0.0
 40
0.0
 40
1.0
 40
1.0
 40
1.0
 40
1.0
 10
8.5626684070564316
 20
1.8257119244312836
 30
0.0
 10
8.521272980452899
 20
1.8257119244312854
 30
0.0
 10
8.4877036223782696
 20
1.7921561297336579
 30
0.0
 10
8.4877036223782696
 20
1.7507471397531189
 30
0.0
  0
SPLINE
  5
E6
  8
CUT_SHEET_6b
 62
3
420
65280
370
15
  6
ByLayer
100
AcDbEntity
100
AcDbSpline
 70
8
 71
3
 72
8
 73
4
 74
0
 40
0.0
 40
0.0
 40
0.0
 40
0.0
 40
1.0
 40
1.0
 40
1.0
 40
1.0
 10
8.6376331917346008
 20
1.7507471397531233
 30
0.0
 10
8.6376467551116001
 20
1.7921561297336552
 30
0.0
 10
8.6040773970369706
 20
1.8257119244312898
 30
0.0
 10
8.5626955338104302
 20
1.8257119244312845
 30
0.0
  0
SPLINE
  5
E7
  8
CUT_SHEET_6b
 62
3
420
65280
370
15
  6
ByLayer
100
AcDbEntity
100
AcDbSpline
 70
8
 71
3
 72
8
 73
4
 74
0
 40
0.0
 40
0.0
 40
0.0
 40
0.0
 40
1.0
 40
1.0
 40
1.0
 40
1.0
 10
8.5626955338104302
 20
1.8257119244312845
 30
0.0
 10
8.5626819704334309
 20
1.8257119244312872
 30
0.0
 10
8.5626819704334309
 20
1.8257119244312872
 30
0.0
 10
8.5626684070564316
 20
1.8257119244312836
 30
0.0
  0
SPLINE
  5
E8
  8
CUT_SHEET_6b
 62
3
420
65280
370
15
  6
ByLayer
100
AcDbEntity
100
AcDbSpline
 70
8
 71
3
 72
8
 73
4
 74
0
 40
0.0
 40
0.0
 40
0.0
 40
0.0
 40
1.0
 40
1.0
 40
1.0
 40
1.0
 10
3.8801973287755089
 20
2.1603204350175633
 30
0.0
 10
3.9408934408498304
 20
2.1570787879145983
 30
0.0
 10
4.0153156904480092
 20
2.1968330459011565
 30
0.0
 10
4.0463486970236602
 20
2.2490927374815755
 30
0.0
  0
SPLINE
  5
E9
  8
CUT_SHEET_6b
 62
3
420
65280
370
15
  6
ByLayer
100
AcDbEntity
100
AcDbSpline
 70
8
 71
3
 72
8
 73
4
 74
0
 40
0.0
 40
0.0
 40
0.0
 40
0.0
 40
1.0
 40
1.0
 40
1.0
 40
1.0
 10
3.7140459605273506
 20
2.2490927374815763
 30
0.0
 10
3.7450925304800116
 20
2.1968194825241558
 30
0.0
 10
3.8194876533241811
 20
2.157065224537599
 30
0.0
 10
3.8801973287755089
 20
2.1603204350175633
 30
0.0
  0
SPLINE
  5
EA
  8
CUT_SHEET_6b
 62
3
420
65280
370
15
  6
ByLayer
100
AcDbEntity
100
AcDbSpline
 70
8
 71
3
 72
8
 73
4
 74
0
 40
0.0
 40
0.0
 40
0.0
 40
0.0
 40
1.0
 40
1.0
 40
1.0
 40
1.0
 10
1.5564653276533513
 20
2.1614597586855511
 30
0.0
 10
1.6165510877626801
 20
2.1582181115825874
 30
0.0
 10
1.6905799994278614
 20
2.1973891443581506
 30
0.0
 10
1.7217011679540113
 20
2.2489028502035779
 30
0.0
  0
SPLINE
  5
EB
  8
CUT_SHEET_6b
 62
3
420
65280
370
15
  6
ByLayer
100
AcDbEntity
100
AcDbSpline
 70
8
 71
3
 72
8
 73
4
 74
0
 40
0.0
 40
0.0
 40
0.0
 40
0.0
 40
1.0
 40
1.0
 40
1.0
 40
1.0
 10
1.3912566141066915
 20
2.2489028502035775
 30
0.0
 10
1.4223642192558406
 20
2.1973891443581506
 30
0.0
 10
1.4963863492325198
 20
2.1582181115825869
 30
0.0
 10
1.5564653276533513
 20
2.1614597586855511
 30
0.0
  0
SPLINE
  5
EC
  8
CUT_SHEET_6b
 62
3
420
65280
370
15
  6
ByLayer
100
AcDbEntity
100
AcDbSpline
 70
8
 71
3
 72
8
 73
4
 74
0
 40
0.0
 40
0.0
 40
0.0
 40
0.0
 40
1.0
 40
1.0
 40
1.0
 40
1.0
 10
1.5564653276533511
 20
3.3371604037864757
 30
0.0
 10
1.4957624338905211
 20
3.3404156142664401
 30
0.0
 10
1.4213605293578504
 20
3.3006477929028817
 30
0.0
 10
1.3903207410937015
 20
3.2483881013224627
 30
0.0
  0
SPLINE
  5
ED
  8
CUT_SHEET_6b
 62
3
420
65280
370
15
  6
ByLayer
100
AcDbEntity
100
AcDbSpline
 70
8
 71
3
 72
8
 73
4
 74
0
 40
0.0
 40
0.0
 40
0.0
 40
0.0
 40
1.0
 40
1.0
 40
1.0
 40
1.0
 10
1.722596350836
 20
3.2483881013224627
 30
0.0
 10
1.6915701259488498
 20
3.3006477929028821
 30
0.0
 10
1.6171614397276708
 20
3.3404156142664401
 30
0.0
 10
1.5564653276533511
 20
3.3371604037864757
 30
0.0
  0
SPLINE
  5
EE
  8
CUT_SHEET_6b
 62
3
420
65280
370
15
  6
ByLayer
100
AcDbEntity
100
AcDbSpline
 70
8
 71
3
 72
8
 73
4
 74
0
 40
0.0
 40
0.0
 40
0.0
 40
0.0
 40
1.0
 40
1.0
 40
1.0
 40
1.0
 10
3.8802108921525118
 20
3.3360346434954891
 30
0.0
 10
3.8287514398150786
 20
3.3265402795955952
 30
0.0
 10
3.7517385852099321
 20
3.285795895088047
 30
0.0
 10
3.7149547067863402
 20
3.2485779886004598
 30
0.0
  0
SPLINE
  5
EF
  8
CUT_SHEET_6b
 62
3
420
65280
370
15
  6
ByLayer
100
AcDbEntity
100
AcDbSpline
 70
8
 71
3
 72
8
 73
4
 74
0
 40
0.0
 40
0.0
 40
0.0
 40
0.0
 40
1.0
 40
1.0
 40
1.0
 40
1.0
 10
4.0453992606336691
 20
3.2485779886004611
 30
0.0
 10
4.0143120005500208
 20
3.3000781310688878
 30
0.0
 10
3.9402966522618392
 20
3.3392762905984528
 30
0.0
 10
3.8802108921525118
 20
3.3360346434954891
 30
0.0
  0
SPLINE
  5
F0
  8
CUT_SHEET_6b
 62
3
420
65280
370
15
  6
ByLayer
100
AcDbEntity
100
AcDbSpline
 70
8
 71
3
 72
8
 73
4
 74
0
 40
0.0
 40
0.0
 40
0.0
 40
0.0
 40
1.0
 40
1.0
 40
1.0
 40
1.0
 10
5.4974537121065197
 20
0.1887072641884799
 30
0.0
 10
5.5388491387100593
 20
0.1887072641884986
 30
0.0
 10
5.5724184967846888
 20
0.2222630588860985
 30
0.0
 10
5.5724184967846888
 20
0.2636584854896515
 30
0.0
  0
SPLINE
  5
F1
  8
CUT_SHEET_6b
 62
3
420
65280
370
15
  6
ByLayer
100
AcDbEntity
100
AcDbSpline
 70
8
 71
3
 72
8
 73
4
 74
0
 40
0.0
 40
0.0
 40
0.0
 40
0.0
 40
1.0
 40
1.0
 40
1.0
 40
1.0
 10
5.5724184967846888
 20
0.2636584854896515
 30
0.0
 10
5.5724184967846888
 20
0.3050539120932001
 30
0.0
 10
5.5388491387100593
 20
0.3386232701678207
 30
0.0
 10
5.4974537121065197
 20
0.3386232701678207
 30
0.0
  0
SPLINE
  5
F2
  8
CUT_SHEET_6b
 62
3
420
65280
370
15
  6
ByLayer
100
AcDbEntity
100
AcDbSpline
 70
8
 71
3
 72
8
 73
4
 74
0
 40
0.0
 40
0.0
 40
0.0
 40
0.0
 40
1.0
 40
1.0
 40
1.0
 40
1.0
 10
5.4974537121065197
 20
0.3386232701678207
 30
0.0
 10
5.45605828550298
 20
0.33862327016781
 30
0.0
 10
5.4225024908053605
 20
0.3050539120931894
 30
0.0
 10
5.4225024908053605
 20
0.2636584854896595
 30
0.0
  0
SPLINE
  5
F3
  8
CUT_SHEET_6b
 62
3
420
65280
370
15
  6
ByLayer
100
AcDbEntity
100
AcDbSpline
 70
8
 71
3
 72
8
 73
4
 74
0
 40
0.0
 40
0.0
 40
0.0
 40
0.0
 40
1.0
 40
1.0
 40
1.0
 40
1.0
 10
5.4225024908053605
 20
0.2636584854896595
 30
0.0
 10
5.4225024908053605
 20
0.2222630588861243
 30
0.0
 10
5.45605828550298
 20
0.1887072641884737
 30
0.0
 10
5.4974537121065197
 20
0.1887072641884799
 30
0.0
  0
SPLINE
  5
F4
  8
CUT_SHEET_6b
 62
3
420
65280
370
15
  6
ByLayer
100
AcDbEntity
100
AcDbSpline
 70
8
 71
3
 72
8
 73
4
 74
0
 40
0.0
 40
0.0
 40
0.0
 40
0.0
 40
1.0
 40
1.0
 40
1.0
 40
1.0
 10
1.6166189046476802
 20
0.1886937008114886
 30
0.0
 10
1.6580143312512199
 20
0.1886937008114886
 30
0.0
 10
1.6915565625718507
 20
0.2222494955091152
 30
0.0
 10
1.69157012594885
 20
0.2636449221126549
 30
0.0
  0
SPLINE
  5
F5
  8
CUT_SHEET_6b
 62
3
420
65280
370
15
  6
ByLayer
100
AcDbEntity
100
AcDbSpline
 70
8
 71
3
 72
8
 73
4
 74
0
 40
0.0
 40
0.0
 40
0.0
 40
0.0
 40
1.0
 40
1.0
 40
1.0
 40
1.0
 10
1.69157012594885
 20
0.2636449221126549
 30
0.0
 10
1.69157012594885
 20
0.3050403487161946
 30
0.0
 10
1.6580143312512199
 20
0.3386097067908205
 30
0.0
 10
1.6166189046476802
 20
0.3386097067908214
 30
0.0
  0
SPLINE
  5
F6
  8
CUT_SHEET_6b
 62
3
420
65280
370
15
  6
ByLayer
100
AcDbEntity
100
AcDbSpline
 70
8
 71
3
 72
8
 73
4
 74
0
 40
0.0
 40
0.0
 40
0.0
 40
0.0
 40
1.0
 40
1.0
 40
1.0
 40
1.0
 10
1.6166189046476802
 20
0.3386097067908214
 30
0.0
 10
1.5752234780441405
 20
0.3386097067908214
 30
0.0
 10
1.5416473382810096
 20
0.3050403487161955
 30
0.0
 10
1.5416609016580107
 20
0.263644922112654
 30
0.0
  0
SPLINE
  5
F7
  8
CUT_SHEET_6b
 62
3
420
65280
370
15
  6
ByLayer
100
AcDbEntity
100
AcDbSpline
 70
8
 71
3
 72
8
 73
4
 74
0
 40
0.0
 40
0.0
 40
0.0
 40
0.0
 40
1.0
 40
1.0
 40
1.0
 40
1.0
 10
1.5416609016580107
 20
0.263644922112654
 30
0.0
 10
1.5416609016580107
 20
0.2222494955091152
 30
0.0
 10
1.5752234780441405
 20
0.1886937008114895
 30
0.0
 10
1.6166189046476802
 20
0.1886937008114886
 30
0.0
  0
SPLINE
  5
F8
  8
CUT_SHEET_6b
 62
3
420
65280
370
15
  6
ByLayer
100
AcDbEntity
100
AcDbSpline
 70
8
 71
3
 72
8
 73
4
 74
0
 40
0.0
 40
0.0
 40
0.0
 40
0.0
 40
1.0
 40
1.0
 40
1.0
 40
1.0
 10
9.3782613928113605
 20
0.1887208275655228
 30
0.0
 10
9.4196568194149002
 20
0.1887208275655343
 30
0.0
 10
9.4532126141125303
 20
0.2222766222631352
 30
0.0
 10
9.4532126141125303
 20
0.2636720488666544
 30
0.0
  0
SPLINE
  5
F9
  8
CUT_SHEET_6b
 62
3
420
65280
370
15
  6
ByLayer
100
AcDbEntity
100
AcDbSpline
 70
8
 71
3
 72
8
 73
4
 74
0
 40
0.0
 40
0.0
 40
0.0
 40
0.0
 40
1.0
 40
1.0
 40
1.0
 40
1.0
 10
9.4532126141125303
 20
0.2636720488666544
 30
0.0
 10
9.4532126141125303
 20
0.3050674754702065
 30
0.0
 10
9.4196568194149002
 20
0.3386368335448378
 30
0.0
 10
9.3782613928113605
 20
0.3386368335448164
 30
0.0
  0
SPLINE
  5
FA
  8
CUT_SHEET_6b
 62
3
420
65280
370
15
  6
ByLayer
100
AcDbEntity
100
AcDbSpline
 70
8
 71
3
 72
8
 73
4
 74
0
 40
0.0
 40
0.0
 40
0.0
 40
0.0
 40
1.0
 40
1.0
 40
1.0
 40
1.0
 10
9.3782613928113605
 20
0.3386368335448164
 30
0.0
 10
9.3368659662078208
 20
0.3386368335448164
 30
0.0
 10
9.3033101715102013
 20
0.3050674754701728
 30
0.0
 10
9.3033101715102013
 20
0.2636720488666358
 30
0.0
  0
SPLINE
  5
FB
  8
CUT_SHEET_6b
 62
3
420
65280
370
15
  6
ByLayer
100
AcDbEntity
100
AcDbSpline
 70
8
 71
3
 72
8
 73
4
 74
0
 40
0.0
 40
0.0
 40
0.0
 40
0.0
 40
1.0
 40
1.0
 40
1.0
 40
1.0
 10
9.3033101715102013
 20
0.2636720488666358
 30
0.0
 10
9.3033101715102013
 20
0.2222766222631298
 30
0.0
 10
9.3368659662078208
 20
0.1887208275654535
 30
0.0
 10
9.3782613928113605
 20
0.1887208275655228
 30
0.0
  0
SPLINE
  5
FC
  8
CUT_SHEET_6b
 62
3
420
65280
370
15
  6
ByLayer
100
AcDbEntity
100
AcDbSpline
 70
8
 71
3
 72
8
 73
4
 74
0
 40
0.0
 40
0.0
 40
0.0
 40
0.0
 40
1.0
 40
1.0
 40
1.0
 40
1.0
 10
9.3783156463193613
 20
8.0572698532419835
 30
0.0
 10
9.3369202197158234
 20
8.0572698532419871
 30
0.0
 10
9.3033644250181986
 20
8.0237140585443587
 30
0.0
 10
9.3033644250181986
 20
7.9823186319408199
 30
0.0
  0
SPLINE
  5
FD
  8
CUT_SHEET_6b
 62
3
420
65280
370
15
  6
ByLayer
100
AcDbEntity
100
AcDbSpline
 70
8
 71
3
 72
8
 73
4
 74
0
 40
0.0
 40
0.0
 40
0.0
 40
0.0
 40
1.0
 40
1.0
 40
1.0
 40
1.0
 10
9.3033644250181986
 20
7.9823186319408199
 30
0.0
 10
9.3033644250181986
 20
7.9409096419602783
 30
0.0
 10
9.3369202197158216
 20
7.9073538472626543
 30
0.0
 10
9.3783156463193613
 20
7.907340283885655
 30
0.0
  0
SPLINE
  5
FE
  8
CUT_SHEET_6b
 62
3
420
65280
370
15
  6
ByLayer
100
AcDbEntity
100
AcDbSpline
 70
8
 71
3
 72
8
 73
4
 74
0
 40
0.0
 40
0.0
 40
0.0
 40
0.0
 40
1.0
 40
1.0
 40
1.0
 40
1.0
 10
9.3783156463193613
 20
7.907340283885655
 30
0.0
 10
9.419711072922901
 20
7.9073538472626534
 30
0.0
 10
9.4532668676205311
 20
7.94090964196028
 30
0.0
 10
9.4532668676205311
 20
7.9823186319408208
 30
0.0
  0
SPLINE
  5
FF
  8
CUT_SHEET_6b
 62
3
420
65280
370
15
  6
ByLayer
100
AcDbEntity
100
AcDbSpline
 70
8
 71
3
 72
8
 73
4
 74
0
 40
0.0
 40
0.0
 40
0.0
 40
0.0
 40
1.0
 40
1.0
 40
1.0
 40
1.0
 10
9.4532668676205311
 20
7.9823186319408208
 30
0.0
 10
9.4532668676205311
 20
8.0237140585443587
 30
0.0
 10
9.4197110729228992
 20
8.0572698532419853
 30
0.0
 10
9.3783156463193613
 20
8.0572698532419835
 30
0.0
  0
LINE
  5
100
100
AcDbEntity
100
AcDbLine
  8
CUT_SHEET_6b
 62
7
420
0
370
15
  6
ByLayer
 10
10.6682470524999999
 20
7.2652364533000009
 30
0.0
 11
10.6001724633999999
 21
7.3332703523999987
 31
0.0
  0
LINE
  5
101
100
AcDbEntity
100
AcDbLine
  8
CUT_SHEET_6b
 62
7
420
0
370
15
  6
ByLayer
 10
10.6001724633999999
 20
7.3332703523999987
 30
0.0
 11
10.6001724633999999
 21
7.3741232439000006
 31
0.0
  0
LINE
  5
102
100
AcDbEntity
100
AcDbLine
  8
CUT_SHEET_6b
 62
7
420
0
370
15
  6
ByLayer
 10
10.6001724633999999
 20
7.3741232439000006
 30
0.0
 11
10.6341758495000001
 21
7.4081537567999982
 31
0.0
  0
LINE
  5
103
100
AcDbEntity
100
AcDbLine
  8
CUT_SHEET_6b
 62
7
420
0
370
15
  6
ByLayer
 10
10.7362673882000017
 20
7.2652364533000018
 30
0.0
 11
10.600158900000002
 21
7.2652364532999991
 31
0.0
  0
LINE
  5
104
100
AcDbEntity
100
AcDbLine
  8
CUT_SHEET_6b
 62
7
420
0
370
15
  6
ByLayer
 10
10.7362673882000017
 20
7.1631177878999983
 30
0.0
 11
10.7362673882000017
 21
7.0950703255000009
 31
0.0
  0
LINE
  5
105
100
AcDbEntity
100
AcDbLine
  8
CUT_SHEET_6b
 62
7
420
0
370
15
  6
ByLayer
 10
10.7362673882000017
 20
7.0950703255000009
 30
0.0
 11
10.7022368752999988
 21
7.0610398126000007
 31
0.0
  0
LINE
  5
106
100
AcDbEntity
100
AcDbLine
  8
CUT_SHEET_6b
 62
7
420
0
370
15
  6
ByLayer
 10
10.7022368752999988
 20
7.0610398126000007
 30
0.0
 11
10.6341758495000018
 21
7.061039812599998
 31
0.0
  0
LINE
  5
107
100
AcDbEntity
100
AcDbLine
  8
CUT_SHEET_6b
 62
7
420
0
370
15
  6
ByLayer
 10
10.6341758495000018
 20
7.061039812599998
 30
0.0
 11
10.6001589000000003
 21
7.0950703254999992
 31
0.0
  0
LINE
  5
108
100
AcDbEntity
100
AcDbLine
  8
CUT_SHEET_6b
 62
7
420
0
370
15
  6
ByLayer
 10
10.6001589000000003
 20
7.0950703254999992
 30
0.0
 11
10.6001589000000003
 21
7.1631177878999983
 31
0.0
  0
LINE
  5
109
100
AcDbEntity
100
AcDbLine
  8
CUT_SHEET_6b
 62
7
420
0
370
15
  6
ByLayer
 10
10.6001589000000003
 20
7.1631177878999983
 30
0.0
 11
10.6341758495000001
 21
7.1971618641999981
 31
0.0
  0
LINE
  5
10A
100
AcDbEntity
100
AcDbLine
  8
CUT_SHEET_6b
 62
7
420
0
370
15
  6
ByLayer
 10
10.6341758495000001
 20
7.1971618641999981
 30
0.0
 11
10.7022368752999988
 21
7.197161864199999
 31
0.0
  0
LINE
  5
10B
100
AcDbEntity
100
AcDbLine
  8
CUT_SHEET_6b
 62
7
420
0
370
15
  6
ByLayer
 10
10.7022368752999988
 20
7.197161864199999
 30
0.0
 11
10.7362673882000017
 21
7.1631177878999983
 31
0.0
  0
LINE
  5
10C
100
AcDbEntity
100
AcDbLine
  8
CUT_SHEET_6b
 62
7
420
0
370
15
  6
ByLayer
 10
10.5593466985999989
 20
6.9929787868000002
 30
0.0
 11
10.5252890589000003
 21
6.9929787868000011
 31
0.0
  0
LINE
  5
10D
100
AcDbEntity
100
AcDbLine
  8
CUT_SHEET_6b
 62
7
420
0
370
15
  6
ByLayer
 10
10.7362673882000017
 20
6.992978786800002
 30
0.0
 11
10.6001589000000003
 21
6.9929787868000002
 31
0.0
  0
LINE
  5
10E
100
AcDbEntity
100
AcDbLine
  8
CUT_SHEET_6b
 62
7
420
0
370
15
  6
ByLayer
 10
10.6682470524999999
 20
6.7819868941999966
 30
0.0
 11
10.6001724633999999
 21
6.8500614833999984
 31
0.0
  0
LINE
  5
10F
100
AcDbEntity
100
AcDbLine
  8
CUT_SHEET_6b
 62
7
420
0
370
15
  6
ByLayer
 10
10.6001724633999999
 20
6.8500614833999984
 30
0.0
 11
10.6001724633999999
 21
6.8908872481000012
 31
0.0
  0
LINE
  5
110
100
AcDbEntity
100
AcDbLine
  8
CUT_SHEET_6b
 62
7
420
0
370
15
  6
ByLayer
 10
10.6001724633999999
 20
6.8908872481000012
 30
0.0
 11
10.6341758495000001
 21
6.924917760999997
 31
0.0
  0
LINE
  5
111
100
AcDbEntity
100
AcDbLine
  8
CUT_SHEET_6b
 62
7
420
0
370
15
  6
ByLayer
 10
10.7362673882000017
 20
6.7819868941999975
 30
0.0
 11
10.6001589000000003
 21
6.7819868941999983
 31
0.0
  0
LINE
  5
112
100
AcDbEntity
100
AcDbLine
  8
CUT_SHEET_6b
 62
7
420
0
370
15
  6
ByLayer
 10
10.6682470524999999
 20
6.5777902534999999
 30
0.0
 11
10.6682470524999999
 21
6.6799089188999998
 31
0.0
  0
LINE
  5
113
100
AcDbEntity
100
AcDbLine
  8
CUT_SHEET_6b
 62
7
420
0
370
15
  6
ByLayer
 10
10.6682470524999999
 20
6.6799089188999998
 30
0.0
 11
10.6341758495000001
 21
6.7139258684000032
 31
0.0
  0
LINE
  5
114
100
AcDbEntity
100
AcDbLine
  8
CUT_SHEET_6b
 62
7
420
0
370
15
  6
ByLayer
 10
10.6341758495000001
 20
6.7139258684000032
 30
0.0
 11
10.6001724633999999
 21
6.6799089188999989
 31
0.0
  0
LINE
  5
115
100
AcDbEntity
100
AcDbLine
  8
CUT_SHEET_6b
 62
7
420
0
370
15
  6
ByLayer
 10
10.6001724633999999
 20
6.6799089188999989
 30
0.0
 11
10.6001724634000016
 21
6.611834329699998
 31
0.0
  0
LINE
  5
116
100
AcDbEntity
100
AcDbLine
  8
CUT_SHEET_6b
 62
7
420
0
370
15
  6
ByLayer
 10
10.6001724634000016
 20
6.611834329699998
 30
0.0
 11
10.6341758495000001
 21
6.5777902535000017
 31
0.0
  0
LINE
  5
117
100
AcDbEntity
100
AcDbLine
  8
CUT_SHEET_6b
 62
7
420
0
370
15
  6
ByLayer
 10
10.6341758495000001
 20
6.5777902535000017
 30
0.0
 11
10.7022368753000006
 21
6.5777902534999981
 31
0.0
  0
LINE
  5
118
100
AcDbEntity
100
AcDbLine
  8
CUT_SHEET_6b
 62
7
420
0
370
15
  6
ByLayer
 10
10.7022368753000006
 20
6.5777902534999981
 30
0.0
 11
10.7362538248000021
 21
6.6118343297000042
 31
0.0
  0
LINE
  5
119
100
AcDbEntity
100
AcDbLine
  8
CUT_SHEET_6b
 62
7
420
0
370
15
  6
ByLayer
 10
10.7362538248000021
 20
6.6118343297000042
 30
0.0
 11
10.7362538248000003
 21
6.6799089189000007
 31
0.0
  0
LINE
  5
11A
100
AcDbEntity
100
AcDbLine
  8
CUT_SHEET_6b
 62
7
420
0
370
15
  6
ByLayer
 10
10.5252890589000003
 20
6.4416817652999985
 30
0.0
 11
10.7022368752999988
 21
6.4416817652999985
 31
0.0
  0
LINE
  5
11B
100
AcDbEntity
100
AcDbLine
  8
CUT_SHEET_6b
 62
7
420
0
370
15
  6
ByLayer
 10
10.7022368752999988
 20
6.4416817652999985
 30
0.0
 11
10.7362538248000021
 21
6.4756987147999974
 31
0.0
  0
LINE
  5
11C
100
AcDbEntity
100
AcDbLine
  8
CUT_SHEET_6b
 62
7
420
0
370
15
  6
ByLayer
 10
10.7362538248000021
 20
6.4756987147999974
 30
0.0
 11
10.7022368752999988
 21
6.5097563544000021
 31
0.0
  0
LINE
  5
11D
100
AcDbEntity
100
AcDbLine
  8
CUT_SHEET_6b
 62
7
420
0
370
15
  6
ByLayer
 10
10.6001724633999999
 20
6.3667847974999994
 30
0.0
 11
10.6001724633999999
 21
6.5097563543999994
 31
0.0
  0
LINE
  5
11E
100
AcDbEntity
100
AcDbLine
  8
CUT_SHEET_6b
 62
7
420
0
370
15
  6
ByLayer
 10
10.6001724633999999
 20
6.1626424103000019
 30
0.0
 11
10.7362673882000017
 21
6.2987644617999994
 31
0.0
  0
LINE
  5
11F
100
AcDbEntity
100
AcDbLine
  8
CUT_SHEET_6b
 62
7
420
0
370
15
  6
ByLayer
 10
10.7362673882000017
 20
6.1626424103000055
 30
0.0
 11
10.6001589000000003
 21
6.2987644618000012
 31
0.0
  0
LINE
  5
120
100
AcDbEntity
100
AcDbLine
  8
CUT_SHEET_6b
 62
7
420
0
370
15
  6
ByLayer
 10
10.7362673882000017
 20
5.958445769499999
 30
0.0
 11
10.7362673882000017
 21
6.0945813844999996
 31
0.0
  0
LINE
  5
121
100
AcDbEntity
100
AcDbLine
  8
CUT_SHEET_6b
 62
7
420
0
370
15
  6
ByLayer
 10
10.6341758495000001
 20
5.9584457694999973
 30
0.0
 11
10.6341758495000001
 21
6.0264932319
 31
0.0
  0
LINE
  5
122
100
AcDbEntity
100
AcDbLine
  8
CUT_SHEET_6b
 62
7
420
0
370
15
  6
ByLayer
 10
10.7362673882000017
 20
5.958445769499999
 30
0.0
 11
10.5252890589000003
 21
5.9584457695000008
 31
0.0
  0
LINE
  5
123
100
AcDbEntity
100
AcDbLine
  8
CUT_SHEET_6b
 62
7
420
0
370
15
  6
ByLayer
 10
10.5252890589000003
 20
5.9584457695000008
 30
0.0
 11
10.5252890589000003
 21
6.0945813844999979
 31
0.0
  0
LINE
  5
124
100
AcDbEntity
100
AcDbLine
  8
CUT_SHEET_6b
 62
7
420
0
370
15
  6
ByLayer
 10
10.3211059815999988
 20
7.8709633067999993
 30
0.0
 11
10.3211059815999988
 21
7.9730548454000019
 31
0.0
  0
LINE
  5
125
100
AcDbEntity
100
AcDbLine
  8
CUT_SHEET_6b
 62
7
420
0
370
15
  6
ByLayer
 10
10.3211059815999988
 20
7.9730548454000019
 30
0.0
 11
10.2870619052999999
 21
8.0070853582999977
 31
0.0
  0
LINE
  5
126
100
AcDbEntity
100
AcDbLine
  8
CUT_SHEET_6b
 62
7
420
0
370
15
  6
ByLayer
 10
10.2870619052999999
 20
8.0070853582999977
 30
0.0
 11
10.2530313924000005
 21
7.9730548453999983
 31
0.0
  0
LINE
  5
127
100
AcDbEntity
100
AcDbLine
  8
CUT_SHEET_6b
 62
7
420
0
370
15
  6
ByLayer
 10
10.2530313924000005
 20
7.9730548453999983
 30
0.0
 11
10.2530313924000005
 21
7.9049802563
 31
0.0
  0
LINE
  5
128
100
AcDbEntity
100
AcDbLine
  8
CUT_SHEET_6b
 62
7
420
0
370
15
  6
ByLayer
 10
10.2530313924000005
 20
7.9049802563
 30
0.0
 11
10.2870619052999999
 21
7.8709633068000011
 31
0.0
  0
LINE
  5
129
100
AcDbEntity
100
AcDbLine
  8
CUT_SHEET_6b
 62
7
420
0
370
15
  6
ByLayer
 10
10.2870619052999999
 20
7.8709633068000011
 30
0.0
 11
10.3551364945000017
 21
7.8709633068000011
 31
0.0
  0
LINE
  5
12A
100
AcDbEntity
100
AcDbLine
  8
CUT_SHEET_6b
 62
7
420
0
370
15
  6
ByLayer
 10
10.3551364945000017
 20
7.8709633068000011
 30
0.0
 11
10.389194134100002
 21
7.9049802563000018
 31
0.0
  0
LINE
  5
12B
100
AcDbEntity
100
AcDbLine
  8
CUT_SHEET_6b
 62
7
420
0
370
15
  6
ByLayer
 10
10.389194134100002
 20
7.9049802563000018
 30
0.0
 11
10.389194134100002
 21
7.9730548453999992
 31
0.0
  0
LINE
  5
12C
100
AcDbEntity
100
AcDbLine
  8
CUT_SHEET_6b
 62
7
420
0
370
15
  6
ByLayer
 10
10.2530313924000005
 20
7.8029158444000002
 30
0.0
 11
10.2530313924000005
 21
7.7007971788999994
 31
0.0
  0
LINE
  5
12D
100
AcDbEntity
100
AcDbLine
  8
CUT_SHEET_6b
 62
7
420
0
370
15
  6
ByLayer
 10
10.2530313924000005
 20
7.7007971788999994
 30
0.0
 11
10.2870619052999999
 21
7.6667531026999969
 31
0.0
  0
LINE
  5
12E
100
AcDbEntity
100
AcDbLine
  8
CUT_SHEET_6b
 62
7
420
0
370
15
  6
ByLayer
 10
10.2870619052999999
 20
7.6667531026999969
 30
0.0
 11
10.3551229310999986
 21
7.6667531026999987
 31
0.0
  0
LINE
  5
12F
100
AcDbEntity
100
AcDbLine
  8
CUT_SHEET_6b
 62
7
420
0
370
15
  6
ByLayer
 10
10.3551229310999986
 20
7.6667531026999987
 30
0.0
 11
10.389194134100002
 21
7.7007971789000003
 31
0.0
  0
LINE
  5
130
100
AcDbEntity
100
AcDbLine
  8
CUT_SHEET_6b
 62
7
420
0
370
15
  6
ByLayer
 10
10.389194134100002
 20
7.7007971789000003
 30
0.0
 11
10.389194134100002
 21
7.802915844400002
 31
0.0
  0
LINE
  5
131
100
AcDbEntity
100
AcDbLine
  8
CUT_SHEET_6b
 62
7
420
0
370
15
  6
ByLayer
 10
10.3551364945000017
 20
7.5578798754999985
 30
0.0
 11
10.389194134100002
 21
7.5987056403000022
 31
0.0
  0
LINE
  5
132
100
AcDbEntity
100
AcDbLine
  8
CUT_SHEET_6b
 62
7
420
0
370
15
  6
ByLayer
 10
10.389194134100002
 20
7.5238629259999978
 30
0.0
 11
10.389194134100002
 21
7.4898324131000003
 31
0.0
  0
LINE
  5
133
100
AcDbEntity
100
AcDbLine
  8
CUT_SHEET_6b
 62
7
420
0
370
15
  6
ByLayer
 10
10.389194134100002
 20
7.4898324131000003
 30
0.0
 11
10.3551364945000017
 21
7.4557883368000004
 31
0.0
  0
LINE
  5
134
100
AcDbEntity
100
AcDbLine
  8
CUT_SHEET_6b
 62
7
420
0
370
15
  6
ByLayer
 10
10.3551364945000017
 20
7.4557883368000004
 30
0.0
 11
10.2870754686999994
 21
7.4557883367999995
 31
0.0
  0
LINE
  5
135
100
AcDbEntity
100
AcDbLine
  8
CUT_SHEET_6b
 62
7
420
0
370
15
  6
ByLayer
 10
10.2870754686999994
 20
7.4557883367999995
 30
0.0
 11
10.2530313924000005
 21
7.4898324130999994
 31
0.0
  0
LINE
  5
136
100
AcDbEntity
100
AcDbLine
  8
CUT_SHEET_6b
 62
7
420
0
370
15
  6
ByLayer
 10
10.2530313924000005
 20
7.4898324130999994
 30
0.0
 11
10.2530313924000005
 21
7.5238629260000005
 31
0.0
  0
LINE
  5
137
100
AcDbEntity
100
AcDbLine
  8
CUT_SHEET_6b
 62
7
420
0
370
15
  6
ByLayer
 10
10.2530313924000005
 20
7.5238629260000005
 30
0.0
 11
10.2870754686999994
 21
7.5578663120999998
 31
0.0
  0
LINE
  5
138
100
AcDbEntity
100
AcDbLine
  8
CUT_SHEET_6b
 62
7
420
0
370
15
  6
ByLayer
 10
10.2870754686999994
 20
7.5578663120999998
 30
0.0
 11
10.3551364945000017
 21
7.5578663121000007
 31
0.0
  0
LINE
  5
139
100
AcDbEntity
100
AcDbLine
  8
CUT_SHEET_6b
 62
7
420
0
370
15
  6
ByLayer
 10
10.3551364945000017
 20
7.5578663121000007
 30
0.0
 11
10.389194134100002
 21
7.5238629259999978
 31
0.0
  0
LINE
  5
13A
100
AcDbEntity
100
AcDbLine
  8
CUT_SHEET_6b
 62
7
420
0
370
15
  6
ByLayer
 10
10.3211059815999988
 20
7.2516188227999994
 30
0.0
 11
10.2530313924000005
 21
7.3196662852000003
 31
0.0
  0
LINE
  5
13B
100
AcDbEntity
100
AcDbLine
  8
CUT_SHEET_6b
 62
7
420
0
370
15
  6
ByLayer
 10
10.2530313924000005
 20
7.3196662852000003
 30
0.0
 11
10.2530313924000005
 21
7.3536967980999979
 31
0.0
  0
LINE
  5
13C
100
AcDbEntity
100
AcDbLine
  8
CUT_SHEET_6b
 62
7
420
0
370
15
  6
ByLayer
 10
10.2530313924000005
 20
7.3536967980999979
 30
0.0
 11
10.2870619052999999
 21
7.3877137475999994
 31
0.0
  0
LINE
  5
13D
100
AcDbEntity
100
AcDbLine
  8
CUT_SHEET_6b
 62
7
420
0
370
15
  6
ByLayer
 10
10.389194134100002
 20
7.2516188227999976
 30
0.0
 11
10.2530313924000005
 21
7.2516188227999994
 31
0.0
  0
LINE
  5
13E
100
AcDbEntity
100
AcDbLine
  8
CUT_SHEET_6b
 62
7
420
0
370
15
  6
ByLayer
 10
10.1849703666000018
 20
7.0746438796999973
 30
0.0
 11
10.389194134100002
 21
7.0746438796999982
 31
0.0
  0
LINE
  5
13F
100
AcDbEntity
100
AcDbLine
  8
CUT_SHEET_6b
 62
7
420
0
370
15
  6
ByLayer
 10
10.2870619052999999
 20
7.1495137208000008
 30
0.0
 11
10.2530313924000005
 21
7.1835713604000011
 31
0.0
  0
LINE
  5
140
100
AcDbEntity
100
AcDbLine
  8
CUT_SHEET_6b
 62
7
420
0
370
15
  6
ByLayer
 10
10.2530313924000005
 20
7.1835713604000011
 30
0.0
 11
10.2190415696999999
 21
7.1835713603999984
 31
0.0
  0
LINE
  5
141
100
AcDbEntity
100
AcDbLine
  8
CUT_SHEET_6b
 62
7
420
0
370
15
  6
ByLayer
 10
10.2190415696999999
 20
7.1835713603999984
 30
0.0
 11
10.1849839300000014
 21
7.1495137208000017
 31
0.0
  0
LINE
  5
142
100
AcDbEntity
100
AcDbLine
  8
CUT_SHEET_6b
 62
7
420
0
370
15
  6
ByLayer
 10
10.1849839300000014
 20
7.1495137208000017
 30
0.0
 11
10.1849839300000014
 21
7.0406404936000007
 31
0.0
  0
LINE
  5
143
100
AcDbEntity
100
AcDbLine
  8
CUT_SHEET_6b
 62
7
420
0
370
15
  6
ByLayer
 10
10.389194134100002
 20
7.0406404935999989
 30
0.0
 11
10.3891941341000038
 21
7.1495137208000008
 31
0.0
  0
LINE
  5
144
100
AcDbEntity
100
AcDbLine
  8
CUT_SHEET_6b
 62
7
420
0
370
15
  6
ByLayer
 10
10.3891941341000038
 20
7.1495137208000008
 30
0.0
 11
10.3551364945000017
 21
7.1835713604000029
 31
0.0
  0
LINE
  5
145
100
AcDbEntity
100
AcDbLine
  8
CUT_SHEET_6b
 62
7
420
0
370
15
  6
ByLayer
 10
10.3551364945000017
 20
7.1835713604000029
 30
0.0
 11
10.3211195450000019
 21
7.1835713604000011
 31
0.0
  0
LINE
  5
146
100
AcDbEntity
100
AcDbLine
  8
CUT_SHEET_6b
 62
7
420
0
370
15
  6
ByLayer
 10
10.3211195450000019
 20
7.1835713604000011
 30
0.0
 11
10.2870754686999994
 21
7.1495137207999981
 31
0.0
  0
LINE
  5
147
100
AcDbEntity
100
AcDbLine
  8
CUT_SHEET_6b
 62
7
420
0
370
15
  6
ByLayer
 10
10.2870754686999994
 20
7.1495137207999981
 30
0.0
 11
10.2870754686999994
 21
7.0746438797
 31
0.0
  0
LINE
  5
148
100
AcDbEntity
100
AcDbLine
  8
CUT_SHEET_6b
 62
7
420
0
370
15
  6
ByLayer
 10
10.1849703666000018
 20
6.7343658775999984
 30
0.0
 11
10.3551364945000017
 21
6.7343658776000002
 31
0.0
  0
LINE
  5
149
100
AcDbEntity
100
AcDbLine
  8
CUT_SHEET_6b
 62
7
420
0
370
15
  6
ByLayer
 10
10.3551364945000017
 20
6.7343658776000002
 30
0.0
 11
10.389194134100002
 21
6.7683692636999977
 31
0.0
  0
LINE
  5
14A
100
AcDbEntity
100
AcDbLine
  8
CUT_SHEET_6b
 62
7
420
0
370
15
  6
ByLayer
 10
10.3551364945000017
 20
6.6322472120999993
 30
0.0
 11
10.389194134100002
 21
6.6662777250000014
 31
0.0
  0
LINE
  5
14B
100
AcDbEntity
100
AcDbLine
  8
CUT_SHEET_6b
 62
7
420
0
370
15
  6
ByLayer
 10
10.389194134100002
 20
6.5914078840000014
 30
0.0
 11
10.389194134100002
 21
6.5573773710999985
 31
0.0
  0
LINE
  5
14C
100
AcDbEntity
100
AcDbLine
  8
CUT_SHEET_6b
 62
7
420
0
370
15
  6
ByLayer
 10
10.389194134100002
 20
6.5573773710999985
 30
0.0
 11
10.3551364945000017
 21
6.5233604216000014
 31
0.0
  0
LINE
  5
14D
100
AcDbEntity
100
AcDbLine
  8
CUT_SHEET_6b
 62
7
420
0
370
15
  6
ByLayer
 10
10.3551364945000017
 20
6.5233604216000014
 30
0.0
 11
10.2870754686999994
 21
6.5233604215999978
 31
0.0
  0
LINE
  5
14E
100
AcDbEntity
100
AcDbLine
  8
CUT_SHEET_6b
 62
7
420
0
370
15
  6
ByLayer
 10
10.2870754686999994
 20
6.5233604215999978
 30
0.0
 11
10.2530313924000005
 21
6.5573773710999967
 31
0.0
  0
LINE
  5
14F
100
AcDbEntity
100
AcDbLine
  8
CUT_SHEET_6b
 62
7
420
0
370
15
  6
ByLayer
 10
10.2530313924000005
 20
6.5573773710999967
 30
0.0
 11
10.2530313924000005
 21
6.5914078840000005
 31
0.0
  0
LINE
  5
150
100
AcDbEntity
100
AcDbLine
  8
CUT_SHEET_6b
 62
7
420
0
370
15
  6
ByLayer
 10
10.2530313924000005
 20
6.5914078840000005
 30
0.0
 11
10.2870754686999994
 21
6.6322472120999949
 31
0.0
  0
LINE
  5
151
100
AcDbEntity
100
AcDbLine
  8
CUT_SHEET_6b
 62
7
420
0
370
15
  6
ByLayer
 10
10.2870754686999994
 20
6.6322472120999949
 30
0.0
 11
10.3551364945000017
 21
6.6322472120999993
 31
0.0
  0
LINE
  5
152
100
AcDbEntity
100
AcDbLine
  8
CUT_SHEET_6b
 62
7
420
0
370
15
  6
ByLayer
 10
10.3551364945000017
 20
6.6322472120999993
 30
0.0
 11
10.389194134100002
 21
6.5914078840000014
 31
0.0
  0
LINE
  5
153
100
AcDbEntity
100
AcDbLine
  8
CUT_SHEET_6b
 62
7
420
0
370
15
  6
ByLayer
 10
10.2530313924000005
 20
6.4552722690000008
 30
0.0
 11
10.2530313924000005
 21
6.3532078570999984
 31
0.0
  0
LINE
  5
154
100
AcDbEntity
100
AcDbLine
  8
CUT_SHEET_6b
 62
7
420
0
370
15
  6
ByLayer
 10
10.2530313924000005
 20
6.3532078570999984
 30
0.0
 11
10.2870619052999999
 21
6.3191502174999972
 31
0.0
  0
LINE
  5
155
100
AcDbEntity
100
AcDbLine
  8
CUT_SHEET_6b
 62
7
420
0
370
15
  6
ByLayer
 10
10.2870619052999999
 20
6.3191502174999972
 30
0.0
 11
10.3551229310999986
 21
6.3191502175000034
 31
0.0
  0
LINE
  5
156
100
AcDbEntity
100
AcDbLine
  8
CUT_SHEET_6b
 62
7
420
0
370
15
  6
ByLayer
 10
10.3551229310999986
 20
6.3191502175000034
 30
0.0
 11
10.389194134100002
 21
6.3532078570999992
 31
0.0
  0
LINE
  5
157
100
AcDbEntity
100
AcDbLine
  8
CUT_SHEET_6b
 62
7
420
0
370
15
  6
ByLayer
 10
10.389194134100002
 20
6.3532078570999992
 30
0.0
 11
10.389194134100002
 21
6.4552722690000008
 31
0.0
  0
LINE
  5
158
100
AcDbEntity
100
AcDbLine
  8
CUT_SHEET_6b
 62
7
420
0
370
15
  6
ByLayer
 10
10.2190415696999999
 20
6.2510891916999993
 30
0.0
 11
10.1849839300000014
 21
6.2510891917000002
 31
0.0
  0
LINE
  5
159
100
AcDbEntity
100
AcDbLine
  8
CUT_SHEET_6b
 62
7
420
0
370
15
  6
ByLayer
 10
10.389194134100002
 20
6.2510891916999993
 30
0.0
 11
10.2530313924000005
 21
6.251089191700002
 31
0.0
  0
LINE
  5
15A
100
AcDbEntity
100
AcDbLine
  8
CUT_SHEET_6b
 62
7
420
0
370
15
  6
ByLayer
 10
10.1849703666000018
 20
6.1081854515999989
 30
0.0
 11
10.3551364945000017
 21
6.1081854516000016
 31
0.0
  0
LINE
  5
15B
100
AcDbEntity
100
AcDbLine
  8
CUT_SHEET_6b
 62
7
420
0
370
15
  6
ByLayer
 10
10.3551364945000017
 20
6.1081854516000016
 30
0.0
 11
10.3891941341000038
 21
6.1489976529999995
 31
0.0
  0
LINE
  5
15C
100
AcDbEntity
100
AcDbLine
  8
CUT_SHEET_6b
 62
7
420
0
370
15
  6
ByLayer
 10
10.3891941341000038
 20
6.1489976529999995
 30
0.0
 11
10.3551364945000017
 21
6.1830552925999998
 31
0.0
  0
LINE
  5
15D
100
AcDbEntity
100
AcDbLine
  8
CUT_SHEET_6b
 62
7
420
0
370
15
  6
ByLayer
 10
10.2530313924000005
 20
6.0401108624000033
 30
0.0
 11
10.2530313924000005
 21
6.1830417292999984
 31
0.0
  0
LINE
  5
15E
100
AcDbEntity
100
AcDbLine
  8
CUT_SHEET_6b
 62
7
420
0
370
15
  6
ByLayer
 10
10.3211059815999988
 20
5.8359277850999991
 30
0.0
 11
10.2530313924000005
 21
5.9040023742999992
 31
0.0
  0
LINE
  5
15F
100
AcDbEntity
100
AcDbLine
  8
CUT_SHEET_6b
 62
7
420
0
370
15
  6
ByLayer
 10
10.2530313924000005
 20
5.9040023742999992
 30
0.0
 11
10.2530313924000005
 21
5.9380328870999985
 31
0.0
  0
LINE
  5
160
100
AcDbEntity
100
AcDbLine
  8
CUT_SHEET_6b
 62
7
420
0
370
15
  6
ByLayer
 10
10.2530313924000005
 20
5.9380328870999985
 30
0.0
 11
10.2870619052999999
 21
5.9720633999999979
 31
0.0
  0
LINE
  5
161
100
AcDbEntity
100
AcDbLine
  8
CUT_SHEET_6b
 62
7
420
0
370
15
  6
ByLayer
 10
10.389194134100002
 20
5.8359277850999955
 30
0.0
 11
10.2530313924000005
 21
5.8359277850999982
 31
0.0
  0
LINE
  5
162
100
AcDbEntity
100
AcDbLine
  8
CUT_SHEET_6b
 62
7
420
0
370
15
  6
ByLayer
 10
10.3211059815999988
 20
5.6249223290999968
 30
0.0
 11
10.3211059815999988
 21
5.7338633732000011
 31
0.0
  0
LINE
  5
163
100
AcDbEntity
100
AcDbLine
  8
CUT_SHEET_6b
 62
7
420
0
370
15
  6
ByLayer
 10
10.3211059815999988
 20
5.7338633732000011
 30
0.0
 11
10.2870619052999999
 21
5.7678938860999978
 31
0.0
  0
LINE
  5
164
100
AcDbEntity
100
AcDbLine
  8
CUT_SHEET_6b
 62
7
420
0
370
15
  6
ByLayer
 10
10.2870619052999999
 20
5.7678938860999978
 30
0.0
 11
10.2530313924000005
 21
5.7338633732000019
 31
0.0
  0
LINE
  5
165
100
AcDbEntity
100
AcDbLine
  8
CUT_SHEET_6b
 62
7
420
0
370
15
  6
ByLayer
 10
10.2530313924000005
 20
5.7338633732000019
 30
0.0
 11
10.2530313924000005
 21
5.6657752206000014
 31
0.0
  0
LINE
  5
166
100
AcDbEntity
100
AcDbLine
  8
CUT_SHEET_6b
 62
7
420
0
370
15
  6
ByLayer
 10
10.2530313924000005
 20
5.6657752206000014
 30
0.0
 11
10.2870619052999999
 21
5.6249223291000003
 31
0.0
  0
LINE
  5
167
100
AcDbEntity
100
AcDbLine
  8
CUT_SHEET_6b
 62
7
420
0
370
15
  6
ByLayer
 10
10.2870619052999999
 20
5.6249223291000003
 30
0.0
 11
10.3551364945000017
 21
5.6249223291000003
 31
0.0
  0
LINE
  5
168
100
AcDbEntity
100
AcDbLine
  8
CUT_SHEET_6b
 62
7
420
0
370
15
  6
ByLayer
 10
10.3551364945000017
 20
5.6249223291000003
 30
0.0
 11
10.389194134100002
 21
5.6657752206000005
 31
0.0
  0
LINE
  5
169
100
AcDbEntity
100
AcDbLine
  8
CUT_SHEET_6b
 62
7
420
0
370
15
  6
ByLayer
 10
10.389194134100002
 20
5.6657752206000005
 30
0.0
 11
10.389194134100002
 21
5.7338633732000011
 31
0.0
  0
LINE
  5
16A
100
AcDbEntity
100
AcDbLine
  8
CUT_SHEET_6b
 62
7
420
0
370
15
  6
ByLayer
 10
10.1849703666000018
 20
5.352691789299997
 30
0.0
 11
10.389194134100002
 21
5.4547697646000026
 31
0.0
  0
LINE
  5
16B
100
AcDbEntity
100
AcDbLine
  8
CUT_SHEET_6b
 62
7
420
0
370
15
  6
ByLayer
 10
10.389194134100002
 20
5.4547697646000026
 30
0.0
 11
10.1849703666000018
 21
5.5568748666999976
 31
0.0
  0
ENDBLK
  5
16C
100
AcDbEntity
  8
0
100
AcDbBlockEnd
  0
BLOCK
  5
16D
100
AcDbEntity
  8
0
100
AcDbBlockBegin
  2
foobar4
 70
0
 10
0.0
 20
0.0
 30
0.0
  3
foobar4
  1

  0
LINE
  5
16E
100
AcDbEntity
100
AcDbLine
  8
CUT_SHEET_6b
 62
3
420
65280
370
15
  6
ByLayer
 10
-7.4364472462000002
 20
2.4966528134000248
 30
0.0
 11
-11.4364472462000002
 21
2.4966528134000083
 31
0.0
  0
LINE
  5
16F
100
AcDbEntity
100
AcDbLine
  8
CUT_SHEET_6b
 62
3
420
65280
370
15
  6
ByLayer
 10
-7.6522996772089904
 20
3.8485764685679325
 30
0.0
 11
-7.6522996772089904
 21
3.638689991167932
 31
0.0
  0
LINE
  5
170
100
AcDbEntity
100
AcDbLine
  8
CUT_SHEET_6b
 62
3
420
65280
370
15
  6
ByLayer
 10
-7.6561701374389592
 20
3.2446801834140642
 30
0.0
 11
-7.6561701374389592
 21
3.0347937060140642
 31
0.0
  0
LINE
  5
171
100
AcDbEntity
100
AcDbLine
  8
CUT_SHEET_6b
 62
3
420
65280
370
15
  6
ByLayer
 10
-7.6561701374389592
 20
3.0347937060140642
 30
0.0
 11
-7.4375512251680895
 21
3.0348447601639368
 31
0.0
  0
LINE
  5
172
100
AcDbEntity
100
AcDbLine
  8
CUT_SHEET_6b
 62
3
420
65280
370
15
  6
ByLayer
 10
-7.6522996772089904
 20
3.8485764685679325
 30
0.0
 11
-7.4367056925616559
 21
3.8480788495188003
 31
0.0
  0
LINE
  5
173
100
AcDbEntity
100
AcDbLine
  8
CUT_SHEET_6b
 62
3
420
65280
370
15
  6
ByLayer
 10
-7.437194197771678
 20
3.504129325264616
 30
0.0
 11
-7.3191521277716767
 21
3.5041293252646155
 31
0.0
  0
LINE
  5
174
100
AcDbEntity
100
AcDbLine
  8
CUT_SHEET_6b
 62
3
420
65280
370
15
  6
ByLayer
 10
-7.3191521277716767
 20
3.5041293252646155
 30
0.0
 11
-7.3191521277716767
 21
3.5660868313646175
 31
0.0
  0
LINE
  5
175
100
AcDbEntity
100
AcDbLine
  8
CUT_SHEET_6b
 62
3
420
65280
370
15
  6
ByLayer
 10
-7.3191521277716767
 20
3.5660868313646175
 30
0.0
 11
-7.2011100577716753
 21
3.5660868313646166
 31
0.0
  0
LINE
  5
176
100
AcDbEntity
100
AcDbLine
  8
CUT_SHEET_6b
 62
3
420
65280
370
15
  6
ByLayer
 10
-7.2011100577716753
 20
3.5660868313646166
 30
0.0
 11
-7.2011100577716753
 21
3.504129325264616
 31
0.0
  0
LINE
  5
177
100
AcDbEntity
100
AcDbLine
  8
CUT_SHEET_6b
 62
3
420
65280
370
15
  6
ByLayer
 10
-7.2011100577716753
 20
3.504129325264616
 30
0.0
 11
-7.1223746542716704
 21
3.5041293252646173
 31
0.0
  0
LINE
  5
178
100
AcDbEntity
100
AcDbLine
  8
CUT_SHEET_6b
 62
3
420
65280
370
15
  6
ByLayer
 10
-7.1223746542716704
 20
3.5041293252646173
 30
0.0
 11
-7.1223746542716704
 21
3.3782340598646177
 31
0.0
  0
LINE
  5
179
100
AcDbEntity
100
AcDbLine
  8
CUT_SHEET_6b
 62
3
420
65280
370
15
  6
ByLayer
 10
-7.1223746542716704
 20
3.3782340598646177
 30
0.0
 11
-7.2011100577716753
 21
3.3782340598646177
 31
0.0
  0
LINE
  5
17A
100
AcDbEntity
100
AcDbLine
  8
CUT_SHEET_6b
 62
3
420
65280
370
15
  6
ByLayer
 10
-7.2011100577716753
 20
3.3782340598646177
 30
0.0
 11
-7.2011100577716753
 21
3.3162358636646161
 31
0.0
  0
LINE
  5
17B
100
AcDbEntity
100
AcDbLine
  8
CUT_SHEET_6b
 62
3
420
65280
370
15
  6
ByLayer
 10
-7.2011100577716753
 20
3.3162358636646161
 30
0.0
 11
-7.3191521277716767
 21
3.3162358636646161
 31
0.0
  0
LINE
  5
17C
100
AcDbEntity
100
AcDbLine
  8
CUT_SHEET_6b
 62
3
420
65280
370
15
  6
ByLayer
 10
-7.3191521277716767
 20
3.3162358636646161
 30
0.0
 11
-7.3191521277716767
 21
3.3782340598646172
 31
0.0
  0
LINE
  5
17D
100
AcDbEntity
100
AcDbLine
  8
CUT_SHEET_6b
 62
3
420
65280
370
15
  6
ByLayer
 10
-7.3191521277716767
 20
3.3782340598646172
 30
0.0
 11
-7.4371941977716709
 21
3.3782340598646177
 31
0.0
  0
LINE
  5
17E
100
AcDbEntity
100
AcDbLine
  8
CUT_SHEET_6b
 62
3
420
65280
370
15
  6
ByLayer
 10
-7.6522759128037841
 20
3.6387273915000273
 30
0.0
 11
-7.4373759128037911
 21
3.638727391500026
 31
0.0
  0
LINE
  5
17F
100
AcDbEntity
100
AcDbLine
  8
CUT_SHEET_6b
 62
3
420
65280
370
15
  6
ByLayer
 10
-7.4412759128037926
 20
3.2447273915000285
 30
0.0
 11
-7.6561759128037927
 21
3.2447273915000285
 31
0.0
  0
LINE
  5
180
100
AcDbEntity
100
AcDbLine
  8
CUT_SHEET_6b
 62
3
420
65280
370
15
  6
ByLayer
 10
-11.6522996772089904
 20
1.54857646856793
 30
0.0
 11
-11.6522996772089904
 21
1.338689991167926
 31
0.0
  0
LINE
  5
181
100
AcDbEntity
100
AcDbLine
  8
CUT_SHEET_6b
 62
3
420
65280
370
15
  6
ByLayer
 10
-11.6561701374389592
 20
0.9446801834140635
 30
0.0
 11
-11.6561701374389592
 21
0.7347937060140666
 31
0.0
  0
LINE
  5
182
100
AcDbEntity
100
AcDbLine
  8
CUT_SHEET_6b
 62
3
420
65280
370
15
  6
ByLayer
 10
-11.6561701374389592
 20
0.7347937060140666
 30
0.0
 11
-11.4375512251680895
 21
0.7348447601639378
 31
0.0
  0
LINE
  5
183
100
AcDbEntity
100
AcDbLine
  8
CUT_SHEET_6b
 62
3
420
65280
370
15
  6
ByLayer
 10
-11.6522996772089904
 20
1.54857646856793
 30
0.0
 11
-11.4367056925616559
 21
1.5480788495187978
 31
0.0
  0
LINE
  5
184
100
AcDbEntity
100
AcDbLine
  8
CUT_SHEET_6b
 62
3
420
65280
370
15
  6
ByLayer
 10
-11.437194197771678
 20
1.2041293252646206
 30
0.0
 11
-11.3191521277716767
 21
1.2041293252646144
 31
0.0
  0
LINE
  5
185
100
AcDbEntity
100
AcDbLine
  8
CUT_SHEET_6b
 62
3
420
65280
370
15
  6
ByLayer
 10
-11.3191521277716767
 20
1.2041293252646144
 30
0.0
 11
-11.3191521277716767
 21
1.2660868313646203
 31
0.0
  0
LINE
  5
186
100
AcDbEntity
100
AcDbLine
  8
CUT_SHEET_6b
 62
3
420
65280
370
15
  6
ByLayer
 10
-11.3191521277716767
 20
1.2660868313646203
 30
0.0
 11
-11.2011100577716753
 21
1.2660868313646176
 31
0.0
  0
LINE
  5
187
100
AcDbEntity
100
AcDbLine
  8
CUT_SHEET_6b
 62
3
420
65280
370
15
  6
ByLayer
 10
-11.2011100577716753
 20
1.2660868313646176
 30
0.0
 11
-11.2011100577716753
 21
1.2041293252646144
 31
0.0
  0
LINE
  5
188
100
AcDbEntity
100
AcDbLine
  8
CUT_SHEET_6b
 62
3
420
65280
370
15
  6
ByLayer
 10
-11.2011100577716753
 20
1.2041293252646144
 30
0.0
 11
-11.1223746542716704
 21
1.2041293252646161
 31
0.0
  0
LINE
  5
189
100
AcDbEntity
100
AcDbLine
  8
CUT_SHEET_6b
 62
3
420
65280
370
15
  6
ByLayer
 10
-11.1223746542716704
 20
1.2041293252646161
 30
0.0
 11
-11.1223746542716704
 21
1.0782340598646227
 31
0.0
  0
LINE
  5
18A
100
AcDbEntity
100
AcDbLine
  8
CUT_SHEET_6b
 62
3
420
65280
370
15
  6
ByLayer
 10
-11.1223746542716704
 20
1.0782340598646227
 30
0.0
 11
-11.2011100577716753
 21
1.0782340598646183
 31
0.0
  0
LINE
  5
18B
100
AcDbEntity
100
AcDbLine
  8
CUT_SHEET_6b
 62
3
420
65280
370
15
  6
ByLayer
 10
-11.2011100577716753
 20
1.0782340598646183
 30
0.0
 11
-11.2011100577716753
 21
1.016235863664618
 31
0.0
  0
LINE
  5
18C
100
AcDbEntity
100
AcDbLine
  8
CUT_SHEET_6b
 62
3
420
65280
370
15
  6
ByLayer
 10
-11.2011100577716753
 20
1.016235863664618
 30
0.0
 11
-11.3191521277716767
 21
1.0162358636646172
 31
0.0
  0
LINE
  5
18D
100
AcDbEntity
100
AcDbLine
  8
CUT_SHEET_6b
 62
3
420
65280
370
15
  6
ByLayer
 10
-11.3191521277716767
 20
1.0162358636646172
 30
0.0
 11
-11.3191521277716767
 21
1.0782340598646183
 31
0.0
  0
LINE
  5
18E
100
AcDbEntity
100
AcDbLine
  8
CUT_SHEET_6b
 62
3
420
65280
370
15
  6
ByLayer
 10
-11.3191521277716767
 20
1.0782340598646183
 30
0.0
 11
-11.4371941977716709
 21
1.0782340598646218
 31
0.0
  0
LINE
  5
18F
100
AcDbEntity
100
AcDbLine
  8
CUT_SHEET_6b
 62
3
420
65280
370
15
  6
ByLayer
 10
-11.4369233975367415
 20
1.3386899911679349
 30
0.0
 11
-11.4370633024325734
 21
1.2041293252646224
 31
0.0
  0
LINE
  5
190
100
AcDbEntity
100
AcDbLine
  8
CUT_SHEET_6b
 62
3
420
65280
370
15
  6
ByLayer
 10
-11.4371941977716709
 20
1.0782340598646218
 30
0.0
 11
-11.4373324983539
 21
0.9452164243679331
 31
0.0
  0
LINE
  5
191
100
AcDbEntity
100
AcDbLine
  8
CUT_SHEET_6b
 62
3
420
65280
370
15
  6
ByLayer
 10
-11.6522759128037841
 20
1.3387273915000284
 30
0.0
 11
-11.4373759128037911
 21
1.3387273915000355
 31
0.0
  0
LINE
  5
192
100
AcDbEntity
100
AcDbLine
  8
CUT_SHEET_6b
 62
3
420
65280
370
15
  6
ByLayer
 10
-11.4412759128037926
 20
0.94472739150003
 30
0.0
 11
-11.6561759128037927
 21
0.9447273915000292
 31
0.0
  0
LINE
  5
193
100
AcDbEntity
100
AcDbLine
  8
CUT_SHEET_6b
 62
3
420
65280
370
15
  6
ByLayer
 10
-11.4375512251680895
 20
0.7348447601639378
 30
0.0
 11
-11.4378071768292138
 21
0.4886702017000264
 31
0.0
  0
LINE
  5
194
100
AcDbEntity
100
AcDbLine
  8
CUT_SHEET_6b
 62
3
420
65280
370
15
  6
ByLayer
 10
-11.4378071768292138
 20
0.4886702017000264
 30
0.0
 11
-11.4378107604676948
 21
0.4852234547000274
 31
0.0
  0
LINE
  5
195
100
AcDbEntity
100
AcDbLine
  8
CUT_SHEET_6b
 62
3
420
65280
370
15
  6
ByLayer
 10
-10.1693182295999982
 20
0.0000000000000284
 30
0.0
 11
-10.1693182296000018
 21
-0.2148845817999803
 31
0.0
  0
LINE
  5
196
100
AcDbEntity
100
AcDbLine
  8
CUT_SHEET_6b
 62
3
420
65280
370
15
  6
ByLayer
 10
-10.1693182296000018
 20
-0.2148845817999803
 30
0.0
 11
-9.7495724015
 21
-0.2148845817999661
 31
0.0
  0
LINE
  5
197
100
AcDbEntity
100
AcDbLine
  8
CUT_SHEET_6b
 62
3
420
65280
370
15
  6
ByLayer
 10
-9.7495724015
 20
-0.2148845817999661
 30
0.0
 11
-9.7495724015
 21
0.0000000000000302
 31
0.0
  0
LINE
  5
198
100
AcDbEntity
100
AcDbLine
  8
CUT_SHEET_6b
 62
3
420
65280
370
15
  6
ByLayer
 10
-9.7495724015
 20
0.0000000000000302
 30
0.0
 11
-9.6157696874000003
 21
0.0000000000000213
 31
0.0
  0
LINE
  5
199
100
AcDbEntity
100
AcDbLine
  8
CUT_SHEET_6b
 62
3
420
65280
370
15
  6
ByLayer
 10
-9.6157696874000003
 20
0.0000000000000213
 30
0.0
 11
-9.6157696874000003
 21
0.3678930378000143
 31
0.0
  0
LINE
  5
19A
100
AcDbEntity
100
AcDbLine
  8
CUT_SHEET_6b
 62
3
420
65280
370
15
  6
ByLayer
 10
-9.6157696874000003
 20
0.3678930378000143
 30
0.0
 11
-9.6777678836999996
 21
0.3678930378000285
 31
0.0
  0
LINE
  5
19B
100
AcDbEntity
100
AcDbLine
  8
CUT_SHEET_6b
 62
3
420
65280
370
15
  6
ByLayer
 10
-9.6777678836999996
 20
0.3678930378000285
 30
0.0
 11
-9.6777678836999996
 21
0.4859351078000209
 31
0.0
  0
LINE
  5
19C
100
AcDbEntity
100
AcDbLine
  8
CUT_SHEET_6b
 62
3
420
65280
370
15
  6
ByLayer
 10
-9.6777678836999996
 20
0.4859351078000209
 30
0.0
 11
-9.6157696874000003
 21
0.4859351078000298
 31
0.0
  0
LINE
  5
19D
100
AcDbEntity
100
AcDbLine
  8
CUT_SHEET_6b
 62
3
420
65280
370
15
  6
ByLayer
 10
-9.6157696874000003
 20
0.4859351078000298
 30
0.0
 11
-9.6157696874000038
 21
0.5646433845000214
 31
0.0
  0
LINE
  5
19E
100
AcDbEntity
100
AcDbLine
  8
CUT_SHEET_6b
 62
3
420
65280
370
15
  6
ByLayer
 10
-9.6157696874000038
 20
0.5646433845000214
 30
0.0
 11
-9.489874422099998
 21
0.5646433845000161
 31
0.0
  0
LINE
  5
19F
100
AcDbEntity
100
AcDbLine
  8
CUT_SHEET_6b
 62
3
420
65280
370
15
  6
ByLayer
 10
-9.489874422099998
 20
0.5646433845000161
 30
0.0
 11
-9.489874422099998
 21
0.4859351078000245
 31
0.0
  0
LINE
  5
1A0
100
AcDbEntity
100
AcDbLine
  8
CUT_SHEET_6b
 62
3
420
65280
370
15
  6
ByLayer
 10
-9.489874422099998
 20
0.4859351078000245
 30
0.0
 11
-9.4279169159999974
 21
0.4859351078000085
 31
0.0
  0
LINE
  5
1A1
100
AcDbEntity
100
AcDbLine
  8
CUT_SHEET_6b
 62
3
420
65280
370
15
  6
ByLayer
 10
-9.4279169159999974
 20
0.4859351078000085
 30
0.0
 11
-9.4279169159999974
 21
0.3678930378000294
 31
0.0
  0
LINE
  5
1A2
100
AcDbEntity
100
AcDbLine
  8
CUT_SHEET_6b
 62
3
420
65280
370
15
  6
ByLayer
 10
-9.4279169159999974
 20
0.3678930378000294
 30
0.0
 11
-9.489874422099998
 21
0.3678930378000143
 31
0.0
  0
LINE
  5
1A3
100
AcDbEntity
100
AcDbLine
  8
CUT_SHEET_6b
 62
3
420
65280
370
15
  6
ByLayer
 10
-9.489874422099998
 20
0.3678930378000143
 30
0.0
 11
-9.489874422099998
 21
0.0000000000000169
 31
0.0
  0
LINE
  5
1A4
100
AcDbEntity
100
AcDbLine
  8
CUT_SHEET_6b
 62
3
420
65280
370
15
  6
ByLayer
 10
-9.489874422099998
 20
0.0000000000000169
 30
0.0
 11
-9.3561123981000023
 21
0.000000000000016
 31
0.0
  0
LINE
  5
1A5
100
AcDbEntity
100
AcDbLine
  8
CUT_SHEET_6b
 62
3
420
65280
370
15
  6
ByLayer
 10
-9.3561123981000023
 20
0.000000000000016
 30
0.0
 11
-9.3561123980999987
 21
-0.2148981451999799
 31
0.0
  0
LINE
  5
1A6
100
AcDbEntity
100
AcDbLine
  8
CUT_SHEET_6b
 62
3
420
65280
370
15
  6
ByLayer
 10
-9.3561123980999987
 20
-0.2148981451999799
 30
0.0
 11
-8.9363394433999979
 21
-0.2148981451999727
 31
0.0
  0
LINE
  5
1A7
100
AcDbEntity
100
AcDbLine
  8
CUT_SHEET_6b
 62
3
420
65280
370
15
  6
ByLayer
 10
-8.9363394433999979
 20
-0.2148981451999727
 30
0.0
 11
-8.9363394434000014
 21
0.0000000000000151
 31
0.0
  0
LINE
  5
1A8
100
AcDbEntity
100
AcDbLine
  8
CUT_SHEET_6b
 62
3
420
65280
370
15
  6
ByLayer
 10
-8.9363394434000014
 20
0.0000000000000151
 30
0.0
 11
-5.6004133068999984
 21
0.0000000000000107
 31
0.0
  0
LINE
  5
1A9
100
AcDbEntity
100
AcDbLine
  8
CUT_SHEET_6b
 62
3
420
65280
370
15
  6
ByLayer
 10
-5.6004133068999984
 20
0.0000000000000107
 30
0.0
 11
-5.6004133068999984
 21
-0.2148845817999661
 31
0.0
  0
LINE
  5
1AA
100
AcDbEntity
100
AcDbLine
  8
CUT_SHEET_6b
 62
3
420
65280
370
15
  6
ByLayer
 10
-5.6004133068999984
 20
-0.2148845817999661
 30
0.0
 11
-5.1806403520999993
 21
-0.214884581799982
 31
0.0
  0
LINE
  5
1AB
100
AcDbEntity
100
AcDbLine
  8
CUT_SHEET_6b
 62
3
420
65280
370
15
  6
ByLayer
 10
-5.1806403520999993
 20
-0.214884581799982
 30
0.0
 11
-5.1806403520999993
 21
0.0000000000000142
 31
0.0
  0
LINE
  5
1AC
100
AcDbEntity
100
AcDbLine
  8
CUT_SHEET_6b
 62
3
420
65280
370
15
  6
ByLayer
 10
-5.1806403520999993
 20
0.0000000000000142
 30
0.0
 11
-5.046864764800004
 21
0.0000000000000089
 31
0.0
  0
LINE
  5
1AD
100
AcDbEntity
100
AcDbLine
  8
CUT_SHEET_6b
 62
3
420
65280
370
15
  6
ByLayer
 10
-5.046864764800004
 20
0.0000000000000089
 30
0.0
 11
-5.046864764800004
 21
0.3678930378000178
 31
0.0
  0
LINE
  5
1AE
100
AcDbEntity
100
AcDbLine
  8
CUT_SHEET_6b
 62
3
420
65280
370
15
  6
ByLayer
 10
-5.046864764800004
 20
0.3678930378000178
 30
0.0
 11
-5.1088629610000051
 21
0.3678930378000071
 31
0.0
  0
LINE
  5
1AF
100
AcDbEntity
100
AcDbLine
  8
CUT_SHEET_6b
 62
3
420
65280
370
15
  6
ByLayer
 10
-5.1088629610000051
 20
0.3678930378000071
 30
0.0
 11
-5.1088629610000034
 21
0.4859351078000067
 31
0.0
  0
LINE
  5
1B0
100
AcDbEntity
100
AcDbLine
  8
CUT_SHEET_6b
 62
3
420
65280
370
15
  6
ByLayer
 10
-5.1088629610000034
 20
0.4859351078000067
 30
0.0
 11
-5.0468647647999987
 21
0.4859351078000316
 31
0.0
  0
LINE
  5
1B1
100
AcDbEntity
100
AcDbLine
  8
CUT_SHEET_6b
 62
3
420
65280
370
15
  6
ByLayer
 10
-5.0468647647999987
 20
0.4859351078000316
 30
0.0
 11
-5.0468647647999987
 21
0.5646433845000178
 31
0.0
  0
LINE
  5
1B2
100
AcDbEntity
100
AcDbLine
  8
CUT_SHEET_6b
 62
3
420
65280
370
15
  6
ByLayer
 10
-5.0468647647999987
 20
0.5646433845000178
 30
0.0
 11
-4.9209559361000004
 21
0.5646433845000107
 31
0.0
  0
LINE
  5
1B3
100
AcDbEntity
100
AcDbLine
  8
CUT_SHEET_6b
 62
3
420
65280
370
15
  6
ByLayer
 10
-4.9209559361000004
 20
0.5646433845000107
 30
0.0
 11
-4.9209559361000004
 21
0.4859351078000032
 31
0.0
  0
LINE
  5
1B4
100
AcDbEntity
100
AcDbLine
  8
CUT_SHEET_6b
 62
3
420
65280
370
15
  6
ByLayer
 10
-4.9209559361000004
 20
0.4859351078000032
 30
0.0
 11
-4.8589984299000015
 21
0.4859351078000014
 31
0.0
  0
LINE
  5
1B5
100
AcDbEntity
100
AcDbLine
  8
CUT_SHEET_6b
 62
3
420
65280
370
15
  6
ByLayer
 10
-4.8589984299000015
 20
0.4859351078000014
 30
0.0
 11
-4.8589984299000015
 21
0.3678930378000107
 31
0.0
  0
LINE
  5
1B6
100
AcDbEntity
100
AcDbLine
  8
CUT_SHEET_6b
 62
3
420
65280
370
15
  6
ByLayer
 10
-4.8589984299000015
 20
0.3678930378000107
 30
0.0
 11
-4.9209559361000004
 21
0.3678930378000311
 31
0.0
  0
LINE
  5
1B7
100
AcDbEntity
100
AcDbLine
  8
CUT_SHEET_6b
 62
3
420
65280
370
15
  6
ByLayer
 10
-4.9209559361000004
 20
0.3678930378000311
 30
0.0
 11
-4.9209559361000057
 21
0.0000000000000071
 31
0.0
  0
LINE
  5
1B8
100
AcDbEntity
100
AcDbLine
  8
CUT_SHEET_6b
 62
3
420
65280
370
15
  6
ByLayer
 10
-4.9209559361000057
 20
0.0000000000000071
 30
0.0
 11
-4.7871939121000011
 21
0.0000000000000178
 31
0.0
  0
LINE
  5
1B9
100
AcDbEntity
100
AcDbLine
  8
CUT_SHEET_6b
 62
3
420
65280
370
15
  6
ByLayer
 10
-4.7871939121000011
 20
0.0000000000000178
 30
0.0
 11
-4.7871939120999993
 21
-0.2148981451999727
 31
0.0
  0
LINE
  5
1BA
100
AcDbEntity
100
AcDbLine
  8
CUT_SHEET_6b
 62
3
420
65280
370
15
  6
ByLayer
 10
-4.7871939120999993
 20
-0.2148981451999727
 30
0.0
 11
-4.367434520699998
 21
-0.2148981451999834
 31
0.0
  0
LINE
  5
1BB
100
AcDbEntity
100
AcDbLine
  8
CUT_SHEET_6b
 62
3
420
65280
370
15
  6
ByLayer
 10
-4.367434520699998
 20
-0.2148981451999834
 30
0.0
 11
-4.3674209573000038
 21
0.0000000000000098
 31
0.0
  0
LINE
  5
1BC
100
AcDbEntity
100
AcDbLine
  8
CUT_SHEET_6b
 62
3
420
65280
370
15
  6
ByLayer
 10
-4.3674209573000038
 20
0.0000000000000098
 30
0.0
 11
-1.6208778049999992
 21
0.0000000000000098
 31
0.0
  0
LINE
  5
1BD
100
AcDbEntity
100
AcDbLine
  8
CUT_SHEET_6b
 62
3
420
65280
370
15
  6
ByLayer
 10
-1.6208778049999992
 20
0.0000000000000098
 30
0.0
 11
-1.6208778049999992
 21
-0.2148845817999749
 31
0.0
  0
LINE
  5
1BE
100
AcDbEntity
100
AcDbLine
  8
CUT_SHEET_6b
 62
3
420
65280
370
15
  6
ByLayer
 10
-1.6208778049999992
 20
-0.2148845817999749
 30
0.0
 11
-1.2011319770000028
 21
-0.2148845817999989
 31
0.0
  0
LINE
  5
1BF
100
AcDbEntity
100
AcDbLine
  8
CUT_SHEET_6b
 62
3
420
65280
370
15
  6
ByLayer
 10
-1.2011319770000028
 20
-0.2148845817999989
 30
0.0
 11
-1.2011319769999957
 21
0.0000000000000036
 31
0.0
  0
LINE
  5
1C0
100
AcDbEntity
100
AcDbLine
  8
CUT_SHEET_6b
 62
3
420
65280
370
15
  6
ByLayer
 10
-1.2011319769999957
 20
0.0000000000000036
 30
0.0
 11
-1.0673292629000031
 21
0.0000000000000071
 31
0.0
  0
LINE
  5
1C1
100
AcDbEntity
100
AcDbLine
  8
CUT_SHEET_6b
 62
3
420
65280
370
15
  6
ByLayer
 10
-1.0673292629000031
 20
0.0000000000000071
 30
0.0
 11
-1.0673292629000031
 21
0.3678930377999974
 31
0.0
  0
LINE
  5
1C2
100
AcDbEntity
100
AcDbLine
  8
CUT_SHEET_6b
 62
3
420
65280
370
15
  6
ByLayer
 10
-1.0673292629000031
 20
0.3678930377999974
 30
0.0
 11
-1.1293410225000002
 21
0.3678930378000009
 31
0.0
  0
LINE
  5
1C3
100
AcDbEntity
100
AcDbLine
  8
CUT_SHEET_6b
 62
3
420
65280
370
15
  6
ByLayer
 10
-1.1293410225000002
 20
0.3678930378000009
 30
0.0
 11
-1.1293410225000002
 21
0.4859351077999916
 31
0.0
  0
LINE
  5
1C4
100
AcDbEntity
100
AcDbLine
  8
CUT_SHEET_6b
 62
3
420
65280
370
15
  6
ByLayer
 10
-1.1293410225000002
 20
0.4859351077999916
 30
0.0
 11
-1.0673292629000031
 21
0.4859351078000094
 31
0.0
  0
LINE
  5
1C5
100
AcDbEntity
100
AcDbLine
  8
CUT_SHEET_6b
 62
3
420
65280
370
15
  6
ByLayer
 10
-1.0673292629000031
 20
0.4859351078000094
 30
0.0
 11
-1.067329262899996
 21
0.5646433845000267
 31
0.0
  0
LINE
  5
1C6
100
AcDbEntity
100
AcDbLine
  8
CUT_SHEET_6b
 62
3
420
65280
370
15
  6
ByLayer
 10
-1.067329262899996
 20
0.5646433845000267
 30
0.0
 11
-0.9414204341999977
 21
0.5646433845000063
 31
0.0
  0
LINE
  5
1C7
100
AcDbEntity
100
AcDbLine
  8
CUT_SHEET_6b
 62
3
420
65280
370
15
  6
ByLayer
 10
-0.9414204341999977
 20
0.5646433845000063
 30
0.0
 11
-0.9414204341999977
 21
0.485935107800004
 31
0.0
  0
LINE
  5
1C8
100
AcDbEntity
100
AcDbLine
  8
CUT_SHEET_6b
 62
3
420
65280
370
15
  6
ByLayer
 10
-0.9414204341999977
 20
0.485935107800004
 30
0.0
 11
-0.8794764913999984
 21
0.4859351078000129
 31
0.0
  0
LINE
  5
1C9
100
AcDbEntity
100
AcDbLine
  8
CUT_SHEET_6b
 62
3
420
65280
370
15
  6
ByLayer
 10
-0.8794764913999984
 20
0.4859351078000129
 30
0.0
 11
-0.8794764913999984
 21
0.3678930378000089
 31
0.0
  0
LINE
  5
1CA
100
AcDbEntity
100
AcDbLine
  8
CUT_SHEET_6b
 62
3
420
65280
370
15
  6
ByLayer
 10
-0.8794764913999984
 20
0.3678930378000089
 30
0.0
 11
-0.9414204342000048
 21
0.3678930377999947
 31
0.0
  0
LINE
  5
1CB
100
AcDbEntity
100
AcDbLine
  8
CUT_SHEET_6b
 62
3
420
65280
370
15
  6
ByLayer
 10
-0.9414204342000048
 20
0.3678930377999947
 30
0.0
 11
-0.9414204341999977
 21
0.0000000000000027
 31
0.0
  0
LINE
  5
1CC
100
AcDbEntity
100
AcDbLine
  8
CUT_SHEET_6b
 62
3
420
65280
370
15
  6
ByLayer
 10
-0.9414204341999977
 20
0.0000000000000027
 30
0.0
 11
-0.8076584102000055
 21
0.0000000000000142
 31
0.0
  0
LINE
  5
1CD
100
AcDbEntity
100
AcDbLine
  8
CUT_SHEET_6b
 62
3
420
65280
370
15
  6
ByLayer
 10
-0.8076584102000055
 20
0.0000000000000142
 30
0.0
 11
-0.8076584101999984
 21
-0.2148981451999807
 31
0.0
  0
LINE
  5
1CE
100
AcDbEntity
100
AcDbLine
  8
CUT_SHEET_6b
 62
3
420
65280
370
15
  6
ByLayer
 10
-0.8076584101999984
 20
-0.2148981451999807
 30
0.0
 11
-0.3878990187999989
 21
-0.2148981451999932
 31
0.0
  0
LINE
  5
1CF
100
AcDbEntity
100
AcDbLine
  8
CUT_SHEET_6b
 62
3
420
65280
370
15
  6
ByLayer
 10
-0.3878990187999989
 20
-0.2148981451999932
 30
0.0
 11
-0.3878990187999989
 21
0.0000000000000089
 31
0.0
  0
LINE
  5
1D0
100
AcDbEntity
100
AcDbLine
  8
CUT_SHEET_6b
 62
3
420
65280
370
15
  6
ByLayer
 10
-0.3878990187999989
 20
0.0000000000000089
 30
0.0
 11
0.0
 21
0.0
 31
0.0
  0
LINE
  5
1D1
100
AcDbEntity
100
AcDbLine
  8
CUT_SHEET_6b
 62
3
420
65280
370
15
  6
ByLayer
 10
0.0
 20
0.0
 30
0.0
 11
-0.0000000000000071
 21
0.9399691529000229
 31
0.0
  0
LINE
  5
1D2
100
AcDbEntity
100
AcDbLine
  8
CUT_SHEET_6b
 62
3
420
65280
370
15
  6
ByLayer
 10
-0.0000000000000071
 20
0.9399691529000229
 30
0.0
 11
0.1929254743999991
 21
0.9399691529000096
 31
0.0
  0
LINE
  5
1D3
100
AcDbEntity
100
AcDbLine
  8
CUT_SHEET_6b
 62
3
420
65280
370
15
  6
ByLayer
 10
0.1929254743999991
 20
0.9399691529000096
 30
0.0
 11
0.1929254743999991
 21
1.3597285443000002
 31
0.0
  0
LINE
  5
1D4
100
AcDbEntity
100
AcDbLine
  8
CUT_SHEET_6b
 62
3
420
65280
370
15
  6
ByLayer
 10
0.1929254743999991
 20
1.3597285443000002
 30
0.0
 11
0.0
 21
1.3597285443000153
 31
0.0
  0
LINE
  5
1D5
100
AcDbEntity
100
AcDbLine
  8
CUT_SHEET_6b
 62
3
420
65280
370
15
  6
ByLayer
 10
0.0
 20
1.3597285443000153
 30
0.0
 11
0.0
 21
1.4935041316000257
 31
0.0
  0
LINE
  5
1D6
100
AcDbEntity
100
AcDbLine
  8
CUT_SHEET_6b
 62
3
420
65280
370
15
  6
ByLayer
 10
0.0
 20
1.4935041316000257
 30
0.0
 11
-0.2679445126000033
 21
1.4935041316000159
 31
0.0
  0
LINE
  5
1D7
100
AcDbEntity
100
AcDbLine
  8
CUT_SHEET_6b
 62
3
420
65280
370
15
  6
ByLayer
 10
-0.2679445126000033
 20
1.4935041316000159
 30
0.0
 11
-0.2679445126000033
 21
1.4315194986999913
 31
0.0
  0
LINE
  5
1D8
100
AcDbEntity
100
AcDbLine
  8
CUT_SHEET_6b
 62
3
420
65280
370
15
  6
ByLayer
 10
-0.2679445126000033
 20
1.4315194986999913
 30
0.0
 11
-0.3859730193000033
 21
1.431519498700025
 31
0.0
  0
LINE
  5
1D9
100
AcDbEntity
100
AcDbLine
  8
CUT_SHEET_6b
 62
3
420
65280
370
15
  6
ByLayer
 10
-0.3859730193000033
 20
1.431519498700025
 30
0.0
 11
-0.3859730193000033
 21
1.4935041315999946
 31
0.0
  0
LINE
  5
1DA
100
AcDbEntity
100
AcDbLine
  8
CUT_SHEET_6b
 62
3
420
65280
370
15
  6
ByLayer
 10
-0.3859730193000033
 20
1.4935041315999946
 30
0.0
 11
-0.5646298210999987
 21
1.4935041316000408
 31
0.0
  0
LINE
  5
1DB
100
AcDbEntity
100
AcDbLine
  8
CUT_SHEET_6b
 62
3
420
65280
370
15
  6
ByLayer
 10
-0.5646298210999987
 20
1.4935041316000408
 30
0.0
 11
-0.5646298211000058
 21
1.6194129603000063
 31
0.0
  0
LINE
  5
1DC
100
AcDbEntity
100
AcDbLine
  8
CUT_SHEET_6b
 62
3
420
65280
370
15
  6
ByLayer
 10
-0.5646298211000058
 20
1.6194129603000063
 30
0.0
 11
-0.3859730193000033
 21
1.6194129603000125
 31
0.0
  0
LINE
  5
1DD
100
AcDbEntity
100
AcDbLine
  8
CUT_SHEET_6b
 62
3
420
65280
370
15
  6
ByLayer
 10
-0.3859730193000033
 20
1.6194129603000125
 30
0.0
 11
-0.3859730193000033
 21
1.6813840298000295
 31
0.0
  0
LINE
  5
1DE
100
AcDbEntity
100
AcDbLine
  8
CUT_SHEET_6b
 62
3
420
65280
370
15
  6
ByLayer
 10
-0.3859730193000033
 20
1.6813840298000295
 30
0.0
 11
-0.2679445126000033
 21
1.6813840298000082
 31
0.0
  0
LINE
  5
1DF
100
AcDbEntity
100
AcDbLine
  8
CUT_SHEET_6b
 62
3
420
65280
370
15
  6
ByLayer
 10
-0.2679445126000033
 20
1.6813840298000082
 30
0.0
 11
-0.2679445126000033
 21
1.6194129603000027
 31
0.0
  0
LINE
  5
1E0
100
AcDbEntity
100
AcDbLine
  8
CUT_SHEET_6b
 62
3
420
65280
370
15
  6
ByLayer
 10
-0.2679445126000033
 20
1.6194129603000027
 30
0.0
 11
0.0
 21
1.6194129603000098
 31
0.0
  0
LINE
  5
1E1
100
AcDbEntity
100
AcDbLine
  8
CUT_SHEET_6b
 62
3
420
65280
370
15
  6
ByLayer
 10
0.0
 20
1.6194129603000098
 30
0.0
 11
0.0
 21
1.7531614209000175
 31
0.0
  0
LINE
  5
1E2
100
AcDbEntity
100
AcDbLine
  8
CUT_SHEET_6b
 62
3
420
65280
370
15
  6
ByLayer
 10
0.0
 20
1.7531614209000175
 30
0.0
 11
0.1929254744000062
 21
1.7531614209000015
 31
0.0
  0
LINE
  5
1E3
100
AcDbEntity
100
AcDbLine
  8
CUT_SHEET_6b
 62
3
420
65280
370
15
  6
ByLayer
 10
0.1929254744000062
 20
1.7531614209000015
 30
0.0
 11
0.1929254744000062
 21
2.1729343756999562
 31
0.0
  0
LINE
  5
1E4
100
AcDbEntity
100
AcDbLine
  8
CUT_SHEET_6b
 62
3
420
65280
370
15
  6
ByLayer
 10
0.1929254744000062
 20
2.1729343756999562
 30
0.0
 11
0.0
 21
2.1729343757000974
 31
0.0
  0
LINE
  5
1E5
100
AcDbEntity
100
AcDbLine
  8
CUT_SHEET_6b
 62
3
420
65280
370
15
  6
ByLayer
 10
0.0
 20
2.1729343757000974
 30
0.0
 11
0.0
 21
2.1736261079000734
 31
0.0
  0
LINE
  5
1E6
100
AcDbEntity
100
AcDbLine
  8
CUT_SHEET_6b
 62
3
420
65280
370
15
  6
ByLayer
 10
0.0
 20
2.1736261079000734
 30
0.0
 11
-2.1287313300000008
 21
2.1736261079000565
 31
0.0
  0
LINE
  5
1E7
100
AcDbEntity
100
AcDbLine
  8
CUT_SHEET_6b
 62
3
420
65280
370
15
  6
ByLayer
 10
-2.1287313300000008
 20
2.1736261079000565
 30
0.0
 11
-2.1287313300000008
 21
1.9687512982999875
 31
0.0
  0
LINE
  5
1E8
100
AcDbEntity
100
AcDbLine
  8
CUT_SHEET_6b
 62
3
420
65280
370
15
  6
ByLayer
 10
-2.1287313300000008
 20
1.9687512982999875
 30
0.0
 11
-2.3685996522999986
 21
1.9687512982999946
 31
0.0
  0
LINE
  5
1E9
100
AcDbEntity
100
AcDbLine
  8
CUT_SHEET_6b
 62
3
420
65280
370
15
  6
ByLayer
 10
-2.3685996522999986
 20
1.9687512982999946
 30
0.0
 11
-2.3785958611000027
 21
1.9687512983000302
 31
0.0
  0
LINE
  5
1EA
100
AcDbEntity
100
AcDbLine
  8
CUT_SHEET_6b
 62
3
420
65280
370
15
  6
ByLayer
 10
-2.3785958611000027
 20
1.9687512983000302
 30
0.0
 11
-2.3836007471999991
 21
1.9687512982999955
 31
0.0
  0
LINE
  5
1EB
100
AcDbEntity
100
AcDbLine
  8
CUT_SHEET_6b
 62
3
420
65280
370
15
  6
ByLayer
 10
-2.3836007471999991
 20
1.9687512982999955
 30
0.0
 11
-2.3836007471999991
 21
3.4678842312999469
 31
0.0
  0
LINE
  5
1EC
100
AcDbEntity
100
AcDbLine
  8
CUT_SHEET_6b
 62
3
420
65280
370
15
  6
ByLayer
 10
-2.3836007471999991
 20
3.4678842312999469
 30
0.0
 11
-2.3785958611000027
 21
3.4678842313000544
 31
0.0
  0
LINE
  5
1ED
100
AcDbEntity
100
AcDbLine
  8
CUT_SHEET_6b
 62
3
420
65280
370
15
  6
ByLayer
 10
-2.3785958611000027
 20
3.4678842313000544
 30
0.0
 11
-2.3685996522999986
 21
3.467884231300046
 31
0.0
  0
LINE
  5
1EE
100
AcDbEntity
100
AcDbLine
  8
CUT_SHEET_6b
 62
3
420
65280
370
15
  6
ByLayer
 10
-2.3685996522999986
 20
3.467884231300046
 30
0.0
 11
-2.1287313300000008
 21
3.4678842313000304
 31
0.0
  0
LINE
  5
1EF
100
AcDbEntity
100
AcDbLine
  8
CUT_SHEET_6b
 62
3
420
65280
370
15
  6
ByLayer
 10
-2.1287313300000008
 20
3.4678842313000304
 30
0.0
 11
-2.1287313300000008
 21
3.2629958584000449
 31
0.0
  0
LINE
  5
1F0
100
AcDbEntity
100
AcDbLine
  8
CUT_SHEET_6b
 62
3
420
65280
370
15
  6
ByLayer
 10
-2.1287313300000008
 20
3.2629958584000449
 30
0.0
 11
0.0
 21
3.2629958584000098
 31
0.0
  0
LINE
  5
1F1
100
AcDbEntity
100
AcDbLine
  8
CUT_SHEET_6b
 62
3
420
65280
370
15
  6
ByLayer
 10
0.0
 20
3.2629958584000098
 30
0.0
 11
0.0
 21
3.2636740272000146
 31
0.0
  0
LINE
  5
1F2
100
AcDbEntity
100
AcDbLine
  8
CUT_SHEET_6b
 62
3
420
65280
370
15
  6
ByLayer
 10
0.0
 20
3.2636740272000146
 30
0.0
 11
0.1929254744000062
 21
3.2636740272000546
 31
0.0
  0
LINE
  5
1F3
100
AcDbEntity
100
AcDbLine
  8
CUT_SHEET_6b
 62
3
420
65280
370
15
  6
ByLayer
 10
0.1929254744000062
 20
3.2636740272000546
 30
0.0
 11
0.1929254744000062
 21
3.6834334186000675
 31
0.0
  0
LINE
  5
1F4
100
AcDbEntity
100
AcDbLine
  8
CUT_SHEET_6b
 62
3
420
65280
370
15
  6
ByLayer
 10
0.1929254744000062
 20
3.6834334186000675
 30
0.0
 11
0.0
 21
3.6834334186001643
 31
0.0
  0
LINE
  5
1F5
100
AcDbEntity
100
AcDbLine
  8
CUT_SHEET_6b
 62
3
420
65280
370
15
  6
ByLayer
 10
0.0
 20
3.6834334186001643
 30
0.0
 11
0.0
 21
3.8172361327001187
 31
0.0
  0
LINE
  5
1F6
100
AcDbEntity
100
AcDbLine
  8
CUT_SHEET_6b
 62
3
420
65280
370
15
  6
ByLayer
 10
0.0
 20
3.8172361327001187
 30
0.0
 11
-0.2679445126000033
 21
3.8172361327000068
 31
0.0
  0
LINE
  5
1F7
100
AcDbEntity
100
AcDbLine
  8
CUT_SHEET_6b
 62
3
420
65280
370
15
  6
ByLayer
 10
-0.2679445126000033
 20
3.8172361327000068
 30
0.0
 11
-0.2679445126000033
 21
3.7552514997999697
 31
0.0
  0
LINE
  5
1F8
100
AcDbEntity
100
AcDbLine
  8
CUT_SHEET_6b
 62
3
420
65280
370
15
  6
ByLayer
 10
-0.2679445126000033
 20
3.7552514997999697
 30
0.0
 11
-0.3859730193000033
 21
3.7552514998000639
 31
0.0
  0
LINE
  5
1F9
100
AcDbEntity
100
AcDbLine
  8
CUT_SHEET_6b
 62
3
420
65280
370
15
  6
ByLayer
 10
-0.3859730193000033
 20
3.7552514998000639
 30
0.0
 11
-0.3859730193000033
 21
3.8172361326999429
 31
0.0
  0
LINE
  5
1FA
100
AcDbEntity
100
AcDbLine
  8
CUT_SHEET_6b
 62
3
420
65280
370
15
  6
ByLayer
 10
-0.3859730193000033
 20
3.8172361326999429
 30
0.0
 11
-0.5646298210999987
 21
3.8172361326999575
 31
0.0
  0
LINE
  5
1FB
100
AcDbEntity
100
AcDbLine
  8
CUT_SHEET_6b
 62
3
420
65280
370
15
  6
ByLayer
 10
-0.5646298210999987
 20
3.8172361326999575
 30
0.0
 11
-0.5646298210999987
 21
3.9431313979999647
 31
0.0
  0
LINE
  5
1FC
100
AcDbEntity
100
AcDbLine
  8
CUT_SHEET_6b
 62
3
420
65280
370
15
  6
ByLayer
 10
-0.5646298210999987
 20
3.9431313979999647
 30
0.0
 11
-0.3859730193000033
 21
3.9431313979999834
 31
0.0
  0
LINE
  5
1FD
100
AcDbEntity
100
AcDbLine
  8
CUT_SHEET_6b
 62
3
420
65280
370
15
  6
ByLayer
 10
-0.3859730193000033
 20
3.9431313979999834
 30
0.0
 11
-0.3859730193000033
 21
4.0051024674999365
 31
0.0
  0
LINE
  5
1FE
100
AcDbEntity
100
AcDbLine
  8
CUT_SHEET_6b
 62
3
420
65280
370
15
  6
ByLayer
 10
-0.3859730193000033
 20
4.0051024674999365
 30
0.0
 11
-0.2679445126000033
 21
4.0051024675000049
 31
0.0
  0
LINE
  5
1FF
100
AcDbEntity
100
AcDbLine
  8
CUT_SHEET_6b
 62
3
420
65280
370
15
  6
ByLayer
 10
-0.2679445126000033
 20
4.0051024675000049
 30
0.0
 11
-0.2679445126000033
 21
3.9431313980000042
 31
0.0
  0
LINE
  5
200
100
AcDbEntity
100
AcDbLine
  8
CUT_SHEET_6b
 62
3
420
65280
370
15
  6
ByLayer
 10
-0.2679445126000033
 20
3.9431313980000042
 30
0.0
 11
0.0
 21
3.9431313979999092
 31
0.0
  0
LINE
  5
201
100
AcDbEntity
100
AcDbLine
  8
CUT_SHEET_6b
 62
3
420
65280
370
15
  6
ByLayer
 10
0.0
 20
3.9431313979999092
 30
0.0
 11
0.0
 21
4.0769069854000133
 31
0.0
  0
LINE
  5
202
100
AcDbEntity
100
AcDbLine
  8
CUT_SHEET_6b
 62
3
420
65280
370
15
  6
ByLayer
 10
0.0
 20
4.0769069854000133
 30
0.0
 11
0.1929254744000062
 21
4.0769069854001661
 31
0.0
  0
LINE
  5
203
100
AcDbEntity
100
AcDbLine
  8
CUT_SHEET_6b
 62
3
420
65280
370
15
  6
ByLayer
 10
0.1929254744000062
 20
4.0769069854001661
 30
0.0
 11
0.1929254744000062
 21
4.4966528134000257
 31
0.0
  0
LINE
  5
204
100
AcDbEntity
100
AcDbLine
  8
CUT_SHEET_6b
 62
3
420
65280
370
15
  6
ByLayer
 10
0.1929254744000062
 20
4.4966528134000257
 30
0.0
 11
-4.3674209572999985
 21
4.4966528134000257
 31
0.0
  0
LINE
  5
205
100
AcDbEntity
100
AcDbLine
  8
CUT_SHEET_6b
 62
3
420
65280
370
15
  6
ByLayer
 10
-4.3674209572999985
 20
4.4966528134000257
 30
0.0
 11
-4.3674209572999985
 21
4.7115238317998083
 31
0.0
  0
LINE
  5
206
100
AcDbEntity
100
AcDbLine
  8
CUT_SHEET_6b
 62
3
420
65280
370
15
  6
ByLayer
 10
-4.3674209572999985
 20
4.7115238317998083
 30
0.0
 11
-4.787180348699998
 21
4.711523831800049
 31
0.0
  0
LINE
  5
207
100
AcDbEntity
100
AcDbLine
  8
CUT_SHEET_6b
 62
3
420
65280
370
15
  6
ByLayer
 10
-4.787180348699998
 20
4.711523831800049
 30
0.0
 11
-4.787180348699998
 21
4.4966528134000257
 31
0.0
  0
LINE
  5
208
100
AcDbEntity
100
AcDbLine
  8
CUT_SHEET_6b
 62
3
420
65280
370
15
  6
ByLayer
 10
-4.787180348699998
 20
4.4966528134000257
 30
0.0
 11
-4.9209694995
 21
4.4966528134000265
 31
0.0
  0
LINE
  5
209
100
AcDbEntity
100
AcDbLine
  8
CUT_SHEET_6b
 62
3
420
65280
370
15
  6
ByLayer
 10
-4.9209694995
 20
4.4966528134000265
 30
0.0
 11
-4.9209694995
 21
4.1287597757000096
 31
0.0
  0
LINE
  5
20A
100
AcDbEntity
100
AcDbLine
  8
CUT_SHEET_6b
 62
3
420
65280
370
15
  6
ByLayer
 10
-4.9209694995
 20
4.1287597757000096
 30
0.0
 11
-4.8589848666000002
 21
4.1287597757000318
 31
0.0
  0
LINE
  5
20B
100
AcDbEntity
100
AcDbLine
  8
CUT_SHEET_6b
 62
3
420
65280
370
15
  6
ByLayer
 10
-4.8589848666000002
 20
4.1287597757000318
 30
0.0
 11
-4.8589848666000002
 21
4.0107177055999923
 31
0.0
  0
LINE
  5
20C
100
AcDbEntity
100
AcDbLine
  8
CUT_SHEET_6b
 62
3
420
65280
370
15
  6
ByLayer
 10
-4.8589848666000002
 20
4.0107177055999923
 30
0.0
 11
-4.9209694995
 21
4.0107177055999932
 31
0.0
  0
LINE
  5
20D
100
AcDbEntity
100
AcDbLine
  8
CUT_SHEET_6b
 62
3
420
65280
370
15
  6
ByLayer
 10
-4.9209694995
 20
4.0107177055999932
 30
0.0
 11
-4.9209694995
 21
3.9319958655000988
 31
0.0
  0
LINE
  5
20E
100
AcDbEntity
100
AcDbLine
  8
CUT_SHEET_6b
 62
3
420
65280
370
15
  6
ByLayer
 10
-4.9209694995
 20
3.9319958655000988
 30
0.0
 11
-5.0468783281
 21
3.931995865500169
 31
0.0
  0
LINE
  5
20F
100
AcDbEntity
100
AcDbLine
  8
CUT_SHEET_6b
 62
3
420
65280
370
15
  6
ByLayer
 10
-5.0468783281
 20
3.931995865500169
 30
0.0
 11
-5.0468783281
 21
4.0107177056000225
 31
0.0
  0
LINE
  5
210
100
AcDbEntity
100
AcDbLine
  8
CUT_SHEET_6b
 62
3
420
65280
370
15
  6
ByLayer
 10
-5.0468783281
 20
4.0107177056000225
 30
0.0
 11
-5.1088358342999989
 21
4.0107177056000172
 31
0.0
  0
LINE
  5
211
100
AcDbEntity
100
AcDbLine
  8
CUT_SHEET_6b
 62
3
420
65280
370
15
  6
ByLayer
 10
-5.1088358342999989
 20
4.0107177056000172
 30
0.0
 11
-5.1088358342999989
 21
4.1287597757001544
 31
0.0
  0
LINE
  5
212
100
AcDbEntity
100
AcDbLine
  8
CUT_SHEET_6b
 62
3
420
65280
370
15
  6
ByLayer
 10
-5.1088358342999989
 20
4.1287597757001544
 30
0.0
 11
-5.0468783281
 21
4.1287597756999848
 31
0.0
  0
LINE
  5
213
100
AcDbEntity
100
AcDbLine
  8
CUT_SHEET_6b
 62
3
420
65280
370
15
  6
ByLayer
 10
-5.0468783281
 20
4.1287597756999848
 30
0.0
 11
-5.0468783281
 21
4.4966528134000257
 31
0.0
  0
LINE
  5
214
100
AcDbEntity
100
AcDbLine
  8
CUT_SHEET_6b
 62
3
420
65280
370
15
  6
ByLayer
 10
-5.0468783281
 20
4.4966528134000257
 30
0.0
 11
-5.1806267886999997
 21
4.4966528134000257
 31
0.0
  0
LINE
  5
215
100
AcDbEntity
100
AcDbLine
  8
CUT_SHEET_6b
 62
3
420
65280
370
15
  6
ByLayer
 10
-5.1806267886999997
 20
4.4966528134000257
 30
0.0
 11
-5.1806267886999997
 21
4.7115373951996879
 31
0.0
  0
LINE
  5
216
100
AcDbEntity
100
AcDbLine
  8
CUT_SHEET_6b
 62
3
420
65280
370
15
  6
ByLayer
 10
-5.1806267886999997
 20
4.7115373951996879
 30
0.0
 11
-5.6003997434999988
 21
4.7115373952000876
 31
0.0
  0
LINE
  5
217
100
AcDbEntity
100
AcDbLine
  8
CUT_SHEET_6b
 62
3
420
65280
370
15
  6
ByLayer
 10
-5.6003997434999988
 20
4.7115373952000876
 30
0.0
 11
-5.6003997434999988
 21
4.4966528134000257
 31
0.0
  0
LINE
  5
218
100
AcDbEntity
100
AcDbLine
  8
CUT_SHEET_6b
 62
7
420
0
370
15
  6
ByLayer
 10
-0.9982916740000007
 20
3.7627113572000326
 30
0.0
 11
-0.9982916740000007
 21
3.2629958584000081
 31
0.0
  0
LINE
  5
219
100
AcDbEntity
100
AcDbLine
  8
CUT_SHEET_6b
 62
7
420
0
370
15
  6
ByLayer
 10
-0.9982916740000007
 20
2.1736261078999464
 30
0.0
 11
-0.9982916740000007
 21
1.6739241725000085
 31
0.0
  0
LINE
  5
21A
100
AcDbEntity
100
AcDbLine
  8
CUT_SHEET_6b
 62
3
420
65280
370
15
  6
ByLayer
 10
-5.6003997434999988
 20
4.4966528134000257
 30
0.0
 11
-7.4364472462000002
 21
4.4966528134000274
 31
0.0
  0
LINE
  5
21B
100
AcDbEntity
100
AcDbLine
  8
CUT_SHEET_6b
 62
3
420
65280
370
15
  6
ByLayer
 10
-11.4364472462000002
 20
0.4966528134000274
 30
0.0
 11
-11.4364472462000002
 21
-0.0000051519658761
 31
0.0
  0
LINE
  5
21C
100
AcDbEntity
100
AcDbLine
  8
CUT_SHEET_6b
 62
3
420
65280
370
15
  6
ByLayer
 10
-11.4364472462000002
 20
-0.0000051519658761
 30
0.0
 11
-11.4364472462000002
 21
-0.0033471865999726
 31
0.0
  0
LINE
  5
21D
100
AcDbEntity
100
AcDbLine
  8
CUT_SHEET_6b
 62
3
420
65280
370
15
  6
ByLayer
 10
-11.4364472462000002
 20
-0.0000051519658761
 30
0.0
 11
-10.1693182295999982
 21
0.0000000000000284
 31
0.0
  0
LINE
  5
21E
100
AcDbEntity
100
AcDbLine
  8
CUT_SHEET_6b
 62
3
420
65280
370
15
  6
ByLayer
 10
-11.4364472462000002
 20
2.4966528134000083
 30
0.0
 11
-11.4367056925616559
 21
1.5480788495187978
 31
0.0
  0
LINE
  5
21F
100
AcDbEntity
100
AcDbLine
  8
CUT_SHEET_6b
 62
3
420
65280
370
15
  6
ByLayer
 10
-11.4373759128037911
 20
1.3387273915000355
 30
0.0
 11
-11.4370633024325734
 21
1.2041293252646224
 31
0.0
  0
LINE
  5
220
100
AcDbEntity
100
AcDbLine
  8
CUT_SHEET_6b
 62
256
370
-1
  6
ByLayer
 10
-7.4367056925616559
 20
3.8480788495188003
 30
0.0
 11
-7.4367056925616559
 21
3.8480788495188003
 31
0.0
  0
LINE
  5
221
100
AcDbEntity
100
AcDbLine
  8
CUT_SHEET_6b
 62
256
370
-1
  6
ByLayer
 10
-7.4373759128037911
 20
3.638727391500026
 30
0.0
 11
-7.4373759128037911
 21
3.638727391500026
 31
0.0
  0
LINE
  5
222
100
AcDbEntity
100
AcDbLine
  8
CUT_SHEET_6b
 62
256
370
-1
  6
ByLayer
 10
-7.4364472462000002
 20
3.5041293252646168
 30
0.0
 11
-7.4364472462000002
 21
3.5041293252646168
 31
0.0
  0
LINE
  5
223
100
AcDbEntity
100
AcDbLine
  8
CUT_SHEET_6b
 62
256
370
-1
  6
ByLayer
 10
-7.4364472462000002
 20
3.3782340598646181
 30
0.0
 11
-7.4364472462000002
 21
3.3782340598646181
 31
0.0
  0
LINE
  5
224
100
AcDbEntity
100
AcDbLine
  8
CUT_SHEET_6b
 62
256
370
-1
  6
ByLayer
 10
-7.4412759128037926
 20
3.2447273915000285
 30
0.0
 11
-7.4412759128037926
 21
3.2447273915000285
 31
0.0
  0
LINE
  5
225
100
AcDbEntity
100
AcDbLine
  8
CUT_SHEET_6b
 62
256
370
-1
  6
ByLayer
 10
-7.4364472462000002
 20
2.4966528134000248
 30
0.0
 11
-7.4364472462000002
 21
2.4966528134000248
 31
0.0
  0
LINE
  5
226
100
AcDbEntity
100
AcDbLine
  8
CUT_SHEET_6b
 62
3
420
65280
370
15
  6
ByLayer
 10
-7.4364472462000002
 20
4.4966528134000274
 30
0.0
 11
-7.4367056925616559
 21
3.8480788495188003
 31
0.0
  0
LINE
  5
227
100
AcDbEntity
100
AcDbLine
  8
CUT_SHEET_6b
 62
3
420
65280
370
15
  6
ByLayer
 10
-7.4373759128037911
 20
3.638727391500026
 30
0.0
 11
-7.4364472462000002
 21
3.5041293252646168
 31
0.0
  0
LINE
  5
228
100
AcDbEntity
100
AcDbLine
  8
CUT_SHEET_6b
 62
3
420
65280
370
15
  6
ByLayer
 10
-7.4364472462000002
 20
3.3782340598646181
 30
0.0
 11
-7.4364472462000002
 21
3.246652813400027
 31
0.0
  0
LINE
  5
229
100
AcDbEntity
100
AcDbLine
  8
CUT_SHEET_6b
 62
3
420
65280
370
15
  6
ByLayer
 10
-7.4364472462000002
 20
3.0346528134000268
 30
0.0
 11
-7.4364472462000002
 21
2.4966528134000248
 31
0.0
  0
LINE
  5
22A
100
AcDbEntity
100
AcDbLine
  8
CUT_SHEET_6b
 62
7
420
0
370
15
  6
ByLayer
 10
-3.6419344796500006
 20
1.430795836399982
 30
0.0
 11
-3.4443974570499982
 21
1.4307958364000699
 31
0.0
  0
LINE
  5
22B
100
AcDbEntity
100
AcDbLine
  8
CUT_SHEET_6b
 62
7
420
0
370
15
  6
ByLayer
 10
-3.4443974570499982
 20
1.4307958364000699
 30
0.0
 11
-3.3785336983500009
 21
1.4966460321376251
 31
0.0
  0
LINE
  5
22C
100
AcDbEntity
100
AcDbLine
  8
CUT_SHEET_6b
 62
7
420
0
370
15
  6
ByLayer
 10
-3.3785336983500009
 20
1.4966460321376251
 30
0.0
 11
-3.4443974570499982
 21
1.5624962271000484
 31
0.0
  0
LINE
  5
22D
100
AcDbEntity
100
AcDbLine
  8
CUT_SHEET_6b
 62
7
420
0
370
15
  6
ByLayer
 10
-3.4443974570499982
 20
1.5624962271000484
 30
0.0
 11
-3.5760978477499954
 21
1.5624962271000618
 31
0.0
  0
LINE
  5
22E
100
AcDbEntity
100
AcDbLine
  8
CUT_SHEET_6b
 62
7
420
0
370
15
  6
ByLayer
 10
-3.5760978477499954
 20
1.5624962271000618
 30
0.0
 11
-3.6419344796500006
 21
1.4966460318408688
 31
0.0
  0
LINE
  5
22F
100
AcDbEntity
100
AcDbLine
  8
CUT_SHEET_6b
 62
7
420
0
370
15
  6
ByLayer
 10
-3.6419344796500006
 20
1.4966460318408688
 30
0.0
 11
-3.6419344796500006
 21
1.3649456410000251
 31
0.0
  0
LINE
  5
230
100
AcDbEntity
100
AcDbLine
  8
CUT_SHEET_6b
 62
7
420
0
370
15
  6
ByLayer
 10
-3.6419344796500006
 20
1.3649456410000251
 30
0.0
 11
-3.5760978477499954
 21
1.2991090091000252
 31
0.0
  0
LINE
  5
231
100
AcDbEntity
100
AcDbLine
  8
CUT_SHEET_6b
 62
7
420
0
370
15
  6
ByLayer
 10
-3.5760978477499954
 20
1.2991090091000252
 30
0.0
 11
-3.4443974570499982
 21
1.2991090091000252
 31
0.0
  0
LINE
  5
232
100
AcDbEntity
100
AcDbLine
  8
CUT_SHEET_6b
 62
7
420
0
370
15
  6
ByLayer
 10
-3.7407572445500001
 20
1.5624962271000724
 30
0.0
 11
-3.9382942671500025
 21
1.5624962271000449
 31
0.0
  0
LINE
  5
233
100
AcDbEntity
100
AcDbLine
  8
CUT_SHEET_6b
 62
7
420
0
370
15
  6
ByLayer
 10
-3.9382942671500025
 20
1.5624962271000449
 30
0.0
 11
-4.0041580258499998
 21
1.4966460314003109
 31
0.0
  0
LINE
  5
234
100
AcDbEntity
100
AcDbLine
  8
CUT_SHEET_6b
 62
7
420
0
370
15
  6
ByLayer
 10
-4.0041580258499998
 20
1.4966460314003109
 30
0.0
 11
-4.0041580258499998
 21
1.3649592044000478
 31
0.0
  0
LINE
  5
235
100
AcDbEntity
100
AcDbLine
  8
CUT_SHEET_6b
 62
7
420
0
370
15
  6
ByLayer
 10
-4.0041580258499998
 20
1.3649592044000478
 30
0.0
 11
-3.9382942671500025
 21
1.2990954457000399
 31
0.0
  0
LINE
  5
236
100
AcDbEntity
100
AcDbLine
  8
CUT_SHEET_6b
 62
7
420
0
370
15
  6
ByLayer
 10
-3.9382942671500025
 20
1.2990954457000399
 30
0.0
 11
-3.7407572445500001
 21
1.299095445700007
 31
0.0
  0
LINE
  5
237
100
AcDbEntity
100
AcDbLine
  8
CUT_SHEET_6b
 62
7
420
0
370
15
  6
ByLayer
 10
-4.2017086118499982
 20
1.364945641000034
 30
0.0
 11
-4.1358584165500041
 21
1.2991090091000261
 31
0.0
  0
LINE
  5
238
100
AcDbEntity
100
AcDbLine
  8
CUT_SHEET_6b
 62
7
420
0
370
15
  6
ByLayer
 10
-4.2675588071499995
 20
1.2991090091000412
 30
0.0
 11
-4.3334225659499985
 21
1.299109009100027
 31
0.0
  0
LINE
  5
239
100
AcDbEntity
100
AcDbLine
  8
CUT_SHEET_6b
 62
7
420
0
370
15
  6
ByLayer
 10
-4.3334225659499985
 20
1.299109009100027
 30
0.0
 11
-4.3992591978500037
 21
1.3649456410000536
 31
0.0
  0
LINE
  5
23A
100
AcDbEntity
100
AcDbLine
  8
CUT_SHEET_6b
 62
7
420
0
370
15
  6
ByLayer
 10
-4.3992591978500037
 20
1.3649456410000536
 30
0.0
 11
-4.3992591978500037
 21
1.4966460320772708
 31
0.0
  0
LINE
  5
23B
100
AcDbEntity
100
AcDbLine
  8
CUT_SHEET_6b
 62
7
420
0
370
15
  6
ByLayer
 10
-4.3992591978500037
 20
1.4966460320772708
 30
0.0
 11
-4.3334225659499985
 21
1.5624962271000333
 31
0.0
  0
LINE
  5
23C
100
AcDbEntity
100
AcDbLine
  8
CUT_SHEET_6b
 62
7
420
0
370
15
  6
ByLayer
 10
-4.3334225659499985
 20
1.5624962271000333
 30
0.0
 11
-4.2675588071499995
 21
1.562496227099988
 31
0.0
  0
LINE
  5
23D
100
AcDbEntity
100
AcDbLine
  8
CUT_SHEET_6b
 62
7
420
0
370
15
  6
ByLayer
 10
-4.2675588071499995
 20
1.562496227099988
 30
0.0
 11
-4.2017221752500014
 21
1.4966460315376793
 31
0.0
  0
LINE
  5
23E
100
AcDbEntity
100
AcDbLine
  8
CUT_SHEET_6b
 62
7
420
0
370
15
  6
ByLayer
 10
-4.2017221752500014
 20
1.4966460315376793
 30
0.0
 11
-4.2017221752500014
 21
1.3649456410000402
 31
0.0
  0
LINE
  5
23F
100
AcDbEntity
100
AcDbLine
  8
CUT_SHEET_6b
 62
7
420
0
370
15
  6
ByLayer
 10
-4.2017221752500014
 20
1.3649456410000402
 30
0.0
 11
-4.2675588071499995
 21
1.2991090091000412
 31
0.0
  0
LINE
  5
240
100
AcDbEntity
100
AcDbLine
  8
CUT_SHEET_6b
 62
7
420
0
370
15
  6
ByLayer
 10
-4.5309731519500041
 20
1.6283464224000355
 30
0.0
 11
-4.596796220449999
 21
1.694210181100031
 31
0.0
  0
LINE
  5
241
100
AcDbEntity
100
AcDbLine
  8
CUT_SHEET_6b
 62
7
420
0
370
15
  6
ByLayer
 10
-4.596796220449999
 20
1.694210181100031
 30
0.0
 11
-4.6626464158500021
 21
1.6942101811000452
 31
0.0
  0
LINE
  5
242
100
AcDbEntity
100
AcDbLine
  8
CUT_SHEET_6b
 62
7
420
0
370
15
  6
ByLayer
 10
-4.6626464158500021
 20
1.6942101811000452
 30
0.0
 11
-4.7284830477500002
 21
1.6283464224000195
 31
0.0
  0
LINE
  5
243
100
AcDbEntity
100
AcDbLine
  8
CUT_SHEET_6b
 62
7
420
0
370
15
  6
ByLayer
 10
-4.7284830477500002
 20
1.6283464224000195
 30
0.0
 11
-4.7284830477500002
 21
1.2990954457000115
 31
0.0
  0
LINE
  5
244
100
AcDbEntity
100
AcDbLine
  8
CUT_SHEET_6b
 62
7
420
0
370
15
  6
ByLayer
 10
-4.7943603698500006
 20
1.4966460316167325
 30
0.0
 11
-4.596796220449999
 21
1.4966460318446915
 31
0.0
  0
LINE
  5
245
100
AcDbEntity
100
AcDbLine
  8
CUT_SHEET_6b
 62
7
420
0
370
15
  6
ByLayer
 10
-5.4199711339499999
 20
1.4966460318453709
 30
0.0
 11
-5.3541209386499986
 21
1.5624962271000236
 31
0.0
  0
LINE
  5
246
100
AcDbEntity
100
AcDbLine
  8
CUT_SHEET_6b
 62
7
420
0
370
15
  6
ByLayer
 10
-5.3541209386499986
 20
1.5624962271000236
 30
0.0
 11
-5.2882571799499978
 21
1.4966460317694938
 31
0.0
  0
LINE
  5
247
100
AcDbEntity
100
AcDbLine
  8
CUT_SHEET_6b
 62
7
420
0
370
15
  6
ByLayer
 10
-5.2882571799499978
 20
1.4966460317694938
 30
0.0
 11
-5.2882571799499978
 21
1.2991090091000324
 31
0.0
  0
LINE
  5
248
100
AcDbEntity
100
AcDbLine
  8
CUT_SHEET_6b
 62
7
420
0
370
15
  6
ByLayer
 10
-5.5516850880500002
 20
1.4966460317938832
 30
0.0
 11
-5.4858281110500009
 21
1.5624962271000467
 31
0.0
  0
LINE
  5
249
100
AcDbEntity
100
AcDbLine
  8
CUT_SHEET_6b
 62
7
420
0
370
15
  6
ByLayer
 10
-5.4858281110500009
 20
1.5624962271000467
 30
0.0
 11
-5.4199711339499999
 21
1.4966460318453709
 31
0.0
  0
LINE
  5
24A
100
AcDbEntity
100
AcDbLine
  8
CUT_SHEET_6b
 62
7
420
0
370
15
  6
ByLayer
 10
-5.4199711339499999
 20
1.4966460318453709
 30
0.0
 11
-5.4199711339499999
 21
1.4307958364000406
 31
0.0
  0
LINE
  5
24B
100
AcDbEntity
100
AcDbLine
  8
CUT_SHEET_6b
 62
7
420
0
370
15
  6
ByLayer
 10
-5.5516850880500037
 20
1.299109009100027
 30
0.0
 11
-5.5516850880500002
 21
1.5624962271000324
 31
0.0
  0
LINE
  5
24C
100
AcDbEntity
100
AcDbLine
  8
CUT_SHEET_6b
 62
7
420
0
370
15
  6
ByLayer
 10
-5.749222110649999
 20
1.364945641000034
 30
0.0
 11
-5.6833719153499977
 21
1.2991090091000395
 31
0.0
  0
LINE
  5
24D
100
AcDbEntity
100
AcDbLine
  8
CUT_SHEET_6b
 62
7
420
0
370
15
  6
ByLayer
 10
-5.8151469045500015
 20
1.2991090091000252
 30
0.0
 11
-5.8809225013500033
 21
1.299109009100027
 31
0.0
  0
LINE
  5
24E
100
AcDbEntity
100
AcDbLine
  8
CUT_SHEET_6b
 62
7
420
0
370
15
  6
ByLayer
 10
-5.8809225013500033
 20
1.299109009100027
 30
0.0
 11
-5.9468472952499987
 21
1.364945641000018
 31
0.0
  0
LINE
  5
24F
100
AcDbEntity
100
AcDbLine
  8
CUT_SHEET_6b
 62
7
420
0
370
15
  6
ByLayer
 10
-5.9468472952499987
 20
1.364945641000018
 30
0.0
 11
-5.9468472952499987
 21
1.4966460317792034
 31
0.0
  0
LINE
  5
250
100
AcDbEntity
100
AcDbLine
  8
CUT_SHEET_6b
 62
7
420
0
370
15
  6
ByLayer
 10
-5.9468472952499987
 20
1.4966460317792034
 30
0.0
 11
-5.8809225013500033
 21
1.5624962271000449
 31
0.0
  0
LINE
  5
251
100
AcDbEntity
100
AcDbLine
  8
CUT_SHEET_6b
 62
7
420
0
370
15
  6
ByLayer
 10
-5.8809225013500033
 20
1.5624962271000449
 30
0.0
 11
-5.8151469045500015
 21
1.5624962270999987
 31
0.0
  0
LINE
  5
252
100
AcDbEntity
100
AcDbLine
  8
CUT_SHEET_6b
 62
7
420
0
370
15
  6
ByLayer
 10
-5.8151469045500015
 20
1.5624962270999987
 30
0.0
 11
-5.749222110649999
 21
1.4966460317678081
 31
0.0
  0
LINE
  5
253
100
AcDbEntity
100
AcDbLine
  8
CUT_SHEET_6b
 62
7
420
0
370
15
  6
ByLayer
 10
-5.749222110649999
 20
1.4966460317678081
 30
0.0
 11
-5.749222110649999
 21
1.364945641000034
 31
0.0
  0
LINE
  5
254
100
AcDbEntity
100
AcDbLine
  8
CUT_SHEET_6b
 62
7
420
0
370
15
  6
ByLayer
 10
-5.749222110649999
 20
1.364945641000034
 30
0.0
 11
-5.8151469045500015
 21
1.2991090091000252
 31
0.0
  0
LINE
  5
255
100
AcDbEntity
100
AcDbLine
  8
CUT_SHEET_6b
 62
7
420
0
370
15
  6
ByLayer
 10
-6.341941685550001
 20
1.4307958364000299
 30
0.0
 11
-6.1443300643499974
 21
1.4307958364000424
 31
0.0
  0
LINE
  5
256
100
AcDbEntity
100
AcDbLine
  8
CUT_SHEET_6b
 62
7
420
0
370
15
  6
ByLayer
 10
-6.1443300643499974
 20
1.4307958364000424
 30
0.0
 11
-6.0785409042500014
 21
1.4966460318758266
 31
0.0
  0
LINE
  5
257
100
AcDbEntity
100
AcDbLine
  8
CUT_SHEET_6b
 62
7
420
0
370
15
  6
ByLayer
 10
-6.0785409042500014
 20
1.4966460318758266
 30
0.0
 11
-6.1443300643499974
 21
1.5624962271000324
 31
0.0
  0
LINE
  5
258
100
AcDbEntity
100
AcDbLine
  8
CUT_SHEET_6b
 62
7
420
0
370
15
  6
ByLayer
 10
-6.1443300643499974
 20
1.5624962271000324
 30
0.0
 11
-6.2760304550500017
 21
1.5624962271000307
 31
0.0
  0
LINE
  5
259
100
AcDbEntity
100
AcDbLine
  8
CUT_SHEET_6b
 62
7
420
0
370
15
  6
ByLayer
 10
-6.2760304550500017
 20
1.5624962271000307
 30
0.0
 11
-6.341941685550001
 21
1.4966460318022232
 31
0.0
  0
LINE
  5
25A
100
AcDbEntity
100
AcDbLine
  8
CUT_SHEET_6b
 62
7
420
0
370
15
  6
ByLayer
 10
-6.341941685550001
 20
1.4966460318022232
 30
0.0
 11
-6.341941685550001
 21
1.3649456410000287
 31
0.0
  0
LINE
  5
25B
100
AcDbEntity
100
AcDbLine
  8
CUT_SHEET_6b
 62
7
420
0
370
15
  6
ByLayer
 10
-6.341941685550001
 20
1.3649456410000287
 30
0.0
 11
-6.2760304550500017
 21
1.299109009100027
 31
0.0
  0
LINE
  5
25C
100
AcDbEntity
100
AcDbLine
  8
CUT_SHEET_6b
 62
7
420
0
370
15
  6
ByLayer
 10
-6.2760304550500017
 20
1.299109009100027
 30
0.0
 11
-6.1443300643499974
 21
1.2991090091000288
 31
0.0
  0
LINE
  5
25D
100
AcDbEntity
100
AcDbLine
  8
CUT_SHEET_6b
 62
7
420
0
370
15
  6
ByLayer
 10
-6.704090633149999
 20
1.4307958364000388
 30
0.0
 11
-6.5723834607500002
 21
1.5624962271000333
 31
0.0
  0
LINE
  5
25E
100
AcDbEntity
100
AcDbLine
  8
CUT_SHEET_6b
 62
7
420
0
370
15
  6
ByLayer
 10
-6.5723834607500002
 20
1.5624962271000333
 30
0.0
 11
-6.5395058349500026
 21
1.5624962271000253
 31
0.0
  0
LINE
  5
25F
100
AcDbEntity
100
AcDbLine
  8
CUT_SHEET_6b
 62
7
420
0
370
15
  6
ByLayer
 10
-6.5395058349500026
 20
1.5624962271000253
 30
0.0
 11
-6.4736488579499998
 21
1.4966460316715757
 31
0.0
  0
LINE
  5
260
100
AcDbEntity
100
AcDbLine
  8
CUT_SHEET_6b
 62
7
420
0
370
15
  6
ByLayer
 10
-6.4736488579499998
 20
1.4966460316715757
 30
0.0
 11
-6.4736488579499998
 21
1.3649456410000251
 31
0.0
  0
LINE
  5
261
100
AcDbEntity
100
AcDbLine
  8
CUT_SHEET_6b
 62
7
420
0
370
15
  6
ByLayer
 10
-6.4736488579499998
 20
1.3649456410000251
 30
0.0
 11
-6.5395058349500026
 21
1.2991090091000306
 31
0.0
  0
LINE
  5
262
100
AcDbEntity
100
AcDbLine
  8
CUT_SHEET_6b
 62
7
420
0
370
15
  6
ByLayer
 10
-6.5395058349500026
 20
1.2991090091000306
 30
0.0
 11
-6.5723834607500002
 21
1.2991090091000359
 31
0.0
  0
LINE
  5
263
100
AcDbEntity
100
AcDbLine
  8
CUT_SHEET_6b
 62
7
420
0
370
15
  6
ByLayer
 10
-6.5723834607500002
 20
1.2991090091000359
 30
0.0
 11
-6.704090633149999
 21
1.4307958364000388
 31
0.0
  0
LINE
  5
264
100
AcDbEntity
100
AcDbLine
  8
CUT_SHEET_6b
 62
7
420
0
370
15
  6
ByLayer
 10
-6.704090633149999
 20
1.2991090091000288
 30
0.0
 11
-6.704090633149999
 21
1.6942101811000452
 31
0.0
  0
LINE
  5
265
100
AcDbEntity
100
AcDbLine
  8
CUT_SHEET_6b
 62
7
420
0
370
15
  6
ByLayer
 10
-7.0991985868499974
 20
1.4966460316698464
 30
0.0
 11
-6.8357910238500033
 21
1.4966460317394299
 31
0.0
  0
LINE
  5
266
100
AcDbEntity
100
AcDbLine
  8
CUT_SHEET_6b
 62
7
420
0
370
15
  6
ByLayer
 10
-7.4943607940499994
 20
1.6942101811000301
 30
0.0
 11
-7.2309532310500018
 21
1.2990954457000345
 31
0.0
  0
LINE
  5
267
100
AcDbEntity
100
AcDbLine
  8
CUT_SHEET_6b
 62
7
420
0
370
15
  6
ByLayer
 10
-7.4943607940499994
 20
1.2991090091000368
 30
0.0
 11
-7.2309532310499982
 21
1.6942101811000398
 31
0.0
  0
ENDBLK
  5
268
100
AcDbEntity
  8
0
100
AcDbBlockEnd
  0
ENDSEC
  0
SECTION
  2
ENTITIES
  0
INSERT
  5
269
100
AcDbEntity
100
AcDbBlockReference
  8
0
 62
256
370
-1
  6
ByLayer
  2
BORDER
 10
-12.0
 20
6.0000000000000027
 30
0.0
  0
INSERT
  5
26A
100
AcDbEntity
100
AcDbBlockReference
  8
CUT_SHEET_6b
 62
256
370
-1
  6
ByLayer
  2
intblock
 10
11.6985553721245896
 20
-5.2982112469930849
 30
0.0
 50
90.0
  0
INSERT
  5
26B
100
AcDbEntity
100
AcDbBlockReference
  8
CUT_SHEET_6b
 62
256
370
-1
  6
ByLayer
  2
intblock
 10
-0.7846139969578069
 20
5.8285597827207596
 30
0.0
 50
180.0
  0
INSERT
  5
26C
100
AcDbEntity
100
AcDbBlockReference
  8
CUT_SHEET_6b
 62
256
370
-1
  6
ByLayer
  2
foobar4
 10
4.4459756884244443
 20
-5.6435738969831188
 30
0.0
  0
ENDSEC
  0
SECTION
  2
OBJECTS
  0
DICTIONARY
  5
C
100
AcDbDictionary
280
0
281
1
  3
ACAD_GROUP
350
D
  3
ACAD_LAYOUT
350
1A
  3
ACAD_MLINESTYLE
350
17
  3
ACAD_PLOTSETTINGS
350
19
  3
ACAD_PLOTSTYLENAME
350
E
  3
AcDbVariableDictionary
350
26D
  0
DICTIONARY
  5
D
100
AcDbDictionary
280
0
281
1
  0
ACDBDICTIONARYWDFLT
  5
E
100
AcDbDictionary
281
1
  3
Normal
350
F
100
AcDbDictionaryWithDefault
340
F
  0
ACDBPLACEHOLDER
  5
F
  0
DICTIONARY
  5
17
100
AcDbDictionary
280
0
281
1
  3
Standard
350
18
  0
MLINESTYLE
  5
18
100
AcDbMlineStyle
  2
STANDARD
 70
0
  3

 62
256
 51
90.0
 52
90.0
 71
2
 49
0.5
 62
256
  6
BYLAYER
 49
-0.5
 62
256
  6
BYLAYER
  0
DICTIONARY
  5
19
100
AcDbDictionary
280
0
281
1
  0
DICTIONARY
  5
1A
100
AcDbDictionary
281
1
  3
Layout1
350
1E
  3
Layout2
350
26
  3
Model
350
22
  0
LAYOUT
  5
1E
100
AcDbPlotSettings
  1

  2
C:\Program Files\AutoCAD 2002\plotters\DWF ePlot (optimized for plotting).pc3
  4

  6

 40
0.0
 41
0.0
 42
0.0
 43
0.0
 44
0.0
 45
0.0
 46
0.0
 47
0.0
 48
0.0
 49
0.0
140
0.0
141
0.0
142
1.0
143
1.0
 70
688
 72
0
 73
0
 74
5
  7

 75
16
147
1.0
148
0.0
149
0.0
100
AcDbLayout
  1
Layout1
 70
1
 71
1
 10
0.0
 20
0.0
 11
420.0
 21
297.0
 12
0.0
 22
0.0
 32
0.0
 14
100000000000000000000.0
 24
100000000000000000000.0
 34
100000000000000000000.0
 15
-100000000000000000000.0
 25
-100000000000000000000.0
 35
-100000000000000000000.0
146
0.0
 13
0.0
 23
0.0
 33
0.0
 16
1.0
 26
0.0
 36
0.0
 17
0.0
 27
1.0
 37
0.0
 76
0
330
1B
  0
LAYOUT
  5
22
100
AcDbPlotSettings
  1

  2
C:\Program Files\AutoCAD 2002\plotters\DWF ePlot (optimized for plotting).pc3
  4

  6

 40
0.0
 41
0.0
 42
0.0
 43
0.0
 44
0.0
 45
0.0
 46
0.0
 47
0.0
 48
0.0
 49
0.0
140
0.0
141
0.0
142
1.0
143
1.0
 70
1712
 72
0
 73
0
 74
0
  7

 75
0
147
1.0
148
0.0
149
0.0
100
AcDbLayout
  1
Model
 70
1
 71
0
 10
0.0
 20
0.0
 11
12.0
 21
9.0
 12
0.0
 22
0.0
 32
0.0
 14
0.0
 24
0.0
 34
0.0
 15
0.0
 25
0.0
 35
0.0
146
0.0
 13
0.0
 23
0.0
 33
0.0
 16
1.0
 26
0.0
 36
0.0
 17
0.0
 27
1.0
 37
0.0
 76
0
330
1F
  0
LAYOUT
  5
26
100
AcDbPlotSettings
  1

  2
C:\Program Files\AutoCAD 2002\plotters\DWF ePlot (optimized for plotting).pc3
  4

  6

 40
0.0
 41
0.0
 42
0.0
 43
0.0
 44
0.0
 45
0.0
 46
0.0
 47
0.0
 48
0.0
 49
0.0
140
0.0
141
0.0
142
1.0
143
1.0
 70
688
 72
0
 73
0
 74
5
  7

 75
16
147
1.0
148
0.0
149
0.0
100
AcDbLayout
  1
Layout2
 70
1
 71
2
 10
0.0
 20
0.0
 11
12.0
 21
9.0
 12
0.0
 22
0.0
 32
0.0
 14
0.0
 24
0.0
 34
0.0
 15
0.0
 25
0.0
 35
0.0
146
0.0
 13
0.0
 23
0.0
 33
0.0
 16
1.0
 26
0.0
 36
0.0
 17
0.0
 27
1.0
 37
0.0
 76
0
330
23
  0
DICTIONARY
  5
26D
100
AcDbDictionary
281
1
  3
DIMASSOC
350
26F
  3
HIDETEXT
350
26E
  0
DICTIONARYVAR
  5
26E
100
DictionaryVariables
280
0
  1
2
  0
DICTIONARYVAR
  5
26F
100
DictionaryVariables
280
0
  1
1
  0
ENDSEC
  0
EOF
