999
dxflib 2.2.0.0
  0
SECTION
  2
HEADER
  9
$ACADVER
  1
AC1015
  9
$HANDSEED
  5
FFFF
  9
$SPLINESEGS
 70
8
  9
$DIMEXE
 40
1.25
  9
$DIMAZIN
 70
8
  9
$DIMZIN
 70
8
  9
$DIMLUNIT
 70
2
  9
$GRIDMODE
 70
1
  9
$INSUNITS
 70
1
  9
$DIMADEC
 70
2
  9
$DIMASZ
 40
2.5
  9
$DIMGAP
 40
0.625
  9
$DIMTXT
 40
2.5
  9
$GRIDUNIT
 10
0.0
 20
0.0
  9
$DIMEXO
 40
0.625
  9
$LUPREC
 70
4
  9
$DIMAUNIT
 70
0
  9
$AUPREC
 70
2
  9
$PLIMMIN
 10
0.0
 20
0.0
  9
$LUNITS
 70
2
  9
$PLIMMAX
 10
8.2677165354330722
 20
11.6929133858267722
  9
$DIMBLK
  1

  9
$AUNITS
 70
0
  9
$CLAYER
  8
0
  0
ENDSEC
  0
SECTION
  2
TABLES
  0
TABLE
  2
VPORT
  5
8
100
AcDbSymbolTable
 70
1
  0
VPORT
  5
30
100
AcDbSymbolTableRecord
100
AcDbViewportTableRecord
  2
*Active
 70
0
 10
0.0
 20
0.0
 11
1.0
 21
1.0
 12
286.3055555555554861
 22
148.5
 13
0.0
 23
0.0
 14
10.0
 24
10.0
 15
10.0
 25
10.0
 16
0.0
 26
0.0
 36
1.0
 17
0.0
 27
0.0
 37
0.0
 40
297.0
 41
1.92798353909465
 42
50.0
 43
0.0
 44
0.0
 50
0.0
 51
0.0
 71
0
 72
100
 73
1
 74
3
 75
1
 76
1
 77
0
 78
0
281
0
 65
1
110
0.0
120
0.0
130
0.0
111
1.0
121
0.0
131
0.0
112
0.0
122
1.0
132
0.0
 79
0
146
0.0
  0
ENDTAB
  0
TABLE
  2
LTYPE
  5
5
100
AcDbSymbolTable
 70
21
  0
LTYPE
  5
14
100
AcDbSymbolTableRecord
100
AcDbLinetypeTableRecord
  2
ByBlock
 70
0
  3

 72
65
 73
0
 40
0.0
  0
LTYPE
  5
15
100
AcDbSymbolTableRecord
100
AcDbLinetypeTableRecord
  2
ByLayer
 70
0
  3

 72
65
 73
0
 40
0.0
  0
LTYPE
  5
16
100
AcDbSymbolTableRecord
100
AcDbLinetypeTableRecord
  2
CONTINUOUS
 70
0
  3
Solid line
 72
65
 73
0
 40
0.0
  0
LTYPE
  5
31
100
AcDbSymbolTableRecord
100
AcDbLinetypeTableRecord
  2
DOT
 70
0
  3
Dot . . . . . . . . . . . . . . . . . . . . . .
 72
65
 73
2
 40
6.3499999999999996
 49
0.0
 74
0
 49
-6.3499999999999996
 74
0
  0
LTYPE
  5
32
100
AcDbSymbolTableRecord
100
AcDbLinetypeTableRecord
  2
DOT2
 70
0
  3
Dot (.5x) .....................................
 72
65
 73
2
 40
3.1749999999999998
 49
0.0
 74
0
 49
-3.1749999999999998
 74
0
  0
LTYPE
  5
33
100
AcDbSymbolTableRecord
100
AcDbLinetypeTableRecord
  2
DOTX2
 70
0
  3
Dot (2x) .  .  .  .  .  .  .  .  .  .  .  .  .
 72
65
 73
2
 40
12.6999999999999993
 49
0.0
 74
0
 49
-12.6999999999999993
 74
0
  0
LTYPE
  5
34
100
AcDbSymbolTableRecord
100
AcDbLinetypeTableRecord
  2
DASHED
 70
0
  3
Dashed __ __ __ __ __ __ __ __ __ __ __ __ __ _
 72
65
 73
2
 40
19.0500000000000007
 49
12.6999999999999993
 74
0
 49
-6.3499999999999996
 74
0
  0
LTYPE
  5
35
100
AcDbSymbolTableRecord
100
AcDbLinetypeTableRecord
  2
DASHED2
 70
0
  3
Dashed (.5x) _ _ _ _ _ _ _ _ _ _ _ _ _ _ _ _ _
 72
65
 73
2
 40
9.5250000000000004
 49
6.3499999999999996
 74
0
 49
-3.1749999999999998
 74
0
  0
LTYPE
  5
36
100
AcDbSymbolTableRecord
100
AcDbLinetypeTableRecord
  2
DASHEDX2
 70
0
  3
Dashed (2x) ____  ____  ____  ____  ____  ___
 72
65
 73
2
 40
38.1000000000000014
 49
25.3999999999999986
 74
0
 49
-12.6999999999999993
 74
0
  0
LTYPE
  5
37
100
AcDbSymbolTableRecord
100
AcDbLinetypeTableRecord
  2
DASHDOT
 70
0
  3
Dash dot __ . __ . __ . __ . __ . __ . __ . __
 72
65
 73
4
 40
25.3999999999999986
 49
12.6999999999999993
 74
0
 49
-6.3499999999999996
 74
0
 49
0.0
 74
0
 49
-6.3499999999999996
 74
0
  0
LTYPE
  5
38
100
AcDbSymbolTableRecord
100
AcDbLinetypeTableRecord
  2
DASHDOT2
 70
0
  3
Dash dot (.5x) _._._._._._._._._._._._._._._.
 72
65
 73
4
 40
12.6999999999999993
 49
6.3499999999999996
 74
0
 49
-3.1749999999999998
 74
0
 49
0.0
 74
0
 49
-3.1749999999999998
 74
0
  0
LTYPE
  5
39
100
AcDbSymbolTableRecord
100
AcDbLinetypeTableRecord
  2
DASHDOTX2
 70
0
  3
Dash dot (2x) ____  .  ____  .  ____  .  ___
 72
65
 73
4
 40
50.7999999999999972
 49
25.3999999999999986
 74
0
 49
-12.6999999999999993
 74
0
 49
0.0
 74
0
 49
-12.6999999999999993
 74
0
  0
LTYPE
  5
3A
100
AcDbSymbolTableRecord
100
AcDbLinetypeTableRecord
  2
DIVIDE
 70
0
  3
Divide ____ . . ____ . . ____ . . ____ . . ____
 72
65
 73
6
 40
31.75
 49
12.6999999999999993
 74
0
 49
-6.3499999999999996
 74
0
 49
0.0
 74
0
 49
-6.3499999999999996
 74
0
 49
0.0
 74
0
 49
-6.3499999999999996
 74
0
  0
LTYPE
  5
3B
100
AcDbSymbolTableRecord
100
AcDbLinetypeTableRecord
  2
DIVIDE2
 70
0
  3
Divide (.5x) __..__..__..__..__..__..__..__.._
 72
65
 73
6
 40
15.875
 49
6.3499999999999996
 74
0
 49
-3.1749999999999998
 74
0
 49
0.0
 74
0
 49
-3.1749999999999998
 74
0
 49
0.0
 74
0
 49
-3.1749999999999998
 74
0
  0
LTYPE
  5
3C
100
AcDbSymbolTableRecord
100
AcDbLinetypeTableRecord
  2
DIVIDEX2
 70
0
  3
Divide (2x) ________  .  .  ________  .  .  _
 72
65
 73
6
 40
63.5
 49
25.3999999999999986
 74
0
 49
-12.6999999999999993
 74
0
 49
0.0
 74
0
 49
-12.6999999999999993
 74
0
 49
0.0
 74
0
 49
-12.6999999999999993
 74
0
  0
LTYPE
  5
3D
100
AcDbSymbolTableRecord
100
AcDbLinetypeTableRecord
  2
CENTER
 70
0
  3
Center ____ _ ____ _ ____ _ ____ _ ____ _ ____
 72
65
 73
4
 40
50.7999999999999972
 49
31.75
 74
0
 49
-6.3499999999999996
 74
0
 49
6.3499999999999996
 74
0
 49
-6.3499999999999996
 74
0
  0
LTYPE
  5
3E
100
AcDbSymbolTableRecord
100
AcDbLinetypeTableRecord
  2
CENTER2
 70
0
  3
Center (.5x) ___ _ ___ _ ___ _ ___ _ ___ _ ___
 72
65
 73
4
 40
28.5749999999999993
 49
19.0500000000000007
 74
0
 49
-3.1749999999999998
 74
0
 49
3.1749999999999998
 74
0
 49
-3.1749999999999998
 74
0
  0
LTYPE
  5
3F
100
AcDbSymbolTableRecord
100
AcDbLinetypeTableRecord
  2
CENTERX2
 70
0
  3
Center (2x) ________  __  ________  __  _____
 72
65
 73
4
 40
101.5999999999999943
 49
63.5
 74
0
 49
-12.6999999999999993
 74
0
 49
12.6999999999999993
 74
0
 49
-12.6999999999999993
 74
0
  0
LTYPE
  5
40
100
AcDbSymbolTableRecord
100
AcDbLinetypeTableRecord
  2
BORDER
 70
0
  3
Border __ __ . __ __ . __ __ . __ __ . __ __ .
 72
65
 73
6
 40
44.4500000000000028
 49
12.6999999999999993
 74
0
 49
-6.3499999999999996
 74
0
 49
12.6999999999999993
 74
0
 49
-6.3499999999999996
 74
0
 49
0.0
 74
0
 49
-6.3499999999999996
 74
0
  0
LTYPE
  5
41
100
AcDbSymbolTableRecord
100
AcDbLinetypeTableRecord
  2
BORDER2
 70
0
  3
Border (.5x) __.__.__.__.__.__.__.__.__.__.__.
 72
65
 73
6
 40
22.2250000000000014
 49
6.3499999999999996
 74
0
 49
-3.1749999999999998
 74
0
 49
6.3499999999999996
 74
0
 49
-3.1749999999999998
 74
0
 49
0.0
 74
0
 49
-3.1749999999999998
 74
0
  0
LTYPE
  5
42
100
AcDbSymbolTableRecord
100
AcDbLinetypeTableRecord
  2
BORDERX2
 70
0
  3
Border (2x) ____  ____  .  ____  ____  .  ___
 72
65
 73
6
 40
88.9000000000000057
 49
25.3999999999999986
 74
0
 49
-12.6999999999999993
 74
0
 49
25.3999999999999986
 74
0
 49
-12.6999999999999993
 74
0
 49
0.0
 74
0
 49
-12.6999999999999993
 74
0
  0
ENDTAB
  0
TABLE
  2
LAYER
  5
2
100
AcDbSymbolTable
 70
2
  0
LAYER
  5
10
100
AcDbSymbolTableRecord
100
AcDbLayerTableRecord
  2
0
 70
0
 62
7
420
0
  6
CONTINUOUS
370
25
390
F
  0
LAYER
  5
43
100
AcDbSymbolTableRecord
100
AcDbLayerTableRecord
  2
CUT_SHEET_3a
 70
0
 62
7
420
0
  6
CONTINUOUS
370
0
390
F
  0
ENDTAB
  0
TABLE
  2
STYLE
  5
3
100
AcDbSymbolTable
 70
1
  0
STYLE
  5
11
100
AcDbSymbolTableRecord
100
AcDbTextStyleTableRecord
  2
Standard
 70
0
 40
0.0
 41
0.75
 50
0.0
 71
0
 42
2.5
  3
txt
  4

  0
ENDTAB
  0
TABLE
  2
VIEW
  5
6
100
AcDbSymbolTable
 70
0
  0
ENDTAB
  0
TABLE
  2
UCS
  5
7
100
AcDbSymbolTable
 70
0
  0
ENDTAB
  0
TABLE
  2
APPID
  5
9
100
AcDbSymbolTable
 70
1
  0
APPID
  5
12
100
AcDbSymbolTableRecord
100
AcDbRegAppTableRecord
  2
ACAD
 70
0
  0
ENDTAB
  0
TABLE
  2
DIMSTYLE
  5
A
100
AcDbSymbolTable
 70
1
100
AcDbDimStyleTable
 71
0
  0
DIMSTYLE
105
27
100
AcDbSymbolTableRecord
100
AcDbDimStyleTableRecord
  2
Standard
 41
2.5
 42
0.625
 43
3.75
 44
1.25
 70
0
 73
0
 74
0
 77
1
 78
8
140
2.5
141
2.5
143
0.03937007874016
147
0.625
171
3
172
1
271
2
272
2
274
3
278
44
283
0
284
8
340
11
  0
ENDTAB
  0
TABLE
  2
BLOCK_RECORD
  5
1
100
AcDbSymbolTable
 70
1
  0
BLOCK_RECORD
  5
1F
100
AcDbSymbolTableRecord
100
AcDbBlockTableRecord
  2
*Model_Space
340
22
  0
BLOCK_RECORD
  5
1B
100
AcDbSymbolTableRecord
100
AcDbBlockTableRecord
  2
*Paper_Space
340
1E
  0
BLOCK_RECORD
  5
23
100
AcDbSymbolTableRecord
100
AcDbBlockTableRecord
  2
*Paper_Space0
340
26
  0
BLOCK_RECORD
  5
44
100
AcDbSymbolTableRecord
100
AcDbBlockTableRecord
  2
BORDER
340
0
  0
BLOCK_RECORD
  5
45
100
AcDbSymbolTableRecord
100
AcDbBlockTableRecord
  2
grep
340
0
  0
ENDTAB
  0
ENDSEC
  0
SECTION
  2
BLOCKS
  0
BLOCK
  5
20
100
AcDbEntity
  8
0
100
AcDbBlockBegin
  2
*Model_Space
 70
0
 10
0.0
 20
0.0
 30
0.0
  3
*Model_Space
  1

  0
ENDBLK
  5
21
100
AcDbEntity
  8
0
100
AcDbBlockEnd
  0
BLOCK
  5
1C
100
AcDbEntity
 67
1
  8
0
100
AcDbBlockBegin
  2
*Paper_Space
 70
0
 10
0.0
 20
0.0
 30
0.0
  3
*Paper_Space
  1

  0
ENDBLK
  5
1D
100
AcDbEntity
 67
1
  8
0
100
AcDbBlockEnd
  0
BLOCK
  5
24
100
AcDbEntity
  8
0
100
AcDbBlockBegin
  2
*Paper_Space0
 70
0
 10
0.0
 20
0.0
 30
0.0
  3
*Paper_Space0
  1

  0
ENDBLK
  5
25
100
AcDbEntity
  8
0
100
AcDbBlockEnd
  0
BLOCK
  5
46
100
AcDbEntity
  8
0
100
AcDbBlockBegin
  2
BORDER
 70
0
 10
0.0
 20
0.0
 30
0.0
  3
BORDER
  1

  0
LINE
  5
47
100
AcDbEntity
100
AcDbLine
  8
0
 62
256
370
-1
  6
ByLayer
 10
0.0
 20
-12.0
 30
0.0
 11
24.0
 21
-12.0
 31
0.0
  0
LINE
  5
48
100
AcDbEntity
100
AcDbLine
  8
0
 62
256
370
-1
  6
ByLayer
 10
24.0
 20
-12.0
 30
0.0
 11
24.0
 21
0.0
 31
0.0
  0
LINE
  5
49
100
AcDbEntity
100
AcDbLine
  8
0
 62
256
370
-1
  6
ByLayer
 10
24.0
 20
0.0
 30
0.0
 11
0.0
 21
0.0
 31
0.0
  0
LINE
  5
4A
100
AcDbEntity
100
AcDbLine
  8
0
 62
256
370
-1
  6
ByLayer
 10
0.0
 20
0.0
 30
0.0
 11
0.0
 21
-12.0
 31
0.0
  0
ENDBLK
  5
4B
100
AcDbEntity
  8
0
100
AcDbBlockEnd
  0
BLOCK
  5
4C
100
AcDbEntity
  8
0
100
AcDbBlockBegin
  2
grep
 70
0
 10
0.0
 20
0.0
 30
0.0
  3
grep
  1

  0
LINE
  5
4D
100
AcDbEntity
100
AcDbLine
  8
CUT_SHEET_3a
 62
3
420
65280
370
15
  6
ByLayer
 10
6.8986794082000031
 20
-2.9357522615000029
 30
0.0
 11
6.9632275194000002
 21
-2.9357522615000029
 31
0.0
  0
LINE
  5
4E
100
AcDbEntity
100
AcDbLine
  8
CUT_SHEET_3a
 62
3
420
65280
370
15
  6
ByLayer
 10
6.9632275194000002
 20
-2.9357522615000029
 30
0.0
 11
7.0278298839999991
 21
-3.0003817529000028
 31
0.0
  0
LINE
  5
4F
100
AcDbEntity
100
AcDbLine
  8
CUT_SHEET_3a
 62
3
420
65280
370
15
  6
ByLayer
 10
5.4374968039999985
 20
-9.5000876450000007
 30
0.0
 11
2.9389464367999949
 21
-9.5000876450000025
 31
0.0
  0
LINE
  5
50
100
AcDbEntity
100
AcDbLine
  8
CUT_SHEET_3a
 62
3
420
65280
370
15
  6
ByLayer
 10
2.9389464367999949
 20
-9.5000876450000025
 30
0.0
 11
2.938946436800002
 21
-5.9813271866000015
 31
0.0
  0
LINE
  5
51
100
AcDbEntity
100
AcDbLine
  8
CUT_SHEET_3a
 62
3
420
65280
370
15
  6
ByLayer
 10
2.938946436800002
 20
-5.9813271866000015
 30
0.0
 11
5.4374968039999985
 21
-5.9813271865999997
 31
0.0
  0
LINE
  5
52
100
AcDbEntity
100
AcDbLine
  8
CUT_SHEET_3a
 62
3
420
65280
370
15
  6
ByLayer
 10
5.4374968039999985
 20
-5.9813271865999997
 30
0.0
 11
5.4374968039999985
 21
-9.5000876450000007
 31
0.0
  0
LINE
  5
53
100
AcDbEntity
100
AcDbLine
  8
CUT_SHEET_3a
 62
3
420
65280
370
15
  6
ByLayer
 10
0.0
 20
0.0
 30
0.0
 11
0.7565516057000039
 21
0.0
 31
0.0
  0
LINE
  5
54
100
AcDbEntity
100
AcDbLine
  8
CUT_SHEET_3a
 62
3
420
65280
370
15
  6
ByLayer
 10
0.7565516057000039
 20
0.0
 30
0.0
 11
0.7565516057000039
 21
0.2148845817999998
 31
0.0
  0
LINE
  5
55
100
AcDbEntity
100
AcDbLine
  8
CUT_SHEET_3a
 62
3
420
65280
370
15
  6
ByLayer
 10
0.7565516057000039
 20
0.2148845817999998
 30
0.0
 11
1.1763381238000008
 21
0.2148845817999998
 31
0.0
  0
LINE
  5
56
100
AcDbEntity
100
AcDbLine
  8
CUT_SHEET_3a
 62
3
420
65280
370
15
  6
ByLayer
 10
1.1763381238000008
 20
0.2148845817999998
 30
0.0
 11
1.1763381238000008
 21
0.0
 31
0.0
  0
LINE
  5
57
100
AcDbEntity
100
AcDbLine
  8
CUT_SHEET_3a
 62
3
420
65280
370
15
  6
ByLayer
 10
1.1763381238000008
 20
0.0
 30
0.0
 11
1.3101001478000001
 21
0.0
 31
0.0
  0
LINE
  5
58
100
AcDbEntity
100
AcDbLine
  8
CUT_SHEET_3a
 62
3
420
65280
370
15
  6
ByLayer
 10
1.3101001478000001
 20
0.0
 30
0.0
 11
1.3101001478000001
 21
-0.3678930378
 31
0.0
  0
LINE
  5
59
100
AcDbEntity
100
AcDbLine
  8
CUT_SHEET_3a
 62
3
420
65280
370
15
  6
ByLayer
 10
1.3101001478000001
 20
-0.3678930378
 30
0.0
 11
1.2481494232999992
 21
-0.3678930378
 31
0.0
  0
LINE
  5
5A
100
AcDbEntity
100
AcDbLine
  8
CUT_SHEET_3a
 62
3
420
65280
370
15
  6
ByLayer
 10
1.2481494232999992
 20
-0.3678930378
 30
0.0
 11
1.2481494232999992
 21
-0.4859351077999996
 31
0.0
  0
LINE
  5
5B
100
AcDbEntity
100
AcDbLine
  8
CUT_SHEET_3a
 62
3
420
65280
370
15
  6
ByLayer
 10
1.2481494232999992
 20
-0.4859351077999996
 30
0.0
 11
1.3101001478000001
 21
-0.4859351077999996
 31
0.0
  0
LINE
  5
5C
100
AcDbEntity
100
AcDbLine
  8
CUT_SHEET_3a
 62
3
420
65280
370
15
  6
ByLayer
 10
1.3101001478000001
 20
-0.4859351077999996
 30
0.0
 11
1.3101001478000001
 21
-0.564670511300001
 31
0.0
  0
LINE
  5
5D
100
AcDbEntity
100
AcDbLine
  8
CUT_SHEET_3a
 62
3
420
65280
370
15
  6
ByLayer
 10
1.3101001478000001
 20
-0.564670511300001
 30
0.0
 11
1.4360021948000039
 21
-0.564670511300001
 31
0.0
  0
LINE
  5
5E
100
AcDbEntity
100
AcDbLine
  8
CUT_SHEET_3a
 62
3
420
65280
370
15
  6
ByLayer
 10
1.4360021948000039
 20
-0.564670511300001
 30
0.0
 11
1.4360021948000039
 21
-0.4859351077999996
 31
0.0
  0
LINE
  5
5F
100
AcDbEntity
100
AcDbLine
  8
CUT_SHEET_3a
 62
3
420
65280
370
15
  6
ByLayer
 10
1.4360021948000039
 20
-0.4859351077999996
 30
0.0
 11
1.4980071726999995
 21
-0.4859351077999996
 31
0.0
  0
LINE
  5
60
100
AcDbEntity
100
AcDbLine
  8
CUT_SHEET_3a
 62
3
420
65280
370
15
  6
ByLayer
 10
1.4980071726999995
 20
-0.4859351077999996
 30
0.0
 11
1.4980071726999995
 21
-0.3678930377999983
 31
0.0
  0
LINE
  5
61
100
AcDbEntity
100
AcDbLine
  8
CUT_SHEET_3a
 62
3
420
65280
370
15
  6
ByLayer
 10
1.4980071726999995
 20
-0.3678930377999983
 30
0.0
 11
1.4360021948000039
 21
-0.3678930378
 31
0.0
  0
LINE
  5
62
100
AcDbEntity
100
AcDbLine
  8
CUT_SHEET_3a
 62
3
420
65280
370
15
  6
ByLayer
 10
1.4360021948000039
 20
-0.3678930378
 30
0.0
 11
1.4360021948000039
 21
0.0
 31
0.0
  0
LINE
  5
63
100
AcDbEntity
100
AcDbLine
  8
CUT_SHEET_3a
 62
3
420
65280
370
15
  6
ByLayer
 10
1.4360021948000039
 20
0.0
 30
0.0
 11
1.5698049089000037
 21
0.0
 31
0.0
  0
LINE
  5
64
100
AcDbEntity
100
AcDbLine
  8
CUT_SHEET_3a
 62
3
420
65280
370
15
  6
ByLayer
 10
1.5698049089000037
 20
0.0
 30
0.0
 11
1.5698049089000037
 21
0.2148710184000002
 31
0.0
  0
LINE
  5
65
100
AcDbEntity
100
AcDbLine
  8
CUT_SHEET_3a
 62
3
420
65280
370
15
  6
ByLayer
 10
1.5698049089000037
 20
0.2148710184000002
 30
0.0
 11
1.9895507369000001
 21
0.2148710183999984
 31
0.0
  0
LINE
  5
66
100
AcDbEntity
100
AcDbLine
  8
CUT_SHEET_3a
 62
3
420
65280
370
15
  6
ByLayer
 10
1.9895507369000001
 20
0.2148710183999984
 30
0.0
 11
1.9902289058000022
 21
0.0
 31
0.0
  0
LINE
  5
67
100
AcDbEntity
100
AcDbLine
  8
CUT_SHEET_3a
 62
3
420
65280
370
15
  6
ByLayer
 10
1.9902289058000022
 20
0.0
 30
0.0
 11
6.3862550252000005
 21
0.0
 31
0.0
  0
LINE
  5
68
100
AcDbEntity
100
AcDbLine
  8
CUT_SHEET_3a
 62
3
420
65280
370
15
  6
ByLayer
 10
6.3862550252000005
 20
0.0
 30
0.0
 11
6.3869331940000009
 21
0.214884581799998
 31
0.0
  0
LINE
  5
69
100
AcDbEntity
100
AcDbLine
  8
CUT_SHEET_3a
 62
3
420
65280
370
15
  6
ByLayer
 10
6.3869331940000009
 20
0.214884581799998
 30
0.0
 11
6.8066925854000004
 21
0.2148845818000069
 31
0.0
  0
LINE
  5
6A
100
AcDbEntity
100
AcDbLine
  8
CUT_SHEET_3a
 62
3
420
65280
370
15
  6
ByLayer
 10
6.8066925854000004
 20
0.2148845818000069
 30
0.0
 11
6.8066925854000004
 21
0.0
 31
0.0
  0
LINE
  5
6B
100
AcDbEntity
100
AcDbLine
  8
CUT_SHEET_3a
 62
3
420
65280
370
15
  6
ByLayer
 10
6.8066925854000004
 20
0.0
 30
0.0
 11
6.9404546093999997
 21
0.0
 31
0.0
  0
LINE
  5
6C
100
AcDbEntity
100
AcDbLine
  8
CUT_SHEET_3a
 62
3
420
65280
370
15
  6
ByLayer
 10
6.9404546093999997
 20
0.0
 30
0.0
 11
6.9404546093999997
 21
-0.3678930378000107
 31
0.0
  0
LINE
  5
6D
100
AcDbEntity
100
AcDbLine
  8
CUT_SHEET_3a
 62
3
420
65280
370
15
  6
ByLayer
 10
6.9404546093999997
 20
-0.3678930378000107
 30
0.0
 11
6.8784971031999973
 21
-0.3678930378000089
 31
0.0
  0
LINE
  5
6E
100
AcDbEntity
100
AcDbLine
  8
CUT_SHEET_3a
 62
3
420
65280
370
15
  6
ByLayer
 10
6.8784971031999973
 20
-0.3678930378000089
 30
0.0
 11
6.8784971031999973
 21
-0.4859351078000085
 31
0.0
  0
LINE
  5
6F
100
AcDbEntity
100
AcDbLine
  8
CUT_SHEET_3a
 62
3
420
65280
370
15
  6
ByLayer
 10
6.8784971031999973
 20
-0.4859351078000085
 30
0.0
 11
6.9404546093999997
 21
-0.4859351078000032
 31
0.0
  0
LINE
  5
70
100
AcDbEntity
100
AcDbLine
  8
CUT_SHEET_3a
 62
3
420
65280
370
15
  6
ByLayer
 10
6.9404546093999997
 20
-0.4859351078000032
 30
0.0
 11
6.9404546093999997
 21
-0.5646705112999957
 31
0.0
  0
LINE
  5
71
100
AcDbEntity
100
AcDbLine
  8
CUT_SHEET_3a
 62
3
420
65280
370
15
  6
ByLayer
 10
6.9404546093999997
 20
-0.5646705112999957
 30
0.0
 11
7.066349874700002
 21
-0.5646705113000099
 31
0.0
  0
LINE
  5
72
100
AcDbEntity
100
AcDbLine
  8
CUT_SHEET_3a
 62
3
420
65280
370
15
  6
ByLayer
 10
7.066349874700002
 20
-0.5646705113000099
 30
0.0
 11
7.066349874700002
 21
-0.4859351078000085
 31
0.0
  0
LINE
  5
73
100
AcDbEntity
100
AcDbLine
  8
CUT_SHEET_3a
 62
3
420
65280
370
15
  6
ByLayer
 10
7.066349874700002
 20
-0.4859351078000085
 30
0.0
 11
7.1283616342999991
 21
-0.485935107799996
 31
0.0
  0
LINE
  5
74
100
AcDbEntity
100
AcDbLine
  8
CUT_SHEET_3a
 62
3
420
65280
370
15
  6
ByLayer
 10
7.1283616342999991
 20
-0.485935107799996
 30
0.0
 11
7.1283616342999991
 21
-0.3678930378
 31
0.0
  0
LINE
  5
75
100
AcDbEntity
100
AcDbLine
  8
CUT_SHEET_3a
 62
3
420
65280
370
15
  6
ByLayer
 10
7.1283616342999991
 20
-0.3678930378
 30
0.0
 11
7.066349874700002
 21
-0.3678930378000036
 31
0.0
  0
LINE
  5
76
100
AcDbEntity
100
AcDbLine
  8
CUT_SHEET_3a
 62
3
420
65280
370
15
  6
ByLayer
 10
7.066349874700002
 20
-0.3678930378000036
 30
0.0
 11
7.066349874700002
 21
0.0
 31
0.0
  0
LINE
  5
77
100
AcDbEntity
100
AcDbLine
  8
CUT_SHEET_3a
 62
3
420
65280
370
15
  6
ByLayer
 10
7.066349874700002
 20
0.0
 30
0.0
 11
7.2001390253999986
 21
0.0
 31
0.0
  0
LINE
  5
78
100
AcDbEntity
100
AcDbLine
  8
CUT_SHEET_3a
 62
3
420
65280
370
15
  6
ByLayer
 10
7.2001390253999986
 20
0.0
 30
0.0
 11
7.2001390253999986
 21
0.2148710183999949
 31
0.0
  0
LINE
  5
79
100
AcDbEntity
100
AcDbLine
  8
CUT_SHEET_3a
 62
3
420
65280
370
15
  6
ByLayer
 10
7.2001390253999986
 20
0.2148710183999949
 30
0.0
 11
7.6199119802000013
 21
0.2148710183999825
 31
0.0
  0
LINE
  5
7A
100
AcDbEntity
100
AcDbLine
  8
CUT_SHEET_3a
 62
3
420
65280
370
15
  6
ByLayer
 10
7.6199119802000013
 20
0.2148710183999825
 30
0.0
 11
7.6205901490000016
 21
0.0
 31
0.0
  0
LINE
  5
7B
100
AcDbEntity
100
AcDbLine
  8
CUT_SHEET_3a
 62
3
420
65280
370
15
  6
ByLayer
 10
7.6205901490000016
 20
0.0
 30
0.0
 11
8.3701566156000027
 21
0.0
 31
0.0
  0
LINE
  5
7C
100
AcDbEntity
100
AcDbLine
  8
CUT_SHEET_3a
 62
3
420
65280
370
15
  6
ByLayer
 10
8.3701566156000027
 20
0.0
 30
0.0
 11
8.3697225875000001
 21
-2.6962637138000041
 31
0.0
  0
LINE
  5
7D
100
AcDbEntity
100
AcDbLine
  8
CUT_SHEET_3a
 62
3
420
65280
370
15
  6
ByLayer
 10
8.3697225875000001
 20
-2.6962637138000041
 30
0.0
 11
8.3697497142999993
 21
-2.6962637138000076
 31
0.0
  0
LINE
  5
7E
100
AcDbEntity
100
AcDbLine
  8
CUT_SHEET_3a
 62
3
420
65280
370
15
  6
ByLayer
 10
8.3697497142999993
 20
-2.6962637138000076
 30
0.0
 11
8.5850005072000002
 21
-2.6962637138000023
 31
0.0
  0
LINE
  5
7F
100
AcDbEntity
100
AcDbLine
  8
CUT_SHEET_3a
 62
3
420
65280
370
15
  6
ByLayer
 10
8.5850005072000002
 20
-2.6962637138000023
 30
0.0
 11
8.5850005072000002
 21
-3.1160366686000067
 31
0.0
  0
LINE
  5
80
100
AcDbEntity
100
AcDbLine
  8
CUT_SHEET_3a
 62
3
420
65280
370
15
  6
ByLayer
 10
8.5850005072000002
 20
-3.1160366686000067
 30
0.0
 11
8.3701566156000027
 21
-3.1160366686000032
 31
0.0
  0
LINE
  5
81
100
AcDbEntity
100
AcDbLine
  8
CUT_SHEET_3a
 62
3
420
65280
370
15
  6
ByLayer
 10
8.3701566156000027
 20
-3.1160366686000032
 30
0.0
 11
8.3701566156000027
 21
-3.2498258193000034
 31
0.0
  0
LINE
  5
82
100
AcDbEntity
100
AcDbLine
  8
CUT_SHEET_3a
 62
3
420
65280
370
15
  6
ByLayer
 10
8.3701566156000027
 20
-3.2498258193000034
 30
0.0
 11
8.0022500143999977
 21
-3.2498258193000034
 31
0.0
  0
LINE
  5
83
100
AcDbEntity
100
AcDbLine
  8
CUT_SHEET_3a
 62
3
420
65280
370
15
  6
ByLayer
 10
8.0022500143999977
 20
-3.2498258193000034
 30
0.0
 11
8.0022500143999977
 21
-3.1878276230000004
 31
0.0
  0
LINE
  5
84
100
AcDbEntity
100
AcDbLine
  8
CUT_SHEET_3a
 62
3
420
65280
370
15
  6
ByLayer
 10
8.0022500143999977
 20
-3.1878276230000004
 30
0.0
 11
7.8842079444000035
 21
-3.1878276230000022
 31
0.0
  0
LINE
  5
85
100
AcDbEntity
100
AcDbLine
  8
CUT_SHEET_3a
 62
3
420
65280
370
15
  6
ByLayer
 10
7.8842079444000035
 20
-3.1878276230000022
 30
0.0
 11
7.8842079444000035
 21
-3.2498258192999998
 31
0.0
  0
LINE
  5
86
100
AcDbEntity
100
AcDbLine
  8
CUT_SHEET_3a
 62
3
420
65280
370
15
  6
ByLayer
 10
7.8842079444000035
 20
-3.2498258192999998
 30
0.0
 11
7.8054861043000017
 21
-3.2498258193000016
 31
0.0
  0
LINE
  5
87
100
AcDbEntity
100
AcDbLine
  8
CUT_SHEET_3a
 62
3
420
65280
370
15
  6
ByLayer
 10
7.8054861043000017
 20
-3.2498258193000016
 30
0.0
 11
7.8054861043000017
 21
-3.3757346480000017
 31
0.0
  0
LINE
  5
88
100
AcDbEntity
100
AcDbLine
  8
CUT_SHEET_3a
 62
3
420
65280
370
15
  6
ByLayer
 10
7.8054861043000017
 20
-3.3757346480000017
 30
0.0
 11
7.8842079444000035
 21
-3.3757346480000017
 31
0.0
  0
LINE
  5
89
100
AcDbEntity
100
AcDbLine
  8
CUT_SHEET_3a
 62
3
420
65280
370
15
  6
ByLayer
 10
7.8842079444000035
 20
-3.3757346480000017
 30
0.0
 11
7.8842079444000035
 21
-3.4376785908000063
 31
0.0
  0
LINE
  5
8A
100
AcDbEntity
100
AcDbLine
  8
CUT_SHEET_3a
 62
3
420
65280
370
15
  6
ByLayer
 10
7.8842079444000035
 20
-3.4376785908000063
 30
0.0
 11
8.0022500143999977
 21
-3.4376785908000009
 31
0.0
  0
LINE
  5
8B
100
AcDbEntity
100
AcDbLine
  8
CUT_SHEET_3a
 62
3
420
65280
370
15
  6
ByLayer
 10
8.0022500143999977
 20
-3.4376785908000009
 30
0.0
 11
8.0022500143999977
 21
-3.3757346479999999
 31
0.0
  0
LINE
  5
8C
100
AcDbEntity
100
AcDbLine
  8
CUT_SHEET_3a
 62
3
420
65280
370
15
  6
ByLayer
 10
8.0022500143999977
 20
-3.3757346479999999
 30
0.0
 11
8.3701566156000027
 21
-3.3757346479999999
 31
0.0
  0
LINE
  5
8D
100
AcDbEntity
100
AcDbLine
  8
CUT_SHEET_3a
 62
3
420
65280
370
15
  6
ByLayer
 10
8.3701566156000027
 20
-3.3757346479999999
 30
0.0
 11
8.3701566156000027
 21
-3.5094966720000027
 31
0.0
  0
LINE
  5
8E
100
AcDbEntity
100
AcDbLine
  8
CUT_SHEET_3a
 62
3
420
65280
370
15
  6
ByLayer
 10
8.3701566156000027
 20
-3.5094966720000027
 30
0.0
 11
8.5850276339999994
 21
-3.5094966720000063
 31
0.0
  0
LINE
  5
8F
100
AcDbEntity
100
AcDbLine
  8
CUT_SHEET_3a
 62
3
420
65280
370
15
  6
ByLayer
 10
8.5850276339999994
 20
-3.5094966720000063
 30
0.0
 11
8.5850276339999994
 21
-3.9292696267000018
 31
0.0
  0
LINE
  5
90
100
AcDbEntity
100
AcDbLine
  8
CUT_SHEET_3a
 62
3
420
65280
370
15
  6
ByLayer
 10
8.5850276339999994
 20
-3.9292696267000018
 30
0.0
 11
8.3701566156000027
 21
-3.9299477956000004
 31
0.0
  0
LINE
  5
91
100
AcDbEntity
100
AcDbLine
  8
CUT_SHEET_3a
 62
3
420
65280
370
15
  6
ByLayer
 10
8.3701566156000027
 20
-3.9299477956000004
 30
0.0
 11
8.3701566156000027
 21
-7.0877732286999979
 31
0.0
  0
LINE
  5
92
100
AcDbEntity
100
AcDbLine
  8
CUT_SHEET_3a
 62
3
420
65280
370
15
  6
ByLayer
 10
8.3701566156000027
 20
-7.0877732286999979
 30
0.0
 11
8.5850276339999922
 21
-7.0884513975000036
 31
0.0
  0
LINE
  5
93
100
AcDbEntity
100
AcDbLine
  8
CUT_SHEET_3a
 62
3
420
65280
370
15
  6
ByLayer
 10
8.5850276339999922
 20
-7.0884513975000036
 30
0.0
 11
8.5850276339999994
 21
-7.5082107889000014
 31
0.0
  0
LINE
  5
94
100
AcDbEntity
100
AcDbLine
  8
CUT_SHEET_3a
 62
3
420
65280
370
15
  6
ByLayer
 10
8.5850276339999994
 20
-7.5082107889000014
 30
0.0
 11
8.3701566156000027
 21
-7.5082107888999978
 31
0.0
  0
LINE
  5
95
100
AcDbEntity
100
AcDbLine
  8
CUT_SHEET_3a
 62
3
420
65280
370
15
  6
ByLayer
 10
8.3701566156000027
 20
-7.5082107888999978
 30
0.0
 11
8.3701566156000027
 21
-7.6419728129000006
 31
0.0
  0
LINE
  5
96
100
AcDbEntity
100
AcDbLine
  8
CUT_SHEET_3a
 62
3
420
65280
370
15
  6
ByLayer
 10
8.3701566156000027
 20
-7.6419728129000006
 30
0.0
 11
8.0022500143999977
 21
-7.6419728129000015
 31
0.0
  0
LINE
  5
97
100
AcDbEntity
100
AcDbLine
  8
CUT_SHEET_3a
 62
3
420
65280
370
15
  6
ByLayer
 10
8.0022500143999977
 20
-7.6419728129000015
 30
0.0
 11
8.0022500143999977
 21
-7.5800288701000031
 31
0.0
  0
LINE
  5
98
100
AcDbEntity
100
AcDbLine
  8
CUT_SHEET_3a
 62
3
420
65280
370
15
  6
ByLayer
 10
8.0022500143999977
 20
-7.5800288701000031
 30
0.0
 11
7.8842079444000035
 21
-7.5800288701000049
 31
0.0
  0
LINE
  5
99
100
AcDbEntity
100
AcDbLine
  8
CUT_SHEET_3a
 62
3
420
65280
370
15
  6
ByLayer
 10
7.8842079444000035
 20
-7.5800288701000049
 30
0.0
 11
7.8842079444000035
 21
-7.6419728129000024
 31
0.0
  0
LINE
  5
9A
100
AcDbEntity
100
AcDbLine
  8
CUT_SHEET_3a
 62
3
420
65280
370
15
  6
ByLayer
 10
7.8842079444000035
 20
-7.6419728129000024
 30
0.0
 11
7.8054861043000017
 21
-7.6419728129000006
 31
0.0
  0
LINE
  5
9B
100
AcDbEntity
100
AcDbLine
  8
CUT_SHEET_3a
 62
3
420
65280
370
15
  6
ByLayer
 10
7.8054861043000017
 20
-7.6419728129000006
 30
0.0
 11
7.8054861043000017
 21
-7.7678816416000016
 31
0.0
  0
LINE
  5
9C
100
AcDbEntity
100
AcDbLine
  8
CUT_SHEET_3a
 62
3
420
65280
370
15
  6
ByLayer
 10
7.8054861043000017
 20
-7.7678816416000016
 30
0.0
 11
7.8842079443999964
 21
-7.7678816416000052
 31
0.0
  0
LINE
  5
9D
100
AcDbEntity
100
AcDbLine
  8
CUT_SHEET_3a
 62
3
420
65280
370
15
  6
ByLayer
 10
7.8842079443999964
 20
-7.7678816416000052
 30
0.0
 11
7.8842079443999964
 21
-7.8298798379000045
 31
0.0
  0
LINE
  5
9E
100
AcDbEntity
100
AcDbLine
  8
CUT_SHEET_3a
 62
3
420
65280
370
15
  6
ByLayer
 10
7.8842079443999964
 20
-7.8298798379000045
 30
0.0
 11
8.0022500143999977
 21
-7.829879837900001
 31
0.0
  0
LINE
  5
9F
100
AcDbEntity
100
AcDbLine
  8
CUT_SHEET_3a
 62
3
420
65280
370
15
  6
ByLayer
 10
8.0022500143999977
 20
-7.829879837900001
 30
0.0
 11
8.0022500143999977
 21
-7.767881641600006
 31
0.0
  0
LINE
  5
A0
100
AcDbEntity
100
AcDbLine
  8
CUT_SHEET_3a
 62
3
420
65280
370
15
  6
ByLayer
 10
8.0022500143999977
 20
-7.767881641600006
 30
0.0
 11
8.3701566156000027
 21
-7.7678816415999998
 31
0.0
  0
LINE
  5
A1
100
AcDbEntity
100
AcDbLine
  8
CUT_SHEET_3a
 62
3
420
65280
370
15
  6
ByLayer
 10
8.3701566156000027
 20
-7.7678816415999998
 30
0.0
 11
8.3701566156000027
 21
-7.9016707922999974
 31
0.0
  0
LINE
  5
A2
100
AcDbEntity
100
AcDbLine
  8
CUT_SHEET_3a
 62
3
420
65280
370
15
  6
ByLayer
 10
8.3701566156000027
 20
-7.9016707922999974
 30
0.0
 11
8.5850005072000002
 21
-7.9016707923000027
 31
0.0
  0
LINE
  5
A3
100
AcDbEntity
100
AcDbLine
  8
CUT_SHEET_3a
 62
3
420
65280
370
15
  6
ByLayer
 10
8.5850005072000002
 20
-7.9016707923000027
 30
0.0
 11
8.5850005072000002
 21
-8.3214573104999996
 31
0.0
  0
LINE
  5
A4
100
AcDbEntity
100
AcDbLine
  8
CUT_SHEET_3a
 62
3
420
65280
370
15
  6
ByLayer
 10
8.5850005072000002
 20
-8.3214573104999996
 30
0.0
 11
8.130315420099997
 21
-8.3221354793000053
 31
0.0
  0
LINE
  5
A5
100
AcDbEntity
100
AcDbLine
  8
CUT_SHEET_3a
 62
3
420
65280
370
15
  6
ByLayer
 10
8.130315420099997
 20
-8.3221354793000053
 30
0.0
 11
7.6205901490000016
 21
-8.3221354793000035
 31
0.0
  0
LINE
  5
A6
100
AcDbEntity
100
AcDbLine
  8
CUT_SHEET_3a
 62
3
420
65280
370
15
  6
ByLayer
 10
7.6205901490000016
 20
-8.3221354793000035
 30
0.0
 11
7.6199119802000013
 21
-13.8319861180000014
 31
0.0
  0
LINE
  5
A7
100
AcDbEntity
100
AcDbLine
  8
CUT_SHEET_3a
 62
3
420
65280
370
15
  6
ByLayer
 10
7.6199119802000013
 20
-13.8319861180000014
 30
0.0
 11
7.2001118986999941
 21
-13.8319861180000032
 31
0.0
  0
LINE
  5
A8
100
AcDbEntity
100
AcDbLine
  8
CUT_SHEET_3a
 62
3
420
65280
370
15
  6
ByLayer
 10
7.2001118986999941
 20
-13.8319861180000032
 30
0.0
 11
7.2001118987000012
 21
-13.6171150994999994
 31
0.0
  0
LINE
  5
A9
100
AcDbEntity
100
AcDbLine
  8
CUT_SHEET_3a
 62
3
420
65280
370
15
  6
ByLayer
 10
7.2001118987000012
 20
-13.6171150994999994
 30
0.0
 11
7.0663498746999949
 21
-13.6171150995000048
 31
0.0
  0
LINE
  5
AA
100
AcDbEntity
100
AcDbLine
  8
CUT_SHEET_3a
 62
3
420
65280
370
15
  6
ByLayer
 10
7.0663498746999949
 20
-13.6171150995000048
 30
0.0
 11
7.0663498746999949
 21
-13.2492084984000034
 31
0.0
  0
LINE
  5
AB
100
AcDbEntity
100
AcDbLine
  8
CUT_SHEET_3a
 62
3
420
65280
370
15
  6
ByLayer
 10
7.0663498746999949
 20
-13.2492084984000034
 30
0.0
 11
7.1283073807999955
 21
-13.2492084984000016
 31
0.0
  0
LINE
  5
AC
100
AcDbEntity
100
AcDbLine
  8
CUT_SHEET_3a
 62
3
420
65280
370
15
  6
ByLayer
 10
7.1283073807999955
 20
-13.2492084984000016
 30
0.0
 11
7.1283073807999955
 21
-13.131166428400002
 31
0.0
  0
LINE
  5
AD
100
AcDbEntity
100
AcDbLine
  8
CUT_SHEET_3a
 62
3
420
65280
370
15
  6
ByLayer
 10
7.1283073807999955
 20
-13.131166428400002
 30
0.0
 11
7.066349874700002
 21
-13.1311664284000003
 31
0.0
  0
LINE
  5
AE
100
AcDbEntity
100
AcDbLine
  8
CUT_SHEET_3a
 62
3
420
65280
370
15
  6
ByLayer
 10
7.066349874700002
 20
-13.1311664284000003
 30
0.0
 11
7.066349874700002
 21
-13.0524445883000038
 31
0.0
  0
LINE
  5
AF
100
AcDbEntity
100
AcDbLine
  8
CUT_SHEET_3a
 62
3
420
65280
370
15
  6
ByLayer
 10
7.066349874700002
 20
-13.0524445883000038
 30
0.0
 11
6.9404546093999926
 21
-13.0524445883000038
 31
0.0
  0
LINE
  5
B0
100
AcDbEntity
100
AcDbLine
  8
CUT_SHEET_3a
 62
3
420
65280
370
15
  6
ByLayer
 10
6.9404546093999926
 20
-13.0524445883000038
 30
0.0
 11
6.9404546093999997
 21
-13.1311664284000003
 31
0.0
  0
LINE
  5
B1
100
AcDbEntity
100
AcDbLine
  8
CUT_SHEET_3a
 62
3
420
65280
370
15
  6
ByLayer
 10
6.9404546093999997
 20
-13.1311664284000003
 30
0.0
 11
6.8784428497000007
 21
-13.1311664284000038
 31
0.0
  0
LINE
  5
B2
100
AcDbEntity
100
AcDbLine
  8
CUT_SHEET_3a
 62
3
420
65280
370
15
  6
ByLayer
 10
6.8784428497000007
 20
-13.1311664284000038
 30
0.0
 11
6.8784428497000007
 21
-13.2492084984000016
 31
0.0
  0
LINE
  5
B3
100
AcDbEntity
100
AcDbLine
  8
CUT_SHEET_3a
 62
3
420
65280
370
15
  6
ByLayer
 10
6.8784428497000007
 20
-13.2492084984000016
 30
0.0
 11
6.9404546093999926
 21
-13.2492084984000034
 31
0.0
  0
LINE
  5
B4
100
AcDbEntity
100
AcDbLine
  8
CUT_SHEET_3a
 62
3
420
65280
370
15
  6
ByLayer
 10
6.9404546093999926
 20
-13.2492084984000034
 30
0.0
 11
6.9404546093999926
 21
-13.6171150995000048
 31
0.0
  0
LINE
  5
B5
100
AcDbEntity
100
AcDbLine
  8
CUT_SHEET_3a
 62
3
420
65280
370
15
  6
ByLayer
 10
6.9404546093999926
 20
-13.6171150995000048
 30
0.0
 11
6.806665458699996
 21
-13.6171150995000048
 31
0.0
  0
LINE
  5
B6
100
AcDbEntity
100
AcDbLine
  8
CUT_SHEET_3a
 62
3
420
65280
370
15
  6
ByLayer
 10
6.806665458699996
 20
-13.6171150995000048
 30
0.0
 11
6.8066654587000031
 21
-13.8319589912000005
 31
0.0
  0
LINE
  5
B7
100
AcDbEntity
100
AcDbLine
  8
CUT_SHEET_3a
 62
3
420
65280
370
15
  6
ByLayer
 10
6.8066654587000031
 20
-13.8319589912000005
 30
0.0
 11
6.3869060673000035
 21
-13.8319589912000005
 31
0.0
  0
LINE
  5
B8
100
AcDbEntity
100
AcDbLine
  8
CUT_SHEET_3a
 62
3
420
65280
370
15
  6
ByLayer
 10
6.3869060673000035
 20
-13.8319589912000005
 30
0.0
 11
6.3862278984000014
 21
-13.6171150995000012
 31
0.0
  0
LINE
  5
B9
100
AcDbEntity
100
AcDbLine
  8
CUT_SHEET_3a
 62
3
420
65280
370
15
  6
ByLayer
 10
6.3862278984000014
 20
-13.6171150995000012
 30
0.0
 11
1.9902289057999951
 21
-13.6171150995000012
 31
0.0
  0
LINE
  5
BA
100
AcDbEntity
100
AcDbLine
  8
CUT_SHEET_3a
 62
3
420
65280
370
15
  6
ByLayer
 10
1.9902289057999951
 20
-13.6171150995000012
 30
0.0
 11
1.989550736899993
 21
-13.8319861179999997
 31
0.0
  0
LINE
  5
BB
100
AcDbEntity
100
AcDbLine
  8
CUT_SHEET_3a
 62
3
420
65280
370
15
  6
ByLayer
 10
1.989550736899993
 20
-13.8319861179999997
 30
0.0
 11
1.5697777820999974
 21
-13.8319861179999997
 31
0.0
  0
LINE
  5
BC
100
AcDbEntity
100
AcDbLine
  8
CUT_SHEET_3a
 62
3
420
65280
370
15
  6
ByLayer
 10
1.5697777820999974
 20
-13.8319861179999997
 30
0.0
 11
1.5697777820999903
 21
-13.617115099500003
 31
0.0
  0
LINE
  5
BD
100
AcDbEntity
100
AcDbLine
  8
CUT_SHEET_3a
 62
3
420
65280
370
15
  6
ByLayer
 10
1.5697777820999903
 20
-13.617115099500003
 30
0.0
 11
1.4360021947999968
 21
-13.617115099500003
 31
0.0
  0
LINE
  5
BE
100
AcDbEntity
100
AcDbLine
  8
CUT_SHEET_3a
 62
3
420
65280
370
15
  6
ByLayer
 10
1.4360021947999968
 20
-13.617115099500003
 30
0.0
 11
1.4360021947999968
 21
-13.2492084983999998
 31
0.0
  0
LINE
  5
BF
100
AcDbEntity
100
AcDbLine
  8
CUT_SHEET_3a
 62
3
420
65280
370
15
  6
ByLayer
 10
1.4360021947999968
 20
-13.2492084983999998
 30
0.0
 11
1.497952919200003
 21
-13.2492084983999998
 31
0.0
  0
LINE
  5
C0
100
AcDbEntity
100
AcDbLine
  8
CUT_SHEET_3a
 62
3
420
65280
370
15
  6
ByLayer
 10
1.497952919200003
 20
-13.2492084983999998
 30
0.0
 11
1.497952919200003
 21
-13.1311664284000003
 31
0.0
  0
LINE
  5
C1
100
AcDbEntity
100
AcDbLine
  8
CUT_SHEET_3a
 62
3
420
65280
370
15
  6
ByLayer
 10
1.497952919200003
 20
-13.1311664284000003
 30
0.0
 11
1.4360021947999968
 21
-13.1311664284000003
 31
0.0
  0
LINE
  5
C2
100
AcDbEntity
100
AcDbLine
  8
CUT_SHEET_3a
 62
3
420
65280
370
15
  6
ByLayer
 10
1.4360021947999968
 20
-13.1311664284000003
 30
0.0
 11
1.4360021948000039
 21
-13.0524445883000002
 31
0.0
  0
LINE
  5
C3
100
AcDbEntity
100
AcDbLine
  8
CUT_SHEET_3a
 62
3
420
65280
370
15
  6
ByLayer
 10
1.4360021948000039
 20
-13.0524445883000002
 30
0.0
 11
1.3101001478000001
 21
-13.0524445883000002
 31
0.0
  0
LINE
  5
C4
100
AcDbEntity
100
AcDbLine
  8
CUT_SHEET_3a
 62
3
420
65280
370
15
  6
ByLayer
 10
1.3101001478000001
 20
-13.0524445883000002
 30
0.0
 11
1.310100147799993
 21
-13.131166428400002
 31
0.0
  0
LINE
  5
C5
100
AcDbEntity
100
AcDbLine
  8
CUT_SHEET_3a
 62
3
420
65280
370
15
  6
ByLayer
 10
1.310100147799993
 20
-13.131166428400002
 30
0.0
 11
1.2480951697999956
 21
-13.1311664284000003
 31
0.0
  0
LINE
  5
C6
100
AcDbEntity
100
AcDbLine
  8
CUT_SHEET_3a
 62
3
420
65280
370
15
  6
ByLayer
 10
1.2480951697999956
 20
-13.1311664284000003
 30
0.0
 11
1.2480951697999956
 21
-13.2492084984000016
 31
0.0
  0
LINE
  5
C7
100
AcDbEntity
100
AcDbLine
  8
CUT_SHEET_3a
 62
3
420
65280
370
15
  6
ByLayer
 10
1.2480951697999956
 20
-13.2492084984000016
 30
0.0
 11
1.3101001478000001
 21
-13.2492084983999998
 31
0.0
  0
LINE
  5
C8
100
AcDbEntity
100
AcDbLine
  8
CUT_SHEET_3a
 62
3
420
65280
370
15
  6
ByLayer
 10
1.3101001478000001
 20
-13.2492084983999998
 30
0.0
 11
1.3101001478000072
 21
-13.6171150995000012
 31
0.0
  0
LINE
  5
C9
100
AcDbEntity
100
AcDbLine
  8
CUT_SHEET_3a
 62
3
420
65280
370
15
  6
ByLayer
 10
1.3101001478000072
 20
-13.6171150995000012
 30
0.0
 11
1.1763109970999963
 21
-13.6171150995000012
 31
0.0
  0
LINE
  5
CA
100
AcDbEntity
100
AcDbLine
  8
CUT_SHEET_3a
 62
3
420
65280
370
15
  6
ByLayer
 10
1.1763109970999963
 20
-13.6171150995000012
 30
0.0
 11
1.1763109970999963
 21
-13.8319589912000005
 31
0.0
  0
LINE
  5
CB
100
AcDbEntity
100
AcDbLine
  8
CUT_SHEET_3a
 62
3
420
65280
370
15
  6
ByLayer
 10
1.1763109970999963
 20
-13.8319589912000005
 30
0.0
 11
0.7565516057000039
 21
-13.8319589912000005
 31
0.0
  0
LINE
  5
CC
100
AcDbEntity
100
AcDbLine
  8
CUT_SHEET_3a
 62
3
420
65280
370
15
  6
ByLayer
 10
0.7565516057000039
 20
-13.8319589912000005
 30
0.0
 11
0.7558734368000017
 21
-8.3221354793
 31
0.0
  0
LINE
  5
CD
100
AcDbEntity
100
AcDbLine
  8
CUT_SHEET_3a
 62
3
420
65280
370
15
  6
ByLayer
 10
0.7558734368000017
 20
-8.3221354793
 30
0.0
 11
0.2461278206999964
 21
-8.3221354793000017
 31
0.0
  0
LINE
  5
CE
100
AcDbEntity
100
AcDbLine
  8
CUT_SHEET_3a
 62
3
420
65280
370
15
  6
ByLayer
 10
0.2461278206999964
 20
-8.3221354793000017
 30
0.0
 11
-0.2085708297999957
 21
-8.3214573105000014
 31
0.0
  0
LINE
  5
CF
100
AcDbEntity
100
AcDbLine
  8
CUT_SHEET_3a
 62
3
420
65280
370
15
  6
ByLayer
 10
-0.2085708297999957
 20
-8.3214573105000014
 30
0.0
 11
-0.2085708298000029
 21
-7.9016707923
 31
0.0
  0
LINE
  5
D0
100
AcDbEntity
100
AcDbLine
  8
CUT_SHEET_3a
 62
3
420
65280
370
15
  6
ByLayer
 10
-0.2085708298000029
 20
-7.9016707923
 30
0.0
 11
0.0062730619000035
 21
-7.9016707923
 31
0.0
  0
LINE
  5
D1
100
AcDbEntity
100
AcDbLine
  8
CUT_SHEET_3a
 62
3
420
65280
370
15
  6
ByLayer
 10
0.0062730619000035
 20
-7.9016707923
 30
0.0
 11
0.0062730619000035
 21
-7.7678816416000016
 31
0.0
  0
LINE
  5
D2
100
AcDbEntity
100
AcDbLine
  8
CUT_SHEET_3a
 62
3
420
65280
370
15
  6
ByLayer
 10
0.0062730619000035
 20
-7.7678816416000016
 30
0.0
 11
0.3741728812999909
 21
-7.7678816416000016
 31
0.0
  0
LINE
  5
D3
100
AcDbEntity
100
AcDbLine
  8
CUT_SHEET_3a
 62
3
420
65280
370
15
  6
ByLayer
 10
0.3741728812999909
 20
-7.7678816416000016
 30
0.0
 11
0.374172881299998
 21
-7.829879837900001
 31
0.0
  0
LINE
  5
D4
100
AcDbEntity
100
AcDbLine
  8
CUT_SHEET_3a
 62
3
420
65280
370
15
  6
ByLayer
 10
0.374172881299998
 20
-7.829879837900001
 30
0.0
 11
0.4922217330000009
 21
-7.8298798379000001
 31
0.0
  0
LINE
  5
D5
100
AcDbEntity
100
AcDbLine
  8
CUT_SHEET_3a
 62
3
420
65280
370
15
  6
ByLayer
 10
0.4922217330000009
 20
-7.8298798379000001
 30
0.0
 11
0.4922217329999938
 21
-7.7678816416000016
 31
0.0
  0
LINE
  5
D6
100
AcDbEntity
100
AcDbLine
  8
CUT_SHEET_3a
 62
3
420
65280
370
15
  6
ByLayer
 10
0.4922217329999938
 20
-7.7678816416000016
 30
0.0
 11
0.5709435731000028
 21
-7.7678816416000007
 31
0.0
  0
LINE
  5
D7
100
AcDbEntity
100
AcDbLine
  8
CUT_SHEET_3a
 62
3
420
65280
370
15
  6
ByLayer
 10
0.5709435731000028
 20
-7.7678816416000007
 30
0.0
 11
0.5709435731000028
 21
-7.6419728129000015
 31
0.0
  0
LINE
  5
D8
100
AcDbEntity
100
AcDbLine
  8
CUT_SHEET_3a
 62
3
420
65280
370
15
  6
ByLayer
 10
0.5709435731000028
 20
-7.6419728129000015
 30
0.0
 11
0.4922217330000009
 21
-7.6419728129000006
 31
0.0
  0
LINE
  5
D9
100
AcDbEntity
100
AcDbLine
  8
CUT_SHEET_3a
 62
3
420
65280
370
15
  6
ByLayer
 10
0.4922217330000009
 20
-7.6419728129000006
 30
0.0
 11
0.4922217329999938
 21
-7.5800288701000014
 31
0.0
  0
LINE
  5
DA
100
AcDbEntity
100
AcDbLine
  8
CUT_SHEET_3a
 62
3
420
65280
370
15
  6
ByLayer
 10
0.4922217329999938
 20
-7.5800288701000014
 30
0.0
 11
0.374172881299998
 21
-7.5800288701000005
 31
0.0
  0
LINE
  5
DB
100
AcDbEntity
100
AcDbLine
  8
CUT_SHEET_3a
 62
3
420
65280
370
15
  6
ByLayer
 10
0.374172881299998
 20
-7.5800288701000005
 30
0.0
 11
0.3741728812999909
 21
-7.6419728129000006
 31
0.0
  0
LINE
  5
DC
100
AcDbEntity
100
AcDbLine
  8
CUT_SHEET_3a
 62
3
420
65280
370
15
  6
ByLayer
 10
0.3741728812999909
 20
-7.6419728129000006
 30
0.0
 11
0.0062730619000035
 21
-7.6419728129000006
 31
0.0
  0
LINE
  5
DD
100
AcDbEntity
100
AcDbLine
  8
CUT_SHEET_3a
 62
3
420
65280
370
15
  6
ByLayer
 10
0.0062730619000035
 20
-7.6419728129000006
 30
0.0
 11
0.0062730619000035
 21
-7.5082107888999996
 31
0.0
  0
LINE
  5
DE
100
AcDbEntity
100
AcDbLine
  8
CUT_SHEET_3a
 62
3
420
65280
370
15
  6
ByLayer
 10
0.0062730619000035
 20
-7.5082107888999996
 30
0.0
 11
-0.208597956600002
 21
-7.5082107888999978
 31
0.0
  0
LINE
  5
DF
100
AcDbEntity
100
AcDbLine
  8
CUT_SHEET_3a
 62
3
420
65280
370
15
  6
ByLayer
 10
-0.208597956600002
 20
-7.5082107888999978
 30
0.0
 11
-0.208597956600002
 21
-7.0884513974999983
 31
0.0
  0
LINE
  5
E0
100
AcDbEntity
100
AcDbLine
  8
CUT_SHEET_3a
 62
3
420
65280
370
15
  6
ByLayer
 10
-0.208597956600002
 20
-7.0884513974999983
 30
0.0
 11
0.0062730619000035
 21
-7.0877732287000015
 31
0.0
  0
LINE
  5
E1
100
AcDbEntity
100
AcDbLine
  8
CUT_SHEET_3a
 62
3
420
65280
370
15
  6
ByLayer
 10
0.0062730619000035
 20
-7.0877732287000015
 30
0.0
 11
0.0063001886000009
 21
-3.9299477956000004
 31
0.0
  0
LINE
  5
E2
100
AcDbEntity
100
AcDbLine
  8
CUT_SHEET_3a
 62
3
420
65280
370
15
  6
ByLayer
 10
0.0063001886000009
 20
-3.9299477956000004
 30
0.0
 11
-0.208597956600002
 21
-3.9292696267
 31
0.0
  0
LINE
  5
E3
100
AcDbEntity
100
AcDbLine
  8
CUT_SHEET_3a
 62
3
420
65280
370
15
  6
ByLayer
 10
-0.208597956600002
 20
-3.9292696267
 30
0.0
 11
-0.208597956600002
 21
-3.5094966720000009
 31
0.0
  0
LINE
  5
E4
100
AcDbEntity
100
AcDbLine
  8
CUT_SHEET_3a
 62
3
420
65280
370
15
  6
ByLayer
 10
-0.208597956600002
 20
-3.5094966720000009
 30
0.0
 11
0.0063001886000009
 21
-3.5094966720000009
 31
0.0
  0
LINE
  5
E5
100
AcDbEntity
100
AcDbLine
  8
CUT_SHEET_3a
 62
3
420
65280
370
15
  6
ByLayer
 10
0.0063001886000009
 20
-3.5094966720000009
 30
0.0
 11
0.0063001886000009
 21
-3.3757346479999999
 31
0.0
  0
LINE
  5
E6
100
AcDbEntity
100
AcDbLine
  8
CUT_SHEET_3a
 62
3
420
65280
370
15
  6
ByLayer
 10
0.0063001886000009
 20
-3.3757346479999999
 30
0.0
 11
0.3742000080000025
 21
-3.3757346479999999
 31
0.0
  0
LINE
  5
E7
100
AcDbEntity
100
AcDbLine
  8
CUT_SHEET_3a
 62
3
420
65280
370
15
  6
ByLayer
 10
0.3742000080000025
 20
-3.3757346479999999
 30
0.0
 11
0.3742000080000025
 21
-3.4376785908000009
 31
0.0
  0
LINE
  5
E8
100
AcDbEntity
100
AcDbLine
  8
CUT_SHEET_3a
 62
3
420
65280
370
15
  6
ByLayer
 10
0.3742000080000025
 20
-3.4376785908000009
 30
0.0
 11
0.4922488598000001
 21
-3.4376785908000009
 31
0.0
  0
LINE
  5
E9
100
AcDbEntity
100
AcDbLine
  8
CUT_SHEET_3a
 62
3
420
65280
370
15
  6
ByLayer
 10
0.4922488598000001
 20
-3.4376785908000009
 30
0.0
 11
0.4922488598000001
 21
-3.3757346479999999
 31
0.0
  0
LINE
  5
EA
100
AcDbEntity
100
AcDbLine
  8
CUT_SHEET_3a
 62
3
420
65280
370
15
  6
ByLayer
 10
0.4922488598000001
 20
-3.3757346479999999
 30
0.0
 11
0.5709706999000019
 21
-3.3757346479999999
 31
0.0
  0
LINE
  5
EB
100
AcDbEntity
100
AcDbLine
  8
CUT_SHEET_3a
 62
3
420
65280
370
15
  6
ByLayer
 10
0.5709706999000019
 20
-3.3757346479999999
 30
0.0
 11
0.5709706999000019
 21
-3.2498258192999998
 31
0.0
  0
LINE
  5
EC
100
AcDbEntity
100
AcDbLine
  8
CUT_SHEET_3a
 62
3
420
65280
370
15
  6
ByLayer
 10
0.5709706999000019
 20
-3.2498258192999998
 30
0.0
 11
0.4922488598000001
 21
-3.2498258192999998
 31
0.0
  0
LINE
  5
ED
100
AcDbEntity
100
AcDbLine
  8
CUT_SHEET_3a
 62
3
420
65280
370
15
  6
ByLayer
 10
0.4922488598000001
 20
-3.2498258192999998
 30
0.0
 11
0.4922488598000001
 21
-3.1878276230000004
 31
0.0
  0
LINE
  5
EE
100
AcDbEntity
100
AcDbLine
  8
CUT_SHEET_3a
 62
3
420
65280
370
15
  6
ByLayer
 10
0.4922488598000001
 20
-3.1878276230000004
 30
0.0
 11
0.3742000080000025
 21
-3.1878276230000004
 31
0.0
  0
LINE
  5
EF
100
AcDbEntity
100
AcDbLine
  8
CUT_SHEET_3a
 62
3
420
65280
370
15
  6
ByLayer
 10
0.3742000080000025
 20
-3.1878276230000004
 30
0.0
 11
0.3742000080000025
 21
-3.2498258192999998
 31
0.0
  0
LINE
  5
F0
100
AcDbEntity
100
AcDbLine
  8
CUT_SHEET_3a
 62
3
420
65280
370
15
  6
ByLayer
 10
0.3742000080000025
 20
-3.2498258192999998
 30
0.0
 11
0.0063001886000009
 21
-3.2498258192999998
 31
0.0
  0
LINE
  5
F1
100
AcDbEntity
100
AcDbLine
  8
CUT_SHEET_3a
 62
3
420
65280
370
15
  6
ByLayer
 10
0.0063001886000009
 20
-3.2498258192999998
 30
0.0
 11
0.0063001886000009
 21
-3.1160366685999996
 31
0.0
  0
LINE
  5
F2
100
AcDbEntity
100
AcDbLine
  8
CUT_SHEET_3a
 62
3
420
65280
370
15
  6
ByLayer
 10
0.0063001886000009
 20
-3.1160366685999996
 30
0.0
 11
-0.2085708298000029
 21
-3.1160366685999996
 31
0.0
  0
LINE
  5
F3
100
AcDbEntity
100
AcDbLine
  8
CUT_SHEET_3a
 62
3
420
65280
370
15
  6
ByLayer
 10
-0.2085708298000029
 20
-3.1160366685999996
 30
0.0
 11
-0.2085708298000029
 21
-2.6962637138000005
 31
0.0
  0
LINE
  5
F4
100
AcDbEntity
100
AcDbLine
  8
CUT_SHEET_3a
 62
3
420
65280
370
15
  6
ByLayer
 10
-0.2085708298000029
 20
-2.6962637138000005
 30
0.0
 11
0.0
 21
-2.6962094603000004
 31
0.0
  0
LINE
  5
F5
100
AcDbEntity
100
AcDbLine
  8
CUT_SHEET_3a
 62
3
420
65280
370
15
  6
ByLayer
 10
0.0
 20
-2.6962094603000004
 30
0.0
 11
0.0
 21
0.0
 31
0.0
  0
LINE
  5
F6
100
AcDbEntity
100
AcDbLine
  8
CUT_SHEET_3a
 62
7
420
0
370
15
  6
ByLayer
 10
4.6718441724000002
 20
-4.0653645516000019
 30
0.0
 11
4.6718441724000002
 21
-4.3881593607999996
 31
0.0
  0
LINE
  5
F7
100
AcDbEntity
100
AcDbLine
  8
CUT_SHEET_3a
 62
7
420
0
370
15
  6
ByLayer
 10
4.6718441724000002
 20
-4.3881593607999996
 30
0.0
 11
4.7364465369999991
 21
-4.4526125283000013
 31
0.0
  0
LINE
  5
F8
100
AcDbEntity
100
AcDbLine
  8
CUT_SHEET_3a
 62
7
420
0
370
15
  6
ByLayer
 10
4.2845894140000027
 20
-4.3235434327000029
 30
0.0
 11
4.4781998389999984
 21
-4.3235434327000029
 31
0.0
  0
LINE
  5
F9
100
AcDbEntity
100
AcDbLine
  8
CUT_SHEET_3a
 62
7
420
0
370
15
  6
ByLayer
 10
4.4781998389999984
 20
-4.3235434327000029
 30
0.0
 11
4.5427615135000039
 21
-4.2589410681000004
 31
0.0
  0
LINE
  5
FA
100
AcDbEntity
100
AcDbLine
  8
CUT_SHEET_3a
 62
7
420
0
370
15
  6
ByLayer
 10
4.5427615135000039
 20
-4.2589410681000004
 30
0.0
 11
4.4781998389999984
 21
-4.1944472105000017
 31
0.0
  0
LINE
  5
FB
100
AcDbEntity
100
AcDbLine
  8
CUT_SHEET_3a
 62
7
420
0
370
15
  6
ByLayer
 10
4.4781998389999984
 20
-4.1944472105000017
 30
0.0
 11
4.3491171801000021
 21
-4.1944472105000035
 31
0.0
  0
LINE
  5
FC
100
AcDbEntity
100
AcDbLine
  8
CUT_SHEET_3a
 62
7
420
0
370
15
  6
ByLayer
 10
4.3491171801000021
 20
-4.1944472105000035
 30
0.0
 11
4.2845894140000027
 21
-4.2589410681000004
 31
0.0
  0
LINE
  5
FD
100
AcDbEntity
100
AcDbLine
  8
CUT_SHEET_3a
 62
7
420
0
370
15
  6
ByLayer
 10
4.2845894140000027
 20
-4.2589410681000004
 30
0.0
 11
4.2845894140000027
 21
-4.3881457974000035
 31
0.0
  0
LINE
  5
FE
100
AcDbEntity
100
AcDbLine
  8
CUT_SHEET_3a
 62
7
420
0
370
15
  6
ByLayer
 10
4.2845894140000027
 20
-4.3881457974000035
 30
0.0
 11
4.3491171801000021
 21
-4.4526260917000009
 31
0.0
  0
LINE
  5
FF
100
AcDbEntity
100
AcDbLine
  8
CUT_SHEET_3a
 62
7
420
0
370
15
  6
ByLayer
 10
4.3491171801000021
 20
-4.4526260917000009
 30
0.0
 11
4.4781998389999984
 21
-4.4526260917000027
 31
0.0
  0
LINE
  5
100
100
AcDbEntity
100
AcDbLine
  8
CUT_SHEET_3a
 62
7
420
0
370
15
  6
ByLayer
 10
3.8973278739000037
 20
-4.3235434327000029
 30
0.0
 11
4.0264037510999984
 21
-4.1944472105000017
 31
0.0
  0
LINE
  5
101
100
AcDbEntity
100
AcDbLine
  8
CUT_SHEET_3a
 62
7
420
0
370
15
  6
ByLayer
 10
4.0264037510999984
 20
-4.1944472105000017
 30
0.0
 11
4.0909586439000023
 21
-4.1944472105000017
 31
0.0
  0
LINE
  5
102
100
AcDbEntity
100
AcDbLine
  8
CUT_SHEET_3a
 62
7
420
0
370
15
  6
ByLayer
 10
4.0909586439000023
 20
-4.1944472105000017
 30
0.0
 11
4.1554999734000049
 21
-4.2589410681000039
 31
0.0
  0
LINE
  5
103
100
AcDbEntity
100
AcDbLine
  8
CUT_SHEET_3a
 62
7
420
0
370
15
  6
ByLayer
 10
4.1554999734000049
 20
-4.2589410681000039
 30
0.0
 11
4.1554999734000049
 21
-4.4526260917000009
 31
0.0
  0
LINE
  5
104
100
AcDbEntity
100
AcDbLine
  8
CUT_SHEET_3a
 62
7
420
0
370
15
  6
ByLayer
 10
3.8973278739000037
 20
-4.4526260917000045
 30
0.0
 11
3.8973278739000037
 21
-4.1944472104999999
 31
0.0
  0
LINE
  5
105
100
AcDbEntity
100
AcDbLine
  8
CUT_SHEET_3a
 62
7
420
0
370
15
  6
ByLayer
 10
3.7036971038000033
 20
-4.3881457974
 30
0.0
 11
3.7682316515999972
 21
-4.4526260916999991
 31
0.0
  0
LINE
  5
106
100
AcDbEntity
100
AcDbLine
  8
CUT_SHEET_3a
 62
7
420
0
370
15
  6
ByLayer
 10
3.6391557744000025
 20
-4.4526260917000027
 30
0.0
 11
3.5746008814999968
 21
-4.4526260917000009
 31
0.0
  0
LINE
  5
107
100
AcDbEntity
100
AcDbLine
  8
CUT_SHEET_3a
 62
7
420
0
370
15
  6
ByLayer
 10
3.5746008814999968
 20
-4.4526260917000009
 30
0.0
 11
3.5100595521000031
 21
-4.3881457974
 31
0.0
  0
LINE
  5
108
100
AcDbEntity
100
AcDbLine
  8
CUT_SHEET_3a
 62
7
420
0
370
15
  6
ByLayer
 10
3.5100595521000031
 20
-4.3881457974
 30
0.0
 11
3.5100595521000031
 21
-4.2589410681000022
 31
0.0
  0
LINE
  5
109
100
AcDbEntity
100
AcDbLine
  8
CUT_SHEET_3a
 62
7
420
0
370
15
  6
ByLayer
 10
3.5100595521000031
 20
-4.2589410681000022
 30
0.0
 11
3.5746008814999968
 21
-4.1944472104999981
 31
0.0
  0
LINE
  5
10A
100
AcDbEntity
100
AcDbLine
  8
CUT_SHEET_3a
 62
7
420
0
370
15
  6
ByLayer
 10
3.5746008814999968
 20
-4.1944472104999981
 30
0.0
 11
3.6391557744000025
 21
-4.1944472104999981
 31
0.0
  0
LINE
  5
10B
100
AcDbEntity
100
AcDbLine
  8
CUT_SHEET_3a
 62
7
420
0
370
15
  6
ByLayer
 10
3.6391557744000025
 20
-4.1944472104999981
 30
0.0
 11
3.7036971038000033
 21
-4.2589410681000022
 31
0.0
  0
LINE
  5
10C
100
AcDbEntity
100
AcDbLine
  8
CUT_SHEET_3a
 62
7
420
0
370
15
  6
ByLayer
 10
3.7036971038000033
 20
-4.2589410681000022
 30
0.0
 11
3.7036971038000033
 21
-4.3881457974
 31
0.0
  0
LINE
  5
10D
100
AcDbEntity
100
AcDbLine
  8
CUT_SHEET_3a
 62
7
420
0
370
15
  6
ByLayer
 10
3.7036971038000033
 20
-4.3881457974
 30
0.0
 11
3.6391557744000025
 21
-4.4526260917000027
 31
0.0
  0
LINE
  5
10E
100
AcDbEntity
100
AcDbLine
  8
CUT_SHEET_3a
 62
7
420
0
370
15
  6
ByLayer
 10
3.1550449408000034
 20
-4.2589410681000004
 30
0.0
 11
3.2195727069000029
 21
-4.1944472105000017
 31
0.0
  0
LINE
  5
10F
100
AcDbEntity
100
AcDbLine
  8
CUT_SHEET_3a
 62
7
420
0
370
15
  6
ByLayer
 10
3.2195727069000029
 20
-4.1944472105000017
 30
0.0
 11
3.3486689292000023
 21
-4.1944472104999981
 31
0.0
  0
LINE
  5
110
100
AcDbEntity
100
AcDbLine
  8
CUT_SHEET_3a
 62
7
420
0
370
15
  6
ByLayer
 10
3.3486689292000023
 20
-4.1944472104999981
 30
0.0
 11
3.4132170403000046
 21
-4.2589410681000022
 31
0.0
  0
LINE
  5
111
100
AcDbEntity
100
AcDbLine
  8
CUT_SHEET_3a
 62
7
420
0
370
15
  6
ByLayer
 10
3.4132170403000046
 20
-4.2589410681000022
 30
0.0
 11
3.4132170403000046
 21
-4.3881593607999996
 31
0.0
  0
LINE
  5
112
100
AcDbEntity
100
AcDbLine
  8
CUT_SHEET_3a
 62
7
420
0
370
15
  6
ByLayer
 10
3.4132170403000046
 20
-4.3881593607999996
 30
0.0
 11
3.3486689292000023
 21
-4.4526125283000031
 31
0.0
  0
LINE
  5
113
100
AcDbEntity
100
AcDbLine
  8
CUT_SHEET_3a
 62
7
420
0
370
15
  6
ByLayer
 10
3.3486689292000023
 20
-4.4526125283000031
 30
0.0
 11
3.1550449408000034
 21
-4.4526125283000031
 31
0.0
  0
LINE
  5
114
100
AcDbEntity
100
AcDbLine
  8
CUT_SHEET_3a
 62
7
420
0
370
15
  6
ByLayer
 10
3.1550449408000034
 20
-4.5817223139000021
 30
0.0
 11
3.1550449408000034
 21
-4.1944607738000013
 31
0.0
  0
LINE
  5
115
100
AcDbEntity
100
AcDbLine
  8
CUT_SHEET_3a
 62
7
420
0
370
15
  6
ByLayer
 10
6.6405140904000035
 20
-3.4520964605
 30
0.0
 11
6.6405140904000035
 21
-3.774891269700003
 31
0.0
  0
LINE
  5
116
100
AcDbEntity
100
AcDbLine
  8
CUT_SHEET_3a
 62
7
420
0
370
15
  6
ByLayer
 10
6.6405140904000035
 20
-3.774891269700003
 30
0.0
 11
6.7050486381999974
 21
-3.8394936344000055
 31
0.0
  0
LINE
  5
117
100
AcDbEntity
100
AcDbLine
  8
CUT_SHEET_3a
 62
7
420
0
370
15
  6
ByLayer
 10
6.7050486381999974
 20
-3.8394936344000055
 30
0.0
 11
6.7695967492999998
 21
-3.7748912697000012
 31
0.0
  0
LINE
  5
118
100
AcDbEntity
100
AcDbLine
  8
CUT_SHEET_3a
 62
7
420
0
370
15
  6
ByLayer
 10
6.5114178681000041
 20
-3.5813283166000023
 30
0.0
 11
6.7695967492999998
 21
-3.5813283165999987
 31
0.0
  0
LINE
  5
119
100
AcDbEntity
100
AcDbLine
  8
CUT_SHEET_3a
 62
7
420
0
370
15
  6
ByLayer
 10
6.1564100384999989
 20
-3.7104109755000021
 30
0.0
 11
6.2532389869000014
 21
-3.5813283166000023
 31
0.0
  0
LINE
  5
11A
100
AcDbEntity
100
AcDbLine
  8
CUT_SHEET_3a
 62
7
420
0
370
15
  6
ByLayer
 10
6.2532389869000014
 20
-3.5813283166000023
 30
0.0
 11
6.3178006615000015
 21
-3.5813283166000005
 31
0.0
  0
LINE
  5
11B
100
AcDbEntity
100
AcDbLine
  8
CUT_SHEET_3a
 62
7
420
0
370
15
  6
ByLayer
 10
6.3178006615000015
 20
-3.5813283166000005
 30
0.0
 11
6.3823352092000007
 21
-3.6458086107999996
 31
0.0
  0
LINE
  5
11C
100
AcDbEntity
100
AcDbLine
  8
CUT_SHEET_3a
 62
7
420
0
370
15
  6
ByLayer
 10
6.3823352092000007
 20
-3.6458086107999996
 30
0.0
 11
6.3823352092000007
 21
-3.8394936344000001
 31
0.0
  0
LINE
  5
11D
100
AcDbEntity
100
AcDbLine
  8
CUT_SHEET_3a
 62
7
420
0
370
15
  6
ByLayer
 10
6.1564100384999989
 20
-3.8394936344000001
 30
0.0
 11
6.1564100384999989
 21
-3.5813283166000005
 31
0.0
  0
LINE
  5
11E
100
AcDbEntity
100
AcDbLine
  8
CUT_SHEET_3a
 62
7
420
0
370
15
  6
ByLayer
 10
5.7691349350999985
 20
-3.7104109754999985
 30
0.0
 11
5.9627657050999971
 21
-3.7104109755000021
 31
0.0
  0
LINE
  5
11F
100
AcDbEntity
100
AcDbLine
  8
CUT_SHEET_3a
 62
7
420
0
370
15
  6
ByLayer
 10
5.9627657050999971
 20
-3.7104109755000021
 30
0.0
 11
6.0273138161999995
 21
-3.6458086107999996
 31
0.0
  0
LINE
  5
120
100
AcDbEntity
100
AcDbLine
  8
CUT_SHEET_3a
 62
7
420
0
370
15
  6
ByLayer
 10
6.0273138161999995
 20
-3.6458086107999996
 30
0.0
 11
5.9627657050999971
 21
-3.5813283166000005
 31
0.0
  0
LINE
  5
121
100
AcDbEntity
100
AcDbLine
  8
CUT_SHEET_3a
 62
7
420
0
370
15
  6
ByLayer
 10
5.9627657050999971
 20
-3.5813283166000005
 30
0.0
 11
5.833696609600004
 21
-3.5813283166000005
 31
0.0
  0
LINE
  5
122
100
AcDbEntity
100
AcDbLine
  8
CUT_SHEET_3a
 62
7
420
0
370
15
  6
ByLayer
 10
5.833696609600004
 20
-3.5813283166000005
 30
0.0
 11
5.7691349350999985
 21
-3.6458086107999996
 31
0.0
  0
LINE
  5
123
100
AcDbEntity
100
AcDbLine
  8
CUT_SHEET_3a
 62
7
420
0
370
15
  6
ByLayer
 10
5.7691349350999985
 20
-3.6458086107999996
 30
0.0
 11
5.7691349350999985
 21
-3.774891269700003
 31
0.0
  0
LINE
  5
124
100
AcDbEntity
100
AcDbLine
  8
CUT_SHEET_3a
 62
7
420
0
370
15
  6
ByLayer
 10
5.7691349350999985
 20
-3.774891269700003
 30
0.0
 11
5.833696609600004
 21
-3.8394936344000001
 31
0.0
  0
LINE
  5
125
100
AcDbEntity
100
AcDbLine
  8
CUT_SHEET_3a
 62
7
420
0
370
15
  6
ByLayer
 10
5.833696609600004
 20
-3.8394936344000001
 30
0.0
 11
5.9627657050999971
 21
-3.8394936344000037
 31
0.0
  0
LINE
  5
126
100
AcDbEntity
100
AcDbLine
  8
CUT_SHEET_3a
 62
7
420
0
370
15
  6
ByLayer
 10
5.5109696171999971
 20
-3.6458086108000014
 30
0.0
 11
5.5755041649999981
 21
-3.5813147531999991
 31
0.0
  0
LINE
  5
127
100
AcDbEntity
100
AcDbLine
  8
CUT_SHEET_3a
 62
7
420
0
370
15
  6
ByLayer
 10
5.5755041649999981
 20
-3.5813147531999991
 30
0.0
 11
5.6400658395000036
 21
-3.6458086108000032
 31
0.0
  0
LINE
  5
128
100
AcDbEntity
100
AcDbLine
  8
CUT_SHEET_3a
 62
7
420
0
370
15
  6
ByLayer
 10
5.6400658395000036
 20
-3.6458086108000032
 30
0.0
 11
5.6400658395000036
 21
-3.8394936344000001
 31
0.0
  0
LINE
  5
129
100
AcDbEntity
100
AcDbLine
  8
CUT_SHEET_3a
 62
7
420
0
370
15
  6
ByLayer
 10
5.3818869583000009
 20
-3.6458086107999996
 30
0.0
 11
5.4464147244000003
 21
-3.5813147532000045
 31
0.0
  0
LINE
  5
12A
100
AcDbEntity
100
AcDbLine
  8
CUT_SHEET_3a
 62
7
420
0
370
15
  6
ByLayer
 10
5.4464147244000003
 20
-3.5813147532000045
 30
0.0
 11
5.5109696171999971
 21
-3.6458086108000014
 31
0.0
  0
LINE
  5
12B
100
AcDbEntity
100
AcDbLine
  8
CUT_SHEET_3a
 62
7
420
0
370
15
  6
ByLayer
 10
5.5109696171999971
 20
-3.6458086108000014
 30
0.0
 11
5.5109696171999971
 21
-3.7104109754999985
 31
0.0
  0
LINE
  5
12C
100
AcDbEntity
100
AcDbLine
  8
CUT_SHEET_3a
 62
7
420
0
370
15
  6
ByLayer
 10
5.3818869583000009
 20
-3.8394936344000037
 30
0.0
 11
5.3818869583000009
 21
-3.5813283166000023
 31
0.0
  0
LINE
  5
12D
100
AcDbEntity
100
AcDbLine
  8
CUT_SHEET_3a
 62
7
420
0
370
15
  6
ByLayer
 10
4.9946118549000005
 20
-3.7104109755000039
 30
0.0
 11
5.1882561883000022
 21
-3.7104109755000003
 31
0.0
  0
LINE
  5
12E
100
AcDbEntity
100
AcDbLine
  8
CUT_SHEET_3a
 62
7
420
0
370
15
  6
ByLayer
 10
5.1882561883000022
 20
-3.7104109755000003
 30
0.0
 11
5.2528042994000046
 21
-3.6458086108000014
 31
0.0
  0
LINE
  5
12F
100
AcDbEntity
100
AcDbLine
  8
CUT_SHEET_3a
 62
7
420
0
370
15
  6
ByLayer
 10
5.2528042994000046
 20
-3.6458086108000014
 30
0.0
 11
5.1882561883000022
 21
-3.581328316599997
 31
0.0
  0
LINE
  5
130
100
AcDbEntity
100
AcDbLine
  8
CUT_SHEET_3a
 62
7
420
0
370
15
  6
ByLayer
 10
5.1882561883000022
 20
-3.581328316599997
 30
0.0
 11
5.0591599660000028
 21
-3.5813283166000023
 31
0.0
  0
LINE
  5
131
100
AcDbEntity
100
AcDbLine
  8
CUT_SHEET_3a
 62
7
420
0
370
15
  6
ByLayer
 10
5.0591599660000028
 20
-3.5813283166000023
 30
0.0
 11
4.9946118549000005
 21
-3.6458086108000032
 31
0.0
  0
LINE
  5
132
100
AcDbEntity
100
AcDbLine
  8
CUT_SHEET_3a
 62
7
420
0
370
15
  6
ByLayer
 10
4.9946118549000005
 20
-3.6458086108000032
 30
0.0
 11
4.9946118549000005
 21
-3.7748912697000012
 31
0.0
  0
LINE
  5
133
100
AcDbEntity
100
AcDbLine
  8
CUT_SHEET_3a
 62
7
420
0
370
15
  6
ByLayer
 10
4.9946118549000005
 20
-3.7748912697000012
 30
0.0
 11
5.0591599660000028
 21
-3.8394936343999984
 31
0.0
  0
LINE
  5
134
100
AcDbEntity
100
AcDbLine
  8
CUT_SHEET_3a
 62
7
420
0
370
15
  6
ByLayer
 10
5.0591599660000028
 20
-3.8394936343999984
 30
0.0
 11
5.1882561883000022
 21
-3.8394936344000001
 31
0.0
  0
LINE
  5
135
100
AcDbEntity
100
AcDbLine
  8
CUT_SHEET_3a
 62
7
420
0
370
15
  6
ByLayer
 10
4.8655427592999985
 20
-3.5813283166000005
 30
0.0
 11
4.7041453547000032
 21
-3.5813283166000005
 31
0.0
  0
LINE
  5
136
100
AcDbEntity
100
AcDbLine
  8
CUT_SHEET_3a
 62
7
420
0
370
15
  6
ByLayer
 10
4.7041453547000032
 20
-3.5813283166000005
 30
0.0
 11
4.6396040253000024
 21
-3.6458086108000014
 31
0.0
  0
LINE
  5
137
100
AcDbEntity
100
AcDbLine
  8
CUT_SHEET_3a
 62
7
420
0
370
15
  6
ByLayer
 10
4.6396040253000024
 20
-3.6458086108000014
 30
0.0
 11
4.6396040253000024
 21
-3.7748777063000016
 31
0.0
  0
LINE
  5
138
100
AcDbEntity
100
AcDbLine
  8
CUT_SHEET_3a
 62
7
420
0
370
15
  6
ByLayer
 10
4.6396040253000024
 20
-3.7748777063000016
 30
0.0
 11
4.7041453547000032
 21
-3.8394936344000001
 31
0.0
  0
LINE
  5
139
100
AcDbEntity
100
AcDbLine
  8
CUT_SHEET_3a
 62
7
420
0
370
15
  6
ByLayer
 10
4.7041453547000032
 20
-3.8394936344000001
 30
0.0
 11
4.8655427592999985
 21
-3.8394936344000001
 31
0.0
  0
LINE
  5
13A
100
AcDbEntity
100
AcDbLine
  8
CUT_SHEET_3a
 62
7
420
0
370
15
  6
ByLayer
 10
4.2523424851999962
 20
-3.7104109755000021
 30
0.0
 11
4.381438707400001
 21
-3.5813283166000005
 31
0.0
  0
LINE
  5
13B
100
AcDbEntity
100
AcDbLine
  8
CUT_SHEET_3a
 62
7
420
0
370
15
  6
ByLayer
 10
4.381438707400001
 20
-3.5813283166000005
 30
0.0
 11
4.445973255200002
 21
-3.5813283166000023
 31
0.0
  0
LINE
  5
13C
100
AcDbEntity
100
AcDbLine
  8
CUT_SHEET_3a
 62
7
420
0
370
15
  6
ByLayer
 10
4.445973255200002
 20
-3.5813283166000023
 30
0.0
 11
4.5105145846999974
 21
-3.6458086108000014
 31
0.0
  0
LINE
  5
13D
100
AcDbEntity
100
AcDbLine
  8
CUT_SHEET_3a
 62
7
420
0
370
15
  6
ByLayer
 10
4.2523424851999962
 20
-3.8394936344000001
 30
0.0
 11
4.2523424851999962
 21
-3.5813283166000005
 31
0.0
  0
LINE
  5
13E
100
AcDbEntity
100
AcDbLine
  8
CUT_SHEET_3a
 62
7
420
0
370
15
  6
ByLayer
 10
4.0587117151000029
 20
-3.8394936343999984
 30
0.0
 11
3.9296290561999996
 21
-3.8394936344000019
 31
0.0
  0
LINE
  5
13F
100
AcDbEntity
100
AcDbLine
  8
CUT_SHEET_3a
 62
7
420
0
370
15
  6
ByLayer
 10
3.9296290561999996
 20
-3.8394936344000019
 30
0.0
 11
3.8650131281999975
 21
-3.7748912697000012
 31
0.0
  0
LINE
  5
140
100
AcDbEntity
100
AcDbLine
  8
CUT_SHEET_3a
 62
7
420
0
370
15
  6
ByLayer
 10
3.8650131281999975
 20
-3.7748912697000012
 30
0.0
 11
3.8650131281999975
 21
-3.6458086107999996
 31
0.0
  0
LINE
  5
141
100
AcDbEntity
100
AcDbLine
  8
CUT_SHEET_3a
 62
7
420
0
370
15
  6
ByLayer
 10
3.8650131281999975
 20
-3.6458086107999996
 30
0.0
 11
3.9296290561999996
 21
-3.5813283166000005
 31
0.0
  0
LINE
  5
142
100
AcDbEntity
100
AcDbLine
  8
CUT_SHEET_3a
 62
7
420
0
370
15
  6
ByLayer
 10
3.9296290561999996
 20
-3.5813283166000005
 30
0.0
 11
4.0587117151000029
 21
-3.5813283166000005
 31
0.0
  0
LINE
  5
143
100
AcDbEntity
100
AcDbLine
  8
CUT_SHEET_3a
 62
7
420
0
370
15
  6
ByLayer
 10
4.0587117151000029
 20
-3.5813283166000005
 30
0.0
 11
4.1232055727000017
 21
-3.6458086108000014
 31
0.0
  0
LINE
  5
144
100
AcDbEntity
100
AcDbLine
  8
CUT_SHEET_3a
 62
7
420
0
370
15
  6
ByLayer
 10
4.1232055727000017
 20
-3.6458086108000014
 30
0.0
 11
4.1232055727000017
 21
-3.7748912697000012
 31
0.0
  0
LINE
  5
145
100
AcDbEntity
100
AcDbLine
  8
CUT_SHEET_3a
 62
7
420
0
370
15
  6
ByLayer
 10
4.1232055727000017
 20
-3.7748912697000012
 30
0.0
 11
4.0587117151000029
 21
-3.8394936343999984
 31
0.0
  0
LINE
  5
146
100
AcDbEntity
100
AcDbLine
  8
CUT_SHEET_3a
 62
7
420
0
370
15
  6
ByLayer
 10
3.7359304693000013
 20
-3.5167123885000002
 30
0.0
 11
3.6714433933000024
 21
-3.4521100239000013
 31
0.0
  0
LINE
  5
147
100
AcDbEntity
100
AcDbLine
  8
CUT_SHEET_3a
 62
7
420
0
370
15
  6
ByLayer
 10
3.6714433933000024
 20
-3.4521100239000013
 30
0.0
 11
3.606847810400005
 21
-3.4521100239000013
 31
0.0
  0
LINE
  5
148
100
AcDbEntity
100
AcDbLine
  8
CUT_SHEET_3a
 62
7
420
0
370
15
  6
ByLayer
 10
3.606847810400005
 20
-3.4521100239000013
 30
0.0
 11
3.5423132625999969
 21
-3.5167123885000002
 31
0.0
  0
LINE
  5
149
100
AcDbEntity
100
AcDbLine
  8
CUT_SHEET_3a
 62
7
420
0
370
15
  6
ByLayer
 10
3.5423132625999969
 20
-3.5167123885000002
 30
0.0
 11
3.5423132625999969
 21
-3.8394936344000001
 31
0.0
  0
LINE
  5
14A
100
AcDbEntity
100
AcDbLine
  8
CUT_SHEET_3a
 62
7
420
0
370
15
  6
ByLayer
 10
3.4777583698000001
 20
-3.6458086107999996
 30
0.0
 11
3.6714569566999984
 21
-3.6458086108000014
 31
0.0
  0
LINE
  5
14B
100
AcDbEntity
100
AcDbLine
  8
CUT_SHEET_3a
 62
7
420
0
370
15
  6
ByLayer
 10
3.1228115754000001
 20
-3.7104109755000021
 30
0.0
 11
3.2519010159999979
 21
-3.5813283166000041
 31
0.0
  0
LINE
  5
14C
100
AcDbEntity
100
AcDbLine
  8
CUT_SHEET_3a
 62
7
420
0
370
15
  6
ByLayer
 10
3.2519010159999979
 20
-3.5813283166000041
 30
0.0
 11
3.3163609651999977
 21
-3.5813283166000023
 31
0.0
  0
LINE
  5
14D
100
AcDbEntity
100
AcDbLine
  8
CUT_SHEET_3a
 62
7
420
0
370
15
  6
ByLayer
 10
3.3163609651999977
 20
-3.5813283166000023
 30
0.0
 11
3.3809836749000013
 21
-3.6458086108000014
 31
0.0
  0
LINE
  5
14E
100
AcDbEntity
100
AcDbLine
  8
CUT_SHEET_3a
 62
7
420
0
370
15
  6
ByLayer
 10
3.3809836749000013
 20
-3.6458086108000014
 30
0.0
 11
3.3809836749000013
 21
-3.8394936344000019
 31
0.0
  0
LINE
  5
14F
100
AcDbEntity
100
AcDbLine
  8
CUT_SHEET_3a
 62
7
420
0
370
15
  6
ByLayer
 10
3.1228115754000001
 20
-3.8394936344000001
 30
0.0
 11
3.1228115754000001
 21
-3.5813283166000023
 31
0.0
  0
LINE
  5
150
100
AcDbEntity
100
AcDbLine
  8
CUT_SHEET_3a
 62
7
420
0
370
15
  6
ByLayer
 10
2.9937289164999967
 20
-3.5167123885000002
 30
0.0
 11
2.9937289164999967
 21
-3.4521100239000013
 31
0.0
  0
LINE
  5
151
100
AcDbEntity
100
AcDbLine
  8
CUT_SHEET_3a
 62
7
420
0
370
15
  6
ByLayer
 10
2.9937289164999967
 20
-3.8394936344000001
 30
0.0
 11
2.9937289164999967
 21
-3.5813283166000023
 31
0.0
  0
LINE
  5
152
100
AcDbEntity
100
AcDbLine
  8
CUT_SHEET_3a
 62
7
420
0
370
15
  6
ByLayer
 10
2.606385996100002
 20
-3.7104109755000003
 30
0.0
 11
2.8000167661000006
 21
-3.7104109755000021
 31
0.0
  0
LINE
  5
153
100
AcDbEntity
100
AcDbLine
  8
CUT_SHEET_3a
 62
7
420
0
370
15
  6
ByLayer
 10
2.8000167661000006
 20
-3.7104109755000021
 30
0.0
 11
2.8646259125000029
 21
-3.6458086107999996
 31
0.0
  0
LINE
  5
154
100
AcDbEntity
100
AcDbLine
  8
CUT_SHEET_3a
 62
7
420
0
370
15
  6
ByLayer
 10
2.8646259125000029
 20
-3.6458086107999996
 30
0.0
 11
2.8000167661000006
 21
-3.5813283166000023
 31
0.0
  0
LINE
  5
155
100
AcDbEntity
100
AcDbLine
  8
CUT_SHEET_3a
 62
7
420
0
370
15
  6
ByLayer
 10
2.8000167661000006
 20
-3.5813283166000023
 30
0.0
 11
2.6709273255999975
 21
-3.5813283166000005
 31
0.0
  0
LINE
  5
156
100
AcDbEntity
100
AcDbLine
  8
CUT_SHEET_3a
 62
7
420
0
370
15
  6
ByLayer
 10
2.6709273255999975
 20
-3.5813283166000005
 30
0.0
 11
2.606385996100002
 21
-3.6458086107999996
 31
0.0
  0
LINE
  5
157
100
AcDbEntity
100
AcDbLine
  8
CUT_SHEET_3a
 62
7
420
0
370
15
  6
ByLayer
 10
2.606385996100002
 20
-3.6458086107999996
 30
0.0
 11
2.606385996100002
 21
-3.774891269700003
 31
0.0
  0
LINE
  5
158
100
AcDbEntity
100
AcDbLine
  8
CUT_SHEET_3a
 62
7
420
0
370
15
  6
ByLayer
 10
2.606385996100002
 20
-3.774891269700003
 30
0.0
 11
2.6709273255999975
 21
-3.8394936344000001
 31
0.0
  0
LINE
  5
159
100
AcDbEntity
100
AcDbLine
  8
CUT_SHEET_3a
 62
7
420
0
370
15
  6
ByLayer
 10
2.6709273255999975
 20
-3.8394936344000001
 30
0.0
 11
2.8000167661000006
 21
-3.8394936344000019
 31
0.0
  0
LINE
  5
15A
100
AcDbEntity
100
AcDbLine
  8
CUT_SHEET_3a
 62
7
420
0
370
15
  6
ByLayer
 10
2.219124456000003
 20
-3.7104109755000003
 30
0.0
 11
2.3482274599999968
 21
-3.5813283166000023
 31
0.0
  0
LINE
  5
15B
100
AcDbEntity
100
AcDbLine
  8
CUT_SHEET_3a
 62
7
420
0
370
15
  6
ByLayer
 10
2.3482274599999968
 20
-3.5813283166000023
 30
0.0
 11
2.4127552260000016
 21
-3.5813283166000023
 31
0.0
  0
LINE
  5
15C
100
AcDbEntity
100
AcDbLine
  8
CUT_SHEET_3a
 62
7
420
0
370
15
  6
ByLayer
 10
2.4127552260000016
 20
-3.5813283166000023
 30
0.0
 11
2.4773169006000018
 21
-3.6458086107999996
 31
0.0
  0
LINE
  5
15D
100
AcDbEntity
100
AcDbLine
  8
CUT_SHEET_3a
 62
7
420
0
370
15
  6
ByLayer
 10
2.219124456000003
 20
-3.8394936344000001
 30
0.0
 11
2.219124456000003
 21
-3.5813283166000005
 31
0.0
  0
LINE
  5
15E
100
AcDbEntity
100
AcDbLine
  8
CUT_SHEET_3a
 62
7
420
0
370
15
  6
ByLayer
 10
6.7695967492999998
 20
-3.0648484837999987
 30
0.0
 11
6.8986794082000031
 21
-2.9357522615000029
 31
0.0
  0
LINE
  5
15F
100
AcDbEntity
100
AcDbLine
  8
CUT_SHEET_3a
 62
7
420
0
370
15
  6
ByLayer
 10
6.7695967492999998
 20
-3.1939311426999986
 30
0.0
 11
6.7695967492999998
 21
-2.9357522615000029
 31
0.0
  0
LINE
  5
160
100
AcDbEntity
100
AcDbLine
  8
CUT_SHEET_3a
 62
7
420
0
370
15
  6
ByLayer
 10
6.5759659793000012
 20
-3.1939311426999986
 30
0.0
 11
6.4468833203999978
 21
-3.1939311427000003
 31
0.0
  0
LINE
  5
161
100
AcDbEntity
100
AcDbLine
  8
CUT_SHEET_3a
 62
7
420
0
370
15
  6
ByLayer
 10
6.4468833203999978
 20
-3.1939311427000003
 30
0.0
 11
6.3823352092000007
 21
-3.1294508484000048
 31
0.0
  0
LINE
  5
162
100
AcDbEntity
100
AcDbLine
  8
CUT_SHEET_3a
 62
7
420
0
370
15
  6
ByLayer
 10
6.3823352092000007
 20
-3.1294508484000048
 30
0.0
 11
6.3823352092000007
 21
-3.0003817529000045
 31
0.0
  0
LINE
  5
163
100
AcDbEntity
100
AcDbLine
  8
CUT_SHEET_3a
 62
7
420
0
370
15
  6
ByLayer
 10
6.3823352092000007
 20
-3.0003817529000045
 30
0.0
 11
6.4468833203999978
 21
-2.9357522615000047
 31
0.0
  0
LINE
  5
164
100
AcDbEntity
100
AcDbLine
  8
CUT_SHEET_3a
 62
7
420
0
370
15
  6
ByLayer
 10
6.4468833203999978
 20
-2.9357522615000047
 30
0.0
 11
6.5759659793000012
 21
-2.9357522615000047
 31
0.0
  0
LINE
  5
165
100
AcDbEntity
100
AcDbLine
  8
CUT_SHEET_3a
 62
7
420
0
370
15
  6
ByLayer
 10
6.5759659793000012
 20
-2.9357522615000047
 30
0.0
 11
6.6405005270000004
 21
-3.0003817529000028
 31
0.0
  0
LINE
  5
166
100
AcDbEntity
100
AcDbLine
  8
CUT_SHEET_3a
 62
7
420
0
370
15
  6
ByLayer
 10
6.6405005270000004
 20
-3.0003817529000028
 30
0.0
 11
6.6405005270000004
 21
-3.1294508484000012
 31
0.0
  0
LINE
  5
167
100
AcDbEntity
100
AcDbLine
  8
CUT_SHEET_3a
 62
7
420
0
370
15
  6
ByLayer
 10
6.6405005270000004
 20
-3.1294508484000012
 30
0.0
 11
6.5759659793000012
 21
-3.1939311426999986
 31
0.0
  0
LINE
  5
168
100
AcDbEntity
100
AcDbLine
  8
CUT_SHEET_3a
 62
7
420
0
370
15
  6
ByLayer
 10
6.2532389869000014
 20
-2.871271967200002
 30
0.0
 11
6.2532389869000014
 21
-2.8066831660000027
 31
0.0
  0
LINE
  5
169
100
AcDbEntity
100
AcDbLine
  8
CUT_SHEET_3a
 62
7
420
0
370
15
  6
ByLayer
 10
6.2532389869000014
 20
-3.1939311426999986
 30
0.0
 11
6.2532389869000014
 21
-2.9357522615000029
 31
0.0
  0
LINE
  5
16A
100
AcDbEntity
100
AcDbLine
  8
CUT_SHEET_3a
 62
7
420
0
370
15
  6
ByLayer
 10
5.8982311573000032
 20
-3.0648484838000023
 30
0.0
 11
6.0273138161999995
 21
-2.9357522615000047
 31
0.0
  0
LINE
  5
16B
100
AcDbEntity
100
AcDbLine
  8
CUT_SHEET_3a
 62
7
420
0
370
15
  6
ByLayer
 10
6.0273138161999995
 20
-2.9357522615000047
 30
0.0
 11
6.0918483640000005
 21
-2.9357522615000011
 31
0.0
  0
LINE
  5
16C
100
AcDbEntity
100
AcDbLine
  8
CUT_SHEET_3a
 62
7
420
0
370
15
  6
ByLayer
 10
6.0918483640000005
 20
-2.9357522615000011
 30
0.0
 11
6.1564100384999989
 21
-3.0003817529000028
 31
0.0
  0
LINE
  5
16D
100
AcDbEntity
100
AcDbLine
  8
CUT_SHEET_3a
 62
7
420
0
370
15
  6
ByLayer
 10
5.8982311573000032
 20
-3.1939311426999986
 30
0.0
 11
5.8982311573000032
 21
-2.9357522614999993
 31
0.0
  0
LINE
  5
16E
100
AcDbEntity
100
AcDbLine
  8
CUT_SHEET_3a
 62
7
420
0
370
15
  6
ByLayer
 10
5.5109696171999971
 20
-3.0648484838000005
 30
0.0
 11
5.7046003872999975
 21
-3.0648484838000005
 31
0.0
  0
LINE
  5
16F
100
AcDbEntity
100
AcDbLine
  8
CUT_SHEET_3a
 62
7
420
0
370
15
  6
ByLayer
 10
5.7046003872999975
 20
-3.0648484838000005
 30
0.0
 11
5.7691484983999999
 21
-3.0003817529000028
 31
0.0
  0
LINE
  5
170
100
AcDbEntity
100
AcDbLine
  8
CUT_SHEET_3a
 62
7
420
0
370
15
  6
ByLayer
 10
5.7691484983999999
 20
-3.0003817529000028
 30
0.0
 11
5.7046003872999975
 21
-2.9357522615000011
 31
0.0
  0
LINE
  5
171
100
AcDbEntity
100
AcDbLine
  8
CUT_SHEET_3a
 62
7
420
0
370
15
  6
ByLayer
 10
5.7046003872999975
 20
-2.9357522615000011
 30
0.0
 11
5.5755041649999981
 21
-2.9357522615000011
 31
0.0
  0
LINE
  5
172
100
AcDbEntity
100
AcDbLine
  8
CUT_SHEET_3a
 62
7
420
0
370
15
  6
ByLayer
 10
5.5755041649999981
 20
-2.9357522615000011
 30
0.0
 11
5.5109696171999971
 21
-3.000381752900001
 31
0.0
  0
LINE
  5
173
100
AcDbEntity
100
AcDbLine
  8
CUT_SHEET_3a
 62
7
420
0
370
15
  6
ByLayer
 10
5.5109696171999971
 20
-3.000381752900001
 30
0.0
 11
5.5109696171999971
 21
-3.1294508484000012
 31
0.0
  0
LINE
  5
174
100
AcDbEntity
100
AcDbLine
  8
CUT_SHEET_3a
 62
7
420
0
370
15
  6
ByLayer
 10
5.5109696171999971
 20
-3.1294508484000012
 30
0.0
 11
5.5755041649999981
 21
-3.1939447061000017
 31
0.0
  0
LINE
  5
175
100
AcDbEntity
100
AcDbLine
  8
CUT_SHEET_3a
 62
7
420
0
370
15
  6
ByLayer
 10
5.5755041649999981
 20
-3.1939447061000017
 30
0.0
 11
5.7046003872999975
 21
-3.1939447061000017
 31
0.0
  0
LINE
  5
176
100
AcDbEntity
100
AcDbLine
  8
CUT_SHEET_3a
 62
7
420
0
370
15
  6
ByLayer
 10
5.2528042994000046
 20
-2.8066696026000013
 30
0.0
 11
5.2528042994000046
 21
-3.1294508484000012
 31
0.0
  0
LINE
  5
177
100
AcDbEntity
100
AcDbLine
  8
CUT_SHEET_3a
 62
7
420
0
370
15
  6
ByLayer
 10
5.2528042994000046
 20
-3.1294508484000012
 30
0.0
 11
5.317332065500004
 21
-3.1939311427000021
 31
0.0
  0
LINE
  5
178
100
AcDbEntity
100
AcDbLine
  8
CUT_SHEET_3a
 62
7
420
0
370
15
  6
ByLayer
 10
5.317332065500004
 20
-3.1939311427000021
 30
0.0
 11
5.3818869583000009
 21
-3.1294508484000012
 31
0.0
  0
LINE
  5
179
100
AcDbEntity
100
AcDbLine
  8
CUT_SHEET_3a
 62
7
420
0
370
15
  6
ByLayer
 10
5.1237012954999983
 20
-2.9357522615000029
 30
0.0
 11
5.3818869583000009
 21
-2.9357522615000029
 31
0.0
  0
LINE
  5
17A
100
AcDbEntity
100
AcDbLine
  8
CUT_SHEET_3a
 62
7
420
0
370
15
  6
ByLayer
 10
4.7686866841999986
 20
-3.0648484838000005
 30
0.0
 11
4.8655563227000016
 21
-2.9357522615000029
 31
0.0
  0
LINE
  5
17B
100
AcDbEntity
100
AcDbLine
  8
CUT_SHEET_3a
 62
7
420
0
370
15
  6
ByLayer
 10
4.8655563227000016
 20
-2.9357522615000029
 30
0.0
 11
4.9300162719000014
 21
-2.9357522615000029
 31
0.0
  0
LINE
  5
17C
100
AcDbEntity
100
AcDbLine
  8
CUT_SHEET_3a
 62
7
420
0
370
15
  6
ByLayer
 10
4.9300162719000014
 20
-2.9357522615000029
 30
0.0
 11
4.9946118549000005
 21
-3.0003817529000045
 31
0.0
  0
LINE
  5
17D
100
AcDbEntity
100
AcDbLine
  8
CUT_SHEET_3a
 62
7
420
0
370
15
  6
ByLayer
 10
4.9946118549000005
 20
-3.0003817529000045
 30
0.0
 11
4.9946118549000005
 21
-3.1939447060999999
 31
0.0
  0
LINE
  5
17E
100
AcDbEntity
100
AcDbLine
  8
CUT_SHEET_3a
 62
7
420
0
370
15
  6
ByLayer
 10
4.7686866841999986
 20
-3.1939311426999986
 30
0.0
 11
4.7686866841999986
 21
-2.9357522615000029
 31
0.0
  0
LINE
  5
17F
100
AcDbEntity
100
AcDbLine
  8
CUT_SHEET_3a
 62
7
420
0
370
15
  6
ByLayer
 10
4.6396040253000024
 20
-2.8712719672000002
 30
0.0
 11
4.6396040253000024
 21
-2.8066831659999991
 31
0.0
  0
LINE
  5
180
100
AcDbEntity
100
AcDbLine
  8
CUT_SHEET_3a
 62
7
420
0
370
15
  6
ByLayer
 10
4.6396040253000024
 20
-3.1939311427000021
 30
0.0
 11
4.6396040253000024
 21
-2.9357522615000011
 31
0.0
  0
LINE
  5
181
100
AcDbEntity
100
AcDbLine
  8
CUT_SHEET_3a
 62
7
420
0
370
15
  6
ByLayer
 10
3.9941025688000025
 20
-2.8066696026000031
 30
0.0
 11
3.9941025688000025
 21
-3.1294508484000012
 31
0.0
  0
LINE
  5
182
100
AcDbEntity
100
AcDbLine
  8
CUT_SHEET_3a
 62
7
420
0
370
15
  6
ByLayer
 10
3.9941025688000025
 20
-3.1294508484000012
 30
0.0
 11
4.0586981516999998
 21
-3.1939311427000021
 31
0.0
  0
LINE
  5
183
100
AcDbEntity
100
AcDbLine
  8
CUT_SHEET_3a
 62
7
420
0
370
15
  6
ByLayer
 10
4.0586981516999998
 20
-3.1939311427000021
 30
0.0
 11
4.1231920094000003
 21
-3.1294508484000012
 31
0.0
  0
LINE
  5
184
100
AcDbEntity
100
AcDbLine
  8
CUT_SHEET_3a
 62
7
420
0
370
15
  6
ByLayer
 10
3.8650266916000007
 20
-2.9357522615000029
 30
0.0
 11
4.1231920094000003
 21
-2.9357522615000047
 31
0.0
  0
LINE
  5
185
100
AcDbEntity
100
AcDbLine
  8
CUT_SHEET_3a
 62
7
420
0
370
15
  6
ByLayer
 10
3.4777583698000001
 20
-3.0648484838000023
 30
0.0
 11
3.606847810400005
 21
-2.9357522615000011
 31
0.0
  0
LINE
  5
186
100
AcDbEntity
100
AcDbLine
  8
CUT_SHEET_3a
 62
7
420
0
370
15
  6
ByLayer
 10
3.606847810400005
 20
-2.9357522615000011
 30
0.0
 11
3.6714569566999984
 21
-2.9357522615000011
 31
0.0
  0
LINE
  5
187
100
AcDbEntity
100
AcDbLine
  8
CUT_SHEET_3a
 62
7
420
0
370
15
  6
ByLayer
 10
3.6714569566999984
 20
-2.9357522615000011
 30
0.0
 11
3.7359440326000026
 21
-3.000381752900001
 31
0.0
  0
LINE
  5
188
100
AcDbEntity
100
AcDbLine
  8
CUT_SHEET_3a
 62
7
420
0
370
15
  6
ByLayer
 10
3.4777583698000001
 20
-3.1939311427000003
 30
0.0
 11
3.4777583698000001
 21
-2.9357522615000029
 31
0.0
  0
LINE
  5
189
100
AcDbEntity
100
AcDbLine
  8
CUT_SHEET_3a
 62
7
420
0
370
15
  6
ByLayer
 10
3.316374528499999
 20
-3.1294508483999994
 30
0.0
 11
3.3809836749000013
 21
-3.1939447060999981
 31
0.0
  0
LINE
  5
18A
100
AcDbEntity
100
AcDbLine
  8
CUT_SHEET_3a
 62
7
420
0
370
15
  6
ByLayer
 10
3.2519010159999979
 20
-3.1939311427000021
 30
0.0
 11
3.1872850879000012
 21
-3.1939311427000003
 31
0.0
  0
LINE
  5
18B
100
AcDbEntity
100
AcDbLine
  8
CUT_SHEET_3a
 62
7
420
0
370
15
  6
ByLayer
 10
3.1872850879000012
 20
-3.1939311427000003
 30
0.0
 11
3.1228115754000001
 21
-3.1294508484000012
 31
0.0
  0
LINE
  5
18C
100
AcDbEntity
100
AcDbLine
  8
CUT_SHEET_3a
 62
7
420
0
370
15
  6
ByLayer
 10
3.1228115754000001
 20
-3.1294508484000012
 30
0.0
 11
3.1228115754000001
 21
-3.0003817529000028
 31
0.0
  0
LINE
  5
18D
100
AcDbEntity
100
AcDbLine
  8
CUT_SHEET_3a
 62
7
420
0
370
15
  6
ByLayer
 10
3.1228115754000001
 20
-3.0003817529000028
 30
0.0
 11
3.1872850879000012
 21
-2.9357522615000029
 31
0.0
  0
LINE
  5
18E
100
AcDbEntity
100
AcDbLine
  8
CUT_SHEET_3a
 62
7
420
0
370
15
  6
ByLayer
 10
3.1872850879000012
 20
-2.9357522615000029
 30
0.0
 11
3.2519010159999979
 21
-2.9357522615000029
 31
0.0
  0
LINE
  5
18F
100
AcDbEntity
100
AcDbLine
  8
CUT_SHEET_3a
 62
7
420
0
370
15
  6
ByLayer
 10
3.2519010159999979
 20
-2.9357522615000029
 30
0.0
 11
3.316374528499999
 21
-3.000381752900001
 31
0.0
  0
LINE
  5
190
100
AcDbEntity
100
AcDbLine
  8
CUT_SHEET_3a
 62
7
420
0
370
15
  6
ByLayer
 10
3.316374528499999
 20
-3.000381752900001
 30
0.0
 11
3.316374528499999
 21
-3.1294508483999994
 31
0.0
  0
LINE
  5
191
100
AcDbEntity
100
AcDbLine
  8
CUT_SHEET_3a
 62
7
420
0
370
15
  6
ByLayer
 10
3.316374528499999
 20
-3.1294508483999994
 30
0.0
 11
3.2519010159999979
 21
-3.1939311427000021
 31
0.0
  0
LINE
  5
192
100
AcDbEntity
100
AcDbLine
  8
CUT_SHEET_3a
 62
7
420
0
370
15
  6
ByLayer
 10
2.9937289164999967
 20
-2.9357522614999993
 30
0.0
 11
2.8000303294999966
 21
-2.9357522615000029
 31
0.0
  0
LINE
  5
193
100
AcDbEntity
100
AcDbLine
  8
CUT_SHEET_3a
 62
7
420
0
370
15
  6
ByLayer
 10
2.8000303294999966
 20
-2.9357522615000029
 30
0.0
 11
2.7354822184000014
 21
-3.000381752900001
 31
0.0
  0
LINE
  5
194
100
AcDbEntity
100
AcDbLine
  8
CUT_SHEET_3a
 62
7
420
0
370
15
  6
ByLayer
 10
2.7354822184000014
 20
-3.000381752900001
 30
0.0
 11
2.7354822184000014
 21
-3.1294508484000012
 31
0.0
  0
LINE
  5
195
100
AcDbEntity
100
AcDbLine
  8
CUT_SHEET_3a
 62
7
420
0
370
15
  6
ByLayer
 10
2.7354822184000014
 20
-3.1294508484000012
 30
0.0
 11
2.8000303294999966
 21
-3.1939447061000017
 31
0.0
  0
LINE
  5
196
100
AcDbEntity
100
AcDbLine
  8
CUT_SHEET_3a
 62
7
420
0
370
15
  6
ByLayer
 10
2.8000303294999966
 20
-3.1939447061000017
 30
0.0
 11
2.9937289164999967
 21
-3.1939447061000017
 31
0.0
  0
LINE
  5
197
100
AcDbEntity
100
AcDbLine
  8
CUT_SHEET_3a
 62
7
420
0
370
15
  6
ByLayer
 10
2.3482274599999968
 20
-3.0003817529000028
 30
0.0
 11
2.606399559499998
 21
-3.000381752900001
 31
0.0
  0
LINE
  5
198
100
AcDbEntity
100
AcDbLine
  8
CUT_SHEET_3a
 62
7
420
0
370
15
  6
ByLayer
 10
1.9931992853000011
 20
-2.8066696026000013
 30
0.0
 11
2.219124456000003
 21
-2.8066696026000031
 31
0.0
  0
LINE
  5
199
100
AcDbEntity
100
AcDbLine
  8
CUT_SHEET_3a
 62
7
420
0
370
15
  6
ByLayer
 10
2.219124456000003
 20
-2.8066696026000031
 30
0.0
 11
1.9931992853000011
 21
-3.1939311427000021
 31
0.0
  0
LINE
  5
19A
100
AcDbEntity
100
AcDbLine
  8
CUT_SHEET_3a
 62
7
420
0
370
15
  6
ByLayer
 10
1.9931992853000011
 20
-3.1939311427000021
 30
0.0
 11
2.219124456000003
 21
-3.1939311427000021
 31
0.0
  0
ENDBLK
  5
19B
100
AcDbEntity
  8
0
100
AcDbBlockEnd
  0
ENDSEC
  0
SECTION
  2
ENTITIES
  0
INSERT
  5
19C
100
AcDbEntity
100
AcDbBlockReference
  8
0
 62
256
370
-1
  6
ByLayer
  2
BORDER
 10
-12.0
 20
6.0000000000000027
 30
0.0
  0
INSERT
  5
19D
100
AcDbEntity
100
AcDbBlockReference
  8
CUT_SHEET_3a
 62
256
370
-1
  6
ByLayer
  2
grep
 10
-10.9930204656340145
 20
-5.1269364844536023
 30
0.0
 50
90.0
  0
ENDSEC
  0
SECTION
  2
OBJECTS
  0
DICTIONARY
  5
C
100
AcDbDictionary
280
0
281
1
  3
ACAD_GROUP
350
D
  3
ACAD_LAYOUT
350
1A
  3
ACAD_MLINESTYLE
350
17
  3
ACAD_PLOTSETTINGS
350
19
  3
ACAD_PLOTSTYLENAME
350
E
  3
AcDbVariableDictionary
350
19E
  0
DICTIONARY
  5
D
100
AcDbDictionary
280
0
281
1
  0
ACDBDICTIONARYWDFLT
  5
E
100
AcDbDictionary
281
1
  3
Normal
350
F
100
AcDbDictionaryWithDefault
340
F
  0
ACDBPLACEHOLDER
  5
F
  0
DICTIONARY
  5
17
100
AcDbDictionary
280
0
281
1
  3
Standard
350
18
  0
MLINESTYLE
  5
18
100
AcDbMlineStyle
  2
STANDARD
 70
0
  3

 62
256
 51
90.0
 52
90.0
 71
2
 49
0.5
 62
256
  6
BYLAYER
 49
-0.5
 62
256
  6
BYLAYER
  0
DICTIONARY
  5
19
100
AcDbDictionary
280
0
281
1
  0
DICTIONARY
  5
1A
100
AcDbDictionary
281
1
  3
Layout1
350
1E
  3
Layout2
350
26
  3
Model
350
22
  0
LAYOUT
  5
1E
100
AcDbPlotSettings
  1

  2
C:\Program Files\AutoCAD 2002\plotters\DWF ePlot (optimized for plotting).pc3
  4

  6

 40
0.0
 41
0.0
 42
0.0
 43
0.0
 44
0.0
 45
0.0
 46
0.0
 47
0.0
 48
0.0
 49
0.0
140
0.0
141
0.0
142
1.0
143
1.0
 70
688
 72
0
 73
0
 74
5
  7

 75
16
147
1.0
148
0.0
149
0.0
100
AcDbLayout
  1
Layout1
 70
1
 71
1
 10
0.0
 20
0.0
 11
420.0
 21
297.0
 12
0.0
 22
0.0
 32
0.0
 14
100000000000000000000.0
 24
100000000000000000000.0
 34
100000000000000000000.0
 15
-100000000000000000000.0
 25
-100000000000000000000.0
 35
-100000000000000000000.0
146
0.0
 13
0.0
 23
0.0
 33
0.0
 16
1.0
 26
0.0
 36
0.0
 17
0.0
 27
1.0
 37
0.0
 76
0
330
1B
  0
LAYOUT
  5
22
100
AcDbPlotSettings
  1

  2
C:\Program Files\AutoCAD 2002\plotters\DWF ePlot (optimized for plotting).pc3
  4

  6

 40
0.0
 41
0.0
 42
0.0
 43
0.0
 44
0.0
 45
0.0
 46
0.0
 47
0.0
 48
0.0
 49
0.0
140
0.0
141
0.0
142
1.0
143
1.0
 70
1712
 72
0
 73
0
 74
0
  7

 75
0
147
1.0
148
0.0
149
0.0
100
AcDbLayout
  1
Model
 70
1
 71
0
 10
0.0
 20
0.0
 11
12.0
 21
9.0
 12
0.0
 22
0.0
 32
0.0
 14
0.0
 24
0.0
 34
0.0
 15
0.0
 25
0.0
 35
0.0
146
0.0
 13
0.0
 23
0.0
 33
0.0
 16
1.0
 26
0.0
 36
0.0
 17
0.0
 27
1.0
 37
0.0
 76
0
330
1F
  0
LAYOUT
  5
26
100
AcDbPlotSettings
  1

  2
C:\Program Files\AutoCAD 2002\plotters\DWF ePlot (optimized for plotting).pc3
  4

  6

 40
0.0
 41
0.0
 42
0.0
 43
0.0
 44
0.0
 45
0.0
 46
0.0
 47
0.0
 48
0.0
 49
0.0
140
0.0
141
0.0
142
1.0
143
1.0
 70
688
 72
0
 73
0
 74
5
  7

 75
16
147
1.0
148
0.0
149
0.0
100
AcDbLayout
  1
Layout2
 70
1
 71
2
 10
0.0
 20
0.0
 11
12.0
 21
9.0
 12
0.0
 22
0.0
 32
0.0
 14
0.0
 24
0.0
 34
0.0
 15
0.0
 25
0.0
 35
0.0
146
0.0
 13
0.0
 23
0.0
 33
0.0
 16
1.0
 26
0.0
 36
0.0
 17
0.0
 27
1.0
 37
0.0
 76
0
330
23
  0
DICTIONARY
  5
19E
100
AcDbDictionary
281
1
  3
DIMASSOC
350
1A0
  3
HIDETEXT
350
19F
  0
DICTIONARYVAR
  5
19F
100
DictionaryVariables
280
0
  1
2
  0
DICTIONARYVAR
  5
1A0
100
DictionaryVariables
280
0
  1
1
  0
ENDSEC
  0
EOF
