999
dxflib 2.2.0.0
  0
SECTION
  2
HEADER
  9
$ACADVER
  1
AC1015
  9
$HANDSEED
  5
FFFF
  9
$SPLINESEGS
 70
8
  9
$DIMEXE
 40
1.25
  9
$DIMAZIN
 70
8
  9
$DIMZIN
 70
8
  9
$DIMLUNIT
 70
2
  9
$GRIDMODE
 70
1
  9
$INSUNITS
 70
1
  9
$DIMADEC
 70
2
  9
$DIMASZ
 40
2.5
  9
$DIMGAP
 40
0.625
  9
$DIMTXT
 40
2.5
  9
$GRIDUNIT
 10
0.0
 20
0.0
  9
$DIMEXO
 40
0.625
  9
$LUPREC
 70
4
  9
$DIMAUNIT
 70
0
  9
$AUPREC
 70
2
  9
$PLIMMIN
 10
0.0
 20
0.0
  9
$LUNITS
 70
2
  9
$PLIMMAX
 10
8.2677165354330722
 20
11.6929133858267722
  9
$DIMBLK
  1

  9
$AUNITS
 70
0
  9
$CLAYER
  8
0
  0
ENDSEC
  0
SECTION
  2
TABLES
  0
TABLE
  2
VPORT
  5
8
100
AcDbSymbolTable
 70
1
  0
VPORT
  5
30
100
AcDbSymbolTableRecord
100
AcDbViewportTableRecord
  2
*Active
 70
0
 10
0.0
 20
0.0
 11
1.0
 21
1.0
 12
286.3055555555554861
 22
148.5
 13
0.0
 23
0.0
 14
10.0
 24
10.0
 15
10.0
 25
10.0
 16
0.0
 26
0.0
 36
1.0
 17
0.0
 27
0.0
 37
0.0
 40
297.0
 41
1.92798353909465
 42
50.0
 43
0.0
 44
0.0
 50
0.0
 51
0.0
 71
0
 72
100
 73
1
 74
3
 75
1
 76
1
 77
0
 78
0
281
0
 65
1
110
0.0
120
0.0
130
0.0
111
1.0
121
0.0
131
0.0
112
0.0
122
1.0
132
0.0
 79
0
146
0.0
  0
ENDTAB
  0
TABLE
  2
LTYPE
  5
5
100
AcDbSymbolTable
 70
21
  0
LTYPE
  5
14
100
AcDbSymbolTableRecord
100
AcDbLinetypeTableRecord
  2
ByBlock
 70
0
  3

 72
65
 73
0
 40
0.0
  0
LTYPE
  5
15
100
AcDbSymbolTableRecord
100
AcDbLinetypeTableRecord
  2
ByLayer
 70
0
  3

 72
65
 73
0
 40
0.0
  0
LTYPE
  5
16
100
AcDbSymbolTableRecord
100
AcDbLinetypeTableRecord
  2
CONTINUOUS
 70
0
  3
Solid line
 72
65
 73
0
 40
0.0
  0
LTYPE
  5
31
100
AcDbSymbolTableRecord
100
AcDbLinetypeTableRecord
  2
DOT
 70
0
  3
Dot . . . . . . . . . . . . . . . . . . . . . .
 72
65
 73
2
 40
6.3499999999999996
 49
0.0
 74
0
 49
-6.3499999999999996
 74
0
  0
LTYPE
  5
32
100
AcDbSymbolTableRecord
100
AcDbLinetypeTableRecord
  2
DOT2
 70
0
  3
Dot (.5x) .....................................
 72
65
 73
2
 40
3.1749999999999998
 49
0.0
 74
0
 49
-3.1749999999999998
 74
0
  0
LTYPE
  5
33
100
AcDbSymbolTableRecord
100
AcDbLinetypeTableRecord
  2
DOTX2
 70
0
  3
Dot (2x) .  .  .  .  .  .  .  .  .  .  .  .  .
 72
65
 73
2
 40
12.6999999999999993
 49
0.0
 74
0
 49
-12.6999999999999993
 74
0
  0
LTYPE
  5
34
100
AcDbSymbolTableRecord
100
AcDbLinetypeTableRecord
  2
DASHED
 70
0
  3
Dashed __ __ __ __ __ __ __ __ __ __ __ __ __ _
 72
65
 73
2
 40
19.0500000000000007
 49
12.6999999999999993
 74
0
 49
-6.3499999999999996
 74
0
  0
LTYPE
  5
35
100
AcDbSymbolTableRecord
100
AcDbLinetypeTableRecord
  2
DASHED2
 70
0
  3
Dashed (.5x) _ _ _ _ _ _ _ _ _ _ _ _ _ _ _ _ _
 72
65
 73
2
 40
9.5250000000000004
 49
6.3499999999999996
 74
0
 49
-3.1749999999999998
 74
0
  0
LTYPE
  5
36
100
AcDbSymbolTableRecord
100
AcDbLinetypeTableRecord
  2
DASHEDX2
 70
0
  3
Dashed (2x) ____  ____  ____  ____  ____  ___
 72
65
 73
2
 40
38.1000000000000014
 49
25.3999999999999986
 74
0
 49
-12.6999999999999993
 74
0
  0
LTYPE
  5
37
100
AcDbSymbolTableRecord
100
AcDbLinetypeTableRecord
  2
DASHDOT
 70
0
  3
Dash dot __ . __ . __ . __ . __ . __ . __ . __
 72
65
 73
4
 40
25.3999999999999986
 49
12.6999999999999993
 74
0
 49
-6.3499999999999996
 74
0
 49
0.0
 74
0
 49
-6.3499999999999996
 74
0
  0
LTYPE
  5
38
100
AcDbSymbolTableRecord
100
AcDbLinetypeTableRecord
  2
DASHDOT2
 70
0
  3
Dash dot (.5x) _._._._._._._._._._._._._._._.
 72
65
 73
4
 40
12.6999999999999993
 49
6.3499999999999996
 74
0
 49
-3.1749999999999998
 74
0
 49
0.0
 74
0
 49
-3.1749999999999998
 74
0
  0
LTYPE
  5
39
100
AcDbSymbolTableRecord
100
AcDbLinetypeTableRecord
  2
DASHDOTX2
 70
0
  3
Dash dot (2x) ____  .  ____  .  ____  .  ___
 72
65
 73
4
 40
50.7999999999999972
 49
25.3999999999999986
 74
0
 49
-12.6999999999999993
 74
0
 49
0.0
 74
0
 49
-12.6999999999999993
 74
0
  0
LTYPE
  5
3A
100
AcDbSymbolTableRecord
100
AcDbLinetypeTableRecord
  2
DIVIDE
 70
0
  3
Divide ____ . . ____ . . ____ . . ____ . . ____
 72
65
 73
6
 40
31.75
 49
12.6999999999999993
 74
0
 49
-6.3499999999999996
 74
0
 49
0.0
 74
0
 49
-6.3499999999999996
 74
0
 49
0.0
 74
0
 49
-6.3499999999999996
 74
0
  0
LTYPE
  5
3B
100
AcDbSymbolTableRecord
100
AcDbLinetypeTableRecord
  2
DIVIDE2
 70
0
  3
Divide (.5x) __..__..__..__..__..__..__..__.._
 72
65
 73
6
 40
15.875
 49
6.3499999999999996
 74
0
 49
-3.1749999999999998
 74
0
 49
0.0
 74
0
 49
-3.1749999999999998
 74
0
 49
0.0
 74
0
 49
-3.1749999999999998
 74
0
  0
LTYPE
  5
3C
100
AcDbSymbolTableRecord
100
AcDbLinetypeTableRecord
  2
DIVIDEX2
 70
0
  3
Divide (2x) ________  .  .  ________  .  .  _
 72
65
 73
6
 40
63.5
 49
25.3999999999999986
 74
0
 49
-12.6999999999999993
 74
0
 49
0.0
 74
0
 49
-12.6999999999999993
 74
0
 49
0.0
 74
0
 49
-12.6999999999999993
 74
0
  0
LTYPE
  5
3D
100
AcDbSymbolTableRecord
100
AcDbLinetypeTableRecord
  2
CENTER
 70
0
  3
Center ____ _ ____ _ ____ _ ____ _ ____ _ ____
 72
65
 73
4
 40
50.7999999999999972
 49
31.75
 74
0
 49
-6.3499999999999996
 74
0
 49
6.3499999999999996
 74
0
 49
-6.3499999999999996
 74
0
  0
LTYPE
  5
3E
100
AcDbSymbolTableRecord
100
AcDbLinetypeTableRecord
  2
CENTER2
 70
0
  3
Center (.5x) ___ _ ___ _ ___ _ ___ _ ___ _ ___
 72
65
 73
4
 40
28.5749999999999993
 49
19.0500000000000007
 74
0
 49
-3.1749999999999998
 74
0
 49
3.1749999999999998
 74
0
 49
-3.1749999999999998
 74
0
  0
LTYPE
  5
3F
100
AcDbSymbolTableRecord
100
AcDbLinetypeTableRecord
  2
CENTERX2
 70
0
  3
Center (2x) ________  __  ________  __  _____
 72
65
 73
4
 40
101.5999999999999943
 49
63.5
 74
0
 49
-12.6999999999999993
 74
0
 49
12.6999999999999993
 74
0
 49
-12.6999999999999993
 74
0
  0
LTYPE
  5
40
100
AcDbSymbolTableRecord
100
AcDbLinetypeTableRecord
  2
BORDER
 70
0
  3
Border __ __ . __ __ . __ __ . __ __ . __ __ .
 72
65
 73
6
 40
44.4500000000000028
 49
12.6999999999999993
 74
0
 49
-6.3499999999999996
 74
0
 49
12.6999999999999993
 74
0
 49
-6.3499999999999996
 74
0
 49
0.0
 74
0
 49
-6.3499999999999996
 74
0
  0
LTYPE
  5
41
100
AcDbSymbolTableRecord
100
AcDbLinetypeTableRecord
  2
BORDER2
 70
0
  3
Border (.5x) __.__.__.__.__.__.__.__.__.__.__.
 72
65
 73
6
 40
22.2250000000000014
 49
6.3499999999999996
 74
0
 49
-3.1749999999999998
 74
0
 49
6.3499999999999996
 74
0
 49
-3.1749999999999998
 74
0
 49
0.0
 74
0
 49
-3.1749999999999998
 74
0
  0
LTYPE
  5
42
100
AcDbSymbolTableRecord
100
AcDbLinetypeTableRecord
  2
BORDERX2
 70
0
  3
Border (2x) ____  ____  .  ____  ____  .  ___
 72
65
 73
6
 40
88.9000000000000057
 49
25.3999999999999986
 74
0
 49
-12.6999999999999993
 74
0
 49
25.3999999999999986
 74
0
 49
-12.6999999999999993
 74
0
 49
0.0
 74
0
 49
-12.6999999999999993
 74
0
  0
ENDTAB
  0
TABLE
  2
LAYER
  5
2
100
AcDbSymbolTable
 70
2
  0
LAYER
  5
10
100
AcDbSymbolTableRecord
100
AcDbLayerTableRecord
  2
0
 70
0
 62
7
420
0
  6
CONTINUOUS
370
25
390
F
  0
LAYER
  5
43
100
AcDbSymbolTableRecord
100
AcDbLayerTableRecord
  2
CUT_SHEET_2b
 70
0
 62
7
420
0
  6
CONTINUOUS
370
0
390
F
  0
ENDTAB
  0
TABLE
  2
STYLE
  5
3
100
AcDbSymbolTable
 70
1
  0
STYLE
  5
11
100
AcDbSymbolTableRecord
100
AcDbTextStyleTableRecord
  2
Standard
 70
0
 40
0.0
 41
0.75
 50
0.0
 71
0
 42
2.5
  3
txt
  4

  0
ENDTAB
  0
TABLE
  2
VIEW
  5
6
100
AcDbSymbolTable
 70
0
  0
ENDTAB
  0
TABLE
  2
UCS
  5
7
100
AcDbSymbolTable
 70
0
  0
ENDTAB
  0
TABLE
  2
APPID
  5
9
100
AcDbSymbolTable
 70
1
  0
APPID
  5
12
100
AcDbSymbolTableRecord
100
AcDbRegAppTableRecord
  2
ACAD
 70
0
  0
ENDTAB
  0
TABLE
  2
DIMSTYLE
  5
A
100
AcDbSymbolTable
 70
1
100
AcDbDimStyleTable
 71
0
  0
DIMSTYLE
105
27
100
AcDbSymbolTableRecord
100
AcDbDimStyleTableRecord
  2
Standard
 41
2.5
 42
0.625
 43
3.75
 44
1.25
 70
0
 73
0
 74
0
 77
1
 78
8
140
2.5
141
2.5
143
0.03937007874016
147
0.625
171
3
172
1
271
2
272
2
274
3
278
44
283
0
284
8
340
11
  0
ENDTAB
  0
TABLE
  2
BLOCK_RECORD
  5
1
100
AcDbSymbolTable
 70
1
  0
BLOCK_RECORD
  5
1F
100
AcDbSymbolTableRecord
100
AcDbBlockTableRecord
  2
*Model_Space
340
22
  0
BLOCK_RECORD
  5
1B
100
AcDbSymbolTableRecord
100
AcDbBlockTableRecord
  2
*Paper_Space
340
1E
  0
BLOCK_RECORD
  5
23
100
AcDbSymbolTableRecord
100
AcDbBlockTableRecord
  2
*Paper_Space0
340
26
  0
BLOCK_RECORD
  5
44
100
AcDbSymbolTableRecord
100
AcDbBlockTableRecord
  2
BORDER
340
0
  0
BLOCK_RECORD
  5
45
100
AcDbSymbolTableRecord
100
AcDbBlockTableRecord
  2
rats1
340
0
  0
ENDTAB
  0
ENDSEC
  0
SECTION
  2
BLOCKS
  0
BLOCK
  5
20
100
AcDbEntity
  8
0
100
AcDbBlockBegin
  2
*Model_Space
 70
0
 10
0.0
 20
0.0
 30
0.0
  3
*Model_Space
  1

  0
ENDBLK
  5
21
100
AcDbEntity
  8
0
100
AcDbBlockEnd
  0
BLOCK
  5
1C
100
AcDbEntity
 67
1
  8
0
100
AcDbBlockBegin
  2
*Paper_Space
 70
0
 10
0.0
 20
0.0
 30
0.0
  3
*Paper_Space
  1

  0
ENDBLK
  5
1D
100
AcDbEntity
 67
1
  8
0
100
AcDbBlockEnd
  0
BLOCK
  5
24
100
AcDbEntity
  8
0
100
AcDbBlockBegin
  2
*Paper_Space0
 70
0
 10
0.0
 20
0.0
 30
0.0
  3
*Paper_Space0
  1

  0
ENDBLK
  5
25
100
AcDbEntity
  8
0
100
AcDbBlockEnd
  0
BLOCK
  5
46
100
AcDbEntity
  8
0
100
AcDbBlockBegin
  2
BORDER
 70
0
 10
0.0
 20
0.0
 30
0.0
  3
BORDER
  1

  0
LINE
  5
47
100
AcDbEntity
100
AcDbLine
  8
0
 62
256
370
-1
  6
ByLayer
 10
0.0
 20
-12.0
 30
0.0
 11
24.0
 21
-12.0
 31
0.0
  0
LINE
  5
48
100
AcDbEntity
100
AcDbLine
  8
0
 62
256
370
-1
  6
ByLayer
 10
24.0
 20
-12.0
 30
0.0
 11
24.0
 21
0.0
 31
0.0
  0
LINE
  5
49
100
AcDbEntity
100
AcDbLine
  8
0
 62
256
370
-1
  6
ByLayer
 10
24.0
 20
0.0
 30
0.0
 11
0.0
 21
0.0
 31
0.0
  0
LINE
  5
4A
100
AcDbEntity
100
AcDbLine
  8
0
 62
256
370
-1
  6
ByLayer
 10
0.0
 20
0.0
 30
0.0
 11
0.0
 21
-12.0
 31
0.0
  0
ENDBLK
  5
4B
100
AcDbEntity
  8
0
100
AcDbBlockEnd
  0
BLOCK
  5
4C
100
AcDbEntity
  8
0
100
AcDbBlockBegin
  2
rats1
 70
0
 10
0.0
 20
0.0
 30
0.0
  3
rats1
  1

  0
LINE
  5
4D
100
AcDbEntity
100
AcDbLine
  8
CUT_SHEET_2b
 62
3
420
65280
370
15
  6
ByLayer
 10
7.4947830457000002
 20
-6.7164893467000013
 30
0.0
 11
7.4947830457000002
 21
-6.5499242955000021
 31
0.0
  0
LINE
  5
4E
100
AcDbEntity
100
AcDbLine
  8
CUT_SHEET_2b
 62
3
420
65280
370
15
  6
ByLayer
 10
7.3452603777000007
 20
-6.3833592442000011
 30
0.0
 11
6.8947256839000026
 21
-6.3833592441999976
 31
0.0
  0
LINE
  5
4F
100
AcDbEntity
100
AcDbLine
  8
CUT_SHEET_2b
 62
3
420
65280
370
15
  6
ByLayer
 10
6.745216579200001
 20
-6.5499242955000021
 30
0.0
 11
6.745216579200001
 21
-6.7164893466999978
 31
0.0
  0
LINE
  5
50
100
AcDbEntity
100
AcDbLine
  8
CUT_SHEET_2b
 62
3
420
65280
370
15
  6
ByLayer
 10
6.8947256839000026
 20
-6.8830679613000036
 30
0.0
 11
7.3452603777000007
 21
-6.8830679613000001
 31
0.0
  0
LINE
  5
51
100
AcDbEntity
100
AcDbLine
  8
CUT_SHEET_2b
 62
3
420
65280
370
15
  6
ByLayer
 10
0.0
 20
-6.7523916055999997
 30
0.0
 11
-0.2148845817999998
 21
-6.7517134367999994
 31
0.0
  0
LINE
  5
52
100
AcDbEntity
100
AcDbLine
  8
CUT_SHEET_2b
 62
3
420
65280
370
15
  6
ByLayer
 10
-0.2148845817999998
 20
-6.7517134367999994
 30
0.0
 11
-0.2148845817999998
 21
-6.3319540453999998
 31
0.0
  0
LINE
  5
53
100
AcDbEntity
100
AcDbLine
  8
CUT_SHEET_2b
 62
3
420
65280
370
15
  6
ByLayer
 10
-0.2148845817999998
 20
-6.3319540453999998
 30
0.0
 11
0.0
 21
-6.3319540453999998
 31
0.0
  0
LINE
  5
54
100
AcDbEntity
100
AcDbLine
  8
CUT_SHEET_2b
 62
3
420
65280
370
15
  6
ByLayer
 10
0.0
 20
-6.3319540453999998
 30
0.0
 11
0.0
 21
-6.1981920214000006
 31
0.0
  0
LINE
  5
55
100
AcDbEntity
100
AcDbLine
  8
CUT_SHEET_2b
 62
3
420
65280
370
15
  6
ByLayer
 10
0.0
 20
-6.1981920214000006
 30
0.0
 11
0.3678930378000018
 21
-6.1981920214000006
 31
0.0
  0
LINE
  5
56
100
AcDbEntity
100
AcDbLine
  8
CUT_SHEET_2b
 62
3
420
65280
370
15
  6
ByLayer
 10
0.3678930378000018
 20
-6.1981920214000006
 30
0.0
 11
0.3678930378000018
 21
-6.2601291824999983
 31
0.0
  0
LINE
  5
57
100
AcDbEntity
100
AcDbLine
  8
CUT_SHEET_2b
 62
3
420
65280
370
15
  6
ByLayer
 10
0.3678930378000018
 20
-6.2601291824999983
 30
0.0
 11
0.4859351078000032
 21
-6.2601291824999983
 31
0.0
  0
LINE
  5
58
100
AcDbEntity
100
AcDbLine
  8
CUT_SHEET_2b
 62
3
420
65280
370
15
  6
ByLayer
 10
0.4859351078000032
 20
-6.2601291824999983
 30
0.0
 11
0.4859351077999996
 21
-6.1981920214000006
 31
0.0
  0
LINE
  5
59
100
AcDbEntity
100
AcDbLine
  8
CUT_SHEET_2b
 62
3
420
65280
370
15
  6
ByLayer
 10
0.4859351077999996
 20
-6.1981920214000006
 30
0.0
 11
0.564670511300001
 21
-6.1981920214000006
 31
0.0
  0
LINE
  5
5A
100
AcDbEntity
100
AcDbLine
  8
CUT_SHEET_2b
 62
3
420
65280
370
15
  6
ByLayer
 10
0.564670511300001
 20
-6.1981920214000006
 30
0.0
 11
0.564670511300001
 21
-6.0722764110999989
 31
0.0
  0
LINE
  5
5B
100
AcDbEntity
100
AcDbLine
  8
CUT_SHEET_2b
 62
3
420
65280
370
15
  6
ByLayer
 10
0.564670511300001
 20
-6.0722764110999989
 30
0.0
 11
0.4859351077999996
 21
-6.0722764110999989
 31
0.0
  0
LINE
  5
5C
100
AcDbEntity
100
AcDbLine
  8
CUT_SHEET_2b
 62
3
420
65280
370
15
  6
ByLayer
 10
0.4859351077999996
 20
-6.0722764110999989
 30
0.0
 11
0.4859351078000032
 21
-6.0102849965000011
 31
0.0
  0
LINE
  5
5D
100
AcDbEntity
100
AcDbLine
  8
CUT_SHEET_2b
 62
3
420
65280
370
15
  6
ByLayer
 10
0.4859351078000032
 20
-6.0102849965000011
 30
0.0
 11
0.3678930378000018
 21
-6.0102849965000011
 31
0.0
  0
LINE
  5
5E
100
AcDbEntity
100
AcDbLine
  8
CUT_SHEET_2b
 62
3
420
65280
370
15
  6
ByLayer
 10
0.3678930378000018
 20
-6.0102849965000011
 30
0.0
 11
0.3678930377999983
 21
-6.0722764110999989
 31
0.0
  0
LINE
  5
5F
100
AcDbEntity
100
AcDbLine
  8
CUT_SHEET_2b
 62
3
420
65280
370
15
  6
ByLayer
 10
0.3678930377999983
 20
-6.0722764110999989
 30
0.0
 11
0.0
 21
-6.0722764110999989
 31
0.0
  0
LINE
  5
60
100
AcDbEntity
100
AcDbLine
  8
CUT_SHEET_2b
 62
3
420
65280
370
15
  6
ByLayer
 10
0.0
 20
-6.0722764110999989
 30
0.0
 11
0.0
 21
-5.938487260299997
 31
0.0
  0
LINE
  5
61
100
AcDbEntity
100
AcDbLine
  8
CUT_SHEET_2b
 62
3
420
65280
370
15
  6
ByLayer
 10
0.0
 20
-5.938487260299997
 30
0.0
 11
-0.2148574549999971
 21
-5.938487260299997
 31
0.0
  0
LINE
  5
62
100
AcDbEntity
100
AcDbLine
  8
CUT_SHEET_2b
 62
3
420
65280
370
15
  6
ByLayer
 10
-0.2148574549999971
 20
-5.938487260299997
 30
0.0
 11
-0.2148574549999971
 21
-5.5187007422000001
 31
0.0
  0
LINE
  5
63
100
AcDbEntity
100
AcDbLine
  8
CUT_SHEET_2b
 62
3
420
65280
370
15
  6
ByLayer
 10
-0.2148574549999971
 20
-5.5187007422000001
 30
0.0
 11
0.0
 21
-5.5180225732999979
 31
0.0
  0
LINE
  5
64
100
AcDbEntity
100
AcDbLine
  8
CUT_SHEET_2b
 62
3
420
65280
370
15
  6
ByLayer
 10
0.0
 20
-5.5180225732999979
 30
0.0
 11
0.0
 21
-3.2366015267999977
 31
0.0
  0
LINE
  5
65
100
AcDbEntity
100
AcDbLine
  8
CUT_SHEET_2b
 62
3
420
65280
370
15
  6
ByLayer
 10
0.0
 20
-3.2366015267999977
 30
0.0
 11
-0.2148845817999963
 21
-3.2359233578999991
 31
0.0
  0
LINE
  5
66
100
AcDbEntity
100
AcDbLine
  8
CUT_SHEET_2b
 62
3
420
65280
370
15
  6
ByLayer
 10
-0.2148845817999963
 20
-3.2359233578999991
 30
0.0
 11
-0.2148845818000034
 21
-2.8161368397999986
 31
0.0
  0
LINE
  5
67
100
AcDbEntity
100
AcDbLine
  8
CUT_SHEET_2b
 62
3
420
65280
370
15
  6
ByLayer
 10
-0.2148845818000034
 20
-2.8161368397999986
 30
0.0
 11
0.0
 21
-2.8161368397999986
 31
0.0
  0
LINE
  5
68
100
AcDbEntity
100
AcDbLine
  8
CUT_SHEET_2b
 62
3
420
65280
370
15
  6
ByLayer
 10
0.0
 20
-2.8161368397999986
 30
0.0
 11
0.0
 21
-2.6823680340999978
 31
0.0
  0
LINE
  5
69
100
AcDbEntity
100
AcDbLine
  8
CUT_SHEET_2b
 62
3
420
65280
370
15
  6
ByLayer
 10
0.0
 20
-2.6823680340999978
 30
0.0
 11
0.3678930378000054
 21
-2.6823680340999978
 31
0.0
  0
LINE
  5
6A
100
AcDbEntity
100
AcDbLine
  8
CUT_SHEET_2b
 62
3
420
65280
370
15
  6
ByLayer
 10
0.3678930378000054
 20
-2.6823680340999978
 30
0.0
 11
0.3678930377999983
 21
-2.7443255401999984
 31
0.0
  0
LINE
  5
6B
100
AcDbEntity
100
AcDbLine
  8
CUT_SHEET_2b
 62
3
420
65280
370
15
  6
ByLayer
 10
0.3678930377999983
 20
-2.7443255401999984
 30
0.0
 11
0.4859351077999996
 21
-2.7443255401999984
 31
0.0
  0
LINE
  5
6C
100
AcDbEntity
100
AcDbLine
  8
CUT_SHEET_2b
 62
3
420
65280
370
15
  6
ByLayer
 10
0.4859351077999996
 20
-2.7443255401999984
 30
0.0
 11
0.4859351078000032
 21
-2.6823680340999978
 31
0.0
  0
LINE
  5
6D
100
AcDbEntity
100
AcDbLine
  8
CUT_SHEET_2b
 62
3
420
65280
370
15
  6
ByLayer
 10
0.4859351078000032
 20
-2.6823680340999978
 30
0.0
 11
0.5646705112999975
 21
-2.6823680340999978
 31
0.0
  0
LINE
  5
6E
100
AcDbEntity
100
AcDbLine
  8
CUT_SHEET_2b
 62
3
420
65280
370
15
  6
ByLayer
 10
0.5646705112999975
 20
-2.6823680340999978
 30
0.0
 11
0.5646705113000081
 21
-2.5564727687999991
 31
0.0
  0
LINE
  5
6F
100
AcDbEntity
100
AcDbLine
  8
CUT_SHEET_2b
 62
3
420
65280
370
15
  6
ByLayer
 10
0.5646705113000081
 20
-2.5564727687999991
 30
0.0
 11
0.4859351078000067
 21
-2.5564727687999991
 31
0.0
  0
LINE
  5
70
100
AcDbEntity
100
AcDbLine
  8
CUT_SHEET_2b
 62
3
420
65280
370
15
  6
ByLayer
 10
0.4859351078000067
 20
-2.5564727687999991
 30
0.0
 11
0.4859351078000032
 21
-2.4944610090999966
 31
0.0
  0
LINE
  5
71
100
AcDbEntity
100
AcDbLine
  8
CUT_SHEET_2b
 62
3
420
65280
370
15
  6
ByLayer
 10
0.4859351078000032
 20
-2.4944610090999966
 30
0.0
 11
0.3678930378000125
 21
-2.4944610090999966
 31
0.0
  0
LINE
  5
72
100
AcDbEntity
100
AcDbLine
  8
CUT_SHEET_2b
 62
3
420
65280
370
15
  6
ByLayer
 10
0.3678930378000125
 20
-2.4944610090999966
 30
0.0
 11
0.3678930378000125
 21
-2.5564727687999991
 31
0.0
  0
LINE
  5
73
100
AcDbEntity
100
AcDbLine
  8
CUT_SHEET_2b
 62
3
420
65280
370
15
  6
ByLayer
 10
0.3678930378000125
 20
-2.5564727687999991
 30
0.0
 11
0.0
 21
-2.5564727687999991
 31
0.0
  0
LINE
  5
74
100
AcDbEntity
100
AcDbLine
  8
CUT_SHEET_2b
 62
3
420
65280
370
15
  6
ByLayer
 10
0.0
 20
-2.5564727687999991
 30
0.0
 11
0.0
 21
-2.4226632730000013
 31
0.0
  0
LINE
  5
75
100
AcDbEntity
100
AcDbLine
  8
CUT_SHEET_2b
 62
3
420
65280
370
15
  6
ByLayer
 10
0.0
 20
-2.4226632730000013
 30
0.0
 11
-0.2148574549999935
 21
-2.4226632730000013
 31
0.0
  0
LINE
  5
76
100
AcDbEntity
100
AcDbLine
  8
CUT_SHEET_2b
 62
3
420
65280
370
15
  6
ByLayer
 10
-0.2148574549999935
 20
-2.4226632730000013
 30
0.0
 11
-0.2148574549999758
 21
-2.0029174449999978
 31
0.0
  0
LINE
  5
77
100
AcDbEntity
100
AcDbLine
  8
CUT_SHEET_2b
 62
3
420
65280
370
15
  6
ByLayer
 10
-0.2148574549999758
 20
-2.0029174449999978
 30
0.0
 11
0.0
 21
-2.0029581350999983
 31
0.0
  0
LINE
  5
78
100
AcDbEntity
100
AcDbLine
  8
CUT_SHEET_2b
 62
3
420
65280
370
15
  6
ByLayer
 10
0.0
 20
-2.0029581350999983
 30
0.0
 11
0.241265350100015
 21
-2.0029581350999983
 31
0.0
  0
LINE
  5
79
100
AcDbEntity
100
AcDbLine
  8
CUT_SHEET_2b
 62
3
420
65280
370
15
  6
ByLayer
 10
0.241265350100015
 20
-2.0029581350999983
 30
0.0
 11
0.2412653501000115
 21
-0.9628234430999996
 31
0.0
  0
LINE
  5
7A
100
AcDbEntity
100
AcDbLine
  8
CUT_SHEET_2b
 62
3
420
65280
370
15
  6
ByLayer
 10
0.2412653501000115
 20
-0.9628234430999996
 30
0.0
 11
0.0
 21
-0.9628234430999996
 31
0.0
  0
LINE
  5
7B
100
AcDbEntity
100
AcDbLine
  8
CUT_SHEET_2b
 62
3
420
65280
370
15
  6
ByLayer
 10
0.0
 20
-0.9628234430999996
 30
0.0
 11
0.0
 21
0.0
 31
0.0
  0
LINE
  5
7C
100
AcDbEntity
100
AcDbLine
  8
CUT_SHEET_2b
 62
3
420
65280
370
15
  6
ByLayer
 10
0.0
 20
0.0
 30
0.0
 11
1.6296668733000104
 21
0.0
 31
0.0
  0
LINE
  5
7D
100
AcDbEntity
100
AcDbLine
  8
CUT_SHEET_2b
 62
3
420
65280
370
15
  6
ByLayer
 10
1.6296668733000104
 20
0.0
 30
0.0
 11
1.6303586056000015
 21
0.2148981451000012
 31
0.0
  0
LINE
  5
7E
100
AcDbEntity
100
AcDbLine
  8
CUT_SHEET_2b
 62
3
420
65280
370
15
  6
ByLayer
 10
1.6303586056000015
 20
0.2148981451000012
 30
0.0
 11
2.0501315603000094
 21
0.2148981450999976
 31
0.0
  0
LINE
  5
7F
100
AcDbEntity
100
AcDbLine
  8
CUT_SHEET_2b
 62
3
420
65280
370
15
  6
ByLayer
 10
2.0501315603000094
 20
0.2148981450999976
 30
0.0
 11
2.0501315603000076
 21
0.0
 31
0.0
  0
LINE
  5
80
100
AcDbEntity
100
AcDbLine
  8
CUT_SHEET_2b
 62
3
420
65280
370
15
  6
ByLayer
 10
2.0501315603000076
 20
0.0
 30
0.0
 11
2.1839071477000083
 21
0.0
 31
0.0
  0
LINE
  5
81
100
AcDbEntity
100
AcDbLine
  8
CUT_SHEET_2b
 62
3
420
65280
370
15
  6
ByLayer
 10
2.1839071477000083
 20
0.0
 30
0.0
 11
2.1839071477000029
 21
-0.3678930377999983
 31
0.0
  0
LINE
  5
82
100
AcDbEntity
100
AcDbLine
  8
CUT_SHEET_2b
 62
3
420
65280
370
15
  6
ByLayer
 10
2.1839071477000029
 20
-0.3678930377999983
 30
0.0
 11
2.1219632049000072
 21
-0.3678930377999983
 31
0.0
  0
LINE
  5
83
100
AcDbEntity
100
AcDbLine
  8
CUT_SHEET_2b
 62
3
420
65280
370
15
  6
ByLayer
 10
2.1219632049000072
 20
-0.3678930377999983
 30
0.0
 11
2.1219632049000072
 21
-0.4859351077999996
 31
0.0
  0
LINE
  5
84
100
AcDbEntity
100
AcDbLine
  8
CUT_SHEET_2b
 62
3
420
65280
370
15
  6
ByLayer
 10
2.1219632049000072
 20
-0.4859351077999996
 30
0.0
 11
2.1839071477000012
 21
-0.4859351077999996
 31
0.0
  0
LINE
  5
85
100
AcDbEntity
100
AcDbLine
  8
CUT_SHEET_2b
 62
3
420
65280
370
15
  6
ByLayer
 10
2.1839071477000012
 20
-0.4859351077999996
 30
0.0
 11
2.1839071477000012
 21
-0.5646637295999994
 31
0.0
  0
LINE
  5
86
100
AcDbEntity
100
AcDbLine
  8
CUT_SHEET_2b
 62
3
420
65280
370
15
  6
ByLayer
 10
2.1839071477000012
 20
-0.5646637295999994
 30
0.0
 11
2.309802413000007
 21
-0.5646637295999994
 31
0.0
  0
LINE
  5
87
100
AcDbEntity
100
AcDbLine
  8
CUT_SHEET_2b
 62
3
420
65280
370
15
  6
ByLayer
 10
2.309802413000007
 20
-0.5646637295999994
 30
0.0
 11
2.309802413000007
 21
-0.4859351077999996
 31
0.0
  0
LINE
  5
88
100
AcDbEntity
100
AcDbLine
  8
CUT_SHEET_2b
 62
3
420
65280
370
15
  6
ByLayer
 10
2.309802413000007
 20
-0.4859351077999996
 30
0.0
 11
2.3718141726000059
 21
-0.4859351077999996
 31
0.0
  0
LINE
  5
89
100
AcDbEntity
100
AcDbLine
  8
CUT_SHEET_2b
 62
3
420
65280
370
15
  6
ByLayer
 10
2.3718141726000059
 20
-0.4859351077999996
 30
0.0
 11
2.3718141726000042
 21
-0.3678930377999983
 31
0.0
  0
LINE
  5
8A
100
AcDbEntity
100
AcDbLine
  8
CUT_SHEET_2b
 62
3
420
65280
370
15
  6
ByLayer
 10
2.3718141726000042
 20
-0.3678930377999983
 30
0.0
 11
2.309802413000007
 21
-0.3678930377999983
 31
0.0
  0
LINE
  5
8B
100
AcDbEntity
100
AcDbLine
  8
CUT_SHEET_2b
 62
3
420
65280
370
15
  6
ByLayer
 10
2.309802413000007
 20
-0.3678930377999983
 30
0.0
 11
2.3098024130000052
 21
0.0
 31
0.0
  0
LINE
  5
8C
100
AcDbEntity
100
AcDbLine
  8
CUT_SHEET_2b
 62
3
420
65280
370
15
  6
ByLayer
 10
2.3098024130000052
 20
0.0
 30
0.0
 11
2.4436051270999979
 21
0.0
 31
0.0
  0
LINE
  5
8D
100
AcDbEntity
100
AcDbLine
  8
CUT_SHEET_2b
 62
3
420
65280
370
15
  6
ByLayer
 10
2.4436051270999979
 20
0.0
 30
0.0
 11
2.4436051271000103
 21
0.2148710184000002
 31
0.0
  0
LINE
  5
8E
100
AcDbEntity
100
AcDbLine
  8
CUT_SHEET_2b
 62
3
420
65280
370
15
  6
ByLayer
 10
2.4436051271000103
 20
0.2148710184000002
 30
0.0
 11
2.8633645184999992
 21
0.2148710184000002
 31
0.0
  0
LINE
  5
8F
100
AcDbEntity
100
AcDbLine
  8
CUT_SHEET_2b
 62
3
420
65280
370
15
  6
ByLayer
 10
2.8633645184999992
 20
0.2148710184000002
 30
0.0
 11
2.8633373917000071
 21
0.0
 31
0.0
  0
LINE
  5
90
100
AcDbEntity
100
AcDbLine
  8
CUT_SHEET_2b
 62
3
420
65280
370
15
  6
ByLayer
 10
2.8633373917000071
 20
0.0
 30
0.0
 11
6.1920071215000014
 21
0.0
 31
0.0
  0
LINE
  5
91
100
AcDbEntity
100
AcDbLine
  8
CUT_SHEET_2b
 62
3
420
65280
370
15
  6
ByLayer
 10
6.1920071215000014
 20
0.0
 30
0.0
 11
6.1920478117000037
 21
0.2148981450999976
 31
0.0
  0
LINE
  5
92
100
AcDbEntity
100
AcDbLine
  8
CUT_SHEET_2b
 62
3
420
65280
370
15
  6
ByLayer
 10
6.1920478117000037
 20
0.2148981450999976
 30
0.0
 11
6.6118343298000042
 21
0.2148981450999976
 31
0.0
  0
LINE
  5
93
100
AcDbEntity
100
AcDbLine
  8
CUT_SHEET_2b
 62
3
420
65280
370
15
  6
ByLayer
 10
6.6118343298000042
 20
0.2148981450999976
 30
0.0
 11
6.6118343298000042
 21
0.0
 31
0.0
  0
LINE
  5
94
100
AcDbEntity
100
AcDbLine
  8
CUT_SHEET_2b
 62
3
420
65280
370
15
  6
ByLayer
 10
6.6118343298000042
 20
0.0
 30
0.0
 11
6.745609917200003
 21
0.0
 31
0.0
  0
LINE
  5
95
100
AcDbEntity
100
AcDbLine
  8
CUT_SHEET_2b
 62
3
420
65280
370
15
  6
ByLayer
 10
6.745609917200003
 20
0.0
 30
0.0
 11
6.7456099172000048
 21
-0.3678930378000018
 31
0.0
  0
LINE
  5
96
100
AcDbEntity
100
AcDbLine
  8
CUT_SHEET_2b
 62
3
420
65280
370
15
  6
ByLayer
 10
6.7456099172000048
 20
-0.3678930378000018
 30
0.0
 11
6.6836524110000024
 21
-0.3678930377999983
 31
0.0
  0
LINE
  5
97
100
AcDbEntity
100
AcDbLine
  8
CUT_SHEET_2b
 62
3
420
65280
370
15
  6
ByLayer
 10
6.6836524110000024
 20
-0.3678930377999983
 30
0.0
 11
6.6836524110000042
 21
-0.4859351078000032
 31
0.0
  0
LINE
  5
98
100
AcDbEntity
100
AcDbLine
  8
CUT_SHEET_2b
 62
3
420
65280
370
15
  6
ByLayer
 10
6.6836524110000042
 20
-0.4859351078000032
 30
0.0
 11
6.7456099172000066
 21
-0.4859351078000032
 31
0.0
  0
LINE
  5
99
100
AcDbEntity
100
AcDbLine
  8
CUT_SHEET_2b
 62
3
420
65280
370
15
  6
ByLayer
 10
6.7456099172000066
 20
-0.4859351078000032
 30
0.0
 11
6.7456099172000048
 21
-0.5646637295999994
 31
0.0
  0
LINE
  5
9A
100
AcDbEntity
100
AcDbLine
  8
CUT_SHEET_2b
 62
3
420
65280
370
15
  6
ByLayer
 10
6.7456099172000048
 20
-0.5646637295999994
 30
0.0
 11
6.8715051825000018
 21
-0.5646637295999994
 31
0.0
  0
LINE
  5
9B
100
AcDbEntity
100
AcDbLine
  8
CUT_SHEET_2b
 62
3
420
65280
370
15
  6
ByLayer
 10
6.8715051825000018
 20
-0.5646637295999994
 30
0.0
 11
6.8715051825000071
 21
-0.4859351078000032
 31
0.0
  0
LINE
  5
9C
100
AcDbEntity
100
AcDbLine
  8
CUT_SHEET_2b
 62
3
420
65280
370
15
  6
ByLayer
 10
6.8715051825000071
 20
-0.4859351078000032
 30
0.0
 11
6.9335033787000064
 21
-0.4859351078000067
 31
0.0
  0
LINE
  5
9D
100
AcDbEntity
100
AcDbLine
  8
CUT_SHEET_2b
 62
3
420
65280
370
15
  6
ByLayer
 10
6.9335033787000064
 20
-0.4859351078000067
 30
0.0
 11
6.9335033787000029
 21
-0.3678930378000018
 31
0.0
  0
LINE
  5
9E
100
AcDbEntity
100
AcDbLine
  8
CUT_SHEET_2b
 62
3
420
65280
370
15
  6
ByLayer
 10
6.9335033787000029
 20
-0.3678930378000018
 30
0.0
 11
6.8715051825000071
 21
-0.3678930378000018
 31
0.0
  0
LINE
  5
9F
100
AcDbEntity
100
AcDbLine
  8
CUT_SHEET_2b
 62
3
420
65280
370
15
  6
ByLayer
 10
6.8715051825000071
 20
-0.3678930378000018
 30
0.0
 11
6.8715051825000035
 21
0.0
 31
0.0
  0
LINE
  5
A0
100
AcDbEntity
100
AcDbLine
  8
CUT_SHEET_2b
 62
3
420
65280
370
15
  6
ByLayer
 10
6.8715051825000035
 20
0.0
 30
0.0
 11
7.0052943332000055
 21
-0.0000000000000036
 31
0.0
  0
LINE
  5
A1
100
AcDbEntity
100
AcDbLine
  8
CUT_SHEET_2b
 62
3
420
65280
370
15
  6
ByLayer
 10
7.0052943332000055
 20
-0.0000000000000036
 30
0.0
 11
7.0052943332000055
 21
0.2148710183999967
 31
0.0
  0
LINE
  5
A2
100
AcDbEntity
100
AcDbLine
  8
CUT_SHEET_2b
 62
3
420
65280
370
15
  6
ByLayer
 10
7.0052943332000055
 20
0.2148710183999967
 30
0.0
 11
7.425053724600005
 21
0.2148710183999967
 31
0.0
  0
LINE
  5
A3
100
AcDbEntity
100
AcDbLine
  8
CUT_SHEET_2b
 62
3
420
65280
370
15
  6
ByLayer
 10
7.425053724600005
 20
0.2148710183999967
 30
0.0
 11
7.4257318934000018
 21
0.0
 31
0.0
  0
LINE
  5
A4
100
AcDbEntity
100
AcDbLine
  8
CUT_SHEET_2b
 62
3
420
65280
370
15
  6
ByLayer
 10
7.4257318934000018
 20
0.0
 30
0.0
 11
10.7530724123000017
 21
-0.0000000000000036
 31
0.0
  0
LINE
  5
A5
100
AcDbEntity
100
AcDbLine
  8
CUT_SHEET_2b
 62
3
420
65280
370
15
  6
ByLayer
 10
10.7530724123000017
 20
-0.0000000000000036
 30
0.0
 11
10.7537505811000056
 21
0.2148981450999941
 31
0.0
  0
LINE
  5
A6
100
AcDbEntity
100
AcDbLine
  8
CUT_SHEET_2b
 62
3
420
65280
370
15
  6
ByLayer
 10
10.7537505811000056
 20
0.2148981450999941
 30
0.0
 11
11.1735370993000007
 21
0.2148981450999976
 31
0.0
  0
LINE
  5
A7
100
AcDbEntity
100
AcDbLine
  8
CUT_SHEET_2b
 62
3
420
65280
370
15
  6
ByLayer
 10
11.1735370993000007
 20
0.2148981450999976
 30
0.0
 11
11.1735370993000007
 21
0.0
 31
0.0
  0
LINE
  5
A8
100
AcDbEntity
100
AcDbLine
  8
CUT_SHEET_2b
 62
3
420
65280
370
15
  6
ByLayer
 10
11.1735370993000007
 20
0.0
 30
0.0
 11
11.3072991233000035
 21
-0.0000000000000036
 31
0.0
  0
LINE
  5
A9
100
AcDbEntity
100
AcDbLine
  8
CUT_SHEET_2b
 62
3
420
65280
370
15
  6
ByLayer
 10
11.3072991233000035
 20
-0.0000000000000036
 30
0.0
 11
11.3072991233000071
 21
-0.3678930378000054
 31
0.0
  0
LINE
  5
AA
100
AcDbEntity
100
AcDbLine
  8
CUT_SHEET_2b
 62
3
420
65280
370
15
  6
ByLayer
 10
11.3072991233000071
 20
-0.3678930378000054
 30
0.0
 11
11.2453416171000029
 21
-0.3678930377999983
 31
0.0
  0
LINE
  5
AB
100
AcDbEntity
100
AcDbLine
  8
CUT_SHEET_2b
 62
3
420
65280
370
15
  6
ByLayer
 10
11.2453416171000029
 20
-0.3678930377999983
 30
0.0
 11
11.2453416171000029
 21
-0.4859351077999996
 31
0.0
  0
LINE
  5
AC
100
AcDbEntity
100
AcDbLine
  8
CUT_SHEET_2b
 62
3
420
65280
370
15
  6
ByLayer
 10
11.2453416171000029
 20
-0.4859351077999996
 30
0.0
 11
11.3072991233000071
 21
-0.4859351078000067
 31
0.0
  0
LINE
  5
AD
100
AcDbEntity
100
AcDbLine
  8
CUT_SHEET_2b
 62
3
420
65280
370
15
  6
ByLayer
 10
11.3072991233000071
 20
-0.4859351078000067
 30
0.0
 11
11.3072991233000035
 21
-0.564663729600003
 31
0.0
  0
LINE
  5
AE
100
AcDbEntity
100
AcDbLine
  8
CUT_SHEET_2b
 62
3
420
65280
370
15
  6
ByLayer
 10
11.3072991233000035
 20
-0.564663729600003
 30
0.0
 11
11.433194388600004
 21
-0.564663729600003
 31
0.0
  0
LINE
  5
AF
100
AcDbEntity
100
AcDbLine
  8
CUT_SHEET_2b
 62
3
420
65280
370
15
  6
ByLayer
 10
11.433194388600004
 20
-0.564663729600003
 30
0.0
 11
11.4331943886000005
 21
-0.4859351077999996
 31
0.0
  0
LINE
  5
B0
100
AcDbEntity
100
AcDbLine
  8
CUT_SHEET_2b
 62
3
420
65280
370
15
  6
ByLayer
 10
11.4331943886000005
 20
-0.4859351077999996
 30
0.0
 11
11.4952061482000047
 21
-0.4859351078000067
 31
0.0
  0
LINE
  5
B1
100
AcDbEntity
100
AcDbLine
  8
CUT_SHEET_2b
 62
3
420
65280
370
15
  6
ByLayer
 10
11.4952061482000047
 20
-0.4859351078000067
 30
0.0
 11
11.4952061482000012
 21
-0.3678930378000018
 31
0.0
  0
LINE
  5
B2
100
AcDbEntity
100
AcDbLine
  8
CUT_SHEET_2b
 62
3
420
65280
370
15
  6
ByLayer
 10
11.4952061482000012
 20
-0.3678930378000018
 30
0.0
 11
11.4331943886000023
 21
-0.3678930377999983
 31
0.0
  0
LINE
  5
B3
100
AcDbEntity
100
AcDbLine
  8
CUT_SHEET_2b
 62
3
420
65280
370
15
  6
ByLayer
 10
11.4331943886000023
 20
-0.3678930377999983
 30
0.0
 11
11.4331943886000005
 21
-0.0000000000000036
 31
0.0
  0
LINE
  5
B4
100
AcDbEntity
100
AcDbLine
  8
CUT_SHEET_2b
 62
3
420
65280
370
15
  6
ByLayer
 10
11.4331943886000005
 20
-0.0000000000000036
 30
0.0
 11
11.5669971026999985
 21
0.0000000000000036
 31
0.0
  0
LINE
  5
B5
100
AcDbEntity
100
AcDbLine
  8
CUT_SHEET_2b
 62
3
420
65280
370
15
  6
ByLayer
 10
11.5669971026999985
 20
0.0000000000000036
 30
0.0
 11
11.5669971027000003
 21
0.2148710184000002
 31
0.0
  0
LINE
  5
B6
100
AcDbEntity
100
AcDbLine
  8
CUT_SHEET_2b
 62
3
420
65280
370
15
  6
ByLayer
 10
11.5669971027000003
 20
0.2148710184000002
 30
0.0
 11
11.986742930700002
 21
0.2148710184000002
 31
0.0
  0
LINE
  5
B7
100
AcDbEntity
100
AcDbLine
  8
CUT_SHEET_2b
 62
3
420
65280
370
15
  6
ByLayer
 10
11.986742930700002
 20
0.2148710184000002
 30
0.0
 11
11.9867293673000024
 21
-0.0000000000000036
 31
0.0
  0
LINE
  5
B8
100
AcDbEntity
100
AcDbLine
  8
CUT_SHEET_2b
 62
3
420
65280
370
15
  6
ByLayer
 10
11.9867293673000024
 20
-0.0000000000000036
 30
0.0
 11
13.6171150996000012
 21
0.0
 31
0.0
  0
LINE
  5
B9
100
AcDbEntity
100
AcDbLine
  8
CUT_SHEET_2b
 62
3
420
65280
370
15
  6
ByLayer
 10
13.6171150996000012
 20
0.0
 30
0.0
 11
13.617115099600003
 21
-0.9635016120000053
 31
0.0
  0
LINE
  5
BA
100
AcDbEntity
100
AcDbLine
  8
CUT_SHEET_2b
 62
3
420
65280
370
15
  6
ByLayer
 10
13.617115099600003
 20
-0.9635016120000053
 30
0.0
 11
13.3758497494999968
 21
-0.9635016119999946
 31
0.0
  0
LINE
  5
BB
100
AcDbEntity
100
AcDbLine
  8
CUT_SHEET_2b
 62
3
420
65280
370
15
  6
ByLayer
 10
13.3758497494999968
 20
-0.9635016119999946
 30
0.0
 11
13.3758497495000039
 21
-2.0029174450000049
 31
0.0
  0
LINE
  5
BC
100
AcDbEntity
100
AcDbLine
  8
CUT_SHEET_2b
 62
3
420
65280
370
15
  6
ByLayer
 10
13.3758497495000039
 20
-2.0029174450000049
 30
0.0
 11
13.6171150995999977
 21
-2.0029174449999978
 31
0.0
  0
LINE
  5
BD
100
AcDbEntity
100
AcDbLine
  8
CUT_SHEET_2b
 62
3
420
65280
370
15
  6
ByLayer
 10
13.6171150995999977
 20
-2.0029174449999978
 30
0.0
 11
13.8319589912000005
 21
-2.0035956137999982
 31
0.0
  0
LINE
  5
BE
100
AcDbEntity
100
AcDbLine
  8
CUT_SHEET_2b
 62
3
420
65280
370
15
  6
ByLayer
 10
13.8319589912000005
 20
-2.0035956137999982
 30
0.0
 11
13.8319589911999987
 21
-2.4233550051999977
 31
0.0
  0
LINE
  5
BF
100
AcDbEntity
100
AcDbLine
  8
CUT_SHEET_2b
 62
3
420
65280
370
15
  6
ByLayer
 10
13.8319589911999987
 20
-2.4233550051999977
 30
0.0
 11
13.6171150996000012
 21
-2.4233550052000012
 31
0.0
  0
LINE
  5
C0
100
AcDbEntity
100
AcDbLine
  8
CUT_SHEET_2b
 62
3
420
65280
370
15
  6
ByLayer
 10
13.6171150996000012
 20
-2.4233550052000012
 30
0.0
 11
13.6171150995999994
 21
-2.5571441559999961
 31
0.0
  0
LINE
  5
C1
100
AcDbEntity
100
AcDbLine
  8
CUT_SHEET_2b
 62
3
420
65280
370
15
  6
ByLayer
 10
13.6171150995999994
 20
-2.5571441559999961
 30
0.0
 11
13.2492220618000012
 21
-2.5571441559999997
 31
0.0
  0
LINE
  5
C2
100
AcDbEntity
100
AcDbLine
  8
CUT_SHEET_2b
 62
3
420
65280
370
15
  6
ByLayer
 10
13.2492220618000012
 20
-2.5571441559999997
 30
0.0
 11
13.2492220618000047
 21
-2.4951391780000094
 31
0.0
  0
LINE
  5
C3
100
AcDbEntity
100
AcDbLine
  8
CUT_SHEET_2b
 62
3
420
65280
370
15
  6
ByLayer
 10
13.2492220618000047
 20
-2.4951391780000094
 30
0.0
 11
13.131166428400002
 21
-2.4951391780000023
 31
0.0
  0
LINE
  5
C4
100
AcDbEntity
100
AcDbLine
  8
CUT_SHEET_2b
 62
3
420
65280
370
15
  6
ByLayer
 10
13.131166428400002
 20
-2.4951391780000023
 30
0.0
 11
13.131166428400002
 21
-2.5571441560000068
 31
0.0
  0
LINE
  5
C5
100
AcDbEntity
100
AcDbLine
  8
CUT_SHEET_2b
 62
3
420
65280
370
15
  6
ByLayer
 10
13.131166428400002
 20
-2.5571441560000068
 30
0.0
 11
13.052444588300002
 21
-2.5571441559999997
 31
0.0
  0
LINE
  5
C6
100
AcDbEntity
100
AcDbLine
  8
CUT_SHEET_2b
 62
3
420
65280
370
15
  6
ByLayer
 10
13.052444588300002
 20
-2.5571441559999997
 30
0.0
 11
13.0524445883000038
 21
-2.6830462030000035
 31
0.0
  0
LINE
  5
C7
100
AcDbEntity
100
AcDbLine
  8
CUT_SHEET_2b
 62
3
420
65280
370
15
  6
ByLayer
 10
13.0524445883000038
 20
-2.6830462030000035
 30
0.0
 11
13.131166428400002
 21
-2.683046203
 31
0.0
  0
LINE
  5
C8
100
AcDbEntity
100
AcDbLine
  8
CUT_SHEET_2b
 62
3
420
65280
370
15
  6
ByLayer
 10
13.131166428400002
 20
-2.683046203
 30
0.0
 11
13.1311664284000003
 21
-2.744996927399999
 31
0.0
  0
LINE
  5
C9
100
AcDbEntity
100
AcDbLine
  8
CUT_SHEET_2b
 62
3
420
65280
370
15
  6
ByLayer
 10
13.1311664284000003
 20
-2.744996927399999
 30
0.0
 11
13.2492220618000012
 21
-2.744996927399999
 31
0.0
  0
LINE
  5
CA
100
AcDbEntity
100
AcDbLine
  8
CUT_SHEET_2b
 62
3
420
65280
370
15
  6
ByLayer
 10
13.2492220618000012
 20
-2.744996927399999
 30
0.0
 11
13.2492220618000029
 21
-2.6830462030000071
 31
0.0
  0
LINE
  5
CB
100
AcDbEntity
100
AcDbLine
  8
CUT_SHEET_2b
 62
3
420
65280
370
15
  6
ByLayer
 10
13.2492220618000029
 20
-2.6830462030000071
 30
0.0
 11
13.6171150996000012
 21
-2.683046203
 31
0.0
  0
LINE
  5
CC
100
AcDbEntity
100
AcDbLine
  8
CUT_SHEET_2b
 62
3
420
65280
370
15
  6
ByLayer
 10
13.6171150996000012
 20
-2.683046203
 30
0.0
 11
13.617115099600003
 21
-2.8168150086000026
 31
0.0
  0
LINE
  5
CD
100
AcDbEntity
100
AcDbLine
  8
CUT_SHEET_2b
 62
3
420
65280
370
15
  6
ByLayer
 10
13.617115099600003
 20
-2.8168150086000026
 30
0.0
 11
13.8319861179999997
 21
-2.8168150085999919
 31
0.0
  0
LINE
  5
CE
100
AcDbEntity
100
AcDbLine
  8
CUT_SHEET_2b
 62
3
420
65280
370
15
  6
ByLayer
 10
13.8319861179999997
 20
-2.8168150085999919
 30
0.0
 11
13.8319861180000014
 21
-3.2366015268000012
 31
0.0
  0
LINE
  5
CF
100
AcDbEntity
100
AcDbLine
  8
CUT_SHEET_2b
 62
3
420
65280
370
15
  6
ByLayer
 10
13.8319861180000014
 20
-3.2366015268000012
 30
0.0
 11
2.7278121288000037
 21
-3.2359233579000026
 31
0.0
  0
LINE
  5
D0
100
AcDbEntity
100
AcDbLine
  8
CUT_SHEET_2b
 62
3
420
65280
370
15
  6
ByLayer
 10
2.7278121288000037
 20
-3.2359233579000026
 30
0.0
 11
2.7278121288000001
 21
-5.058759846400001
 31
0.0
  0
LINE
  5
D1
100
AcDbEntity
100
AcDbLine
  8
CUT_SHEET_2b
 62
3
420
65280
370
15
  6
ByLayer
 10
2.7278121288000001
 20
-5.058759846400001
 30
0.0
 11
13.617115099600003
 21
-5.0587598464000045
 31
0.0
  0
LINE
  5
D2
100
AcDbEntity
100
AcDbLine
  8
CUT_SHEET_2b
 62
3
420
65280
370
15
  6
ByLayer
 10
13.617115099600003
 20
-5.0587598464000045
 30
0.0
 11
13.617115099600003
 21
-5.5179954466000041
 31
0.0
  0
LINE
  5
D3
100
AcDbEntity
100
AcDbLine
  8
CUT_SHEET_2b
 62
3
420
65280
370
15
  6
ByLayer
 10
13.617115099600003
 20
-5.5179954466000041
 30
0.0
 11
13.8319589912000005
 21
-5.5187007422000036
 31
0.0
  0
LINE
  5
D4
100
AcDbEntity
100
AcDbLine
  8
CUT_SHEET_2b
 62
3
420
65280
370
15
  6
ByLayer
 10
13.8319589912000005
 20
-5.5187007422000036
 30
0.0
 11
13.8319589911999987
 21
-5.9384872602999934
 31
0.0
  0
LINE
  5
D5
100
AcDbEntity
100
AcDbLine
  8
CUT_SHEET_2b
 62
3
420
65280
370
15
  6
ByLayer
 10
13.8319589911999987
 20
-5.9384872602999934
 30
0.0
 11
13.6171150996000012
 21
-5.9384872603000076
 31
0.0
  0
LINE
  5
D6
100
AcDbEntity
100
AcDbLine
  8
CUT_SHEET_2b
 62
3
420
65280
370
15
  6
ByLayer
 10
13.6171150996000012
 20
-5.9384872603000076
 30
0.0
 11
13.6171150996000012
 21
-6.072276411100006
 31
0.0
  0
LINE
  5
D7
100
AcDbEntity
100
AcDbLine
  8
CUT_SHEET_2b
 62
3
420
65280
370
15
  6
ByLayer
 10
13.6171150996000012
 20
-6.072276411100006
 30
0.0
 11
13.2492220618000012
 21
-6.0722764111000025
 31
0.0
  0
LINE
  5
D8
100
AcDbEntity
100
AcDbLine
  8
CUT_SHEET_2b
 62
3
420
65280
370
15
  6
ByLayer
 10
13.2492220618000012
 20
-6.0722764111000025
 30
0.0
 11
13.2492220618000029
 21
-6.0102849965000082
 31
0.0
  0
LINE
  5
D9
100
AcDbEntity
100
AcDbLine
  8
CUT_SHEET_2b
 62
3
420
65280
370
15
  6
ByLayer
 10
13.2492220618000029
 20
-6.0102849965000082
 30
0.0
 11
13.131166428400002
 21
-6.0102849965000011
 31
0.0
  0
LINE
  5
DA
100
AcDbEntity
100
AcDbLine
  8
CUT_SHEET_2b
 62
3
420
65280
370
15
  6
ByLayer
 10
13.131166428400002
 20
-6.0102849965000011
 30
0.0
 11
13.1311664284000003
 21
-6.0722764110999989
 31
0.0
  0
LINE
  5
DB
100
AcDbEntity
100
AcDbLine
  8
CUT_SHEET_2b
 62
3
420
65280
370
15
  6
ByLayer
 10
13.1311664284000003
 20
-6.0722764110999989
 30
0.0
 11
13.0524445883000002
 21
-6.0722764110999989
 31
0.0
  0
LINE
  5
DC
100
AcDbEntity
100
AcDbLine
  8
CUT_SHEET_2b
 62
3
420
65280
370
15
  6
ByLayer
 10
13.0524445883000002
 20
-6.0722764110999989
 30
0.0
 11
13.052444588300002
 21
-6.1981920214000112
 31
0.0
  0
LINE
  5
DD
100
AcDbEntity
100
AcDbLine
  8
CUT_SHEET_2b
 62
3
420
65280
370
15
  6
ByLayer
 10
13.052444588300002
 20
-6.1981920214000112
 30
0.0
 11
13.1311664284000003
 21
-6.1981920214000041
 31
0.0
  0
LINE
  5
DE
100
AcDbEntity
100
AcDbLine
  8
CUT_SHEET_2b
 62
3
420
65280
370
15
  6
ByLayer
 10
13.1311664284000003
 20
-6.1981920214000041
 30
0.0
 11
13.1311664284000003
 21
-6.2601291825000018
 31
0.0
  0
LINE
  5
DF
100
AcDbEntity
100
AcDbLine
  8
CUT_SHEET_2b
 62
3
420
65280
370
15
  6
ByLayer
 10
13.1311664284000003
 20
-6.2601291825000018
 30
0.0
 11
13.2492220618000029
 21
-6.2601291825000054
 31
0.0
  0
LINE
  5
E0
100
AcDbEntity
100
AcDbLine
  8
CUT_SHEET_2b
 62
3
420
65280
370
15
  6
ByLayer
 10
13.2492220618000029
 20
-6.2601291825000054
 30
0.0
 11
13.2492220618000012
 21
-6.1981920214000112
 31
0.0
  0
LINE
  5
E1
100
AcDbEntity
100
AcDbLine
  8
CUT_SHEET_2b
 62
3
420
65280
370
15
  6
ByLayer
 10
13.2492220618000012
 20
-6.1981920214000112
 30
0.0
 11
13.6171150996000012
 21
-6.1981920214000041
 31
0.0
  0
LINE
  5
E2
100
AcDbEntity
100
AcDbLine
  8
CUT_SHEET_2b
 62
3
420
65280
370
15
  6
ByLayer
 10
13.6171150996000012
 20
-6.1981920214000041
 30
0.0
 11
13.6171150996000012
 21
-6.3319540454000069
 31
0.0
  0
LINE
  5
E3
100
AcDbEntity
100
AcDbLine
  8
CUT_SHEET_2b
 62
3
420
65280
370
15
  6
ByLayer
 10
13.6171150996000012
 20
-6.3319540454000069
 30
0.0
 11
13.8319861180000014
 21
-6.3319540454000105
 31
0.0
  0
LINE
  5
E4
100
AcDbEntity
100
AcDbLine
  8
CUT_SHEET_2b
 62
3
420
65280
370
15
  6
ByLayer
 10
13.8319861180000014
 20
-6.3319540454000105
 30
0.0
 11
13.8319861180000032
 21
-6.75171343680001
 31
0.0
  0
LINE
  5
E5
100
AcDbEntity
100
AcDbLine
  8
CUT_SHEET_2b
 62
3
420
65280
370
15
  6
ByLayer
 10
13.8319861180000032
 20
-6.75171343680001
 30
0.0
 11
13.6171150996000012
 21
-6.7523916055999962
 31
0.0
  0
LINE
  5
E6
100
AcDbEntity
100
AcDbLine
  8
CUT_SHEET_2b
 62
3
420
65280
370
15
  6
ByLayer
 10
13.6171150996000012
 20
-6.7523916055999962
 30
0.0
 11
13.6171150996000012
 21
-7.9087034033000023
 31
0.0
  0
LINE
  5
E7
100
AcDbEntity
100
AcDbLine
  8
CUT_SHEET_2b
 62
3
420
65280
370
15
  6
ByLayer
 10
13.6171150996000012
 20
-7.9087034033000023
 30
0.0
 11
0.0
 21
-7.9087034032999988
 31
0.0
  0
LINE
  5
E8
100
AcDbEntity
100
AcDbLine
  8
CUT_SHEET_2b
 62
3
420
65280
370
15
  6
ByLayer
 10
0.0
 20
-7.9087034032999988
 30
0.0
 11
0.0
 21
-6.7523916055999997
 31
0.0
  0
LINE
  5
E9
100
AcDbEntity
100
AcDbLine
  8
CUT_SHEET_2b
 62
3
420
65280
370
15
  6
ByLayer
 10
8.3536703309000018
 20
-3.2352316256999991
 30
0.0
 11
8.3536703309000018
 21
-2.9953497401
 31
0.0
  0
LINE
  5
EA
100
AcDbEntity
100
AcDbLine
  8
CUT_SHEET_2b
 62
3
420
65280
370
15
  6
ByLayer
 10
8.3536703309000018
 20
-2.9953497401
 30
0.0
 11
7.9339245029000054
 21
-2.9953497401000071
 31
0.0
  0
LINE
  5
EB
100
AcDbEntity
100
AcDbLine
  8
CUT_SHEET_2b
 62
3
420
65280
370
15
  6
ByLayer
 10
7.9339245029000054
 20
-2.9953497401000071
 30
0.0
 11
7.9339245029000036
 21
-3.2352316257000027
 31
0.0
  0
LINE
  5
EC
100
AcDbEntity
100
AcDbLine
  8
CUT_SHEET_2b
 62
3
420
65280
370
15
  6
ByLayer
 10
7.9339245029000036
 20
-3.2352316257000027
 30
0.0
 11
8.3536703309000018
 21
-3.2352316256999991
 31
0.0
  0
LINE
  5
ED
100
AcDbEntity
100
AcDbLine
  8
CUT_SHEET_2b
 62
3
420
65280
370
15
  6
ByLayer
 10
7.5404509361000009
 20
-3.2352316256999991
 30
0.0
 11
7.5404509361000045
 21
-2.9953497401
 31
0.0
  0
LINE
  5
EE
100
AcDbEntity
100
AcDbLine
  8
CUT_SHEET_2b
 62
3
420
65280
370
15
  6
ByLayer
 10
7.5404509361000045
 20
-2.9953497401
 30
0.0
 11
7.1207051081000046
 21
-2.9953497401000035
 31
0.0
  0
LINE
  5
EF
100
AcDbEntity
100
AcDbLine
  8
CUT_SHEET_2b
 62
3
420
65280
370
15
  6
ByLayer
 10
7.1207051081000046
 20
-2.9953497401000035
 30
0.0
 11
7.1207051081000046
 21
-3.2352316257000027
 31
0.0
  0
LINE
  5
F0
100
AcDbEntity
100
AcDbLine
  8
CUT_SHEET_2b
 62
3
420
65280
370
15
  6
ByLayer
 10
7.1207051081000046
 20
-3.2352316257000027
 30
0.0
 11
7.5404509361000009
 21
-3.2352316256999991
 31
0.0
  0
LINE
  5
F1
100
AcDbEntity
100
AcDbLine
  8
CUT_SHEET_2b
 62
3
420
65280
370
15
  6
ByLayer
 10
3.9614826471000022
 20
-3.2352316256999991
 30
0.0
 11
3.961482647100004
 21
-2.9953497401
 31
0.0
  0
LINE
  5
F2
100
AcDbEntity
100
AcDbLine
  8
CUT_SHEET_2b
 62
3
420
65280
370
15
  6
ByLayer
 10
3.961482647100004
 20
-2.9953497401
 30
0.0
 11
3.5417232558000045
 21
-2.9953497401
 31
0.0
  0
LINE
  5
F3
100
AcDbEntity
100
AcDbLine
  8
CUT_SHEET_2b
 62
3
420
65280
370
15
  6
ByLayer
 10
3.5417232558000045
 20
-2.9953497401
 30
0.0
 11
3.5417232558000045
 21
-3.2352316257000027
 31
0.0
  0
LINE
  5
F4
100
AcDbEntity
100
AcDbLine
  8
CUT_SHEET_2b
 62
3
420
65280
370
15
  6
ByLayer
 10
3.5417232558000045
 20
-3.2352316257000027
 30
0.0
 11
3.9614826471000022
 21
-3.2352316256999991
 31
0.0
  0
LINE
  5
F5
100
AcDbEntity
100
AcDbLine
  8
CUT_SHEET_2b
 62
3
420
65280
370
15
  6
ByLayer
 10
3.1482632524000032
 20
-3.2352316256999991
 30
0.0
 11
3.1482632524000014
 21
-2.9953497401
 31
0.0
  0
LINE
  5
F6
100
AcDbEntity
100
AcDbLine
  8
CUT_SHEET_2b
 62
3
420
65280
370
15
  6
ByLayer
 10
3.1482632524000014
 20
-2.9953497401
 30
0.0
 11
2.7285038610000036
 21
-2.9953497401
 31
0.0
  0
LINE
  5
F7
100
AcDbEntity
100
AcDbLine
  8
CUT_SHEET_2b
 62
3
420
65280
370
15
  6
ByLayer
 10
2.7285038610000036
 20
-2.9953497401
 30
0.0
 11
2.7285038610000036
 21
-3.2352316256999991
 31
0.0
  0
LINE
  5
F8
100
AcDbEntity
100
AcDbLine
  8
CUT_SHEET_2b
 62
3
420
65280
370
15
  6
ByLayer
 10
2.7285038610000036
 20
-3.2352316256999991
 30
0.0
 11
3.1482632524000032
 21
-3.2352316256999991
 31
0.0
  0
LINE
  5
F9
100
AcDbEntity
100
AcDbLine
  8
CUT_SHEET_2b
 62
3
420
65280
370
15
  6
ByLayer
 10
8.3536703309000035
 20
-5.7585758461000012
 30
0.0
 11
8.3536703309000035
 21
-5.5187007422000036
 31
0.0
  0
LINE
  5
FA
100
AcDbEntity
100
AcDbLine
  8
CUT_SHEET_2b
 62
3
420
65280
370
15
  6
ByLayer
 10
8.3536703309000035
 20
-5.5187007422000036
 30
0.0
 11
7.9339109395000005
 21
-5.5187007422000001
 31
0.0
  0
LINE
  5
FB
100
AcDbEntity
100
AcDbLine
  8
CUT_SHEET_2b
 62
3
420
65280
370
15
  6
ByLayer
 10
7.9339109395000005
 20
-5.5187007422000001
 30
0.0
 11
7.9339109395000023
 21
-5.7585758461000012
 31
0.0
  0
LINE
  5
FC
100
AcDbEntity
100
AcDbLine
  8
CUT_SHEET_2b
 62
3
420
65280
370
15
  6
ByLayer
 10
7.9339109395000023
 20
-5.7585758461000012
 30
0.0
 11
8.3536703309000035
 21
-5.7585758461000012
 31
0.0
  0
LINE
  5
FD
100
AcDbEntity
100
AcDbLine
  8
CUT_SHEET_2b
 62
3
420
65280
370
15
  6
ByLayer
 10
7.5404373727000014
 20
-5.7585758461000047
 30
0.0
 11
7.5404373727000014
 21
-5.5187007422000001
 31
0.0
  0
LINE
  5
FE
100
AcDbEntity
100
AcDbLine
  8
CUT_SHEET_2b
 62
3
420
65280
370
15
  6
ByLayer
 10
7.5404373727000014
 20
-5.5187007422000001
 30
0.0
 11
7.1206915447000014
 21
-5.5187007422000036
 31
0.0
  0
LINE
  5
FF
100
AcDbEntity
100
AcDbLine
  8
CUT_SHEET_2b
 62
3
420
65280
370
15
  6
ByLayer
 10
7.1206915447000014
 20
-5.5187007422000036
 30
0.0
 11
7.1206915447000014
 21
-5.7585758461000047
 31
0.0
  0
LINE
  5
100
100
AcDbEntity
100
AcDbLine
  8
CUT_SHEET_2b
 62
3
420
65280
370
15
  6
ByLayer
 10
7.1206915447000014
 20
-5.7585758461000047
 30
0.0
 11
7.5404373727000014
 21
-5.7585758461000047
 31
0.0
  0
LINE
  5
101
100
AcDbEntity
100
AcDbLine
  8
CUT_SHEET_2b
 62
3
420
65280
370
15
  6
ByLayer
 10
3.9614826471000004
 20
-5.7585758460999976
 30
0.0
 11
3.9614826471000022
 21
-5.5187007422000001
 31
0.0
  0
LINE
  5
102
100
AcDbEntity
100
AcDbLine
  8
CUT_SHEET_2b
 62
3
420
65280
370
15
  6
ByLayer
 10
3.9614826471000022
 20
-5.5187007422000001
 30
0.0
 11
3.5417232558000009
 21
-5.5187007422000001
 31
0.0
  0
LINE
  5
103
100
AcDbEntity
100
AcDbLine
  8
CUT_SHEET_2b
 62
3
420
65280
370
15
  6
ByLayer
 10
3.5417232558000009
 20
-5.5187007422000001
 30
0.0
 11
3.5417232558000027
 21
-5.7585758461000012
 31
0.0
  0
LINE
  5
104
100
AcDbEntity
100
AcDbLine
  8
CUT_SHEET_2b
 62
3
420
65280
370
15
  6
ByLayer
 10
3.5417232558000027
 20
-5.7585758461000012
 30
0.0
 11
3.9614826471000004
 21
-5.7585758460999976
 31
0.0
  0
LINE
  5
105
100
AcDbEntity
100
AcDbLine
  8
CUT_SHEET_2b
 62
3
420
65280
370
15
  6
ByLayer
 10
3.1482632524000032
 20
-5.7585758461000012
 30
0.0
 11
3.1482632524000032
 21
-5.5187007422000001
 31
0.0
  0
LINE
  5
106
100
AcDbEntity
100
AcDbLine
  8
CUT_SHEET_2b
 62
3
420
65280
370
15
  6
ByLayer
 10
3.1482632524000032
 20
-5.5187007422000001
 30
0.0
 11
2.7285038610000001
 21
-5.5187007422000001
 31
0.0
  0
LINE
  5
107
100
AcDbEntity
100
AcDbLine
  8
CUT_SHEET_2b
 62
3
420
65280
370
15
  6
ByLayer
 10
2.7285038610000001
 20
-5.5187007422000001
 30
0.0
 11
2.7285038610000001
 21
-5.7585758461000012
 31
0.0
  0
LINE
  5
108
100
AcDbEntity
100
AcDbLine
  8
CUT_SHEET_2b
 62
3
420
65280
370
15
  6
ByLayer
 10
2.7285038610000001
 20
-5.7585758461000012
 30
0.0
 11
3.1482632524000032
 21
-5.7585758461000012
 31
0.0
  0
LINE
  5
109
100
AcDbEntity
100
AcDbLine
  8
CUT_SHEET_2b
 62
3
420
65280
370
15
  6
ByLayer
 10
10.568881752600003
 20
-2.5563235716000001
 30
0.0
 11
10.5688817526000012
 21
-2.7062463592999997
 31
0.0
  0
LINE
  5
10A
100
AcDbEntity
100
AcDbLine
  8
CUT_SHEET_2b
 62
3
420
65280
370
15
  6
ByLayer
 10
10.5688817526000012
 20
-2.7062463592999997
 30
0.0
 11
12.3717393868000034
 21
-2.7062463592999997
 31
0.0
  0
LINE
  5
10B
100
AcDbEntity
100
AcDbLine
  8
CUT_SHEET_2b
 62
3
420
65280
370
15
  6
ByLayer
 10
12.3717393868000034
 20
-2.7062463592999997
 30
0.0
 11
12.3717393868000016
 21
-2.5563235716000001
 31
0.0
  0
LINE
  5
10C
100
AcDbEntity
100
AcDbLine
  8
CUT_SHEET_2b
 62
3
420
65280
370
15
  6
ByLayer
 10
12.3717393868000016
 20
-2.5563235716000001
 30
0.0
 11
10.568881752600003
 21
-2.5563235716000001
 31
0.0
  0
LINE
  5
10D
100
AcDbEntity
100
AcDbLine
  8
CUT_SHEET_2b
 62
3
420
65280
370
15
  6
ByLayer
 10
10.568881752600003
 20
-5.6084496078000043
 30
0.0
 11
10.568881752600003
 21
-5.7583723955000039
 31
0.0
  0
LINE
  5
10E
100
AcDbEntity
100
AcDbLine
  8
CUT_SHEET_2b
 62
3
420
65280
370
15
  6
ByLayer
 10
10.568881752600003
 20
-5.7583723955000039
 30
0.0
 11
12.3717393868000034
 21
-5.7583723955000075
 31
0.0
  0
LINE
  5
10F
100
AcDbEntity
100
AcDbLine
  8
CUT_SHEET_2b
 62
3
420
65280
370
15
  6
ByLayer
 10
12.3717393868000034
 20
-5.7583723955000075
 30
0.0
 11
12.3717393868000034
 21
-5.6084496078000079
 31
0.0
  0
LINE
  5
110
100
AcDbEntity
100
AcDbLine
  8
CUT_SHEET_2b
 62
3
420
65280
370
15
  6
ByLayer
 10
12.3717393868000034
 20
-5.6084496078000079
 30
0.0
 11
10.568881752600003
 21
-5.6084496078000043
 31
0.0
  0
LINE
  5
111
100
AcDbEntity
100
AcDbLine
  8
CUT_SHEET_2b
 62
3
420
65280
370
15
  6
ByLayer
 10
1.7994532266000043
 20
-3.6957489649999999
 30
0.0
 11
1.7994667900000003
 21
-3.6957489649999964
 31
0.0
  0
LINE
  5
112
100
AcDbEntity
100
AcDbLine
  8
CUT_SHEET_2b
 62
3
420
65280
370
15
  6
ByLayer
 10
1.7994532266000007
 20
-4.7490062241999986
 30
0.0
 11
1.7994667900000003
 21
-4.7490062241999986
 31
0.0
  0
LINE
  5
113
100
AcDbEntity
100
AcDbLine
  8
CUT_SHEET_2b
 62
3
420
65280
370
15
  6
ByLayer
 10
1.7244748786000024
 20
-4.6740414394999981
 30
0.0
 11
1.7244748786000024
 21
-4.6740550029000012
 31
0.0
  0
LINE
  5
114
100
AcDbEntity
100
AcDbLine
  8
CUT_SHEET_2b
 62
3
420
65280
370
15
  6
ByLayer
 10
0.7250574443000026
 20
-4.6740414394999981
 30
0.0
 11
0.7250574442999991
 21
-4.6740550029000012
 31
0.0
  0
LINE
  5
115
100
AcDbEntity
100
AcDbLine
  8
CUT_SHEET_2b
 62
3
420
65280
370
15
  6
ByLayer
 10
11.6338781146999999
 20
-7.7081349659000047
 30
0.0
 11
11.6338781147000017
 21
-7.468253080300002
 31
0.0
  0
LINE
  5
116
100
AcDbEntity
100
AcDbLine
  8
CUT_SHEET_2b
 62
3
420
65280
370
15
  6
ByLayer
 10
11.6338781147000017
 20
-7.468253080300002
 30
0.0
 11
12.0536239426999998
 21
-7.4682530802999985
 31
0.0
  0
LINE
  5
117
100
AcDbEntity
100
AcDbLine
  8
CUT_SHEET_2b
 62
3
420
65280
370
15
  6
ByLayer
 10
12.0536239426999998
 20
-7.4682530802999985
 30
0.0
 11
12.0536239426999998
 21
-7.7081349659000011
 31
0.0
  0
LINE
  5
118
100
AcDbEntity
100
AcDbLine
  8
CUT_SHEET_2b
 62
3
420
65280
370
15
  6
ByLayer
 10
12.0536239426999998
 20
-7.7081349659000011
 30
0.0
 11
11.6338781146999999
 21
-7.7081349659000047
 31
0.0
  0
LINE
  5
119
100
AcDbEntity
100
AcDbLine
  8
CUT_SHEET_2b
 62
3
420
65280
370
15
  6
ByLayer
 10
12.4470975094000007
 20
-7.7081349658999976
 30
0.0
 11
12.4470975093999989
 21
-7.4682530803000056
 31
0.0
  0
LINE
  5
11A
100
AcDbEntity
100
AcDbLine
  8
CUT_SHEET_2b
 62
3
420
65280
370
15
  6
ByLayer
 10
12.4470975093999989
 20
-7.4682530803000056
 30
0.0
 11
12.8668569008000002
 21
-7.4682530802999985
 31
0.0
  0
LINE
  5
11B
100
AcDbEntity
100
AcDbLine
  8
CUT_SHEET_2b
 62
3
420
65280
370
15
  6
ByLayer
 10
12.8668569008000002
 20
-7.4682530802999985
 30
0.0
 11
12.8668569007999984
 21
-7.7081349658999994
 31
0.0
  0
LINE
  5
11C
100
AcDbEntity
100
AcDbLine
  8
CUT_SHEET_2b
 62
3
420
65280
370
15
  6
ByLayer
 10
12.8668569007999984
 20
-7.7081349658999994
 30
0.0
 11
12.4470975094000007
 21
-7.7081349658999976
 31
0.0
  0
LINE
  5
11D
100
AcDbEntity
100
AcDbLine
  8
CUT_SHEET_2b
 62
3
420
65280
370
15
  6
ByLayer
 10
7.1206915447000014
 20
-7.7081349658999976
 30
0.0
 11
7.1206915447000014
 21
-7.468253080300002
 31
0.0
  0
LINE
  5
11E
100
AcDbEntity
100
AcDbLine
  8
CUT_SHEET_2b
 62
3
420
65280
370
15
  6
ByLayer
 10
7.1206915447000014
 20
-7.468253080300002
 30
0.0
 11
7.5404373727000014
 21
-7.468253080300002
 31
0.0
  0
LINE
  5
11F
100
AcDbEntity
100
AcDbLine
  8
CUT_SHEET_2b
 62
3
420
65280
370
15
  6
ByLayer
 10
7.5404373727000014
 20
-7.468253080300002
 30
0.0
 11
7.5404373727000014
 21
-7.7081349659000029
 31
0.0
  0
LINE
  5
120
100
AcDbEntity
100
AcDbLine
  8
CUT_SHEET_2b
 62
3
420
65280
370
15
  6
ByLayer
 10
7.5404373727000014
 20
-7.7081349659000029
 30
0.0
 11
7.1206915447000014
 21
-7.7081349658999976
 31
0.0
  0
LINE
  5
121
100
AcDbEntity
100
AcDbLine
  8
CUT_SHEET_2b
 62
3
420
65280
370
15
  6
ByLayer
 10
7.9339109395000005
 20
-7.7081349658999994
 30
0.0
 11
7.9339109394999987
 21
-7.4682530802999967
 31
0.0
  0
LINE
  5
122
100
AcDbEntity
100
AcDbLine
  8
CUT_SHEET_2b
 62
3
420
65280
370
15
  6
ByLayer
 10
7.9339109394999987
 20
-7.4682530802999967
 30
0.0
 11
8.3536703309000018
 21
-7.468253080300002
 31
0.0
  0
LINE
  5
123
100
AcDbEntity
100
AcDbLine
  8
CUT_SHEET_2b
 62
3
420
65280
370
15
  6
ByLayer
 10
8.3536703309000018
 20
-7.468253080300002
 30
0.0
 11
8.3536703309000018
 21
-7.7081349659000011
 31
0.0
  0
LINE
  5
124
100
AcDbEntity
100
AcDbLine
  8
CUT_SHEET_2b
 62
3
420
65280
370
15
  6
ByLayer
 10
8.3536703309000018
 20
-7.7081349659000011
 30
0.0
 11
7.9339109395000005
 21
-7.7081349658999994
 31
0.0
  0
LINE
  5
125
100
AcDbEntity
100
AcDbLine
  8
CUT_SHEET_2b
 62
3
420
65280
370
15
  6
ByLayer
 10
2.7285038610000001
 20
-7.7081349658999994
 30
0.0
 11
2.7285038610000001
 21
-7.4682530802999985
 31
0.0
  0
LINE
  5
126
100
AcDbEntity
100
AcDbLine
  8
CUT_SHEET_2b
 62
3
420
65280
370
15
  6
ByLayer
 10
2.7285038610000001
 20
-7.4682530802999985
 30
0.0
 11
3.1482632524000014
 21
-7.4682530803000002
 31
0.0
  0
LINE
  5
127
100
AcDbEntity
100
AcDbLine
  8
CUT_SHEET_2b
 62
3
420
65280
370
15
  6
ByLayer
 10
3.1482632524000014
 20
-7.4682530803000002
 30
0.0
 11
3.1482632524000014
 21
-7.7081349658999994
 31
0.0
  0
LINE
  5
128
100
AcDbEntity
100
AcDbLine
  8
CUT_SHEET_2b
 62
3
420
65280
370
15
  6
ByLayer
 10
3.1482632524000014
 20
-7.7081349658999994
 30
0.0
 11
2.7285038610000001
 21
-7.7081349658999994
 31
0.0
  0
LINE
  5
129
100
AcDbEntity
100
AcDbLine
  8
CUT_SHEET_2b
 62
3
420
65280
370
15
  6
ByLayer
 10
3.5417232558000009
 20
-7.7081349658999994
 30
0.0
 11
3.5417232558000009
 21
-7.4682530803000002
 31
0.0
  0
LINE
  5
12A
100
AcDbEntity
100
AcDbLine
  8
CUT_SHEET_2b
 62
3
420
65280
370
15
  6
ByLayer
 10
3.5417232558000009
 20
-7.4682530803000002
 30
0.0
 11
3.9614826471000004
 21
-7.4682530802999985
 31
0.0
  0
LINE
  5
12B
100
AcDbEntity
100
AcDbLine
  8
CUT_SHEET_2b
 62
3
420
65280
370
15
  6
ByLayer
 10
3.9614826471000004
 20
-7.4682530802999985
 30
0.0
 11
3.9614826471000004
 21
-7.7081349658999994
 31
0.0
  0
LINE
  5
12C
100
AcDbEntity
100
AcDbLine
  8
CUT_SHEET_2b
 62
3
420
65280
370
15
  6
ByLayer
 10
3.9614826471000004
 20
-7.7081349658999994
 30
0.0
 11
3.5417232558000009
 21
-7.7081349658999994
 31
0.0
  0
SPLINE
  5
12D
  8
CUT_SHEET_2b
 62
3
420
65280
370
15
  6
ByLayer
100
AcDbEntity
100
AcDbSpline
 70
8
 71
3
 72
8
 73
4
 74
0
 40
0.0
 40
0.0
 40
0.0
 40
0.0
 40
1.0
 40
1.0
 40
1.0
 40
1.0
 10
7.3452603776940144
 20
-6.883067961348857
 30
0.0
 10
7.4323779481640457
 20
-6.878171582251916
 30
0.0
 10
7.4992860869043021
 20
-6.803620480572242
 30
0.0
 10
7.4947830457403519
 20
-6.7164893467252149
 30
0.0
  0
SPLINE
  5
12E
  8
CUT_SHEET_2b
 62
3
420
65280
370
15
  6
ByLayer
100
AcDbEntity
100
AcDbSpline
 70
8
 71
3
 72
8
 73
4
 74
0
 40
0.0
 40
0.0
 40
0.0
 40
0.0
 40
1.0
 40
1.0
 40
1.0
 40
1.0
 10
7.4947830457403519
 20
-6.549924295478565
 30
0.0
 10
7.4992860869043021
 20
-6.4628067250085373
 30
0.0
 10
7.4323779481640457
 20
-6.3882420599518603
 30
0.0
 10
7.3452603776940144
 20
-6.3833592442319151
 30
0.0
  0
SPLINE
  5
12F
  8
CUT_SHEET_2b
 62
3
420
65280
370
15
  6
ByLayer
100
AcDbEntity
100
AcDbSpline
 70
8
 71
3
 72
8
 73
4
 74
0
 40
0.0
 40
0.0
 40
0.0
 40
0.0
 40
1.0
 40
1.0
 40
1.0
 40
1.0
 10
6.8947256838900248
 20
-6.3833592442319151
 30
0.0
 10
6.8076216767969946
 20
-6.3882420599518639
 30
0.0
 10
6.7406999746797389
 20
-6.4627931616315344
 30
0.0
 10
6.7452165792206884
 20
-6.549924295478565
 30
0.0
  0
SPLINE
  5
130
  8
CUT_SHEET_2b
 62
3
420
65280
370
15
  6
ByLayer
100
AcDbEntity
100
AcDbSpline
 70
8
 71
3
 72
8
 73
4
 74
0
 40
0.0
 40
0.0
 40
0.0
 40
0.0
 40
1.0
 40
1.0
 40
1.0
 40
1.0
 10
6.7452165792206884
 20
-6.7164893467252114
 30
0.0
 10
6.7406999746797389
 20
-6.8036204805722456
 30
0.0
 10
6.8076216767969946
 20
-6.8781715822519125
 30
0.0
 10
6.8947256838900248
 20
-6.8830679613488641
 30
0.0
  0
SPLINE
  5
131
  8
CUT_SHEET_2b
 62
3
420
65280
370
15
  6
ByLayer
100
AcDbEntity
100
AcDbSpline
 70
8
 71
3
 72
8
 73
4
 74
0
 40
0.0
 40
0.0
 40
0.0
 40
0.0
 40
1.0
 40
1.0
 40
1.0
 40
1.0
 10
7.7371741561046594
 20
-3.190269030927432
 30
0.0
 10
7.7785695827081973
 20
-3.1902690309274284
 30
0.0
 10
7.812138940782825
 20
-3.1566928911643046
 30
0.0
 10
7.8121389407828232
 20
-3.1152974645607614
 30
0.0
  0
SPLINE
  5
132
  8
CUT_SHEET_2b
 62
3
420
65280
370
15
  6
ByLayer
100
AcDbEntity
100
AcDbSpline
 70
8
 71
3
 72
8
 73
4
 74
0
 40
0.0
 40
0.0
 40
0.0
 40
0.0
 40
1.0
 40
1.0
 40
1.0
 40
1.0
 10
7.8121389407828232
 20
-3.1152974645607614
 30
0.0
 10
7.8121389407828232
 20
-3.0739020379572182
 30
0.0
 10
7.7785695827081938
 20
-3.0403394615710866
 30
0.0
 10
7.7371741561046612
 20
-3.0403394615710901
 30
0.0
  0
SPLINE
  5
133
  8
CUT_SHEET_2b
 62
3
420
65280
370
15
  6
ByLayer
100
AcDbEntity
100
AcDbSpline
 70
8
 71
3
 72
8
 73
4
 74
0
 40
0.0
 40
0.0
 40
0.0
 40
0.0
 40
1.0
 40
1.0
 40
1.0
 40
1.0
 10
7.7371741561046612
 20
-3.0403394615710901
 30
0.0
 10
7.6957922928781244
 20
-3.0403394615710937
 30
0.0
 10
7.6622364981804925
 20
-3.0739020379572217
 30
0.0
 10
7.6622229348034914
 20
-3.1152974645607614
 30
0.0
  0
SPLINE
  5
134
  8
CUT_SHEET_2b
 62
3
420
65280
370
15
  6
ByLayer
100
AcDbEntity
100
AcDbSpline
 70
8
 71
3
 72
8
 73
4
 74
0
 40
0.0
 40
0.0
 40
0.0
 40
0.0
 40
1.0
 40
1.0
 40
1.0
 40
1.0
 10
7.6622229348034914
 20
-3.1152974645607614
 30
0.0
 10
7.6622229348034914
 20
-3.1566793277872947
 30
0.0
 10
7.695778729501118
 20
-3.1902554675504291
 30
0.0
 10
7.7371741561046594
 20
-3.190269030927432
 30
0.0
  0
SPLINE
  5
135
  8
CUT_SHEET_2b
 62
3
420
65280
370
15
  6
ByLayer
100
AcDbEntity
100
AcDbSpline
 70
8
 71
3
 72
8
 73
4
 74
0
 40
0.0
 40
0.0
 40
0.0
 40
0.0
 40
1.0
 40
1.0
 40
1.0
 40
1.0
 10
3.3449729089975015
 20
-3.1902690309274284
 30
0.0
 10
3.3863818989780423
 20
-3.1902690309274284
 30
0.0
 10
3.4199376936756742
 20
-3.1566928911643011
 30
0.0
 10
3.4199512570526718
 20
-3.1152974645607614
 30
0.0
  0
SPLINE
  5
136
  8
CUT_SHEET_2b
 62
3
420
65280
370
15
  6
ByLayer
100
AcDbEntity
100
AcDbSpline
 70
8
 71
3
 72
8
 73
4
 74
0
 40
0.0
 40
0.0
 40
0.0
 40
0.0
 40
1.0
 40
1.0
 40
1.0
 40
1.0
 10
3.4199512570526718
 20
-3.1152974645607614
 30
0.0
 10
3.4199376936756707
 20
-3.0739020379572182
 30
0.0
 10
3.3863818989780388
 20
-3.0403394615710901
 30
0.0
 10
3.3449729089975015
 20
-3.0403394615710901
 30
0.0
  0
SPLINE
  5
137
  8
CUT_SHEET_2b
 62
3
420
65280
370
15
  6
ByLayer
100
AcDbEntity
100
AcDbSpline
 70
8
 71
3
 72
8
 73
4
 74
0
 40
0.0
 40
0.0
 40
0.0
 40
0.0
 40
1.0
 40
1.0
 40
1.0
 40
1.0
 10
3.3449729089975015
 20
-3.0403394615710901
 30
0.0
 10
3.303591045770963
 20
-3.0403394615710901
 30
0.0
 10
3.2700352510733346
 20
-3.0739020379572217
 30
0.0
 10
3.270035251073331
 20
-3.1152974645607578
 30
0.0
  0
SPLINE
  5
138
  8
CUT_SHEET_2b
 62
3
420
65280
370
15
  6
ByLayer
100
AcDbEntity
100
AcDbSpline
 70
8
 71
3
 72
8
 73
4
 74
0
 40
0.0
 40
0.0
 40
0.0
 40
0.0
 40
1.0
 40
1.0
 40
1.0
 40
1.0
 10
3.270035251073331
 20
-3.1152974645607578
 30
0.0
 10
3.2700352510733328
 20
-3.1566793277872982
 30
0.0
 10
3.3035910457709612
 20
-3.1902554675504291
 30
0.0
 10
3.3449729089975015
 20
-3.1902690309274284
 30
0.0
  0
SPLINE
  5
139
  8
CUT_SHEET_2b
 62
3
420
65280
370
15
  6
ByLayer
100
AcDbEntity
100
AcDbSpline
 70
8
 71
3
 72
8
 73
4
 74
0
 40
0.0
 40
0.0
 40
0.0
 40
0.0
 40
1.0
 40
1.0
 40
1.0
 40
1.0
 10
7.7371605927276583
 20
-5.7136132513563602
 30
0.0
 10
7.778556019331198
 20
-5.7136132513563638
 30
0.0
 10
7.8121253774058239
 20
-5.6800574566587443
 30
0.0
 10
7.8121253774058239
 20
-5.6386484666781982
 30
0.0
  0
SPLINE
  5
13A
  8
CUT_SHEET_2b
 62
3
420
65280
370
15
  6
ByLayer
100
AcDbEntity
100
AcDbSpline
 70
8
 71
3
 72
8
 73
4
 74
0
 40
0.0
 40
0.0
 40
0.0
 40
0.0
 40
1.0
 40
1.0
 40
1.0
 40
1.0
 10
7.8121253774058239
 20
-5.6386484666781982
 30
0.0
 10
7.8121253774058257
 20
-5.5972462583861642
 30
0.0
 10
7.7785560193311962
 20
-5.5636904636885269
 30
0.0
 10
7.7371605927276583
 20
-5.563690463688534
 30
0.0
  0
SPLINE
  5
13B
  8
CUT_SHEET_2b
 62
3
420
65280
370
15
  6
ByLayer
100
AcDbEntity
100
AcDbSpline
 70
8
 71
3
 72
8
 73
4
 74
0
 40
0.0
 40
0.0
 40
0.0
 40
0.0
 40
1.0
 40
1.0
 40
1.0
 40
1.0
 10
7.7371605927276583
 20
-5.563690463688534
 30
0.0
 10
7.6957651661241187
 20
-5.5637040270655369
 30
0.0
 10
7.6622093714264938
 20
-5.5972598217631635
 30
0.0
 10
7.6622093714264903
 20
-5.6386484666781982
 30
0.0
  0
SPLINE
  5
13C
  8
CUT_SHEET_2b
 62
3
420
65280
370
15
  6
ByLayer
100
AcDbEntity
100
AcDbSpline
 70
8
 71
3
 72
8
 73
4
 74
0
 40
0.0
 40
0.0
 40
0.0
 40
0.0
 40
1.0
 40
1.0
 40
1.0
 40
1.0
 10
7.6622093714264903
 20
-5.6386484666781982
 30
0.0
 10
7.6622093714264903
 20
-5.6800438932817414
 30
0.0
 10
7.6957651661241187
 20
-5.7135996879793716
 30
0.0
 10
7.7371605927276583
 20
-5.7136132513563602
 30
0.0
  0
SPLINE
  5
13D
  8
CUT_SHEET_2b
 62
3
420
65280
370
15
  6
ByLayer
100
AcDbEntity
100
AcDbSpline
 70
8
 71
3
 72
8
 73
4
 74
0
 40
0.0
 40
0.0
 40
0.0
 40
0.0
 40
1.0
 40
1.0
 40
1.0
 40
1.0
 10
3.3449729089975015
 20
-5.7136132513563602
 30
0.0
 10
3.3863818989780423
 20
-5.7136132513563602
 30
0.0
 10
3.4199376936756725
 20
-5.6800574566587407
 30
0.0
 10
3.41995125705267
 20
-5.6386484666781982
 30
0.0
  0
SPLINE
  5
13E
  8
CUT_SHEET_2b
 62
3
420
65280
370
15
  6
ByLayer
100
AcDbEntity
100
AcDbSpline
 70
8
 71
3
 72
8
 73
4
 74
0
 40
0.0
 40
0.0
 40
0.0
 40
0.0
 40
1.0
 40
1.0
 40
1.0
 40
1.0
 10
3.41995125705267
 20
-5.6386484666781982
 30
0.0
 10
3.4199376936756707
 20
-5.5972462583861571
 30
0.0
 10
3.3863818989780405
 20
-5.5636904636885269
 30
0.0
 10
3.3449729089975015
 20
-5.5636904636885305
 30
0.0
  0
SPLINE
  5
13F
  8
CUT_SHEET_2b
 62
3
420
65280
370
15
  6
ByLayer
100
AcDbEntity
100
AcDbSpline
 70
8
 71
3
 72
8
 73
4
 74
0
 40
0.0
 40
0.0
 40
0.0
 40
0.0
 40
1.0
 40
1.0
 40
1.0
 40
1.0
 10
3.3449729089975015
 20
-5.5636904636885305
 30
0.0
 10
3.3035910457709612
 20
-5.5637040270655298
 30
0.0
 10
3.270035251073331
 20
-5.5972598217631564
 30
0.0
 10
3.270035251073331
 20
-5.6386484666781982
 30
0.0
  0
SPLINE
  5
140
  8
CUT_SHEET_2b
 62
3
420
65280
370
15
  6
ByLayer
100
AcDbEntity
100
AcDbSpline
 70
8
 71
3
 72
8
 73
4
 74
0
 40
0.0
 40
0.0
 40
0.0
 40
0.0
 40
1.0
 40
1.0
 40
1.0
 40
1.0
 10
3.270035251073331
 20
-5.6386484666781982
 30
0.0
 10
3.270035251073331
 20
-5.6800438932817414
 30
0.0
 10
3.3035910457709612
 20
-5.7135996879793716
 30
0.0
 10
3.3449729089975015
 20
-5.7136132513563602
 30
0.0
  0
SPLINE
  5
141
  8
CUT_SHEET_2b
 62
3
420
65280
370
15
  6
ByLayer
100
AcDbEntity
100
AcDbSpline
 70
8
 71
3
 72
8
 73
4
 74
0
 40
0.0
 40
0.0
 40
0.0
 40
0.0
 40
1.0
 40
1.0
 40
1.0
 40
1.0
 10
1.7994667899956909
 20
-3.5458193956014696
 30
0.0
 10
1.7580578000151519
 20
-3.5458058322244703
 30
0.0
 10
1.724488441940526
 20
-3.5793684086105984
 30
0.0
 10
1.7244748785635231
 20
-3.6207773985911409
 30
0.0
  0
SPLINE
  5
142
  8
CUT_SHEET_2b
 62
3
420
65280
370
15
  6
ByLayer
100
AcDbEntity
100
AcDbSpline
 70
8
 71
3
 72
8
 73
4
 74
0
 40
0.0
 40
0.0
 40
0.0
 40
0.0
 40
1.0
 40
1.0
 40
1.0
 40
1.0
 10
1.7244748785635231
 20
-3.6207773985911409
 30
0.0
 10
1.7244748785635231
 20
-3.6621931702601778
 30
0.0
 10
1.7580442366381526
 20
-3.6957489649578008
 30
0.0
 10
1.7994532266186951
 20
-3.6957489649578008
 30
0.0
  0
SPLINE
  5
143
  8
CUT_SHEET_2b
 62
3
420
65280
370
15
  6
ByLayer
100
AcDbEntity
100
AcDbSpline
 70
8
 71
3
 72
8
 73
4
 74
0
 40
0.0
 40
0.0
 40
0.0
 40
0.0
 40
1.0
 40
1.0
 40
1.0
 40
1.0
 10
1.7994667899956944
 20
-3.6957489649578008
 30
0.0
 10
1.8408486532222348
 20
-3.6957354015808015
 30
0.0
 10
1.8744044479198507
 20
-3.6621796068831785
 30
0.0
 10
1.8743908845428514
 20
-3.6207773985911409
 30
0.0
  0
SPLINE
  5
144
  8
CUT_SHEET_2b
 62
3
420
65280
370
15
  6
ByLayer
100
AcDbEntity
100
AcDbSpline
 70
8
 71
3
 72
8
 73
4
 74
0
 40
0.0
 40
0.0
 40
0.0
 40
0.0
 40
1.0
 40
1.0
 40
1.0
 40
1.0
 10
1.8743908845428514
 20
-3.6207773985911409
 30
0.0
 10
1.8743908845428514
 20
-3.5793955353646005
 30
0.0
 10
1.8408486532222312
 20
-3.545832958978469
 30
0.0
 10
1.7994667899956909
 20
-3.5458193956014696
 30
0.0
  0
SPLINE
  5
145
  8
CUT_SHEET_2b
 62
3
420
65280
370
15
  6
ByLayer
100
AcDbEntity
100
AcDbSpline
 70
8
 71
3
 72
8
 73
4
 74
0
 40
0.0
 40
0.0
 40
0.0
 40
0.0
 40
1.0
 40
1.0
 40
1.0
 40
1.0
 10
0.8000357923848007
 20
-3.5458193956014696
 30
0.0
 10
0.758640365781261
 20
-3.5458058322244703
 30
0.0
 10
0.7250710077066351
 20
-3.5793684086105984
 30
0.0
 10
0.7250574443296323
 20
-3.6207773985911409
 30
0.0
  0
SPLINE
  5
146
  8
CUT_SHEET_2b
 62
3
420
65280
370
15
  6
ByLayer
100
AcDbEntity
100
AcDbSpline
 70
8
 71
3
 72
8
 73
4
 74
0
 40
0.0
 40
0.0
 40
0.0
 40
0.0
 40
1.0
 40
1.0
 40
1.0
 40
1.0
 10
0.7250574443296323
 20
-3.6207773985911409
 30
0.0
 10
0.7250574443296323
 20
-3.6621931702601778
 30
0.0
 10
0.7586268024042653
 20
-3.6957489649578008
 30
0.0
 10
0.8000357923848043
 20
-3.6957489649577973
 30
0.0
  0
SPLINE
  5
147
  8
CUT_SHEET_2b
 62
3
420
65280
370
15
  6
ByLayer
100
AcDbEntity
100
AcDbSpline
 70
8
 71
3
 72
8
 73
4
 74
0
 40
0.0
 40
0.0
 40
0.0
 40
0.0
 40
1.0
 40
1.0
 40
1.0
 40
1.0
 10
0.8000357923848043
 20
-3.6957489649577973
 30
0.0
 10
0.8414312189883404
 20
-3.6957354015808015
 30
0.0
 10
0.8749734503089748
 20
-3.6621796068831785
 30
0.0
 10
0.8749734503089783
 20
-3.6207773985911409
 30
0.0
  0
SPLINE
  5
148
  8
CUT_SHEET_2b
 62
3
420
65280
370
15
  6
ByLayer
100
AcDbEntity
100
AcDbSpline
 70
8
 71
3
 72
8
 73
4
 74
0
 40
0.0
 40
0.0
 40
0.0
 40
0.0
 40
1.0
 40
1.0
 40
1.0
 40
1.0
 10
0.8749734503089783
 20
-3.6207773985911409
 30
0.0
 10
0.8749734503089748
 20
-3.5793955353646005
 30
0.0
 10
0.8414312189883404
 20
-3.545832958978469
 30
0.0
 10
0.8000357923848007
 20
-3.5458193956014696
 30
0.0
  0
SPLINE
  5
149
  8
CUT_SHEET_2b
 62
3
420
65280
370
15
  6
ByLayer
100
AcDbEntity
100
AcDbSpline
 70
8
 71
3
 72
8
 73
4
 74
0
 40
0.0
 40
0.0
 40
0.0
 40
0.0
 40
1.0
 40
1.0
 40
1.0
 40
1.0
 10
1.7244748785635196
 20
-4.6740550028914178
 30
0.0
 10
1.7244884419405224
 20
-4.715463992871971
 30
0.0
 10
1.7580578000151519
 20
-4.7490197875695905
 30
0.0
 10
1.7994532266186951
 20
-4.7490062241925912
 30
0.0
  0
SPLINE
  5
14A
  8
CUT_SHEET_2b
 62
3
420
65280
370
15
  6
ByLayer
100
AcDbEntity
100
AcDbSpline
 70
8
 71
3
 72
8
 73
4
 74
0
 40
0.0
 40
0.0
 40
0.0
 40
0.0
 40
1.0
 40
1.0
 40
1.0
 40
1.0
 10
1.7994667899956909
 20
-4.5990834365247615
 30
0.0
 10
1.7580578000151519
 20
-4.5990834365247615
 30
0.0
 10
1.7244884419405189
 20
-4.6326392312223881
 30
0.0
 10
1.7244748785635231
 20
-4.6740414395144185
 30
0.0
  0
SPLINE
  5
14B
  8
CUT_SHEET_2b
 62
3
420
65280
370
15
  6
ByLayer
100
AcDbEntity
100
AcDbSpline
 70
8
 71
3
 72
8
 73
4
 74
0
 40
0.0
 40
0.0
 40
0.0
 40
0.0
 40
1.0
 40
1.0
 40
1.0
 40
1.0
 10
1.874390884542855
 20
-4.6740550028914214
 30
0.0
 10
1.8744044479198507
 20
-4.6326663579763903
 30
0.0
 10
1.8408486532222312
 20
-4.5990969999017608
 30
0.0
 10
1.7994667899956909
 20
-4.5990834365247615
 30
0.0
  0
SPLINE
  5
14C
  8
CUT_SHEET_2b
 62
3
420
65280
370
15
  6
ByLayer
100
AcDbEntity
100
AcDbSpline
 70
8
 71
3
 72
8
 73
4
 74
0
 40
0.0
 40
0.0
 40
0.0
 40
0.0
 40
1.0
 40
1.0
 40
1.0
 40
1.0
 10
1.7994667899956909
 20
-4.7490062241925912
 30
0.0
 10
1.8408486532222312
 20
-4.7489926608155884
 30
0.0
 10
1.874390884542855
 20
-4.7154368661179582
 30
0.0
 10
1.874390884542855
 20
-4.6740550028914214
 30
0.0
  0
SPLINE
  5
14D
  8
CUT_SHEET_2b
 62
3
420
65280
370
15
  6
ByLayer
100
AcDbEntity
100
AcDbSpline
 70
8
 71
3
 72
8
 73
4
 74
0
 40
0.0
 40
0.0
 40
0.0
 40
0.0
 40
1.0
 40
1.0
 40
1.0
 40
1.0
 10
0.7250574443296323
 20
-4.6740550028914214
 30
0.0
 10
0.7250710077066316
 20
-4.715463992871971
 30
0.0
 10
0.758640365781261
 20
-4.7490197875695905
 30
0.0
 10
0.8000357923848043
 20
-4.7490062241925912
 30
0.0
  0
SPLINE
  5
14E
  8
CUT_SHEET_2b
 62
3
420
65280
370
15
  6
ByLayer
100
AcDbEntity
100
AcDbSpline
 70
8
 71
3
 72
8
 73
4
 74
0
 40
0.0
 40
0.0
 40
0.0
 40
0.0
 40
1.0
 40
1.0
 40
1.0
 40
1.0
 10
0.8000357923848043
 20
-4.5990834365247615
 30
0.0
 10
0.758640365781261
 20
-4.5990834365247615
 30
0.0
 10
0.7250710077066316
 20
-4.6326392312223881
 30
0.0
 10
0.7250574443296323
 20
-4.6740414395144185
 30
0.0
  0
SPLINE
  5
14F
  8
CUT_SHEET_2b
 62
3
420
65280
370
15
  6
ByLayer
100
AcDbEntity
100
AcDbSpline
 70
8
 71
3
 72
8
 73
4
 74
0
 40
0.0
 40
0.0
 40
0.0
 40
0.0
 40
1.0
 40
1.0
 40
1.0
 40
1.0
 10
0.8749734503089712
 20
-4.6740550028914214
 30
0.0
 10
0.8749734503089748
 20
-4.6326663579763903
 30
0.0
 10
0.8414312189883439
 20
-4.5990969999017608
 30
0.0
 10
0.8000357923848043
 20
-4.5990834365247615
 30
0.0
  0
SPLINE
  5
150
  8
CUT_SHEET_2b
 62
3
420
65280
370
15
  6
ByLayer
100
AcDbEntity
100
AcDbSpline
 70
8
 71
3
 72
8
 73
4
 74
0
 40
0.0
 40
0.0
 40
0.0
 40
0.0
 40
1.0
 40
1.0
 40
1.0
 40
1.0
 10
0.8000357923848043
 20
-4.7490062241925912
 30
0.0
 10
0.8414312189883404
 20
-4.7489926608155884
 30
0.0
 10
0.8749734503089712
 20
-4.7154368661179582
 30
0.0
 10
0.8749734503089712
 20
-4.6740550028914214
 30
0.0
  0
SPLINE
  5
151
  8
CUT_SHEET_2b
 62
3
420
65280
370
15
  6
ByLayer
100
AcDbEntity
100
AcDbSpline
 70
8
 71
3
 72
8
 73
4
 74
0
 40
0.0
 40
0.0
 40
0.0
 40
0.0
 40
1.0
 40
1.0
 40
1.0
 40
1.0
 10
12.1753959413722992
 20
-7.5882008048170153
 30
0.0
 10
12.1754095047493003
 20
-7.6295962314205621
 30
0.0
 10
12.2089788628239297
 20
-7.663172371183693
 30
0.0
 10
12.2503742894274659
 20
-7.6631723711836823
 30
0.0
  0
SPLINE
  5
152
  8
CUT_SHEET_2b
 62
3
420
65280
370
15
  6
ByLayer
100
AcDbEntity
100
AcDbSpline
 70
8
 71
3
 72
8
 73
4
 74
0
 40
0.0
 40
0.0
 40
0.0
 40
0.0
 40
1.0
 40
1.0
 40
1.0
 40
1.0
 10
12.2503742894274676
 20
-7.51324280182736
 30
0.0
 10
12.208978862823928
 20
-7.5132428018273494
 30
0.0
 10
12.1754095047493021
 20
-7.5467985965249778
 30
0.0
 10
12.1753959413722992
 20
-7.5882008048170153
 30
0.0
  0
SPLINE
  5
153
  8
CUT_SHEET_2b
 62
3
420
65280
370
15
  6
ByLayer
100
AcDbEntity
100
AcDbSpline
 70
8
 71
3
 72
8
 73
4
 74
0
 40
0.0
 40
0.0
 40
0.0
 40
0.0
 40
1.0
 40
1.0
 40
1.0
 40
1.0
 10
12.3253119473516328
 20
-7.588200804817026
 30
0.0
 10
12.3253119473516328
 20
-7.5467985965249795
 30
0.0
 10
12.2917697160310073
 20
-7.5132428018273565
 30
0.0
 10
12.2503742894274676
 20
-7.51324280182736
 30
0.0
  0
SPLINE
  5
154
  8
CUT_SHEET_2b
 62
3
420
65280
370
15
  6
ByLayer
100
AcDbEntity
100
AcDbSpline
 70
8
 71
3
 72
8
 73
4
 74
0
 40
0.0
 40
0.0
 40
0.0
 40
0.0
 40
1.0
 40
1.0
 40
1.0
 40
1.0
 10
12.2503742894274659
 20
-7.6631723711836823
 30
0.0
 10
12.2917697160310073
 20
-7.6631588078066883
 30
0.0
 10
12.3253255107286339
 20
-7.6295826680435574
 30
0.0
 10
12.3253119473516328
 20
-7.588200804817026
 30
0.0
  0
SPLINE
  5
155
  8
CUT_SHEET_2b
 62
3
420
65280
370
15
  6
ByLayer
100
AcDbEntity
100
AcDbSpline
 70
8
 71
3
 72
8
 73
4
 74
0
 40
0.0
 40
0.0
 40
0.0
 40
0.0
 40
1.0
 40
1.0
 40
1.0
 40
1.0
 10
7.6622093714264903
 20
-7.5882008048170206
 30
0.0
 10
7.6622229348034914
 20
-7.629596231420555
 30
0.0
 10
7.6957922928781173
 20
-7.6631723711836859
 30
0.0
 10
7.737187719481657
 20
-7.6631723711836841
 30
0.0
  0
SPLINE
  5
156
  8
CUT_SHEET_2b
 62
3
420
65280
370
15
  6
ByLayer
100
AcDbEntity
100
AcDbSpline
 70
8
 71
3
 72
8
 73
4
 74
0
 40
0.0
 40
0.0
 40
0.0
 40
0.0
 40
1.0
 40
1.0
 40
1.0
 40
1.0
 10
7.737187719481657
 20
-7.5132428018273547
 30
0.0
 10
7.6957922928781173
 20
-7.5132428018273512
 30
0.0
 10
7.6622229348034914
 20
-7.546798596524976
 30
0.0
 10
7.6622093714264903
 20
-7.5882008048170206
 30
0.0
  0
SPLINE
  5
157
  8
CUT_SHEET_2b
 62
3
420
65280
370
15
  6
ByLayer
100
AcDbEntity
100
AcDbSpline
 70
8
 71
3
 72
8
 73
4
 74
0
 40
0.0
 40
0.0
 40
0.0
 40
0.0
 40
1.0
 40
1.0
 40
1.0
 40
1.0
 10
7.8121253774058239
 20
-7.5882008048170206
 30
0.0
 10
7.8121253774058239
 20
-7.5467985965249778
 30
0.0
 10
7.7785695827081973
 20
-7.5132428018273547
 30
0.0
 10
7.737187719481657
 20
-7.5132428018273547
 30
0.0
  0
SPLINE
  5
158
  8
CUT_SHEET_2b
 62
3
420
65280
370
15
  6
ByLayer
100
AcDbEntity
100
AcDbSpline
 70
8
 71
3
 72
8
 73
4
 74
0
 40
0.0
 40
0.0
 40
0.0
 40
0.0
 40
1.0
 40
1.0
 40
1.0
 40
1.0
 10
7.737187719481657
 20
-7.6631723711836841
 30
0.0
 10
7.7785831460851966
 20
-7.6631588078066848
 30
0.0
 10
7.8121389407828232
 20
-7.6295826680435592
 30
0.0
 10
7.8121253774058239
 20
-7.5882008048170206
 30
0.0
  0
SPLINE
  5
159
  8
CUT_SHEET_2b
 62
3
420
65280
370
15
  6
ByLayer
100
AcDbEntity
100
AcDbSpline
 70
8
 71
3
 72
8
 73
4
 74
0
 40
0.0
 40
0.0
 40
0.0
 40
0.0
 40
1.0
 40
1.0
 40
1.0
 40
1.0
 10
3.270035251073331
 20
-7.5882008048170189
 30
0.0
 10
3.270035251073331
 20
-7.6295962314205568
 30
0.0
 10
3.3036046091479605
 20
-7.6631723711836841
 30
0.0
 10
3.3450000357515002
 20
-7.6631723711836841
 30
0.0
  0
SPLINE
  5
15A
  8
CUT_SHEET_2b
 62
3
420
65280
370
15
  6
ByLayer
100
AcDbEntity
100
AcDbSpline
 70
8
 71
3
 72
8
 73
4
 74
0
 40
0.0
 40
0.0
 40
0.0
 40
0.0
 40
1.0
 40
1.0
 40
1.0
 40
1.0
 10
3.3450000357515002
 20
-7.5132428018273494
 30
0.0
 10
3.3036046091479605
 20
-7.5132428018273494
 30
0.0
 10
3.270035251073331
 20
-7.546798596524976
 30
0.0
 10
3.270035251073331
 20
-7.5882008048170189
 30
0.0
  0
SPLINE
  5
15B
  8
CUT_SHEET_2b
 62
3
420
65280
370
15
  6
ByLayer
100
AcDbEntity
100
AcDbSpline
 70
8
 71
3
 72
8
 73
4
 74
0
 40
0.0
 40
0.0
 40
0.0
 40
0.0
 40
1.0
 40
1.0
 40
1.0
 40
1.0
 10
3.41995125705267
 20
-7.5882008048170171
 30
0.0
 10
3.41995125705267
 20
-7.5467985965249778
 30
0.0
 10
3.3863954623550416
 20
-7.5132428018273476
 30
0.0
 10
3.3450000357515002
 20
-7.5132428018273494
 30
0.0
  0
SPLINE
  5
15C
  8
CUT_SHEET_2b
 62
3
420
65280
370
15
  6
ByLayer
100
AcDbEntity
100
AcDbSpline
 70
8
 71
3
 72
8
 73
4
 74
0
 40
0.0
 40
0.0
 40
0.0
 40
0.0
 40
1.0
 40
1.0
 40
1.0
 40
1.0
 10
3.3450000357515002
 20
-7.6631723711836841
 30
0.0
 10
3.3863954623550416
 20
-7.663158807806683
 30
0.0
 10
3.41995125705267
 20
-7.6295826680435574
 30
0.0
 10
3.41995125705267
 20
-7.5882008048170171
 30
0.0
  0
LINE
  5
15D
100
AcDbEntity
100
AcDbLine
  8
CUT_SHEET_2b
 62
7
420
0
370
15
  6
ByLayer
 10
6.2883613517000061
 20
-1.5031409110000027
 30
0.0
 11
6.2883613517000008
 21
-1.1130242800000012
 31
0.0
  0
LINE
  5
15E
100
AcDbEntity
100
AcDbLine
  8
CUT_SHEET_2b
 62
7
420
0
370
15
  6
ByLayer
 10
6.2883613517000008
 20
-1.1130242800000012
 30
0.0
 11
6.2104397509000044
 21
-1.0350958975000033
 31
0.0
  0
LINE
  5
15F
100
AcDbEntity
100
AcDbLine
  8
CUT_SHEET_2b
 62
7
420
0
370
15
  6
ByLayer
 10
6.7564877455000047
 20
-1.1909458809000029
 30
0.0
 11
6.5224652388000006
 21
-1.1909458808999993
 31
0.0
  0
LINE
  5
160
100
AcDbEntity
100
AcDbLine
  8
CUT_SHEET_2b
 62
7
420
0
370
15
  6
ByLayer
 10
6.5224652388000006
 20
-1.1909458808999993
 30
0.0
 11
6.4444622576000015
 21
-1.2690234605999997
 31
0.0
  0
LINE
  5
161
100
AcDbEntity
100
AcDbLine
  8
CUT_SHEET_2b
 62
7
420
0
370
15
  6
ByLayer
 10
6.4444622576000015
 20
-1.2690234605999997
 30
0.0
 11
6.5224652388000024
 21
-1.347128167000001
 31
0.0
  0
LINE
  5
162
100
AcDbEntity
100
AcDbLine
  8
CUT_SHEET_2b
 62
7
420
0
370
15
  6
ByLayer
 10
6.5224652388000024
 20
-1.347128167000001
 30
0.0
 11
6.6784983277999999
 21
-1.347128167000001
 31
0.0
  0
LINE
  5
163
100
AcDbEntity
100
AcDbLine
  8
CUT_SHEET_2b
 62
7
420
0
370
15
  6
ByLayer
 10
6.6784983277999999
 20
-1.347128167000001
 30
0.0
 11
6.7564877455000047
 21
-1.2690234606000033
 31
0.0
  0
LINE
  5
164
100
AcDbEntity
100
AcDbLine
  8
CUT_SHEET_2b
 62
7
420
0
370
15
  6
ByLayer
 10
6.7564877455000047
 20
-1.2690234606000033
 30
0.0
 11
6.7564877455000047
 21
-1.1130107166000016
 31
0.0
  0
LINE
  5
165
100
AcDbEntity
100
AcDbLine
  8
CUT_SHEET_2b
 62
7
420
0
370
15
  6
ByLayer
 10
6.7564877455000047
 20
-1.1130107166000016
 30
0.0
 11
6.6784712010000007
 21
-1.0350823341000002
 31
0.0
  0
LINE
  5
166
100
AcDbEntity
100
AcDbLine
  8
CUT_SHEET_2b
 62
7
420
0
370
15
  6
ByLayer
 10
6.6784712010000007
 20
-1.0350823341000002
 30
0.0
 11
6.5224652387999988
 21
-1.0350823341000002
 31
0.0
  0
LINE
  5
167
100
AcDbEntity
100
AcDbLine
  8
CUT_SHEET_2b
 62
7
420
0
370
15
  6
ByLayer
 10
7.2245463224000055
 20
-1.1909458809000064
 30
0.0
 11
7.0685267968000005
 21
-1.347128167000001
 31
0.0
  0
LINE
  5
168
100
AcDbEntity
100
AcDbLine
  8
CUT_SHEET_2b
 62
7
420
0
370
15
  6
ByLayer
 10
7.0685267968000005
 20
-1.347128167000001
 30
0.0
 11
6.9905238156000031
 21
-1.347128167000001
 31
0.0
  0
LINE
  5
169
100
AcDbEntity
100
AcDbLine
  8
CUT_SHEET_2b
 62
7
420
0
370
15
  6
ByLayer
 10
6.9905238156000031
 20
-1.347128167000001
 30
0.0
 11
6.912520834500004
 21
-1.2690234606000033
 31
0.0
  0
LINE
  5
16A
100
AcDbEntity
100
AcDbLine
  8
CUT_SHEET_2b
 62
7
420
0
370
15
  6
ByLayer
 10
6.912520834500004
 20
-1.2690234606000033
 30
0.0
 11
6.9125072711000008
 21
-1.0350823341000002
 31
0.0
  0
LINE
  5
16B
100
AcDbEntity
100
AcDbLine
  8
CUT_SHEET_2b
 62
7
420
0
370
15
  6
ByLayer
 10
7.2245463223999984
 20
-1.0350958974999998
 30
0.0
 11
7.2245463224000019
 21
-1.3471146037000032
 31
0.0
  0
LINE
  5
16C
100
AcDbEntity
100
AcDbLine
  8
CUT_SHEET_2b
 62
7
420
0
370
15
  6
ByLayer
 10
7.4585688292000043
 20
-1.1130107165999981
 30
0.0
 11
7.3805658480000034
 21
-1.0350823341000002
 31
0.0
  0
LINE
  5
16D
100
AcDbEntity
100
AcDbLine
  8
CUT_SHEET_2b
 62
7
420
0
370
15
  6
ByLayer
 10
7.536585373700003
 20
-1.0350958974999998
 30
0.0
 11
7.614588354800004
 21
-1.0350958975000033
 31
0.0
  0
LINE
  5
16E
100
AcDbEntity
100
AcDbLine
  8
CUT_SHEET_2b
 62
7
420
0
370
15
  6
ByLayer
 10
7.614588354800004
 20
-1.0350958975000033
 30
0.0
 11
7.6926048993000045
 21
-1.1130242800000048
 31
0.0
  0
LINE
  5
16F
100
AcDbEntity
100
AcDbLine
  8
CUT_SHEET_2b
 62
7
420
0
370
15
  6
ByLayer
 10
7.6926048993000045
 20
-1.1130242800000048
 30
0.0
 11
7.6926048993000045
 21
-1.2690370240000028
 31
0.0
  0
LINE
  5
170
100
AcDbEntity
100
AcDbLine
  8
CUT_SHEET_2b
 62
7
420
0
370
15
  6
ByLayer
 10
7.6926048993000045
 20
-1.2690370240000028
 30
0.0
 11
7.6145883548000057
 21
-1.3471146037000032
 31
0.0
  0
LINE
  5
171
100
AcDbEntity
100
AcDbLine
  8
CUT_SHEET_2b
 62
7
420
0
370
15
  6
ByLayer
 10
7.6145883548000057
 20
-1.3471146037000032
 30
0.0
 11
7.5365853737000013
 21
-1.3471146036999997
 31
0.0
  0
LINE
  5
172
100
AcDbEntity
100
AcDbLine
  8
CUT_SHEET_2b
 62
7
420
0
370
15
  6
ByLayer
 10
7.5365853737000013
 20
-1.3471146036999997
 30
0.0
 11
7.4585823925000021
 21
-1.2690370239999993
 31
0.0
  0
LINE
  5
173
100
AcDbEntity
100
AcDbLine
  8
CUT_SHEET_2b
 62
7
420
0
370
15
  6
ByLayer
 10
7.4585823925000021
 20
-1.2690370239999993
 30
0.0
 11
7.4585823925000021
 21
-1.1130242800000012
 31
0.0
  0
LINE
  5
174
100
AcDbEntity
100
AcDbLine
  8
CUT_SHEET_2b
 62
7
420
0
370
15
  6
ByLayer
 10
7.4585823925000021
 20
-1.1130242800000012
 30
0.0
 11
7.536585373700003
 21
-1.0350958974999998
 31
0.0
  0
LINE
  5
175
100
AcDbEntity
100
AcDbLine
  8
CUT_SHEET_2b
 62
7
420
0
370
15
  6
ByLayer
 10
8.1216823307000059
 20
-1.2690234606000068
 30
0.0
 11
8.0436929129000028
 21
-1.3471281670000046
 31
0.0
  0
LINE
  5
176
100
AcDbEntity
100
AcDbLine
  8
CUT_SHEET_2b
 62
7
420
0
370
15
  6
ByLayer
 10
8.0436929129000028
 20
-1.3471281670000046
 30
0.0
 11
7.8876733873000013
 21
-1.347128167000001
 31
0.0
  0
LINE
  5
177
100
AcDbEntity
100
AcDbLine
  8
CUT_SHEET_2b
 62
7
420
0
370
15
  6
ByLayer
 10
7.8876733873000013
 20
-1.347128167000001
 30
0.0
 11
7.8096568428000026
 21
-1.2690234605999997
 31
0.0
  0
LINE
  5
178
100
AcDbEntity
100
AcDbLine
  8
CUT_SHEET_2b
 62
7
420
0
370
15
  6
ByLayer
 10
7.8096568428000026
 20
-1.2690234605999997
 30
0.0
 11
7.8096568428000044
 21
-1.1130107165999981
 31
0.0
  0
LINE
  5
179
100
AcDbEntity
100
AcDbLine
  8
CUT_SHEET_2b
 62
7
420
0
370
15
  6
ByLayer
 10
7.8096568428000044
 20
-1.1130107165999981
 30
0.0
 11
7.8876733873000013
 21
-1.0350823341000002
 31
0.0
  0
LINE
  5
17A
100
AcDbEntity
100
AcDbLine
  8
CUT_SHEET_2b
 62
7
420
0
370
15
  6
ByLayer
 10
7.8876733873000013
 20
-1.0350823341000002
 30
0.0
 11
8.1216823307000006
 21
-1.0350823341000002
 31
0.0
  0
LINE
  5
17B
100
AcDbEntity
100
AcDbLine
  8
CUT_SHEET_2b
 62
7
420
0
370
15
  6
ByLayer
 10
8.1216823307000041
 20
-0.8789068296000018
 30
0.0
 11
8.1216823307000006
 21
-1.3471281669999975
 31
0.0
  0
LINE
  5
17C
100
AcDbEntity
100
AcDbLine
  8
CUT_SHEET_2b
 62
7
420
0
370
15
  6
ByLayer
 10
4.4161406076000027
 20
-1.9711859245000021
 30
0.0
 11
4.2210721195000023
 21
-1.9711859244999985
 31
0.0
  0
LINE
  5
17D
100
AcDbEntity
100
AcDbLine
  8
CUT_SHEET_2b
 62
7
420
0
370
15
  6
ByLayer
 10
4.2210721195000023
 20
-1.9711859244999985
 30
0.0
 11
4.1430691384000013
 21
-2.0491278703999996
 31
0.0
  0
LINE
  5
17E
100
AcDbEntity
100
AcDbLine
  8
CUT_SHEET_2b
 62
7
420
0
370
15
  6
ByLayer
 10
4.1430691384000013
 20
-2.0491278703999996
 30
0.0
 11
4.221072119500004
 21
-2.1272190135000031
 31
0.0
  0
LINE
  5
17F
100
AcDbEntity
100
AcDbLine
  8
CUT_SHEET_2b
 62
7
420
0
370
15
  6
ByLayer
 10
4.221072119500004
 20
-2.1272190135000031
 30
0.0
 11
4.3770916452000019
 21
-2.1272190134999995
 31
0.0
  0
LINE
  5
180
100
AcDbEntity
100
AcDbLine
  8
CUT_SHEET_2b
 62
7
420
0
370
15
  6
ByLayer
 10
4.3770916452000019
 20
-2.1272190134999995
 30
0.0
 11
4.4161406075999992
 21
-2.0491278703999996
 31
0.0
  0
LINE
  5
181
100
AcDbEntity
100
AcDbLine
  8
CUT_SHEET_2b
 62
7
420
0
370
15
  6
ByLayer
 10
4.4161406075999992
 20
-2.0491278703999996
 30
0.0
 11
4.4161406076000063
 21
-1.8931151265000032
 31
0.0
  0
LINE
  5
182
100
AcDbEntity
100
AcDbLine
  8
CUT_SHEET_2b
 62
7
420
0
370
15
  6
ByLayer
 10
4.4161406076000063
 20
-1.8931151265000032
 30
0.0
 11
4.3770916452000037
 21
-1.8151731806000022
 31
0.0
  0
LINE
  5
183
100
AcDbEntity
100
AcDbLine
  8
CUT_SHEET_2b
 62
7
420
0
370
15
  6
ByLayer
 10
4.3770916452000037
 20
-1.8151731806000022
 30
0.0
 11
4.2210721195000005
 21
-1.8151731805999987
 31
0.0
  0
LINE
  5
184
100
AcDbEntity
100
AcDbLine
  8
CUT_SHEET_2b
 62
7
420
0
370
15
  6
ByLayer
 10
4.5721601332000041
 20
-2.2832317573999994
 30
0.0
 11
4.5721601332000041
 21
-1.8151731806000022
 31
0.0
  0
LINE
  5
185
100
AcDbEntity
100
AcDbLine
  8
CUT_SHEET_2b
 62
7
420
0
370
15
  6
ByLayer
 10
4.5721601332000024
 20
-1.9711859244999985
 30
0.0
 11
4.7281796588000056
 21
-1.8151731806000022
 31
0.0
  0
LINE
  5
186
100
AcDbEntity
100
AcDbLine
  8
CUT_SHEET_2b
 62
7
420
0
370
15
  6
ByLayer
 10
4.7281796588000056
 20
-1.8151731806000022
 30
0.0
 11
4.8061826398999994
 21
-1.8151731805999987
 31
0.0
  0
LINE
  5
187
100
AcDbEntity
100
AcDbLine
  8
CUT_SHEET_2b
 62
7
420
0
370
15
  6
ByLayer
 10
4.8061826398999994
 20
-1.8151731805999987
 30
0.0
 11
4.8841856211000056
 21
-1.8931151265000032
 31
0.0
  0
LINE
  5
188
100
AcDbEntity
100
AcDbLine
  8
CUT_SHEET_2b
 62
7
420
0
370
15
  6
ByLayer
 10
4.8841856211000056
 20
-1.8931151265000032
 30
0.0
 11
4.8841856211000039
 21
-2.0491278704000031
 31
0.0
  0
LINE
  5
189
100
AcDbEntity
100
AcDbLine
  8
CUT_SHEET_2b
 62
7
420
0
370
15
  6
ByLayer
 10
4.8841856211000039
 20
-2.0491278704000031
 30
0.0
 11
4.8061826399000012
 21
-2.1272190134999995
 31
0.0
  0
LINE
  5
18A
100
AcDbEntity
100
AcDbLine
  8
CUT_SHEET_2b
 62
7
420
0
370
15
  6
ByLayer
 10
4.8061826399000012
 20
-2.1272190134999995
 30
0.0
 11
4.7281796588000038
 21
-2.1272190135000031
 31
0.0
  0
LINE
  5
18B
100
AcDbEntity
100
AcDbLine
  8
CUT_SHEET_2b
 62
7
420
0
370
15
  6
ByLayer
 10
4.7281796588000038
 20
-2.1272190135000031
 30
0.0
 11
4.5721601332000024
 21
-1.9711859244999985
 31
0.0
  0
LINE
  5
18C
100
AcDbEntity
100
AcDbLine
  8
CUT_SHEET_2b
 62
7
420
0
370
15
  6
ByLayer
 10
5.0402051467000053
 20
-2.2051473961000028
 30
0.0
 11
5.0402051467000035
 21
-2.2832181941000016
 31
0.0
  0
LINE
  5
18D
100
AcDbEntity
100
AcDbLine
  8
CUT_SHEET_2b
 62
7
420
0
370
15
  6
ByLayer
 10
5.0402051467000035
 20
-1.8151731806000022
 30
0.0
 11
5.0402051467000035
 21
-2.1272190135000031
 31
0.0
  0
LINE
  5
18E
100
AcDbEntity
100
AcDbLine
  8
CUT_SHEET_2b
 62
7
420
0
370
15
  6
ByLayer
 10
5.5082637236000043
 20
-1.8151731806000022
 30
0.0
 11
5.2742412168000019
 21
-1.8151731806000022
 31
0.0
  0
LINE
  5
18F
100
AcDbEntity
100
AcDbLine
  8
CUT_SHEET_2b
 62
7
420
0
370
15
  6
ByLayer
 10
5.2742412168000019
 20
-1.8151731806000022
 30
0.0
 11
5.196238235700001
 21
-1.8931151264999997
 31
0.0
  0
LINE
  5
190
100
AcDbEntity
100
AcDbLine
  8
CUT_SHEET_2b
 62
7
420
0
370
15
  6
ByLayer
 10
5.196238235700001
 20
-1.8931151264999997
 30
0.0
 11
5.2742412168000001
 21
-1.9711859244999985
 31
0.0
  0
LINE
  5
191
100
AcDbEntity
100
AcDbLine
  8
CUT_SHEET_2b
 62
7
420
0
370
15
  6
ByLayer
 10
5.2742412168000001
 20
-1.9711859244999985
 30
0.0
 11
5.4302607425000069
 21
-1.9711859245000021
 31
0.0
  0
LINE
  5
192
100
AcDbEntity
100
AcDbLine
  8
CUT_SHEET_2b
 62
7
420
0
370
15
  6
ByLayer
 10
5.4302607425000069
 20
-1.9711859245000021
 30
0.0
 11
5.5082637236000025
 21
-2.0491278704000031
 31
0.0
  0
LINE
  5
193
100
AcDbEntity
100
AcDbLine
  8
CUT_SHEET_2b
 62
7
420
0
370
15
  6
ByLayer
 10
5.5082637236000025
 20
-2.0491278704000031
 30
0.0
 11
5.4302607425000016
 21
-2.1272190134999995
 31
0.0
  0
LINE
  5
194
100
AcDbEntity
100
AcDbLine
  8
CUT_SHEET_2b
 62
7
420
0
370
15
  6
ByLayer
 10
5.4302607425000016
 20
-2.1272190134999995
 30
0.0
 11
5.1962382357000028
 21
-2.1272190134999995
 31
0.0
  0
LINE
  5
195
100
AcDbEntity
100
AcDbLine
  8
CUT_SHEET_2b
 62
7
420
0
370
15
  6
ByLayer
 10
6.2493937696000028
 20
-2.2832317574000029
 30
0.0
 11
6.2493937696000028
 21
-1.8931151265000032
 31
0.0
  0
LINE
  5
196
100
AcDbEntity
100
AcDbLine
  8
CUT_SHEET_2b
 62
7
420
0
370
15
  6
ByLayer
 10
6.2493937696000028
 20
-1.8931151265000032
 30
0.0
 11
6.1713907885000054
 21
-1.8151731806000022
 31
0.0
  0
LINE
  5
197
100
AcDbEntity
100
AcDbLine
  8
CUT_SHEET_2b
 62
7
420
0
370
15
  6
ByLayer
 10
6.1713907885000054
 20
-1.8151731806000022
 30
0.0
 11
6.0933742440000067
 21
-1.8931151265000032
 31
0.0
  0
LINE
  5
198
100
AcDbEntity
100
AcDbLine
  8
CUT_SHEET_2b
 62
7
420
0
370
15
  6
ByLayer
 10
6.4054132952000025
 20
-2.1272190135000031
 30
0.0
 11
6.093387807400001
 21
-2.1272190134999995
 31
0.0
  0
LINE
  5
199
100
AcDbEntity
100
AcDbLine
  8
CUT_SHEET_2b
 62
7
420
0
370
15
  6
ByLayer
 10
6.8735396890000029
 20
-1.9711859244999985
 30
0.0
 11
6.7174387831000022
 21
-2.1272190134999995
 31
0.0
  0
LINE
  5
19A
100
AcDbEntity
100
AcDbLine
  8
CUT_SHEET_2b
 62
7
420
0
370
15
  6
ByLayer
 10
6.7174387831000022
 20
-2.1272190134999995
 30
0.0
 11
6.6394493654000044
 21
-2.1272190135000031
 31
0.0
  0
LINE
  5
19B
100
AcDbEntity
100
AcDbLine
  8
CUT_SHEET_2b
 62
7
420
0
370
15
  6
ByLayer
 10
6.6394493654000044
 20
-2.1272190135000031
 30
0.0
 11
6.5614328209000021
 21
-2.0491278703999996
 31
0.0
  0
LINE
  5
19C
100
AcDbEntity
100
AcDbLine
  8
CUT_SHEET_2b
 62
7
420
0
370
15
  6
ByLayer
 10
6.8735396890000047
 20
-1.8151731806000022
 30
0.0
 11
6.8735396890000047
 21
-2.1272190135000031
 31
0.0
  0
LINE
  5
19D
100
AcDbEntity
100
AcDbLine
  8
CUT_SHEET_2b
 62
7
420
0
370
15
  6
ByLayer
 10
7.1074943789000002
 20
-1.8931151264999997
 30
0.0
 11
7.0295727779999986
 21
-1.8151731805999987
 31
0.0
  0
LINE
  5
19E
100
AcDbEntity
100
AcDbLine
  8
CUT_SHEET_2b
 62
7
420
0
370
15
  6
ByLayer
 10
7.185578740300004
 20
-1.8151731806000022
 30
0.0
 11
7.2635139045000017
 21
-1.8151731806000022
 31
0.0
  0
LINE
  5
19F
100
AcDbEntity
100
AcDbLine
  8
CUT_SHEET_2b
 62
7
420
0
370
15
  6
ByLayer
 10
7.2635139045000017
 20
-1.8151731806000022
 30
0.0
 11
7.3415982659000001
 21
-1.8931151264999997
 31
0.0
  0
LINE
  5
1A0
100
AcDbEntity
100
AcDbLine
  8
CUT_SHEET_2b
 62
7
420
0
370
15
  6
ByLayer
 10
7.3415982659000001
 20
-1.8931151264999997
 30
0.0
 11
7.3415982659000036
 21
-2.0491278703999996
 31
0.0
  0
LINE
  5
1A1
100
AcDbEntity
100
AcDbLine
  8
CUT_SHEET_2b
 62
7
420
0
370
15
  6
ByLayer
 10
7.3415982659000036
 20
-2.0491278703999996
 30
0.0
 11
7.2635139045000017
 21
-2.1272190134999995
 31
0.0
  0
LINE
  5
1A2
100
AcDbEntity
100
AcDbLine
  8
CUT_SHEET_2b
 62
7
420
0
370
15
  6
ByLayer
 10
7.2635139045000017
 20
-2.1272190134999995
 30
0.0
 11
7.1855787403000022
 21
-2.1272190135000031
 31
0.0
  0
LINE
  5
1A3
100
AcDbEntity
100
AcDbLine
  8
CUT_SHEET_2b
 62
7
420
0
370
15
  6
ByLayer
 10
7.1855787403000022
 20
-2.1272190135000031
 30
0.0
 11
7.1074943789000002
 21
-2.0491278703999996
 31
0.0
  0
LINE
  5
1A4
100
AcDbEntity
100
AcDbLine
  8
CUT_SHEET_2b
 62
7
420
0
370
15
  6
ByLayer
 10
7.1074943789000002
 20
-2.0491278703999996
 30
0.0
 11
7.1074943789000002
 21
-1.8931151264999997
 31
0.0
  0
LINE
  5
1A5
100
AcDbEntity
100
AcDbLine
  8
CUT_SHEET_2b
 62
7
420
0
370
15
  6
ByLayer
 10
7.1074943789000002
 20
-1.8931151264999997
 30
0.0
 11
7.185578740300004
 21
-1.8151731806000022
 31
0.0
  0
LINE
  5
1A6
100
AcDbEntity
100
AcDbLine
  8
CUT_SHEET_2b
 62
7
420
0
370
15
  6
ByLayer
 10
7.4976177915000033
 20
-2.1272190134999995
 30
0.0
 11
7.7316402983000039
 21
-2.1272190134999995
 31
0.0
  0
LINE
  5
1A7
100
AcDbEntity
100
AcDbLine
  8
CUT_SHEET_2b
 62
7
420
0
370
15
  6
ByLayer
 10
7.7316402983000039
 20
-2.1272190134999995
 30
0.0
 11
7.7706078804000036
 21
-2.0491278704000031
 31
0.0
  0
LINE
  5
1A8
100
AcDbEntity
100
AcDbLine
  8
CUT_SHEET_2b
 62
7
420
0
370
15
  6
ByLayer
 10
7.7706078804000036
 20
-2.0491278704000031
 30
0.0
 11
7.7706078804000001
 21
-1.8931015630999966
 31
0.0
  0
LINE
  5
1A9
100
AcDbEntity
100
AcDbLine
  8
CUT_SHEET_2b
 62
7
420
0
370
15
  6
ByLayer
 10
7.7706078804000001
 20
-1.8931015630999966
 30
0.0
 11
7.7316402983000039
 21
-1.8151731806000022
 31
0.0
  0
LINE
  5
1AA
100
AcDbEntity
100
AcDbLine
  8
CUT_SHEET_2b
 62
7
420
0
370
15
  6
ByLayer
 10
7.7316402983000039
 20
-1.8151731806000022
 30
0.0
 11
7.4976177915000033
 21
-1.8151731806000022
 31
0.0
  0
LINE
  5
1AB
100
AcDbEntity
100
AcDbLine
  8
CUT_SHEET_2b
 62
7
420
0
370
15
  6
ByLayer
 10
8.2386528939000012
 20
-2.0491278703999996
 30
0.0
 11
7.926627406000005
 21
-2.0491278704000031
 31
0.0
  0
LINE
  5
1AC
100
AcDbEntity
100
AcDbLine
  8
CUT_SHEET_2b
 62
7
420
0
370
15
  6
ByLayer
 10
8.7067928511000012
 20
-2.2832317573999994
 30
0.0
 11
8.3946859829000022
 21
-2.2832317574000029
 31
0.0
  0
LINE
  5
1AD
100
AcDbEntity
100
AcDbLine
  8
CUT_SHEET_2b
 62
7
420
0
370
15
  6
ByLayer
 10
8.3946859829000022
 20
-2.2832317574000029
 30
0.0
 11
8.7067928511000012
 21
-1.8151731805999987
 31
0.0
  0
LINE
  5
1AE
100
AcDbEntity
100
AcDbLine
  8
CUT_SHEET_2b
 62
7
420
0
370
15
  6
ByLayer
 10
8.7067928511000012
 20
-1.8151731805999987
 30
0.0
 11
8.394685982900004
 21
-1.8151731806000022
 31
0.0
  0
ENDBLK
  5
1AF
100
AcDbEntity
  8
0
100
AcDbBlockEnd
  0
ENDSEC
  0
SECTION
  2
ENTITIES
  0
INSERT
  5
1B0
100
AcDbEntity
100
AcDbBlockReference
  8
0
 62
256
370
-1
  6
ByLayer
  2
BORDER
 10
-12.0
 20
6.0000000000000027
 30
0.0
  0
INSERT
  5
1B1
100
AcDbEntity
100
AcDbBlockReference
  8
CUT_SHEET_2b
 62
256
370
-1
  6
ByLayer
  2
rats1
 10
-11.4985319449571151
 20
5.5318666703147228
 30
0.0
  0
ENDSEC
  0
SECTION
  2
OBJECTS
  0
DICTIONARY
  5
C
100
AcDbDictionary
280
0
281
1
  3
ACAD_GROUP
350
D
  3
ACAD_LAYOUT
350
1A
  3
ACAD_MLINESTYLE
350
17
  3
ACAD_PLOTSETTINGS
350
19
  3
ACAD_PLOTSTYLENAME
350
E
  3
AcDbVariableDictionary
350
1B2
  0
DICTIONARY
  5
D
100
AcDbDictionary
280
0
281
1
  0
ACDBDICTIONARYWDFLT
  5
E
100
AcDbDictionary
281
1
  3
Normal
350
F
100
AcDbDictionaryWithDefault
340
F
  0
ACDBPLACEHOLDER
  5
F
  0
DICTIONARY
  5
17
100
AcDbDictionary
280
0
281
1
  3
Standard
350
18
  0
MLINESTYLE
  5
18
100
AcDbMlineStyle
  2
STANDARD
 70
0
  3

 62
256
 51
90.0
 52
90.0
 71
2
 49
0.5
 62
256
  6
BYLAYER
 49
-0.5
 62
256
  6
BYLAYER
  0
DICTIONARY
  5
19
100
AcDbDictionary
280
0
281
1
  0
DICTIONARY
  5
1A
100
AcDbDictionary
281
1
  3
Layout1
350
1E
  3
Layout2
350
26
  3
Model
350
22
  0
LAYOUT
  5
1E
100
AcDbPlotSettings
  1

  2
C:\Program Files\AutoCAD 2002\plotters\DWF ePlot (optimized for plotting).pc3
  4

  6

 40
0.0
 41
0.0
 42
0.0
 43
0.0
 44
0.0
 45
0.0
 46
0.0
 47
0.0
 48
0.0
 49
0.0
140
0.0
141
0.0
142
1.0
143
1.0
 70
688
 72
0
 73
0
 74
5
  7

 75
16
147
1.0
148
0.0
149
0.0
100
AcDbLayout
  1
Layout1
 70
1
 71
1
 10
0.0
 20
0.0
 11
420.0
 21
297.0
 12
0.0
 22
0.0
 32
0.0
 14
100000000000000000000.0
 24
100000000000000000000.0
 34
100000000000000000000.0
 15
-100000000000000000000.0
 25
-100000000000000000000.0
 35
-100000000000000000000.0
146
0.0
 13
0.0
 23
0.0
 33
0.0
 16
1.0
 26
0.0
 36
0.0
 17
0.0
 27
1.0
 37
0.0
 76
0
330
1B
  0
LAYOUT
  5
22
100
AcDbPlotSettings
  1

  2
C:\Program Files\AutoCAD 2002\plotters\DWF ePlot (optimized for plotting).pc3
  4

  6

 40
0.0
 41
0.0
 42
0.0
 43
0.0
 44
0.0
 45
0.0
 46
0.0
 47
0.0
 48
0.0
 49
0.0
140
0.0
141
0.0
142
1.0
143
1.0
 70
1712
 72
0
 73
0
 74
0
  7

 75
0
147
1.0
148
0.0
149
0.0
100
AcDbLayout
  1
Model
 70
1
 71
0
 10
0.0
 20
0.0
 11
12.0
 21
9.0
 12
0.0
 22
0.0
 32
0.0
 14
0.0
 24
0.0
 34
0.0
 15
0.0
 25
0.0
 35
0.0
146
0.0
 13
0.0
 23
0.0
 33
0.0
 16
1.0
 26
0.0
 36
0.0
 17
0.0
 27
1.0
 37
0.0
 76
0
330
1F
  0
LAYOUT
  5
26
100
AcDbPlotSettings
  1

  2
C:\Program Files\AutoCAD 2002\plotters\DWF ePlot (optimized for plotting).pc3
  4

  6

 40
0.0
 41
0.0
 42
0.0
 43
0.0
 44
0.0
 45
0.0
 46
0.0
 47
0.0
 48
0.0
 49
0.0
140
0.0
141
0.0
142
1.0
143
1.0
 70
688
 72
0
 73
0
 74
5
  7

 75
16
147
1.0
148
0.0
149
0.0
100
AcDbLayout
  1
Layout2
 70
1
 71
2
 10
0.0
 20
0.0
 11
12.0
 21
9.0
 12
0.0
 22
0.0
 32
0.0
 14
0.0
 24
0.0
 34
0.0
 15
0.0
 25
0.0
 35
0.0
146
0.0
 13
0.0
 23
0.0
 33
0.0
 16
1.0
 26
0.0
 36
0.0
 17
0.0
 27
1.0
 37
0.0
 76
0
330
23
  0
DICTIONARY
  5
1B2
100
AcDbDictionary
281
1
  3
DIMASSOC
350
1B4
  3
HIDETEXT
350
1B3
  0
DICTIONARYVAR
  5
1B3
100
DictionaryVariables
280
0
  1
2
  0
DICTIONARYVAR
  5
1B4
100
DictionaryVariables
280
0
  1
1
  0
ENDSEC
  0
EOF
