<?xml version="1.0" standalone="yes"?>

<svg width="27mm" height="15mm" viewBox="0 0 27 15" version="1.1"
xmlns="http://www.w3.org/2000/svg" style="stroke-linecap:round">
  <path d="M0.99273,13.7011 L25.9927,13.7011" style="stroke:rgb(0,0,0);stroke-width:-0.03;fill:none" />
  <path d="M25.9927,13.7011 L25.9927,1.20111" style="stroke:rgb(0,0,0);stroke-width:-0.03;fill:none" />
  <path d="M25.9927,1.20111 L0.99273,1.20111" style="stroke:rgb(0,0,0);stroke-width:-0.03;fill:none" />
  <path d="M0.99273,1.20111 L0.99273,13.7011" style="stroke:rgb(0,0,0);stroke-width:-0.03;fill:none" />
  <path d="M5.09974,5.60554 L5.09974,5.5383" style="stroke:rgb(0,255,0);stroke-width:0.15;fill:none" />
  <path d="M5.09974,5.5383 L5.16706,5.47101" style="stroke:rgb(0,255,0);stroke-width:0.15;fill:none" />
  <path d="M11.9376,7.12761 L11.9376,9.73026" style="stroke:rgb(0,255,0);stroke-width:0.15;fill:none" />
  <path d="M11.9376,9.73026 L8.27222,9.73026" style="stroke:rgb(0,255,0);stroke-width:0.15;fill:none" />
  <path d="M8.27222,9.73026 L8.27222,7.12761" style="stroke:rgb(0,255,0);stroke-width:0.15;fill:none" />
  <path d="M8.27222,7.12761 L11.9376,7.12761" style="stroke:rgb(0,255,0);stroke-width:0.15;fill:none" />
  <path d="M2.04167,12.7917 L2.04167,12.0036" style="stroke:rgb(0,255,0);stroke-width:0.15;fill:none" />
  <path d="M2.04167,12.0036 L1.81783,12.0036" style="stroke:rgb(0,255,0);stroke-width:0.15;fill:none" />
  <path d="M1.81783,12.0036 L1.81783,11.5663" style="stroke:rgb(0,255,0);stroke-width:0.15;fill:none" />
  <path d="M1.81783,11.5663 L2.04167,11.5663" style="stroke:rgb(0,255,0);stroke-width:0.15;fill:none" />
  <path d="M2.04167,11.5663 L2.04167,11.427" style="stroke:rgb(0,255,0);stroke-width:0.15;fill:none" />
  <path d="M2.04167,11.427 L2.42489,11.427" style="stroke:rgb(0,255,0);stroke-width:0.15;fill:none" />
  <path d="M2.42489,11.427 L2.42489,11.4915" style="stroke:rgb(0,255,0);stroke-width:0.15;fill:none" />
  <path d="M2.42489,11.4915 L2.54785,11.4915" style="stroke:rgb(0,255,0);stroke-width:0.15;fill:none" />
  <path d="M2.54785,11.4915 L2.54785,11.427" style="stroke:rgb(0,255,0);stroke-width:0.15;fill:none" />
  <path d="M2.54785,11.427 L2.62987,11.427" style="stroke:rgb(0,255,0);stroke-width:0.15;fill:none" />
  <path d="M2.62987,11.427 L2.62987,11.2958" style="stroke:rgb(0,255,0);stroke-width:0.15;fill:none" />
  <path d="M2.62987,11.2958 L2.54785,11.2958" style="stroke:rgb(0,255,0);stroke-width:0.15;fill:none" />
  <path d="M2.54785,11.2958 L2.54785,11.2312" style="stroke:rgb(0,255,0);stroke-width:0.15;fill:none" />
  <path d="M2.54785,11.2312 L2.42489,11.2312" style="stroke:rgb(0,255,0);stroke-width:0.15;fill:none" />
  <path d="M2.42489,11.2312 L2.42489,11.2958" style="stroke:rgb(0,255,0);stroke-width:0.15;fill:none" />
  <path d="M2.42489,11.2958 L2.04167,11.2958" style="stroke:rgb(0,255,0);stroke-width:0.15;fill:none" />
  <path d="M2.04167,11.2958 L2.04167,11.1565" style="stroke:rgb(0,255,0);stroke-width:0.15;fill:none" />
  <path d="M2.04167,11.1565 L1.81784,11.1565" style="stroke:rgb(0,255,0);stroke-width:0.15;fill:none" />
  <path d="M1.81784,11.1565 L1.81784,10.7192" style="stroke:rgb(0,255,0);stroke-width:0.15;fill:none" />
  <path d="M1.81784,10.7192 L2.04167,10.7185" style="stroke:rgb(0,255,0);stroke-width:0.15;fill:none" />
  <path d="M2.04167,10.7185 L2.04167,6.13932" style="stroke:rgb(0,255,0);stroke-width:0.15;fill:none" />
  <path d="M2.04167,6.13932 L1.81783,6.13861" style="stroke:rgb(0,255,0);stroke-width:0.15;fill:none" />
  <path d="M1.81783,6.13861 L1.81783,5.70136" style="stroke:rgb(0,255,0);stroke-width:0.15;fill:none" />
  <path d="M1.81783,5.70136 L2.04167,5.70136" style="stroke:rgb(0,255,0);stroke-width:0.15;fill:none" />
  <path d="M2.04167,5.70136 L2.04167,5.56203" style="stroke:rgb(0,255,0);stroke-width:0.15;fill:none" />
  <path d="M2.04167,5.56203 L2.42489,5.56203" style="stroke:rgb(0,255,0);stroke-width:0.15;fill:none" />
  <path d="M2.42489,5.56203 L2.42489,5.62657" style="stroke:rgb(0,255,0);stroke-width:0.15;fill:none" />
  <path d="M2.42489,5.62657 L2.54785,5.62657" style="stroke:rgb(0,255,0);stroke-width:0.15;fill:none" />
  <path d="M2.54785,5.62657 L2.54785,5.56203" style="stroke:rgb(0,255,0);stroke-width:0.15;fill:none" />
  <path d="M2.54785,5.56203 L2.62987,5.56203" style="stroke:rgb(0,255,0);stroke-width:0.15;fill:none" />
  <path d="M2.62987,5.56203 L2.62987,5.43089" style="stroke:rgb(0,255,0);stroke-width:0.15;fill:none" />
  <path d="M2.62987,5.43089 L2.54785,5.43089" style="stroke:rgb(0,255,0);stroke-width:0.15;fill:none" />
  <path d="M2.54785,5.43089 L2.54785,5.36629" style="stroke:rgb(0,255,0);stroke-width:0.15;fill:none" />
  <path d="M2.54785,5.36629 L2.42489,5.36629" style="stroke:rgb(0,255,0);stroke-width:0.15;fill:none" />
  <path d="M2.42489,5.36629 L2.42489,5.43089" style="stroke:rgb(0,255,0);stroke-width:0.15;fill:none" />
  <path d="M2.42489,5.43089 L2.04167,5.43089" style="stroke:rgb(0,255,0);stroke-width:0.15;fill:none" />
  <path d="M2.04167,5.43089 L2.04167,5.29152" style="stroke:rgb(0,255,0);stroke-width:0.15;fill:none" />
  <path d="M2.04167,5.29152 L1.81784,5.29152" style="stroke:rgb(0,255,0);stroke-width:0.15;fill:none" />
  <path d="M1.81784,5.29152 L1.81784,4.85426" style="stroke:rgb(0,255,0);stroke-width:0.15;fill:none" />
  <path d="M1.81784,4.85426 L2.04167,4.85355" style="stroke:rgb(0,255,0);stroke-width:0.15;fill:none" />
  <path d="M2.04167,4.85355 L2.04167,4.07275" style="stroke:rgb(0,255,0);stroke-width:0.15;fill:none" />
  <path d="M2.04167,4.07275 L4.85027,4.07321" style="stroke:rgb(0,255,0);stroke-width:0.15;fill:none" />
  <path d="M4.85027,4.07321 L4.85027,4.07318" style="stroke:rgb(0,255,0);stroke-width:0.15;fill:none" />
  <path d="M4.85027,4.07318 L4.85027,3.84896" style="stroke:rgb(0,255,0);stroke-width:0.15;fill:none" />
  <path d="M4.85027,3.84896 L5.28754,3.84896" style="stroke:rgb(0,255,0);stroke-width:0.15;fill:none" />
  <path d="M5.28754,3.84896 L5.28754,4.07275" style="stroke:rgb(0,255,0);stroke-width:0.15;fill:none" />
  <path d="M5.28754,4.07275 L5.4269,4.07275" style="stroke:rgb(0,255,0);stroke-width:0.15;fill:none" />
  <path d="M5.4269,4.07275 L5.4269,4.45599" style="stroke:rgb(0,255,0);stroke-width:0.15;fill:none" />
  <path d="M5.4269,4.45599 L5.36232,4.45599" style="stroke:rgb(0,255,0);stroke-width:0.15;fill:none" />
  <path d="M5.36232,4.45599 L5.36232,4.57895" style="stroke:rgb(0,255,0);stroke-width:0.15;fill:none" />
  <path d="M5.36232,4.57895 L5.4269,4.57895" style="stroke:rgb(0,255,0);stroke-width:0.15;fill:none" />
  <path d="M5.4269,4.57895 L5.4269,4.66095" style="stroke:rgb(0,255,0);stroke-width:0.15;fill:none" />
  <path d="M5.4269,4.66095 L5.55806,4.66095" style="stroke:rgb(0,255,0);stroke-width:0.15;fill:none" />
  <path d="M5.55806,4.66095 L5.55806,4.57895" style="stroke:rgb(0,255,0);stroke-width:0.15;fill:none" />
  <path d="M5.55806,4.57895 L5.62258,4.57895" style="stroke:rgb(0,255,0);stroke-width:0.15;fill:none" />
  <path d="M5.62258,4.57895 L5.62258,4.45599" style="stroke:rgb(0,255,0);stroke-width:0.15;fill:none" />
  <path d="M5.62258,4.45599 L5.55806,4.45599" style="stroke:rgb(0,255,0);stroke-width:0.15;fill:none" />
  <path d="M5.55806,4.45599 L5.55806,4.07275" style="stroke:rgb(0,255,0);stroke-width:0.15;fill:none" />
  <path d="M5.55806,4.07275 L5.69739,4.07275" style="stroke:rgb(0,255,0);stroke-width:0.15;fill:none" />
  <path d="M5.69739,4.07275 L5.69739,3.84893" style="stroke:rgb(0,255,0);stroke-width:0.15;fill:none" />
  <path d="M5.69739,3.84893 L6.13466,3.84893" style="stroke:rgb(0,255,0);stroke-width:0.15;fill:none" />
  <path d="M6.13466,3.84893 L6.13536,4.07275" style="stroke:rgb(0,255,0);stroke-width:0.15;fill:none" />
  <path d="M6.13536,4.07275 L9.42476,4.07275" style="stroke:rgb(0,255,0);stroke-width:0.15;fill:none" />
  <path d="M9.42476,4.07275 L9.42547,3.84893" style="stroke:rgb(0,255,0);stroke-width:0.15;fill:none" />
  <path d="M9.42547,3.84893 L9.86272,3.84893" style="stroke:rgb(0,255,0);stroke-width:0.15;fill:none" />
  <path d="M9.86272,3.84893 L9.86272,4.07275" style="stroke:rgb(0,255,0);stroke-width:0.15;fill:none" />
  <path d="M9.86272,4.07275 L10.0021,4.07275" style="stroke:rgb(0,255,0);stroke-width:0.15;fill:none" />
  <path d="M10.0021,4.07275 L10.0021,4.45599" style="stroke:rgb(0,255,0);stroke-width:0.15;fill:none" />
  <path d="M10.0021,4.45599 L9.93753,4.45599" style="stroke:rgb(0,255,0);stroke-width:0.15;fill:none" />
  <path d="M9.93753,4.45599 L9.93753,4.57895" style="stroke:rgb(0,255,0);stroke-width:0.15;fill:none" />
  <path d="M9.93753,4.57895 L10.0021,4.57895" style="stroke:rgb(0,255,0);stroke-width:0.15;fill:none" />
  <path d="M10.0021,4.57895 L10.0021,4.66095" style="stroke:rgb(0,255,0);stroke-width:0.15;fill:none" />
  <path d="M10.0021,4.66095 L10.1332,4.66095" style="stroke:rgb(0,255,0);stroke-width:0.15;fill:none" />
  <path d="M10.1332,4.66095 L10.1332,4.57895" style="stroke:rgb(0,255,0);stroke-width:0.15;fill:none" />
  <path d="M10.1332,4.57895 L10.1978,4.57895" style="stroke:rgb(0,255,0);stroke-width:0.15;fill:none" />
  <path d="M10.1978,4.57895 L10.1978,4.45599" style="stroke:rgb(0,255,0);stroke-width:0.15;fill:none" />
  <path d="M10.1978,4.45599 L10.1332,4.45599" style="stroke:rgb(0,255,0);stroke-width:0.15;fill:none" />
  <path d="M10.1332,4.45599 L10.1332,4.07275" style="stroke:rgb(0,255,0);stroke-width:0.15;fill:none" />
  <path d="M10.1332,4.07275 L10.2726,4.07275" style="stroke:rgb(0,255,0);stroke-width:0.15;fill:none" />
  <path d="M10.2726,4.07275 L10.2726,3.84896" style="stroke:rgb(0,255,0);stroke-width:0.15;fill:none" />
  <path d="M10.2726,3.84896 L10.7099,3.84896" style="stroke:rgb(0,255,0);stroke-width:0.15;fill:none" />
  <path d="M10.7099,3.84896 L10.7106,4.32259" style="stroke:rgb(0,255,0);stroke-width:0.15;fill:none" />
  <path d="M10.7106,4.32259 L10.7106,4.85355" style="stroke:rgb(0,255,0);stroke-width:0.15;fill:none" />
  <path d="M10.7106,4.85355 L16.45,4.85426" style="stroke:rgb(0,255,0);stroke-width:0.15;fill:none" />
  <path d="M16.45,4.85426 L16.45,5.29155" style="stroke:rgb(0,255,0);stroke-width:0.15;fill:none" />
  <path d="M16.45,5.29155 L16.2262,5.29155" style="stroke:rgb(0,255,0);stroke-width:0.15;fill:none" />
  <path d="M16.2262,5.29155 L16.2262,5.43089" style="stroke:rgb(0,255,0);stroke-width:0.15;fill:none" />
  <path d="M16.2262,5.43089 L15.8429,5.43089" style="stroke:rgb(0,255,0);stroke-width:0.15;fill:none" />
  <path d="M15.8429,5.43089 L15.8429,5.36635" style="stroke:rgb(0,255,0);stroke-width:0.15;fill:none" />
  <path d="M15.8429,5.36635 L15.72,5.36635" style="stroke:rgb(0,255,0);stroke-width:0.15;fill:none" />
  <path d="M15.72,5.36635 L15.72,5.43089" style="stroke:rgb(0,255,0);stroke-width:0.15;fill:none" />
  <path d="M15.72,5.43089 L15.638,5.43089" style="stroke:rgb(0,255,0);stroke-width:0.15;fill:none" />
  <path d="M15.638,5.43089 L15.638,5.56203" style="stroke:rgb(0,255,0);stroke-width:0.15;fill:none" />
  <path d="M15.638,5.56203 L15.72,5.56203" style="stroke:rgb(0,255,0);stroke-width:0.15;fill:none" />
  <path d="M15.72,5.56203 L15.72,5.62662" style="stroke:rgb(0,255,0);stroke-width:0.15;fill:none" />
  <path d="M15.72,5.62662 L15.8429,5.62662" style="stroke:rgb(0,255,0);stroke-width:0.15;fill:none" />
  <path d="M15.8429,5.62662 L15.8429,5.56203" style="stroke:rgb(0,255,0);stroke-width:0.15;fill:none" />
  <path d="M15.8429,5.56203 L16.2262,5.56203" style="stroke:rgb(0,255,0);stroke-width:0.15;fill:none" />
  <path d="M16.2262,5.56203 L16.2262,5.70139" style="stroke:rgb(0,255,0);stroke-width:0.15;fill:none" />
  <path d="M16.2262,5.70139 L16.45,5.70139" style="stroke:rgb(0,255,0);stroke-width:0.15;fill:none" />
  <path d="M16.45,5.70139 L16.45,6.13864" style="stroke:rgb(0,255,0);stroke-width:0.15;fill:none" />
  <path d="M16.45,6.13864 L16.2262,6.13935" style="stroke:rgb(0,255,0);stroke-width:0.15;fill:none" />
  <path d="M16.2262,6.13935 L16.2262,10.7185" style="stroke:rgb(0,255,0);stroke-width:0.15;fill:none" />
  <path d="M16.2262,10.7185 L16.45,10.7192" style="stroke:rgb(0,255,0);stroke-width:0.15;fill:none" />
  <path d="M16.45,10.7192 L16.45,11.1565" style="stroke:rgb(0,255,0);stroke-width:0.15;fill:none" />
  <path d="M16.45,11.1565 L16.2262,11.1565" style="stroke:rgb(0,255,0);stroke-width:0.15;fill:none" />
  <path d="M16.2262,11.1565 L16.2262,11.2958" style="stroke:rgb(0,255,0);stroke-width:0.15;fill:none" />
  <path d="M16.2262,11.2958 L15.8429,11.2958" style="stroke:rgb(0,255,0);stroke-width:0.15;fill:none" />
  <path d="M15.8429,11.2958 L15.8429,11.2313" style="stroke:rgb(0,255,0);stroke-width:0.15;fill:none" />
  <path d="M15.8429,11.2313 L15.72,11.2313" style="stroke:rgb(0,255,0);stroke-width:0.15;fill:none" />
  <path d="M15.72,11.2313 L15.72,11.2958" style="stroke:rgb(0,255,0);stroke-width:0.15;fill:none" />
  <path d="M15.72,11.2958 L15.638,11.2958" style="stroke:rgb(0,255,0);stroke-width:0.15;fill:none" />
  <path d="M15.638,11.2958 L15.638,11.427" style="stroke:rgb(0,255,0);stroke-width:0.15;fill:none" />
  <path d="M15.638,11.427 L15.72,11.427" style="stroke:rgb(0,255,0);stroke-width:0.15;fill:none" />
  <path d="M15.72,11.427 L15.72,11.4916" style="stroke:rgb(0,255,0);stroke-width:0.15;fill:none" />
  <path d="M15.72,11.4916 L15.8429,11.4916" style="stroke:rgb(0,255,0);stroke-width:0.15;fill:none" />
  <path d="M15.8429,11.4916 L15.8429,11.427" style="stroke:rgb(0,255,0);stroke-width:0.15;fill:none" />
  <path d="M15.8429,11.427 L16.2262,11.427" style="stroke:rgb(0,255,0);stroke-width:0.15;fill:none" />
  <path d="M16.2262,11.427 L16.2262,11.5663" style="stroke:rgb(0,255,0);stroke-width:0.15;fill:none" />
  <path d="M16.2262,11.5663 L16.45,11.5663" style="stroke:rgb(0,255,0);stroke-width:0.15;fill:none" />
  <path d="M16.45,11.5663 L16.45,12.0036" style="stroke:rgb(0,255,0);stroke-width:0.15;fill:none" />
  <path d="M16.45,12.0036 L10.7106,12.0043" style="stroke:rgb(0,255,0);stroke-width:0.15;fill:none" />
  <path d="M10.7106,12.0043 L10.7106,12.5353" style="stroke:rgb(0,255,0);stroke-width:0.15;fill:none" />
  <path d="M10.7106,12.5353 L10.7099,13.0089" style="stroke:rgb(0,255,0);stroke-width:0.15;fill:none" />
  <path d="M10.7099,13.0089 L10.2726,13.0089" style="stroke:rgb(0,255,0);stroke-width:0.15;fill:none" />
  <path d="M10.2726,13.0089 L10.2726,12.7851" style="stroke:rgb(0,255,0);stroke-width:0.15;fill:none" />
  <path d="M10.2726,12.7851 L10.1332,12.7851" style="stroke:rgb(0,255,0);stroke-width:0.15;fill:none" />
  <path d="M10.1332,12.7851 L10.1332,12.4019" style="stroke:rgb(0,255,0);stroke-width:0.15;fill:none" />
  <path d="M10.1332,12.4019 L10.1978,12.4019" style="stroke:rgb(0,255,0);stroke-width:0.15;fill:none" />
  <path d="M10.1978,12.4019 L10.1978,12.2789" style="stroke:rgb(0,255,0);stroke-width:0.15;fill:none" />
  <path d="M10.1978,12.2789 L10.1332,12.2789" style="stroke:rgb(0,255,0);stroke-width:0.15;fill:none" />
  <path d="M10.1332,12.2789 L10.1332,12.1969" style="stroke:rgb(0,255,0);stroke-width:0.15;fill:none" />
  <path d="M10.1332,12.1969 L10.0021,12.1969" style="stroke:rgb(0,255,0);stroke-width:0.15;fill:none" />
  <path d="M10.0021,12.1969 L10.0021,12.2789" style="stroke:rgb(0,255,0);stroke-width:0.15;fill:none" />
  <path d="M10.0021,12.2789 L9.93753,12.2789" style="stroke:rgb(0,255,0);stroke-width:0.15;fill:none" />
  <path d="M9.93753,12.2789 L9.93753,12.4019" style="stroke:rgb(0,255,0);stroke-width:0.15;fill:none" />
  <path d="M9.93753,12.4019 L10.0021,12.4019" style="stroke:rgb(0,255,0);stroke-width:0.15;fill:none" />
  <path d="M10.0021,12.4019 L10.0021,12.7851" style="stroke:rgb(0,255,0);stroke-width:0.15;fill:none" />
  <path d="M10.0021,12.7851 L9.86272,12.7851" style="stroke:rgb(0,255,0);stroke-width:0.15;fill:none" />
  <path d="M9.86272,12.7851 L9.86272,13.009" style="stroke:rgb(0,255,0);stroke-width:0.15;fill:none" />
  <path d="M9.86272,13.009 L9.42547,13.009" style="stroke:rgb(0,255,0);stroke-width:0.15;fill:none" />
  <path d="M9.42547,13.009 L9.42476,12.7851" style="stroke:rgb(0,255,0);stroke-width:0.15;fill:none" />
  <path d="M9.42476,12.7851 L6.13536,12.7851" style="stroke:rgb(0,255,0);stroke-width:0.15;fill:none" />
  <path d="M6.13536,12.7851 L6.13466,13.009" style="stroke:rgb(0,255,0);stroke-width:0.15;fill:none" />
  <path d="M6.13466,13.009 L5.69739,13.009" style="stroke:rgb(0,255,0);stroke-width:0.15;fill:none" />
  <path d="M5.69739,13.009 L5.69739,12.7851" style="stroke:rgb(0,255,0);stroke-width:0.15;fill:none" />
  <path d="M5.69739,12.7851 L5.55806,12.7851" style="stroke:rgb(0,255,0);stroke-width:0.15;fill:none" />
  <path d="M5.55806,12.7851 L5.55806,12.4019" style="stroke:rgb(0,255,0);stroke-width:0.15;fill:none" />
  <path d="M5.55806,12.4019 L5.62258,12.4019" style="stroke:rgb(0,255,0);stroke-width:0.15;fill:none" />
  <path d="M5.62258,12.4019 L5.62258,12.2789" style="stroke:rgb(0,255,0);stroke-width:0.15;fill:none" />
  <path d="M5.62258,12.2789 L5.55806,12.2789" style="stroke:rgb(0,255,0);stroke-width:0.15;fill:none" />
  <path d="M5.55806,12.2789 L5.55806,12.1969" style="stroke:rgb(0,255,0);stroke-width:0.15;fill:none" />
  <path d="M5.55806,12.1969 L5.4269,12.1969" style="stroke:rgb(0,255,0);stroke-width:0.15;fill:none" />
  <path d="M5.4269,12.1969 L5.4269,12.2789" style="stroke:rgb(0,255,0);stroke-width:0.15;fill:none" />
  <path d="M5.4269,12.2789 L5.36232,12.2789" style="stroke:rgb(0,255,0);stroke-width:0.15;fill:none" />
  <path d="M5.36232,12.2789 L5.36232,12.4019" style="stroke:rgb(0,255,0);stroke-width:0.15;fill:none" />
  <path d="M5.36232,12.4019 L5.4269,12.4019" style="stroke:rgb(0,255,0);stroke-width:0.15;fill:none" />
  <path d="M5.4269,12.4019 L5.4269,12.7851" style="stroke:rgb(0,255,0);stroke-width:0.15;fill:none" />
  <path d="M5.4269,12.7851 L5.28754,12.7851" style="stroke:rgb(0,255,0);stroke-width:0.15;fill:none" />
  <path d="M5.28754,12.7851 L5.28754,13.0089" style="stroke:rgb(0,255,0);stroke-width:0.15;fill:none" />
  <path d="M5.28754,13.0089 L4.85027,13.0089" style="stroke:rgb(0,255,0);stroke-width:0.15;fill:none" />
  <path d="M4.85027,13.0089 L4.85022,12.7917" style="stroke:rgb(0,255,0);stroke-width:0.15;fill:none" />
  <path d="M4.85022,12.7917 L2.04167,12.7917" style="stroke:rgb(0,255,0);stroke-width:0.15;fill:none" />
  <path d="M6.27642,7.92516 L6.61267,7.92516" style="stroke:rgb(0,0,0);stroke-width:0.15;fill:none" />
  <path d="M6.61267,7.92516 L6.6798,7.85787" style="stroke:rgb(0,0,0);stroke-width:0.15;fill:none" />
  <path d="M6.54536,8.32855 L6.54536,8.12688" style="stroke:rgb(0,0,0);stroke-width:0.15;fill:none" />
  <path d="M6.54536,8.12688 L6.47806,8.05962" style="stroke:rgb(0,0,0);stroke-width:0.15;fill:none" />
  <path d="M6.47806,8.05962 L6.41088,8.12688" style="stroke:rgb(0,0,0);stroke-width:0.15;fill:none" />
  <path d="M6.41088,8.12688 L6.41088,8.26134" style="stroke:rgb(0,0,0);stroke-width:0.15;fill:none" />
  <path d="M6.41088,8.26134 L6.47806,8.32855" style="stroke:rgb(0,0,0);stroke-width:0.15;fill:none" />
  <path d="M6.47806,8.32855 L6.61265,8.32855" style="stroke:rgb(0,0,0);stroke-width:0.15;fill:none" />
  <path d="M6.61265,8.32855 L6.67982,8.26134" style="stroke:rgb(0,0,0);stroke-width:0.15;fill:none" />
  <path d="M6.67982,8.26134 L6.67982,8.12688" style="stroke:rgb(0,0,0);stroke-width:0.15;fill:none" />
  <path d="M6.54536,8.73195 L6.41088,8.5975" style="stroke:rgb(0,0,0);stroke-width:0.15;fill:none" />
  <path d="M6.41088,8.5975 L6.41088,8.53025" style="stroke:rgb(0,0,0);stroke-width:0.15;fill:none" />
  <path d="M6.41088,8.53025 L6.47806,8.46302" style="stroke:rgb(0,0,0);stroke-width:0.15;fill:none" />
  <path d="M6.47806,8.46302 L6.67982,8.46302" style="stroke:rgb(0,0,0);stroke-width:0.15;fill:none" />
  <path d="M6.67982,8.73195 L6.41088,8.73195" style="stroke:rgb(0,0,0);stroke-width:0.15;fill:none" />
  <path d="M6.61265,8.93365 L6.67982,8.86643" style="stroke:rgb(0,0,0);stroke-width:0.15;fill:none" />
  <path d="M6.67982,9.00088 L6.67982,9.06812" style="stroke:rgb(0,0,0);stroke-width:0.15;fill:none" />
  <path d="M6.67982,9.06812 L6.61265,9.13535" style="stroke:rgb(0,0,0);stroke-width:0.15;fill:none" />
  <path d="M6.61265,9.13535 L6.47806,9.13535" style="stroke:rgb(0,0,0);stroke-width:0.15;fill:none" />
  <path d="M6.47806,9.13535 L6.41088,9.06812" style="stroke:rgb(0,0,0);stroke-width:0.15;fill:none" />
  <path d="M6.41088,9.06812 L6.41088,9.00088" style="stroke:rgb(0,0,0);stroke-width:0.15;fill:none" />
  <path d="M6.41088,9.00088 L6.47806,8.93365" style="stroke:rgb(0,0,0);stroke-width:0.15;fill:none" />
  <path d="M6.47806,8.93365 L6.61265,8.93365" style="stroke:rgb(0,0,0);stroke-width:0.15;fill:none" />
  <path d="M6.61265,8.93365 L6.67982,9.00088" style="stroke:rgb(0,0,0);stroke-width:0.15;fill:none" />
  <path d="M6.47806,9.50516 L6.41088,9.43795" style="stroke:rgb(0,0,0);stroke-width:0.15;fill:none" />
  <path d="M6.41088,9.43795 L6.41088,9.30347" style="stroke:rgb(0,0,0);stroke-width:0.15;fill:none" />
  <path d="M6.41088,9.30347 L6.47806,9.23623" style="stroke:rgb(0,0,0);stroke-width:0.15;fill:none" />
  <path d="M6.47806,9.23623 L6.61267,9.23623" style="stroke:rgb(0,0,0);stroke-width:0.15;fill:none" />
  <path d="M6.61267,9.23623 L6.6798,9.30347" style="stroke:rgb(0,0,0);stroke-width:0.15;fill:none" />
  <path d="M6.6798,9.30347 L6.6798,9.50516" style="stroke:rgb(0,0,0);stroke-width:0.15;fill:none" />
  <path d="M6.81429,9.50516 L6.4109,9.50516" style="stroke:rgb(0,0,0);stroke-width:0.15;fill:none" />
  <path d="M5.6376,5.87446 L5.97385,5.87446" style="stroke:rgb(0,0,0);stroke-width:0.15;fill:none" />
  <path d="M5.97385,5.87446 L6.04114,5.80724" style="stroke:rgb(0,0,0);stroke-width:0.15;fill:none" />
  <path d="M6.04114,5.80724 L5.97385,5.74" style="stroke:rgb(0,0,0);stroke-width:0.15;fill:none" />
  <path d="M5.77222,6.00894 L5.77222,5.74" style="stroke:rgb(0,0,0);stroke-width:0.15;fill:none" />
  <path d="M5.90668,6.37874 L5.77222,6.27788" style="stroke:rgb(0,0,0);stroke-width:0.15;fill:none" />
  <path d="M5.77222,6.27788 L5.77222,6.21062" style="stroke:rgb(0,0,0);stroke-width:0.15;fill:none" />
  <path d="M5.77222,6.21062 L5.83938,6.1434" style="stroke:rgb(0,0,0);stroke-width:0.15;fill:none" />
  <path d="M5.83938,6.1434 L6.04114,6.1434" style="stroke:rgb(0,0,0);stroke-width:0.15;fill:none" />
  <path d="M6.04114,6.37874 L5.77222,6.37874" style="stroke:rgb(0,0,0);stroke-width:0.15;fill:none" />
  <path d="M5.90668,6.78215 L5.90668,6.58045" style="stroke:rgb(0,0,0);stroke-width:0.15;fill:none" />
  <path d="M5.90668,6.58045 L5.83938,6.51321" style="stroke:rgb(0,0,0);stroke-width:0.15;fill:none" />
  <path d="M5.83938,6.51321 L5.77222,6.58045" style="stroke:rgb(0,0,0);stroke-width:0.15;fill:none" />
  <path d="M5.77222,6.58045 L5.77222,6.7149" style="stroke:rgb(0,0,0);stroke-width:0.15;fill:none" />
  <path d="M5.77222,6.7149 L5.83938,6.78215" style="stroke:rgb(0,0,0);stroke-width:0.15;fill:none" />
  <path d="M5.83938,6.78215 L5.97385,6.78215" style="stroke:rgb(0,0,0);stroke-width:0.15;fill:none" />
  <path d="M5.97385,6.78215 L6.04114,6.7149" style="stroke:rgb(0,0,0);stroke-width:0.15;fill:none" />
  <path d="M6.04114,6.7149 L6.04114,6.58045" style="stroke:rgb(0,0,0);stroke-width:0.15;fill:none" />
  <path d="M5.83938,7.05107 L5.7722,6.98385" style="stroke:rgb(0,0,0);stroke-width:0.15;fill:none" />
  <path d="M5.7722,6.98385 L5.83938,6.9166" style="stroke:rgb(0,0,0);stroke-width:0.15;fill:none" />
  <path d="M5.83938,6.9166 L6.04114,6.9166" style="stroke:rgb(0,0,0);stroke-width:0.15;fill:none" />
  <path d="M5.83938,7.18553 L5.7722,7.11832" style="stroke:rgb(0,0,0);stroke-width:0.15;fill:none" />
  <path d="M5.7722,7.11832 L5.83938,7.05107" style="stroke:rgb(0,0,0);stroke-width:0.15;fill:none" />
  <path d="M5.83938,7.05107 L5.90668,7.05107" style="stroke:rgb(0,0,0);stroke-width:0.15;fill:none" />
  <path d="M6.04114,7.18553 L5.77222,7.18553" style="stroke:rgb(0,0,0);stroke-width:0.15;fill:none" />
  <path d="M5.90668,7.58895 L5.90668,7.38723" style="stroke:rgb(0,0,0);stroke-width:0.15;fill:none" />
  <path d="M5.90668,7.38723 L5.83938,7.32" style="stroke:rgb(0,0,0);stroke-width:0.15;fill:none" />
  <path d="M5.83938,7.32 L5.77222,7.38723" style="stroke:rgb(0,0,0);stroke-width:0.15;fill:none" />
  <path d="M5.77222,7.38723 L5.77222,7.52171" style="stroke:rgb(0,0,0);stroke-width:0.15;fill:none" />
  <path d="M5.77222,7.52171 L5.83938,7.58895" style="stroke:rgb(0,0,0);stroke-width:0.15;fill:none" />
  <path d="M5.83938,7.58895 L5.97385,7.58895" style="stroke:rgb(0,0,0);stroke-width:0.15;fill:none" />
  <path d="M5.97385,7.58895 L6.04114,7.52171" style="stroke:rgb(0,0,0);stroke-width:0.15;fill:none" />
  <path d="M6.04114,7.52171 L6.04114,7.38723" style="stroke:rgb(0,0,0);stroke-width:0.15;fill:none" />
  <path d="M5.77222,7.72339 L5.77222,7.89152" style="stroke:rgb(0,0,0);stroke-width:0.15;fill:none" />
  <path d="M5.77222,7.89152 L5.83938,7.95875" style="stroke:rgb(0,0,0);stroke-width:0.15;fill:none" />
  <path d="M5.83938,7.95875 L5.97383,7.95875" style="stroke:rgb(0,0,0);stroke-width:0.15;fill:none" />
  <path d="M5.97383,7.95875 L6.04114,7.89152" style="stroke:rgb(0,0,0);stroke-width:0.15;fill:none" />
  <path d="M6.04114,7.89152 L6.04114,7.72339" style="stroke:rgb(0,0,0);stroke-width:0.15;fill:none" />
  <path d="M5.90668,8.36214 L5.77222,8.22767" style="stroke:rgb(0,0,0);stroke-width:0.15;fill:none" />
  <path d="M5.77222,8.22767 L5.77222,8.16044" style="stroke:rgb(0,0,0);stroke-width:0.15;fill:none" />
  <path d="M5.77222,8.16044 L5.83938,8.09321" style="stroke:rgb(0,0,0);stroke-width:0.15;fill:none" />
  <path d="M6.04114,8.36214 L5.77222,8.36214" style="stroke:rgb(0,0,0);stroke-width:0.15;fill:none" />
  <path d="M6.04114,8.56384 L6.04114,8.6983" style="stroke:rgb(0,0,0);stroke-width:0.15;fill:none" />
  <path d="M6.04114,8.6983 L5.97385,8.76561" style="stroke:rgb(0,0,0);stroke-width:0.15;fill:none" />
  <path d="M5.97385,8.76561 L5.83938,8.76561" style="stroke:rgb(0,0,0);stroke-width:0.15;fill:none" />
  <path d="M5.83938,8.76561 L5.77222,8.6983" style="stroke:rgb(0,0,0);stroke-width:0.15;fill:none" />
  <path d="M5.77222,8.6983 L5.77222,8.56384" style="stroke:rgb(0,0,0);stroke-width:0.15;fill:none" />
  <path d="M5.77222,8.56384 L5.83938,8.49666" style="stroke:rgb(0,0,0);stroke-width:0.15;fill:none" />
  <path d="M5.83938,8.49666 L5.97385,8.49666" style="stroke:rgb(0,0,0);stroke-width:0.15;fill:none" />
  <path d="M5.97385,8.49666 L6.04114,8.56384" style="stroke:rgb(0,0,0);stroke-width:0.15;fill:none" />
  <path d="M5.70491,8.90007 L5.63761,8.96725" style="stroke:rgb(0,0,0);stroke-width:0.15;fill:none" />
  <path d="M5.63761,8.96725 L5.63761,9.03453" style="stroke:rgb(0,0,0);stroke-width:0.15;fill:none" />
  <path d="M5.63761,9.03453 L5.70491,9.10176" style="stroke:rgb(0,0,0);stroke-width:0.15;fill:none" />
  <path d="M5.70491,9.10176 L6.04114,9.10176" style="stroke:rgb(0,0,0);stroke-width:0.15;fill:none" />
  <path d="M5.83938,9.169 L5.83938,8.96723" style="stroke:rgb(0,0,0);stroke-width:0.15;fill:none" />
  <path d="M5.90668,9.53874 L5.77222,9.40427" style="stroke:rgb(0,0,0);stroke-width:0.15;fill:none" />
  <path d="M5.77222,9.40427 L5.77222,9.33712" style="stroke:rgb(0,0,0);stroke-width:0.15;fill:none" />
  <path d="M5.77222,9.33712 L5.83938,9.26981" style="stroke:rgb(0,0,0);stroke-width:0.15;fill:none" />
  <path d="M5.83938,9.26981 L6.04114,9.26981" style="stroke:rgb(0,0,0);stroke-width:0.15;fill:none" />
  <path d="M6.04114,9.53874 L5.77222,9.53874" style="stroke:rgb(0,0,0);stroke-width:0.15;fill:none" />
  <path d="M5.70491,9.6732 L5.63761,9.6732" style="stroke:rgb(0,0,0);stroke-width:0.15;fill:none" />
  <path d="M6.04114,9.6732 L5.77222,9.6732" style="stroke:rgb(0,0,0);stroke-width:0.15;fill:none" />
  <path d="M5.90668,10.0767 L5.90668,9.87498" style="stroke:rgb(0,0,0);stroke-width:0.15;fill:none" />
  <path d="M5.90668,9.87498 L5.83938,9.80768" style="stroke:rgb(0,0,0);stroke-width:0.15;fill:none" />
  <path d="M5.83938,9.80768 L5.77222,9.87498" style="stroke:rgb(0,0,0);stroke-width:0.15;fill:none" />
  <path d="M5.77222,9.87498 L5.77222,10.0095" style="stroke:rgb(0,0,0);stroke-width:0.15;fill:none" />
  <path d="M5.77222,10.0095 L5.83938,10.0767" style="stroke:rgb(0,0,0);stroke-width:0.15;fill:none" />
  <path d="M5.83938,10.0767 L5.97385,10.0767" style="stroke:rgb(0,0,0);stroke-width:0.15;fill:none" />
  <path d="M5.97385,10.0767 L6.04114,10.0095" style="stroke:rgb(0,0,0);stroke-width:0.15;fill:none" />
  <path d="M6.04114,10.0095 L6.04114,9.87498" style="stroke:rgb(0,0,0);stroke-width:0.15;fill:none" />
  <path d="M5.90668,10.4801 L5.77222,10.3456" style="stroke:rgb(0,0,0);stroke-width:0.15;fill:none" />
  <path d="M5.77222,10.3456 L5.77222,10.2784" style="stroke:rgb(0,0,0);stroke-width:0.15;fill:none" />
  <path d="M5.77222,10.2784 L5.83938,10.2111" style="stroke:rgb(0,0,0);stroke-width:0.15;fill:none" />
  <path d="M6.04114,10.4801 L5.77222,10.4801" style="stroke:rgb(0,0,0);stroke-width:0.15;fill:none" />
  <path d="M5.23422,5.74 L5.09974,5.60554" style="stroke:rgb(0,0,0);stroke-width:0.15;fill:none" />
  <path d="M5.36868,5.74 L5.09974,5.74" style="stroke:rgb(0,0,0);stroke-width:0.15;fill:none" />
  <path d="M5.36868,5.9417 L5.36868,6.07616" style="stroke:rgb(0,0,0);stroke-width:0.15;fill:none" />
  <path d="M5.36868,6.07616 L5.30151,6.1434" style="stroke:rgb(0,0,0);stroke-width:0.15;fill:none" />
  <path d="M5.30151,6.1434 L5.16706,6.1434" style="stroke:rgb(0,0,0);stroke-width:0.15;fill:none" />
  <path d="M5.16706,6.1434 L5.09974,6.07616" style="stroke:rgb(0,0,0);stroke-width:0.15;fill:none" />
  <path d="M5.09974,6.07616 L5.09974,5.9417" style="stroke:rgb(0,0,0);stroke-width:0.15;fill:none" />
  <path d="M5.09974,5.9417 L5.16706,5.87448" style="stroke:rgb(0,0,0);stroke-width:0.15;fill:none" />
  <path d="M5.16706,5.87448 L5.30151,5.87448" style="stroke:rgb(0,0,0);stroke-width:0.15;fill:none" />
  <path d="M5.30151,5.87448 L5.36868,5.9417" style="stroke:rgb(0,0,0);stroke-width:0.15;fill:none" />
  <path d="M5.03257,6.27788 L4.96529,6.27788" style="stroke:rgb(0,0,0);stroke-width:0.15;fill:none" />
  <path d="M5.36868,6.27788 L5.09974,6.27788" style="stroke:rgb(0,0,0);stroke-width:0.15;fill:none" />
  <path d="M5.23422,6.64768 L5.09974,6.51321" style="stroke:rgb(0,0,0);stroke-width:0.15;fill:none" />
  <path d="M5.09974,6.51321 L5.09974,6.44599" style="stroke:rgb(0,0,0);stroke-width:0.15;fill:none" />
  <path d="M5.09974,6.44599 L5.16706,6.37874" style="stroke:rgb(0,0,0);stroke-width:0.15;fill:none" />
  <path d="M5.36868,6.64768 L5.09974,6.64768" style="stroke:rgb(0,0,0);stroke-width:0.15;fill:none" />
  <path d="M5.23422,7.05107 L5.23422,6.84937" style="stroke:rgb(0,0,0);stroke-width:0.15;fill:none" />
  <path d="M5.23422,6.84937 L5.16706,6.78214" style="stroke:rgb(0,0,0);stroke-width:0.15;fill:none" />
  <path d="M5.16706,6.78214 L5.09974,6.84937" style="stroke:rgb(0,0,0);stroke-width:0.15;fill:none" />
  <path d="M5.09974,6.84937 L5.09974,6.98385" style="stroke:rgb(0,0,0);stroke-width:0.15;fill:none" />
  <path d="M5.09974,6.98385 L5.16706,7.05107" style="stroke:rgb(0,0,0);stroke-width:0.15;fill:none" />
  <path d="M5.16706,7.05107 L5.30151,7.05107" style="stroke:rgb(0,0,0);stroke-width:0.15;fill:none" />
  <path d="M5.30151,7.05107 L5.36869,6.98385" style="stroke:rgb(0,0,0);stroke-width:0.15;fill:none" />
  <path d="M5.36869,6.98385 L5.36869,6.84937" style="stroke:rgb(0,0,0);stroke-width:0.15;fill:none" />
  <path d="M4.96528,7.32 L5.30151,7.32" style="stroke:rgb(0,0,0);stroke-width:0.15;fill:none" />
  <path d="M5.30151,7.32 L5.36868,7.25278" style="stroke:rgb(0,0,0);stroke-width:0.15;fill:none" />
  <path d="M5.36868,7.25278 L5.30151,7.18553" style="stroke:rgb(0,0,0);stroke-width:0.15;fill:none" />
  <path d="M5.09974,7.45448 L5.09974,7.18553" style="stroke:rgb(0,0,0);stroke-width:0.15;fill:none" />
  <path d="M5.23422,7.82428 L5.09974,7.72338" style="stroke:rgb(0,0,0);stroke-width:0.15;fill:none" />
  <path d="M5.09974,7.72338 L5.09974,7.65623" style="stroke:rgb(0,0,0);stroke-width:0.15;fill:none" />
  <path d="M5.09974,7.65623 L5.16706,7.58895" style="stroke:rgb(0,0,0);stroke-width:0.15;fill:none" />
  <path d="M5.16706,7.58895 L5.36869,7.58895" style="stroke:rgb(0,0,0);stroke-width:0.15;fill:none" />
  <path d="M5.36868,7.82428 L5.09974,7.82428" style="stroke:rgb(0,0,0);stroke-width:0.15;fill:none" />
  <path d="M5.03257,7.95875 L4.96529,7.95875" style="stroke:rgb(0,0,0);stroke-width:0.15;fill:none" />
  <path d="M5.36868,7.95875 L5.09974,7.95875" style="stroke:rgb(0,0,0);stroke-width:0.15;fill:none" />
  <path d="M4.96528,8.63114 L5.30151,8.63114" style="stroke:rgb(0,0,0);stroke-width:0.15;fill:none" />
  <path d="M5.30151,8.63114 L5.36868,8.56386" style="stroke:rgb(0,0,0);stroke-width:0.15;fill:none" />
  <path d="M5.36868,8.56386 L5.30151,8.49667" style="stroke:rgb(0,0,0);stroke-width:0.15;fill:none" />
  <path d="M5.09974,8.7656 L5.09974,8.49667" style="stroke:rgb(0,0,0);stroke-width:0.15;fill:none" />
  <path d="M5.23422,9.169 L5.09974,9.03453" style="stroke:rgb(0,0,0);stroke-width:0.15;fill:none" />
  <path d="M5.09974,9.03453 L5.09974,8.96723" style="stroke:rgb(0,0,0);stroke-width:0.15;fill:none" />
  <path d="M5.09974,8.96723 L5.16706,8.90006" style="stroke:rgb(0,0,0);stroke-width:0.15;fill:none" />
  <path d="M5.36868,9.169 L5.09974,9.169" style="stroke:rgb(0,0,0);stroke-width:0.15;fill:none" />
  <path d="M5.30151,9.33711 L5.36869,9.26981" style="stroke:rgb(0,0,0);stroke-width:0.15;fill:none" />
  <path d="M5.36868,9.40427 L5.36868,9.47158" style="stroke:rgb(0,0,0);stroke-width:0.15;fill:none" />
  <path d="M5.36868,9.47158 L5.30151,9.53874" style="stroke:rgb(0,0,0);stroke-width:0.15;fill:none" />
  <path d="M5.30151,9.53874 L5.16706,9.53874" style="stroke:rgb(0,0,0);stroke-width:0.15;fill:none" />
  <path d="M5.16706,9.53874 L5.09974,9.47158" style="stroke:rgb(0,0,0);stroke-width:0.15;fill:none" />
  <path d="M5.09974,9.47158 L5.09974,9.40427" style="stroke:rgb(0,0,0);stroke-width:0.15;fill:none" />
  <path d="M5.09974,9.40427 L5.16706,9.33711" style="stroke:rgb(0,0,0);stroke-width:0.15;fill:none" />
  <path d="M5.16706,9.33711 L5.30151,9.33711" style="stroke:rgb(0,0,0);stroke-width:0.15;fill:none" />
  <path d="M5.30151,9.33711 L5.36868,9.40427" style="stroke:rgb(0,0,0);stroke-width:0.15;fill:none" />
  <path d="M5.09974,9.6732 L5.09974,9.87497" style="stroke:rgb(0,0,0);stroke-width:0.15;fill:none" />
  <path d="M5.09974,9.87497 L5.16706,9.94221" style="stroke:rgb(0,0,0);stroke-width:0.15;fill:none" />
  <path d="M5.16706,9.94221 L5.30151,9.94221" style="stroke:rgb(0,0,0);stroke-width:0.15;fill:none" />
  <path d="M5.30151,9.94221 L5.36869,9.87497" style="stroke:rgb(0,0,0);stroke-width:0.15;fill:none" />
  <path d="M5.36869,9.87497 L5.36869,9.6732" style="stroke:rgb(0,0,0);stroke-width:0.15;fill:none" />
  <path d="M5.16706,10.3456 L5.16706,10.0767" style="stroke:rgb(0,0,0);stroke-width:0.15;fill:none" />
  <path d="M4.96528,10.7154 L4.96528,10.4801" style="stroke:rgb(0,0,0);stroke-width:0.15;fill:none" />
  <path d="M4.96528,10.4801 L5.36868,10.7154" style="stroke:rgb(0,0,0);stroke-width:0.15;fill:none" />
  <path d="M5.36868,10.7154 L5.36868,10.4801" style="stroke:rgb(0,0,0);stroke-width:0.15;fill:none" />
</svg>
